<svg xmlns="http://www.w3.org/2000/svg" viewBox="0 0 177.3 46.8"><defs><style>.cls-1{fill:#fff;}.cls-2,.cls-3,.cls-4{isolation:isolate;}.cls-3{font-size:15px;}.cls-3,.cls-4{fill:#153457;font-family:GTWalsheim-Regular, GT Walsheim;}.cls-4{font-size:22px;}.cls-5{letter-spacing:-0.02em;}.cls-6{letter-spacing:-0.01em;}.cls-7{letter-spacing:0em;}.cls-8{letter-spacing:-0.01em;}.cls-9{fill:#666766;}</style></defs><title>Fichier 1</title><g id="Calque_2" data-name="Calque 2"><g id="Layer_1" data-name="Layer 1"><path class="cls-1" d="M177.2,38.8a8,8,0,0,1-8,8H8a8,8,0,0,1-8-8V8A8,8,0,0,1,8,0H169.3a8,8,0,0,1,8,8V38.8Z"/><g class="cls-2"><text class="cls-3" transform="translate(62.7 15.39)">Disponible sur</text><text class="cls-4" transform="translate(63 36.39)">App <tspan class="cls-5" x="44.55" y="0">s</tspan><tspan class="cls-6" x="54.1" y="0">t</tspan><tspan class="cls-7" x="61.8" y="0">o</tspan><tspan class="cls-8" x="74.03" y="0">r</tspan><tspan x="81.66" y="0">e</tspan></text></g><g id="f9hyA2.tif"><path class="cls-9" d="M46.6,16.8a7.78,7.78,0,0,0,.9,13.8.37.37,0,0,1-.1.3A23.07,23.07,0,0,1,43,38.3a4.57,4.57,0,0,1-5.6,1.1,19.45,19.45,0,0,0-2.2-.8,6.19,6.19,0,0,0-3.8.4,18,18,0,0,1-2.1.8,3.7,3.7,0,0,1-3.6-.8,13.89,13.89,0,0,1-3.1-3.7,21.73,21.73,0,0,1-3.3-8.4,14.2,14.2,0,0,1,.3-6.8,8.87,8.87,0,0,1,6-6.3,7.21,7.21,0,0,1,4.8.2c.8.3,1.6.6,2.3.8a2,2,0,0,0,1.5,0c.9-.3,1.8-.7,2.7-1a8.48,8.48,0,0,1,7.7,1.1A6.1,6.1,0,0,1,46.6,16.8Z"/><path class="cls-9" d="M33.2,13c-.5-3.7,2.9-7.8,7-8C40.7,8.9,37.1,13.3,33.2,13Z"/></g></g></g></svg>