<?xml version="1.0" encoding="utf-8"?>
<!-- Generator: Adobe Illustrator 22.1.0, SVG Export Plug-In . SVG Version: 6.00 Build 0)  -->
<svg version="1.1" id="Capa_1" xmlns="http://www.w3.org/2000/svg" xmlns:xlink="http://www.w3.org/1999/xlink" x="0px" y="0px"
	 viewBox="0 0 58 66" style="enable-background:new 0 0 58 66;" xml:space="preserve">
<style type="text/css">
	.st0{fill:#FFDCA9;}
	.st1{fill:#DBAA89;}
	.st2{fill:#232323;}
	.st3{opacity:0.2;fill:#FFFFFF;enable-background:new    ;}
	.st4{opacity:0.2;}
	.st5{fill:#FFFFFF;}
	.st6{fill:none;stroke:#000000;stroke-width:0.24;stroke-miterlimit:10;}
	.st7{fill:#D67241;}
	.st8{fill:none;stroke:#7F4D40;stroke-width:0.43;stroke-miterlimit:10;}
	.st9{fill:#163457;}
</style>
<title>avatar-woman</title>
<path class="st0" d="M23.7,27.4c0,0,2.9,16.2,1,22.1l7.6-2c-1.1-6.6-1.3-13.4-0.6-20.1c1.2-9.6-2.6-9.7-2.6-9.7L23.7,27.4z"/>
<path class="st1" d="M25.4,43.9c4.7-2.5,4-9.2,4-9.2l-4.2,4.2C25.3,40.6,25.4,42.3,25.4,43.9z"/>
<path class="st2" d="M26.5,7.5c0,0,1.9-6.5,6.4-7.3s9,0.8,10.6,9.1s3.6,8,3.6,8s-3.7-1.1-4.4-2.7s2,3.1,2,3.1l-6.2-1.7L26.5,7.5z"/>
<path class="st2" d="M31.9,6.2c-7-5.7-17.8,1.2-17.8,1.2s-4.1,4.5-2.5,9.9c0.2,0.7,0.5,1.4,1,2c0.3,7.1,6.1,12.8,13.2,13
	c7.3,0,13.2-6.2,13.2-13.8C39.1,13.4,36.4,8.7,31.9,6.2z"/>
<path class="st0" d="M24.8,33.6h-2.2c-5.9,0-10.7-4.8-10.7-10.7v-3.5c0-5.9,4.8-10.7,10.7-10.7h2.2c5.9,0,10.6,4.8,10.7,10.7v3.5
	c0,2.8-2.7,3.6-4.6,5.5C29.1,30.3,27.8,33.6,24.8,33.6z"/>
<path class="st0" d="M12.8,24.2c-1.3,3.9-1.1,8.2,0.5,12c2.8,6,3.5,7.8,6.2,7.3s9-2.1,10.6-8.8l1.6-6.6l-2.3-9.6L12.8,24.2z"/>
<path class="st2" d="M11.7,16.4c0,0-0.3-3.4,4.9-3.1s11.3,0.3,14.8-3.3S19.9,6.5,19.9,6.5S11.7,7.9,11.7,16.4z"/>
<path class="st2" d="M21.7,10c0,0,7.2,1.8,7.2,4.6s-2.5,5.6,1.4,8.8c1.6,1.4,1.5,4.1,1.5,4.1s2.7-0.7,4-4.7c0.2-1.3,0.3-2.7,0.3-4
	c0.2-2.1-0.7-5.8-1.4-7.6c-0.9-2.2-2.3-4.1-4-5.7L21.7,10z"/>
<ellipse transform="matrix(0.5 -0.866 0.866 0.5 -5.4203 40.99)" class="st0" cx="32.8" cy="25.2" rx="3.7" ry="2.6"/>
<path class="st3" d="M17.1,6c3.7-0.8,8.4-1.5,11-0.5c4.5,1.8,8.9,6.1,9.7,10.7c0.5,3.2-0.4,7.8-1.5,11c1.9-2.5,2.9-5.5,2.9-8.7
	c0-5.1-2.7-9.8-7.2-12.3C27.2,2.4,20.7,4.3,17.1,6z"/>
<g class="st4">
	<path class="st5" d="M31,10.1c-0.1,0.4-0.2,0.7-0.4,1c-0.2,0.3-0.4,0.6-0.7,0.9c-0.2,0.3-0.5,0.6-0.8,0.8c-0.3,0.3-0.6,0.5-0.9,0.8
		l-0.8-1.4c0.3-0.1,0.6-0.2,1-0.4c0.3-0.1,0.6-0.3,0.9-0.5c0.3-0.2,0.6-0.4,0.9-0.6C30.6,10.7,30.8,10.4,31,10.1z"/>
</g>
<g class="st4">
	<path class="st5" d="M31.5,11.8c-0.1,0.3-0.2,0.6-0.4,0.9c-0.2,0.3-0.3,0.5-0.5,0.8c-0.4,0.5-0.8,0.9-1.3,1.3l-0.6-1
		c0.5-0.2,1-0.4,1.5-0.7c0.2-0.1,0.5-0.3,0.7-0.5C31.1,12.3,31.3,12.1,31.5,11.8L31.5,11.8z"/>
</g>
<g class="st4">
	<path class="st5" d="M32.1,14.6c-0.2,0.3-0.4,0.5-0.6,0.7c-0.2,0.2-0.5,0.4-0.8,0.5c-0.6,0.3-1.1,0.5-1.7,0.7l-0.2-1.2
		c0.6,0,1.1,0,1.7-0.1c0.3,0,0.6-0.1,0.8-0.2C31.6,14.9,31.8,14.8,32.1,14.6L32.1,14.6z"/>
</g>
<g class="st4">
	<path class="st5" d="M47.1,17.2L46.6,17C46.7,17.1,46.9,17.2,47.1,17.2z"/>
	<path class="st5" d="M43.5,9.3C41.9,1,37.4-0.6,32.9,0.2c-0.9,0.2-1.7,0.5-2.4,1c1.9-0.3,5.1-0.7,6.8,0.3c1.5,0.9,2.8,2,3.8,3.3
		L38.1,4c1.7,0.5,3,1.8,3.7,3.4c0.9,2.2,1.2,6.4,3.2,8.9c0.5,0.2,1.1,0.5,1.6,0.6C45.9,16.6,44.6,15,43.5,9.3z"/>
</g>
<path d="M19.7,20.3c1.3-0.3,2.6-0.6,3.9-0.6c0.7,0,1.3,0,2,0.1c0.7,0.1,1.3,0.4,1.8,1l-0.2,0.1c-0.4-0.4-1-0.7-1.6-0.7
	c-0.6,0-1.3,0-1.9,0.1c-1.2,0.2-2.5,0.5-3.7,1L19.7,20.3z"/>
<path d="M15.7,20.8c-0.6-0.3-1.2-0.6-1.9-0.7c-0.3,0-0.6,0-0.9,0.1c-0.3,0.1-0.5,0.2-0.8,0.4L11.6,20c0.4-0.2,0.8-0.4,1.2-0.4
	c0.4,0,0.8,0,1.2,0.1c0.7,0.2,1.4,0.5,1.9,1L15.7,20.8z"/>
<circle cx="24.3" cy="23.4" r="0.7"/>
<circle cx="15.1" cy="23.4" r="0.7"/>
<path class="st1" d="M18.4,29.8L15.6,29c0,0,0.1,1.5,2.3,1.5S18.4,29.8,18.4,29.8z"/>
<path class="st6" d="M17.7,23.4c0,0,0.2,3.3-1.8,5.1c-0.3,0.3-0.3,0.8-0.1,1.1c0,0,0,0,0,0c0.3,0.4,0.7,0.7,1.2,0.7"/>
<path class="st5" d="M17.2,33.6l0.3,2c0,0,3.8,1.4,5.2-2L17.2,33.6z"/>
<path class="st7" d="M16.7,33.2c2-0.1,4,0,5.9,0.3C22.6,33.6,15.7,34.8,16.7,33.2z"/>
<path class="st1" d="M18.2,37c0.8,0.1,1.7,0,2.5-0.3c0,0-1.9,1.7-2.8,0.7C16.9,36.4,18.2,37,18.2,37z"/>
<path class="st0" d="M21.8,53.3c6,1.2,18.1-2,16.7-7.8c-4.3-1.8-8.1-3.1-8.1-3.1l-4.6,2.4l-6,2C18.7,49.1,17.9,52.5,21.8,53.3z"/>
<path class="st8" d="M35,43.9c0,0-3.5,5.3-6.9,6.7"/>
<path class="st8" d="M23.2,45.6c0,0-1.1,2.5,2.8,5"/>
<circle class="st8" cx="26.9" cy="50.6" r="0.9"/>
<path class="st9" d="M49.4,54.2L49.4,54.2c0-0.1,0-0.2-0.1-0.4c0-0.1,0-0.1,0-0.2l0,0c-0.6-2.2-2.1-4-4.1-5.1
	c-2.1-1.1-4.5-2.2-6.7-3.1c1.4,5.9-10.7,9-16.7,7.8c-3.9-0.8-3.1-4.2-2-6.5l-7,2.3c-1.9,1.1-3.2,3-3.5,5.2l0,0c0,0,0,0.1,0,0.2
	c0,0.2,0,0.3-0.1,0.5c0,0.1,0,0.2,0,0.3c-0.1,2-0.4,4.6-0.5,5.8c6.8,3.3,14.3,5,21.8,5c6.2,0,12.4-1.1,18.2-3.4l1.1-0.6
	C50.2,59.6,50,56.6,49.4,54.2z"/>
</svg>
