<?xml version="1.0" encoding="UTF-8"?>
<svg width="21px" height="21px" viewBox="0 0 21 21" version="1.1" xmlns="http://www.w3.org/2000/svg" xmlns:xlink="http://www.w3.org/1999/xlink">
    <!-- Generator: Sketch 53.2 (72643) - https://sketchapp.com -->
    <title>Group</title>
    <desc>Created with Sketch.</desc>
    <g id="Symbols" stroke="none" stroke-width="1" fill="none" fill-rule="evenodd">
        <g id="business" transform="translate(-3.000000, -3.000000)" fill-rule="nonzero">
            <g id="icon">
                <g>
                    <g id="Group" transform="translate(3.565863, 3.733942)">
                        <path d="M2.44151458,19.5321166 L17.090602,19.5321166 C18.4390133,19.5321166 19.5321166,18.4390133 19.5321166,17.090602 L19.5321166,6.51070554 C19.5321166,5.16229427 18.4390133,4.06919096 17.090602,4.06919096 L13.8352493,4.06919096 L13.8352493,2.44151458 C13.8352493,1.09310331 12.742146,9.035419e-17 11.3937347,0 L8.13838193,0 C6.78997066,-9.035419e-17 5.69686735,1.09310331 5.69686735,2.44151458 L5.69686735,4.06919096 L2.44151458,4.06919096 C1.09310331,4.06919096 9.66518829e-13,5.16229427 9.66338121e-13,6.51070554 L9.66338121e-13,17.090602 C9.66518829e-13,18.4390133 1.09310331,19.5321166 2.44151458,19.5321166 Z M7.32454373,2.44151458 C7.32454373,1.99204416 7.6889115,1.62767639 8.13838193,1.62767639 L11.3937347,1.62767639 C11.8432051,1.62767639 12.2075729,1.99204416 12.2075729,2.44151458 L12.2075729,4.06919096 L7.32454373,4.06919096 L7.32454373,2.44151458 Z M2.44151458,5.69686735 L17.090602,5.69686735 C17.5400725,5.69686735 17.9044402,6.06123512 17.9044402,6.51070554 L17.9044402,16.7524805 C17.9044402,17.3047652 17.456725,17.7524805 16.9044402,17.7524805 L2.62767639,17.7524805 C2.07539164,17.7524805 1.62767639,17.3047652 1.62767639,16.7524805 L1.62767639,6.51070554 C1.62767639,6.06123512 1.99204416,5.69686735 2.44151458,5.69686735 Z" id="Shape" fill="#153457"></path>
                        <polygon id="Rectangle-5" fill="#163457" transform="translate(4.304010, 10.267345) scale(-1, 1) translate(-4.304010, -10.267345) " points="1.1738831 9.99307634 7.434137 9.99307634 7.434137 10.5416139 1.1738831 10.5416139"></polygon>
                        <polygon id="Rectangle-5" fill="#163457" transform="translate(14.808283, 10.267345) scale(-1, 1) translate(-14.808283, -10.267345) " points="11.434137 9.99307634 18.182428 9.99307634 18.182428 10.5416139 11.434137 10.5416139"></polygon>
                        <path d="M8.26605831,8.26605831 L11.2660583,8.26605831 C11.8183431,8.26605831 12.2660583,8.71377356 12.2660583,9.26605831 L12.2660583,11.2660583 C12.2660583,11.8183431 11.8183431,12.2660583 11.2660583,12.2660583 L8.26605831,12.2660583 C7.71377356,12.2660583 7.26605831,11.8183431 7.26605831,11.2660583 L7.26605831,9.26605831 C7.26605831,8.71377356 7.71377356,8.26605831 8.26605831,8.26605831 Z M8.76605831,9.76605831 L8.76605831,10.7660583 L10.7660583,10.7660583 L10.7660583,9.76605831 L8.76605831,9.76605831 Z" id="Combined-Shape" fill="#153457"></path>
                    </g>
                </g>
            </g>
        </g>
    </g>
</svg>