<?xml version="1.0" encoding="UTF-8"?>
<svg width="15px" height="15px" viewBox="0 0 15 15" version="1.1" xmlns="http://www.w3.org/2000/svg" xmlns:xlink="http://www.w3.org/1999/xlink" xmlns:sketch="http://www.bohemiancoding.com/sketch/ns">
    <!-- Generator: Sketch 3.4.2 (15855) - http://www.bohemiancoding.com/sketch -->
    <title>calendar</title>
    <desc>Created with Sketch.</desc>
    <defs></defs>
    <g id="Page-1" stroke="none" stroke-width="1" fill="none" fill-rule="evenodd" sketch:type="MSPage">
        <path d="M13.3669373,0.885 L11.8493719,0.885 L11.8493719,0.4475 C11.8493719,0.205125 11.6559907,0.01 11.4157818,0.01 C11.1755728,0.01 10.9821917,0.206 10.9821917,0.4475 L10.9821917,0.885 L4.04474988,0.885 L4.04474988,0.4475 C4.04474988,0.205125 3.85050151,0.01 3.61115977,0.01 C3.37181803,0.01 3.17756966,0.206 3.17756966,0.4475 L3.17756966,0.885 L1.66000427,0.885 C1.06078274,0.88675 0.577763353,1.374125 0.576028993,1.97875 L0.576028993,12.91625 C0.577763353,13.520875 1.06078274,14.00825 1.66000427,14.01 L13.3669373,14.01 C13.9661588,14.00825 14.4491782,13.520875 14.4509125,12.91625 L14.4509125,1.97875 C14.4491782,1.374125 13.9661588,0.88675 13.3669373,0.885 L13.3669373,0.885 Z M5.77911032,8.76 L5.77911032,5.26 L9.24783121,5.26 L9.24783121,8.76 L5.77911032,8.76 L5.77911032,8.76 Z M9.24783121,9.635 L9.24783121,13.135 L5.77911032,13.135 L5.77911032,9.635 L9.24783121,9.635 L9.24783121,9.635 Z M1.44320921,5.26 L4.9119301,5.26 L4.9119301,8.76 L1.44320921,8.76 L1.44320921,5.26 L1.44320921,5.26 Z M10.1150114,5.26 L13.5837323,5.26 L13.5837323,8.76 L10.1150114,8.76 L10.1150114,5.26 L10.1150114,5.26 Z M1.50651337,1.82475 C1.54813802,1.7845 1.60016883,1.76 1.66000427,1.76 L3.17756966,1.76 L3.17756966,2.1975 C3.17756966,2.439 3.37181803,2.635 3.61115977,2.635 C3.85050151,2.635 4.04474988,2.439 4.04474988,2.1975 L4.04474988,1.76 L10.9821917,1.76 L10.9821917,2.1975 C10.9821917,2.439 11.1755728,2.635 11.4157818,2.635 C11.6559907,2.635 11.8493719,2.439 11.8493719,2.1975 L11.8493719,1.76 L13.3669373,1.76 C13.4267727,1.76 13.4788035,1.783625 13.5204282,1.82475 C13.5603185,1.86675 13.5837323,1.91925 13.5837323,1.97875 L13.5837323,4.385 L1.44320921,4.385 L1.44320921,1.97875 C1.44320921,1.918375 1.46662308,1.86675 1.50651337,1.82475 L1.50651337,1.82475 Z M1.50651337,13.071125 C1.46662308,13.029125 1.44234203,12.976625 1.44234203,12.91625 L1.44234203,9.635 L4.91106292,9.635 L4.91106292,13.135 L1.65913709,13.135 C1.59930165,13.135 1.54727084,13.111375 1.50651337,13.071125 L1.50651337,13.071125 Z M13.5204282,13.071125 C13.4788035,13.111375 13.4267727,13.135 13.3669373,13.135 L10.1150114,13.135 L10.1150114,9.635 L13.5837323,9.635 L13.5837323,12.91625 C13.5837323,12.976625 13.5603185,13.029125 13.5204282,13.071125 L13.5204282,13.071125 Z" id="calendar" fill="#FF5757" sketch:type="MSShapeGroup"></path>
    </g>
</svg>