<?xml version="1.0" encoding="utf-8"?>
<!-- Generator: Adobe Illustrator 19.2.0, SVG Export Plug-In . SVG Version: 6.00 Build 0)  -->
<svg version="1.1" id="Calque_1" xmlns="http://www.w3.org/2000/svg" xmlns:xlink="http://www.w3.org/1999/xlink" x="0px" y="0px"
	 viewBox="0 0 194 89" style="enable-background:new 0 0 194 89;" xml:space="preserve">
<style type="text/css">
	.st0{fill:#247FB2;}
</style>
<g>
	<path class="st0" d="M102.5,44.7c0,6.6-1,12.3-2.9,17.1c-1.9,4.9-4.8,8.9-8.7,12.2c-3.9,3-8.8,5.3-14.7,6.9
		c-5.9,1.5-12.9,2.3-21,2.3c-8.3,0-15.5-0.8-21.5-2.3c-6-1.5-10.9-3.8-14.5-6.9c-3.8-3.3-6.5-7.4-8.3-12.2C9.1,57,8.1,51.2,8.1,44.7
		c0-6.4,0.7-12,2.2-16.5c1.5-4.6,3.6-8.2,6.4-10.9c3.9-3.7,9-6.5,15.5-8.3c6.4-1.8,14.1-2.7,23-2.7c8.3,0,15.6,0.8,21.8,2.5
		c6.2,1.6,11.3,4.2,15.3,7.6c3.3,2.7,5.7,6.2,7.3,10.4c1.6,4.2,2.4,9.1,2.4,14.6H54.9v3.5H102.5z M105.4,41.2V7.6h65
		c2.2,0,4.3,0.4,6.2,1.2c1.9,0.8,3.8,2.1,5.5,3.9c1.6,1.6,2.9,3.4,3.8,5.4c0.9,1.9,1.3,4.1,1.3,6.4c0,2.2-0.4,4.3-1.1,6.2
		c-0.8,1.9-1.8,3.7-3.3,5.2c-1.4,1.6-3,2.9-4.9,3.8c-1.9,0.9-3.9,1.4-6.2,1.5H105.4z M177.6,46.3c2,0.9,3.8,2.3,5.4,4.2
		c1.8,1.8,3,3.7,3.9,5.9c0.8,2.2,1.2,4.5,1.2,6.9c0,2.5-0.4,4.7-1.2,6.8c-0.8,2.1-2.1,3.9-3.9,5.5c-1.6,1.8-3.5,3.1-5.4,4
		c-2,0.9-4.1,1.4-6.3,1.7h-65.9V44.7h65.9C173.5,44.8,175.6,45.3,177.6,46.3z"/>
</g>
</svg>
