<?xml version="1.0" encoding="UTF-8"?>
<svg width="20px" height="20px" viewBox="0 0 20 20" version="1.1" xmlns="http://www.w3.org/2000/svg" xmlns:xlink="http://www.w3.org/1999/xlink">
    <!-- Generator: Sketch 53.2 (72643) - https://sketchapp.com -->
    <title>Group</title>
    <desc>Created with Sketch.</desc>
    <g id="Symbols" stroke="none" stroke-width="1" fill="none" fill-rule="evenodd">
        <g id="help" transform="translate(-7.000000, -5.000000)">
            <g id="Group">
                <g transform="translate(8.000000, 6.000000)">
                    <path d="M7.884,10.06 L7.884,9.94 C7.884,9.196 8.028,8.764 8.748,8.284 L9.312,7.912 C9.78,7.6 9.984,7.288 9.984,6.784 C9.984,6.208 9.6,5.848 9.048,5.848 C8.376,5.848 7.884,6.22 7.884,7.096 L5.964,7.096 C5.964,5.572 6.96,4.384 9.108,4.384 C10.764,4.384 11.928,5.2 11.928,6.7 C11.928,7.744 11.364,8.332 10.74,8.8 L10.248,9.16 C9.888,9.436 9.78,9.604 9.78,9.916 L9.78,10.06 L7.884,10.06 Z M8.832,13.108 C8.124,13.108 7.584,12.544 7.584,11.872 C7.584,11.2 8.124,10.648 8.832,10.648 C9.528,10.648 10.08,11.2 10.08,11.872 C10.08,12.544 9.528,13.108 8.832,13.108 Z" id="?" fill="#153457"></path>
                    <circle id="Oval" stroke="#153457" stroke-width="1.5" fill-rule="nonzero" cx="9" cy="9" r="9"></circle>
                </g>
            </g>
        </g>
    </g>
</svg>