<?xml version="1.0" encoding="UTF-8"?>
<svg width="20px" height="20px" viewBox="0 0 20 20" version="1.1" xmlns="http://www.w3.org/2000/svg" xmlns:xlink="http://www.w3.org/1999/xlink">
    <!-- Generator: Sketch 53.2 (72643) - https://sketchapp.com -->
    <title>Group</title>
    <desc>Created with Sketch.</desc>
    <g id="Symbols" stroke="none" stroke-width="1" fill="none" fill-rule="evenodd">
        <g id="connect" transform="translate(-5.000000, -5.000000)" fill-rule="nonzero">
            <g id="Group">
                <g transform="translate(6.000000, 6.000000)">
                    <circle id="Oval" stroke="#153457" stroke-width="1.5" cx="9" cy="9" r="9"></circle>
                    <path d="M9.00004992,12.9986693 C7.92412857,13.0267946 6.88502652,12.6062468 6.13189953,11.8378723 C5.94500976,11.6346888 5.95832853,11.3185745 6.16164902,11.1318106 C6.36496951,10.9450468 6.68129704,10.9583566 6.86818681,11.1615401 C7.43466303,11.719776 8.20480373,12.0224416 9.00004999,11.9993606 C9.79525826,12.0224148 10.565363,11.719751 11.1318132,11.1615401 C11.318703,10.9583566 11.6350305,10.9450468 11.838351,11.1318106 C12.0416715,11.3185745 12.0549902,11.6346888 11.8681005,11.8378723 C11.1150424,12.6063727 10.0759413,13.0268498 9.00004992,12.9986693 Z" id="Path" fill="#153457"></path>
                    <path d="M5,6.99999985 C4.99999992,6.447715 5.447715,6 6,6 C6.552285,5.99999992 7,6.447715 7,7 C7.00000008,7.552285 6.552285,8 6,8 C5.44771504,8.00000011 5.00000004,7.552285 5.00000004,7 Z M12,8 C11.447715,7.99999998 11,7.552285 11,7 C11,6.447715 11.447715,6 12,6 C12.552285,6.00000002 13,6.447715 13,7 C13,7.55228496 12.552285,7.99999996 12,7.99999996 Z" id="Combined-Shape" fill="#153457"></path>
                </g>
            </g>
        </g>
    </g>
</svg>