<svg height="24px" xmlns="http://www.w3.org/2000/svg" viewBox="0 0 118.05 28.33">
  <defs>
    <style>.cls-1{fill:#000031;}</style>
  </defs>
  <polygon class="cls-1" points="0.89 1.71 0.89 13.07 20.39 13.07 20.39 10.86 3.31 10.86 3.31 3.92 20.39 3.92 20.39 1.71 0.89 1.71" />
  <polygon class="cls-1" points="0.89 15.26 0.89 26.63 20.39 26.63 20.39 24.41 3.31 24.41 3.31 17.47 20.39 17.47 20.39 15.26 0.89 15.26" />
  <path class="cls-1" d="M108.82,16h-6.17V3.9h6.17A5.79,5.79,0,0,1,114.7,10,5.79,5.79,0,0,1,108.82,16m-8.6,10.63h2.43V18.23h6.13l5.31,8.42h2.82l-5.6-8.81A8,8,0,0,0,117.16,10a8.09,8.09,0,0,0-8.34-8.27h-8.6ZM82.38,25C76,25,72.07,19.76,72.07,14.17S76,3.36,82.38,3.36s10.3,5.21,10.3,10.81S88.76,25,82.38,25m0,2.21c8,0,12.83-6.27,12.83-13s-4.85-13-12.83-13-12.84,6.28-12.84,13,4.85,13,12.84,13m-23.81-.53H61V3.9h6.77V1.69H51.87V3.9h6.7ZM46.68,19.3A9.09,9.09,0,0,1,38.09,25c-6.88,0-10.84-5-10.84-10.84,0-5.6,3.81-10.77,10.37-10.77,5.14,0,8.28,2.93,9.2,6.74h2.54c-1-5-5-8.95-12-8.95-7.81,0-12.59,6.24-12.59,13,0,7,4.92,13.05,13,13.05,5.82,0,10.2-3.42,11.56-7.88Z" />
</svg>