<?xml version="1.0" encoding="UTF-8"?>
<svg width="101px" height="23px" viewBox="0 0 101 23" version="1.1" xmlns="http://www.w3.org/2000/svg" xmlns:xlink="http://www.w3.org/1999/xlink">
    <!-- Generator: Sketch 53.2 (72643) - https://sketchapp.com -->
    <title>logo-ector.svg</title>
    <desc>Created with Sketch.</desc>
    <g id="Homepage" stroke="none" stroke-width="1" fill="none" fill-rule="evenodd">
        <g id="00_home" transform="translate(-116.000000, -29.000000)" fill="#163457">
            <g id="hero" transform="translate(-4.000000, -2.000000)">
                <g id="logo-ector" transform="translate(120.000000, 31.000000)">
                    <path d="M0,0 L0,10.0396825 L16.9367016,10.0396825 L16.9367016,8.0863642 L2.1094771,8.0863642 L2.1094771,1.95259968 L16.9367016,1.95259968 L16.9367016,0 L0,0 Z M0,11.9764717 L0,22.0161542 L16.9367016,22.0161542 L16.9367016,20.0628359 L2.1094771,20.0628359 L2.1094771,13.9290714 L16.9367016,13.9290714 L16.9367016,11.975753 L0,11.975753 L0,11.9764717 Z M93.7488872,13.1371079 L88.3903139,13.1371079 L88.3903139,2.42907137 L93.7481709,2.42907137 C96.8769301,2.42907137 98.8589074,4.88617048 98.8589074,7.78524559 C98.8589074,10.6843207 96.8769301,13.1407012 93.7481709,13.1407012 L93.7488872,13.1371079 Z M86.2844183,22.5249656 L88.3903139,22.5249656 L88.3903139,15.0918635 L93.7173704,15.0918635 L98.3324335,22.5264029 L100.782149,22.5264029 L95.919249,14.7454693 C98.9948223,13.8545729 101.082211,10.9915754 100.997036,7.78093363 C101.053209,5.83219557 100.308847,3.94590255 98.9383071,2.56389965 C97.5677677,1.18189676 95.6914589,0.425598364 93.7488872,0.47215973 L86.2844183,0.47215973 L86.2844183,22.5249656 Z M70.7824477,21.0445257 C65.2075545,21.0445257 61.8288097,16.4451006 61.8288097,11.4985627 C61.8288097,6.55202475 65.2054057,1.95331834 70.7824477,1.95331834 C76.3265403,1.95331834 79.7360856,6.55274341 79.7360856,11.4985627 C79.7360856,16.444382 76.3286892,21.0445257 70.7824477,21.0445257 L70.7824477,21.0445257 Z M70.7824477,22.997844 C77.7204427,22.997844 81.9329502,17.4526622 81.9329502,11.4992813 C81.9329502,5.54590051 77.7175775,0 70.7824477,0 C63.8473179,0 59.6319451,5.54446319 59.6319451,11.4985627 C59.6319451,17.4526622 63.8444527,22.9971254 70.7824477,22.9971254 L70.7824477,22.997844 Z M50.1074232,22.524247 L52.2133188,22.524247 L52.2133188,2.42547807 L58.098366,2.42547807 L58.098366,0.47215973 L44.2839771,0.47215973 L44.2839771,2.42547807 L50.1074232,2.42547807 L50.1074232,22.5249656 L50.1074232,22.524247 Z M39.7777901,16.0347457 C38.5680484,19.0978274 35.5969039,21.0916257 32.3133213,21.043807 C26.3351563,21.043807 22.8969593,16.6333896 22.8969593,11.4669416 C22.8969593,6.5204037 26.2112379,1.95259968 31.9100494,1.95259968 C36.3703937,1.95259968 39.0958811,4.53618298 39.9017085,7.90669916 L42.100722,7.90669916 C41.2332935,3.46466067 37.7950966,0.00143732033 31.662929,0.00143732033 C24.8796529,0.00143732033 20.7294626,5.51499813 20.7294626,11.4690976 C20.7294626,17.6438258 25.0035712,23 32.0654846,23 C37.1139038,23 40.9238558,19.9751594 42.100722,16.0369016 L39.7777901,16.0369016 L39.7777901,16.0347457 Z" id="logo-ector.svg"></path>
                </g>
            </g>
        </g>
    </g>
</svg>