<?xml version="1.0" encoding="utf-8"?>
<!-- Generator: Adobe Illustrator 22.0.1, SVG Export Plug-In . SVG Version: 6.00 Build 0)  -->
<svg version="1.1"
	 id="svg24" inkscape:version="0.92.4 (5da689c313, 2019-01-14)" sodipodi:docname="TOTAL_SA_logo.svg" xmlns:cc="http://creativecommons.org/ns#" xmlns:dc="http://purl.org/dc/elements/1.1/" xmlns:inkscape="http://www.inkscape.org/namespaces/inkscape" xmlns:rdf="http://www.w3.org/1999/02/22-rdf-syntax-ns#" xmlns:sodipodi="http://sodipodi.sourceforge.net/DTD/sodipodi-0.dtd" xmlns:svg="http://www.w3.org/2000/svg"
	 xmlns="http://www.w3.org/2000/svg" xmlns:xlink="http://www.w3.org/1999/xlink" x="0px" y="0px" viewBox="0 0 90.3 28.5"
	 style="enable-background:new 0 0 90.3 28.5;" xml:space="preserve">
<style type="text/css">
	.st0{fill:#E4032E;}
	.st1{fill:#F49600;}
	.st2{fill:#164194;}
	.st3{fill:#4A96D2;}
</style>
<sodipodi:namedview  bordercolor="#666666" borderopacity="1" fit-margin-bottom="0" fit-margin-left="0" fit-margin-right="0" fit-margin-top="0" gridtolerance="10" guidetolerance="10" id="namedview26" inkscape:current-layer="svg24" inkscape:cx="1672.5126" inkscape:cy="411.77806" inkscape:pageopacity="0" inkscape:pageshadow="2" inkscape:window-height="1001" inkscape:window-maximized="1" inkscape:window-width="1920" inkscape:window-x="-9" inkscape:window-y="-9" inkscape:zoom="0.25" objecttolerance="10" pagecolor="#ffffff" showgrid="false">
	</sodipodi:namedview>
<g id="g12" transform="matrix(6.4121534,0,0,6.4121534,-8.4827436,-8.4827551)">
	<path id="path2" inkscape:connector-curvature="0" class="st0" d="M9.2,3.4C8.6,3.4,8.3,3.6,8.3,4c0,0.4,0.3,0.7,0.9,0.7
		c0.6,0,0.9-0.2,0.9-0.7C10.1,3.6,9.8,3.4,9.2,3.4 M9.2,4.4C8.9,4.4,8.7,4.3,8.7,4c0-0.2,0.2-0.4,0.5-0.4c0.3,0,0.5,0.1,0.5,0.4
		C9.7,4.3,9.5,4.4,9.2,4.4"/>
	<path id="path4" inkscape:connector-curvature="0" class="st0" d="M10.2,3.4v0.3h0.5v0.9c0,0.1,0.1,0.1,0.2,0.1
		c0.1,0,0.2,0,0.2-0.1V3.7h0.5V3.4H10.2z"/>
	<path id="path6" inkscape:connector-curvature="0" class="st0" d="M14.7,4.4c-0.1,0-0.2,0-0.3-0.1c-0.1-0.1-0.1-0.1-0.1-0.2V3.5
		c0-0.1-0.1-0.1-0.2-0.1c-0.1,0-0.2,0-0.2,0.1v0.6c0,0.2,0.1,0.4,0.2,0.5c0.2,0.1,0.5,0.1,0.8,0.1h0.4l0-0.1V4.4L14.7,4.4z"/>
	<path id="path8" inkscape:connector-curvature="0" class="st0" d="M7.3,4.3c0,0.2,0.2,0.4,0.5,0.4V3.3h0.7V3H6.6v0.3h0.7V4.3z"/>
	<path id="path10" inkscape:connector-curvature="0" class="st0" d="M13.7,4.7L13.7,4.7c-0.1-0.6-0.7-1.2-0.8-1.3c0,0-0.1,0-0.1,0
		c-0.1,0-0.1,0-0.1,0c-0.1,0.1-0.7,0.7-0.8,1.2l0,0.1h0.4l0,0c0-0.1,0-0.2,0.1-0.2h0.9c0,0.1,0.1,0.2,0.1,0.2l0,0H13.7z M12.4,4.1
		c0.1-0.1,0.2-0.3,0.3-0.4C12.9,3.9,13,4,13.1,4.1H12.4z"/>
</g>
<path id="path14" inkscape:connector-curvature="0" class="st1" d="M26,15.8c0-0.1,0-0.1-0.1-0.2c-2,2.3-7,3.8-11.5,3.5
	c-2.6-0.2-7.5-1.6-10-3.1c2.6,2.5,5.7,4.4,9.1,5.4c4.1,1.2,8.5,1.1,10.9-0.1C26.3,20.1,26.7,18,26,15.8"/>
<path id="path16" inkscape:connector-curvature="0" class="st2" d="M20.3,1.3c8.1,4.8,3.3,19.8-3.2,24.6c-6,4.5-12.3,2.4-13.7-1.7
	c1.2,1.8,3.6,2.4,5.7,1.7c5.9-2.4,8.9-13.1,9.3-16.8c0.3-3.2-0.2-5.3-1.3-6.7c-1.3-1.3-3.2-2-6.1-1.1C13.1-0.3,17.3-0.5,20.3,1.3"/>
<path id="path18" inkscape:connector-curvature="0" class="st0" d="M24.8,21.1C24.9,21.1,24.9,21.1,24.8,21.1
	c0.1-0.1,0.1-0.1,0.1-0.1c0.2-0.1,0.3-0.2,0.5-0.4c0.1-0.1,0.1-0.1,0.2-0.2c3.1-3.2,3.8-12-3.9-16.2C19,2.7,12.6,0.7,6.2,3.9
	c-2.1,1.1-4.3,3.3-5.5,6.3C1.6,8.7,3.1,7.8,6,7.4C9,7,13,7.4,17,8.8c2.6,0.9,4.6,2.1,6.3,3.4c1.3,1.1,2.2,2.2,2.6,3.4
	c0,0.1,0,0.1,0.1,0.2c0.7,2.1,0.3,4.3-1.5,5.5c0,0,0,0,0,0c0.1,0,0.2-0.1,0.3-0.1C24.7,21.2,24.8,21.2,24.8,21.1
	C24.8,21.2,24.8,21.2,24.8,21.1"/>
<path id="path20" inkscape:connector-curvature="0" class="st1" d="M1.7,15.3c0.1,0.2,0.5,0.6,0.7,0.9c1.6-3.6,10-6,12.6-6
	c-5.6-1.8-11.1-0.9-13.4,1C0.8,12,0.5,13.4,1.7,15.3"/>
<path id="path22" inkscape:connector-curvature="0" class="st3" d="M18.3,23.5c-4.5-0.3-11.1-2-15.8-7.3c0,0-0.1-0.1-0.1-0.1
	c-0.2-0.3-0.6-0.7-0.7-0.9c-1.2-1.9-0.9-3.2-0.1-4.1c-0.1,0.1-0.3,0.3-0.5,0.6c-1.2,1.5-1.3,4.1-0.5,6.7c1.8,5.8,9.6,9.2,15.9,8.3
	c4-0.6,6.6-2.9,7.6-3.8C21.8,23.6,20.1,23.6,18.3,23.5"/>
</svg>
