<?xml version="1.0" encoding="utf-8"?>
<!-- Generator: Adobe Illustrator 19.2.0, SVG Export Plug-In . SVG Version: 6.00 Build 0)  -->
<svg version="1.1" id="Calque_1" xmlns="http://www.w3.org/2000/svg" xmlns:xlink="http://www.w3.org/1999/xlink" x="0px" y="0px"
	 viewBox="0 0 211 75" style="enable-background:new 0 0 211 75;" xml:space="preserve">
<style type="text/css">
	.st0{fill:#256EAF;}
	.st1{fill:#FAB131;}
</style>
<g id="Page-1_7_">
	<g id="Visa_2_">
		<path id="Shape_23_" class="st0" d="M150.3,8.9c-3.2-1.2-8.2-2.5-14.5-2.5c-16,0-27.3,8.2-27.4,20c-0.1,8.7,8,13.6,14.2,16.5
			c6.3,3,8.4,4.9,8.4,7.5c0,4.1-5,5.9-9.7,5.9c-6.5,0-9.9-0.9-15.2-3.2l-2.1-1l-2.3,13.6c3.8,1.7,10.8,3.2,18,3.2
			c17,0,28.1-8.1,28.2-20.7c0.1-6.9-4.3-12.2-13.6-16.5c-5.7-2.8-9.1-4.7-9.1-7.5c0-2.5,2.9-5.2,9.3-5.2c5.3-0.1,9.1,1.1,12.1,2.3
			l1.5,0.7L150.3,8.9"/>
		<path id="Shape_21_" class="st0" d="M191.8,7.5h-12.5c-3.9,0-6.8,1.1-8.5,5l-24,55.6h17c0,0,2.8-7.5,3.4-9.1c1.9,0,18.4,0,20.7,0
			c0.5,2.1,2,9.1,2,9.1h15L191.8,7.5L191.8,7.5z M171.9,46.6c1.3-3.5,6.5-17,6.5-17c-0.1,0.2,1.3-3.5,2.1-5.8l1.1,5.2
			c0,0,3.1,14.5,3.7,17.5L171.9,46.6L171.9,46.6L171.9,46.6L171.9,46.6z"/>
		<path id="Shape_19_" class="st0" d="M75.4,68.1L85.5,7.4h16.2L91.6,68.1H75.4z"/>
		<path id="Shape_17_" class="st0" d="M61.8,7.5L46,48.9l-1.7-8.4c-3-9.7-12.1-20.2-22.4-25.5l14.5,53.1l17.1,0L79,7.5H61.8"/>
		<path id="Shape_15_" class="st1" d="M31.3,7.4H5.1L4.9,8.7c20.3,5,33.8,17.2,39.3,31.8l-5.7-27.9C37.6,8.7,34.8,7.6,31.3,7.4"/>
	</g>
</g>
</svg>
