<?xml version="1.0" standalone="no"?>
<!DOCTYPE svg PUBLIC "-//W3C//DTD SVG 1.1//EN" "http://www.w3.org/Graphics/SVG/1.1/DTD/svg11.dtd" >
<svg xmlns="http://www.w3.org/2000/svg" xmlns:xlink="http://www.w3.org/1999/xlink" version="1.1">
<metadata>
Created by FontForge 20161116 at Fri Apr 29 00:27:28 2011
 By Jimmy Warting
Copyright (c) 2010 by Ian Party, distributed by B&#38;P Foundry Srl, Switzerland, http://www.bpfoundry.com. All rights reserved.
</metadata>
<defs>
<font id="SuisseBPIntl-Bold" horiz-adv-x="739" >
  <font-face 
    font-family="Suisse BP Int'l Bold"
    font-weight="700"
    font-stretch="normal"
    units-per-em="1000"
    panose-1="0 0 0 0 0 0 0 0 0 0"
    ascent="750"
    descent="-250"
    x-height="490"
    cap-height="664"
    bbox="-220 -227 1264 919"
    underline-thickness="50"
    underline-position="-100"
    unicode-range="U+0020-FB06"
  />
<missing-glyph horiz-adv-x="0" 
 />
    <glyph glyph-name="fi" unicode="fi" horiz-adv-x="596" 
d="M70 490v22c0 118 58 152 192 152h72v-121h-44c-55 0 -67 -7 -67 -45v-8h111v-119h-111v-371h-153v371h-68v119h68zM389 490h153v-490h-153v490zM389 664h153v-123h-153v123z" />
    <glyph glyph-name="fl" unicode="fl" horiz-adv-x="596" 
d="M70 490v22c0 118 58 152 192 152h72v-121h-44c-55 0 -67 -7 -67 -45v-8h111v-119h-111v-371h-153v371h-68v119h68zM542 664v-664h-153v664h153z" />
    <glyph glyph-name="f_b" unicode="fb" horiz-adv-x="927" 
d="M70 490v22c0 118 58 152 192 152h72v-121h-44c-55 0 -67 -7 -67 -45v-8h111v-119h-111v-371h-153v371h-68v119h68zM397 664v-664h153v46c28 -41 87 -58 134 -58c131 0 228 94 228 255c0 164 -91 258 -220 258c-47 0 -108 -18 -142 -65v228h-153zM649 378
c61 0 107 -55 107 -134c0 -80 -46 -133 -107 -133c-60 0 -106 45 -106 132c0 89 46 135 106 135z" />
    <glyph glyph-name="f_h" unicode="fh" horiz-adv-x="925" 
d="M70 490v22c0 118 58 152 192 152h72v-121h-44c-55 0 -67 -7 -67 -45v-8h111v-119h-111v-371h-153v371h-68v119h68zM550 664v-229c32 39 80 65 155 65c60 0 111 -19 141 -58c24 -31 36 -75 36 -153v-289h-153v246c0 59 -7 88 -20 105c-14 18 -36 25 -61 25
c-65 0 -98 -37 -98 -129v-247h-153v664h153z" />
    <glyph glyph-name="f_k" unicode="fk" horiz-adv-x="911" 
d="M70 490v22c0 118 58 152 192 152h72v-121h-44c-55 0 -67 -7 -67 -45v-8h111v-119h-111v-371h-153v371h-68v119h68zM550 664h-153v-664h153v124l68 71l117 -195h180l-192 306l177 184h-187l-163 -178v352z" />
    <glyph glyph-name="f_j" unicode="fj" horiz-adv-x="603" 
d="M70 490v22c0 118 58 152 192 152h72v-121h-44c-55 0 -67 -7 -67 -45v-8h111v-119h-111v-371h-153v371h-68v119h68zM397 2v488h153v-504c0 -127 -50 -159 -165 -159h-57v121h18c43 0 51 12 51 54zM397 664h153v-123h-153v123z" />
    <glyph glyph-name="f_t" unicode="ft" horiz-adv-x="712" 
d="M70 490v22c0 118 58 152 192 152h72v-121h-44c-55 0 -67 -7 -67 -45v-8h111v-119h-111v-371h-153v371h-68v119h68zM423 490v147h153v-147h110v-119h-110v-194c0 -47 15 -56 66 -56h44v-121h-98c-122 0 -165 23 -165 140v231h-79v119h79z" />
    <glyph glyph-name="f_f" unicode="ff" horiz-adv-x="688" 
d="M70 490v22c0 118 58 152 192 152h72v-121h-44c-55 0 -67 -7 -67 -45v-8h111v-119h-111v-371h-153v371h-68v119h68zM414 490v22c0 118 58 152 192 152h72v-121h-44c-55 0 -67 -7 -67 -45v-8h111v-119h-111v-371h-153v371h-68v119h68z" />
    <glyph glyph-name="f_f_l" unicode="ffl" horiz-adv-x="947" 
d="M70 490v22c0 118 58 152 192 152h72v-121h-44c-55 0 -67 -7 -67 -45v-8h111v-119h-111v-371h-153v371h-68v119h68zM414 490v22c0 118 58 152 192 152h72v-121h-44c-55 0 -67 -7 -67 -45v-8h111v-119h-111v-371h-153v371h-68v119h68zM894 664v-664h-153v664h153z" />
    <glyph glyph-name="f_f_i" unicode="ffi" horiz-adv-x="947" 
d="M70 490v22c0 118 58 152 192 152h72v-121h-44c-55 0 -67 -7 -67 -45v-8h111v-119h-111v-371h-153v371h-68v119h68zM414 490v22c0 118 58 152 192 152h72v-121h-44c-55 0 -67 -7 -67 -45v-8h111v-119h-111v-371h-153v371h-68v119h68zM741 490h153v-490h-153v490zM741 664
h153v-123h-153v123z" />
    <glyph glyph-name="f_f_j" unicode="ffj" horiz-adv-x="947" 
d="M70 490v22c0 118 58 152 192 152h72v-121h-44c-55 0 -67 -7 -67 -45v-8h111v-119h-111v-371h-153v371h-68v119h68zM414 490v22c0 118 58 152 192 152h72v-121h-44c-55 0 -67 -7 -67 -45v-8h111v-119h-111v-371h-153v371h-68v119h68zM741 2v488h153v-504
c0 -127 -50 -159 -165 -159h-57v121h18c43 0 51 12 51 54zM741 664h153v-123h-153v123z" />
    <glyph glyph-name="f_f_k" unicode="ffk" horiz-adv-x="1255" 
d="M70 490v22c0 118 58 152 192 152h72v-121h-44c-55 0 -67 -7 -67 -45v-8h111v-119h-111v-371h-153v371h-68v119h68zM414 490v22c0 118 58 152 192 152h72v-121h-44c-55 0 -67 -7 -67 -45v-8h111v-119h-111v-371h-153v371h-68v119h68zM894 664h-153v-664h153v124l68 71
l117 -195h180l-192 306l177 184h-187l-163 -178v352z" />
    <glyph glyph-name="f_f_t" unicode="fft" horiz-adv-x="1056" 
d="M70 490v22c0 118 58 152 192 152h72v-121h-44c-55 0 -67 -7 -67 -45v-8h111v-119h-111v-371h-153v371h-68v119h68zM414 490v22c0 118 58 152 192 152h72v-121h-44c-55 0 -67 -7 -67 -45v-8h111v-119h-111v-371h-153v371h-68v119h68zM767 490v147h153v-147h110v-119h-110
v-194c0 -47 15 -56 66 -56h44v-121h-98c-122 0 -165 23 -165 140v231h-79v119h79z" />
    <glyph glyph-name="f_f_b" unicode="ffb" horiz-adv-x="1271" 
d="M70 490v22c0 118 58 152 192 152h72v-121h-44c-55 0 -67 -7 -67 -45v-8h111v-119h-111v-371h-153v371h-68v119h68zM414 490v22c0 118 58 152 192 152h72v-121h-44c-55 0 -67 -7 -67 -45v-8h111v-119h-111v-371h-153v371h-68v119h68zM741 664v-664h153v46
c28 -41 87 -58 134 -58c131 0 228 94 228 255c0 164 -91 258 -220 258c-47 0 -108 -18 -142 -65v228h-153zM993 378c61 0 107 -55 107 -134c0 -80 -46 -133 -107 -133c-60 0 -106 45 -106 132c0 89 46 135 106 135z" />
    <glyph glyph-name="f_f_h" unicode="ffh" horiz-adv-x="1269" 
d="M70 490v22c0 118 58 152 192 152h72v-121h-44c-55 0 -67 -7 -67 -45v-8h111v-119h-111v-371h-153v371h-68v119h68zM414 490v22c0 118 58 152 192 152h72v-121h-44c-55 0 -67 -7 -67 -45v-8h111v-119h-111v-371h-153v371h-68v119h68zM894 664v-229c32 39 80 65 155 65
c60 0 111 -19 141 -58c24 -31 36 -75 36 -153v-289h-153v246c0 59 -7 88 -20 105c-14 18 -36 25 -61 25c-65 0 -98 -37 -98 -129v-247h-153v664h153z" />
    <glyph glyph-name="s_p" unicode="sp" horiz-adv-x="1098" 
d="M489 354l-143 -18c-10 37 -48 51 -96 51c-52 0 -76 -14 -76 -33c0 -20 16 -31 60 -39l81 -15c121 -22 182 -58 182 -146c0 -112 -104 -166 -243 -166c-132 0 -230 62 -249 167l142 18c13 -49 54 -71 107 -71c54 0 92 12 92 39c0 22 -21 31 -78 41l-78 13
c-98 16 -165 66 -165 155c0 100 105 151 229 151c114 0 213 -48 235 -147zM721 -173v219c28 -41 87 -58 134 -58c131 0 228 94 228 255c0 164 -91 258 -220 258c-47 0 -108 -19 -142 -66v55h-153v-663h153zM820 378c61 0 107 -55 107 -134c0 -80 -46 -133 -107 -133
c-60 0 -106 45 -106 132c0 89 46 135 106 135z" />
    <glyph glyph-name="c_t" unicode="ct" horiz-adv-x="915" 
d="M281 501c104 0 215 -47 245 -175l-143 -24c-13 51 -48 76 -93 76c-55 0 -109 -37 -109 -133c0 -99 55 -134 109 -134c57 0 89 33 99 76l143 -24c-35 -135 -151 -175 -251 -175c-165 0 -256 107 -256 258c0 150 104 255 256 255zM626 490v147h153v-147h110v-119h-110v-194
c0 -47 15 -56 66 -56h44v-121h-98c-122 0 -165 23 -165 140v231h-79v119h79z" />
    <glyph glyph-name="s_t" unicode="st" horiz-adv-x="914" 
d="M507 354l-143 -18c-10 37 -48 51 -96 51c-52 0 -76 -14 -76 -33c0 -20 16 -31 60 -39l81 -15c121 -22 182 -58 182 -146c0 -112 -104 -166 -243 -166c-132 0 -230 62 -249 167l142 18c13 -49 54 -71 107 -71c54 0 92 12 92 39c0 22 -21 31 -78 41l-78 13
c-98 16 -165 66 -165 155c0 100 105 151 229 151c114 0 213 -48 235 -147zM625 490v147h153v-147h110v-119h-110v-194c0 -47 15 -56 66 -56h44v-121h-98c-122 0 -165 23 -165 140v231h-79v119h79z" />
    <glyph glyph-name="t_t" unicode="tt" horiz-adv-x="736" 
d="M79 490v147h153v-147h110v-119h-110v-194c0 -47 15 -56 66 -56h44v-121h-98c-122 0 -165 23 -165 140v231h-79v119h79zM447 490v147h153v-147h110v-119h-110v-194c0 -47 15 -56 66 -56h44v-121h-98c-122 0 -165 23 -165 140v231h-79v119h79z" />
    <glyph glyph-name="t_f" unicode="tf" horiz-adv-x="712" 
d="M79 490v147h153v-147h110v-119h-110v-194c0 -47 15 -56 66 -56h44v-121h-98c-122 0 -165 23 -165 140v231h-79v119h79zM438 490v22c0 118 58 152 192 152h72v-121h-44c-55 0 -67 -7 -67 -45v-8h111v-119h-111v-371h-153v371h-68v119h68z" />
    <glyph glyph-name=".notdef" horiz-adv-x="0" 
 />
    <glyph glyph-name="eth" unicode="&#xf0;" horiz-adv-x="557" 
d="M332 648l64 39l54 -26l-73 -44c96 -74 165 -185 165 -328c0 -204 -113 -301 -272 -301s-255 93 -255 257c0 161 97 256 228 256c47 0 103 -18 134 -57l1 1c-21 45 -57 82 -100 113l-68 -41l-53 25l75 45c-28 16 -57 29 -85 41l116 55c23 -10 47 -22 69 -35zM278 112
c60 0 106 44 106 133c0 87 -46 132 -106 132c-61 0 -107 -53 -107 -133c0 -79 46 -132 107 -132z" />
    <glyph glyph-name="Lslash" unicode="&#x141;" horiz-adv-x="583" 
d="M-5 169v147l91 54v294h159v-198l150 90v-147l-150 -90v-179h338v-140h-497v223z" />
    <glyph glyph-name="lslash" unicode="&#x142;" horiz-adv-x="284" 
d="M0 222v124l66 35v283h153v-203l65 35v-124l-65 -35v-337h-153v257z" />
    <glyph glyph-name="Scaron" unicode="&#x160;" horiz-adv-x="625" 
d="M30 477c0 139 151 198 276 198c134 0 255 -60 284 -190l-158 -23c-15 48 -65 77 -135 77c-59 0 -103 -18 -103 -54c0 -34 30 -56 77 -66l92 -20c104 -22 242 -57 242 -194c0 -147 -147 -217 -278 -217c-177 0 -285 80 -315 215l158 23c18 -67 73 -102 158 -102
c55 0 112 16 112 63c0 43 -57 63 -123 77l-82 18c-105 23 -205 72 -205 195zM236 698l-127 105h152l51 -46l54 46h151l-130 -105h-151z" />
    <glyph glyph-name="scaron" unicode="&#x161;" horiz-adv-x="541" 
d="M507 354l-143 -18c-10 37 -48 51 -96 51c-52 0 -76 -14 -76 -33c0 -20 16 -31 60 -39l81 -15c121 -22 182 -58 182 -146c0 -112 -104 -166 -243 -166c-132 0 -230 62 -249 167l142 18c13 -49 54 -71 107 -71c54 0 92 12 92 39c0 22 -21 31 -78 41l-78 13
c-98 16 -165 66 -165 155c0 100 105 151 229 151c114 0 213 -48 235 -147zM213 546l-127 118h140l57 -53l59 53h141l-131 -118h-139z" />
    <glyph glyph-name="Yacute" unicode="&#xdd;" horiz-adv-x="643" 
d="M-15 664h186l150 -259l153 259h184l-260 -414v-250h-159v252zM503 803l-148 -105h-135l96 105h187z" />
    <glyph glyph-name="yacute" unicode="&#xfd;" horiz-adv-x="523" 
d="M52 -173h58c130 0 167 46 217 173l196 490h-164l-99 -303l-92 303h-168l187 -487l-5 -13c-15 -38 -27 -42 -91 -42h-39v-121zM440 664l-147 -118h-115l88 118h174z" />
    <glyph glyph-name="Thorn" unicode="&#xde;" horiz-adv-x="592" 
d="M212 561h89c175 0 306 -43 306 -220s-131 -219 -306 -219h-89v-122h-160v664h160v-103zM306 421h-94v-159h94c74 0 133 8 133 79s-59 80 -133 80z" />
    <glyph glyph-name="thorn" unicode="&#xfe;" horiz-adv-x="583" 
d="M53 -173v837h153v-229c34 47 95 66 142 66c129 0 220 -94 220 -258c0 -161 -97 -255 -228 -255c-47 0 -106 17 -134 58v-219h-153zM305 377c-60 0 -106 -45 -106 -134c0 -87 46 -131 106 -131c61 0 107 52 107 132c0 79 -46 133 -107 133z" />
    <glyph glyph-name="Zcaron" unicode="&#x17d;" horiz-adv-x="610" 
d="M576 664v-122l-349 -402h353v-140h-562v122l350 402h-323v140h531zM233 698l-127 105h152l51 -46l54 46h151l-130 -105h-151z" />
    <glyph glyph-name="zcaron" unicode="&#x17e;" horiz-adv-x="509" 
d="M20 119v-119h470v119h-273l262 252v119h-441v-119h244zM189 546l-127 118h140l57 -53l59 53h141l-131 -118h-139z" />
    <glyph glyph-name="onehalf" unicode="&#xbd;" horiz-adv-x="899" 
d="M273 285h-102v246h-85v75c66 2 92 19 107 58h80v-379zM294 0h-154l465 664h154zM728 385c81 0 143 -35 143 -109c0 -75 -63 -123 -161 -188h160v-88h-303v82c68 48 200 125 200 186c0 28 -20 40 -44 40c-32 0 -56 -22 -58 -70l-98 1c1 93 61 146 161 146z" />
    <glyph glyph-name="onequarter" unicode="&#xbc;" horiz-adv-x="899" 
d="M273 285h-102v246h-85v75c66 2 92 19 107 58h80v-379zM294 0h-154l465 664h154zM730 255l-79 -92h79v92zM890 163v-88h-58v-75h-102v75h-182v78l194 226h90v-216h58z" />
    <glyph glyph-name="threequarters" unicode="&#xbe;" horiz-adv-x="899" 
d="M183 355c35 0 52 17 52 39c0 30 -26 42 -75 42h-18v83h18c43 0 66 13 66 40c0 23 -23 34 -46 34c-29 0 -54 -14 -57 -51l-100 11c10 75 70 117 164 117c82 0 143 -37 143 -103c0 -40 -23 -70 -50 -83c36 -13 61 -47 61 -90c0 -76 -75 -116 -159 -116
c-94 0 -156 51 -164 126l99 10c6 -42 32 -59 66 -59zM140 0h154l465 664h-154zM651 163l79 92v-92h-79zM890 75v88h-58v216h-90l-194 -226v-78h182v-75h102v75h58z" />
    <glyph glyph-name="brokenbar" unicode="&#xa6;" horiz-adv-x="223" 
d="M53 664h117v-284h-117v284zM53 202h117v-285h-117v285z" />
    <glyph glyph-name="minus" unicode="&#x2212;" horiz-adv-x="597" 
d="M30 311h537v-129h-537v129z" />
    <glyph glyph-name="multiply" unicode="&#xd7;" horiz-adv-x="531" 
d="M509 117l-106 -102l-137 130l-145 -137l-106 101l144 138l-139 131l107 102l139 -132l143 137l107 -102l-144 -136z" />
    <glyph glyph-name="space" unicode=" " horiz-adv-x="200" 
 />
    <glyph glyph-name="exclam" unicode="!" horiz-adv-x="284" 
d="M193 215h-102l-46 275v174h194v-174zM233 0h-173v165h173v-165z" />
    <glyph glyph-name="quotedbl" unicode="&#x22;" horiz-adv-x="377" 
d="M17 664h153l-20 -236h-113zM207 664h153l-20 -236h-113z" />
    <glyph glyph-name="numbersign" unicode="#" horiz-adv-x="768" 
d="M56 522h138l21 142h146l-21 -142h142l21 142h146l-21 -142h138l-17 -128h-140l-19 -130h138l-16 -128h-141l-20 -136h-146l20 136h-142l-20 -136h-146l20 136h-135l17 128h137l19 130h-135zM321 394l-19 -130h142l19 130h-142z" />
    <glyph glyph-name="dollar" unicode="$" horiz-adv-x="610" 
d="M273 757h64v-84c137 -13 237 -100 234 -220l-149 -2c2 58 -32 98 -85 103v-158h3c105 -24 240 -60 240 -202c0 -127 -119 -195 -243 -205v-93h-64v94c-140 11 -247 99 -244 238l149 2c-3 -77 38 -118 95 -122v165l-33 8c-96 21 -196 82 -196 202c0 124 120 182 229 191
v83zM433 181c0 43 -39 63 -96 78v-152c54 2 96 30 96 74zM187 486c0 -36 22 -61 86 -75v145c-50 -2 -86 -31 -86 -70z" />
    <glyph glyph-name="percent" unicode="%" horiz-adv-x="899" 
d="M180 278c-109 0 -166 73 -166 196s57 196 166 196c108 0 165 -73 165 -196s-57 -196 -165 -196zM180 355c35 0 60 30 60 119c0 90 -25 119 -60 119c-36 0 -61 -29 -61 -119c0 -89 25 -119 61 -119zM140 0h154l465 664h-154zM719 -7c-109 0 -166 73 -166 196
s57 196 166 196c108 0 165 -73 165 -196s-57 -196 -165 -196zM719 70c35 0 60 30 60 119c0 90 -25 119 -60 119c-36 0 -61 -29 -61 -119c0 -89 25 -119 61 -119z" />
    <glyph glyph-name="ampersand" unicode="&#x26;" horiz-adv-x="669" 
d="M247 -12c-139 0 -242 81 -242 206c0 99 79 159 155 190c-45 55 -69 95 -69 142c0 88 96 149 212 149c92 0 196 -46 196 -155c0 -78 -57 -138 -120 -166l70 -79c15 38 24 78 27 113h150c-8 -74 -35 -154 -80 -223l148 -165h-198l-50 56c-55 -42 -122 -68 -199 -68z
M258 112c40 0 76 15 105 39l-120 138c-56 -23 -81 -54 -81 -90c0 -59 45 -87 96 -87zM250 518c0 -22 30 -53 53 -79c41 20 56 48 56 70c0 30 -27 47 -56 47c-30 0 -53 -13 -53 -38z" />
    <glyph glyph-name="quotesingle" unicode="'" horiz-adv-x="196" 
d="M21 664h154l-20 -236h-114z" />
    <glyph glyph-name="parenleft" unicode="(" horiz-adv-x="295" 
d="M23 246c0 178 75 337 133 418h146c-68 -106 -124 -261 -124 -418s56 -313 124 -419h-146c-58 81 -133 241 -133 419z" />
    <glyph glyph-name="parenright" unicode=")" horiz-adv-x="295" 
d="M272 246c0 -178 -76 -338 -134 -419h-145c68 106 123 262 123 419s-55 312 -123 418h145c58 -81 134 -240 134 -418z" />
    <glyph glyph-name="asterisk" unicode="*" horiz-adv-x="332" 
d="M204 664v-93l87 33l34 -87l-90 -32l54 -75l-74 -55l-57 78l-53 -78l-79 53l55 77l-90 32l33 87l86 -33v93h94z" />
    <glyph glyph-name="plus" unicode="+" horiz-adv-x="597" 
d="M371 0h-144v182h-197v129h197v179h144v-179h196v-129h-196v-182z" />
    <glyph glyph-name="comma" unicode="," horiz-adv-x="262" 
d="M45 0v165h172v-174l-95 -138h-91l81 147h-67z" />
    <glyph glyph-name="hyphen" unicode="-" horiz-adv-x="408" 
d="M368 182h-328v129h328v-129z" />
    <glyph glyph-name="period" unicode="." horiz-adv-x="263" 
d="M218 0h-173v165h173v-165z" />
    <glyph glyph-name="slash" unicode="/" horiz-adv-x="426" 
d="M153 0h-153l272 663h154z" />
    <glyph glyph-name="zero" unicode="0" horiz-adv-x="665" 
d="M333 -12c-190 0 -289 130 -289 345s99 342 289 342c189 0 288 -127 288 -342s-99 -345 -288 -345zM333 111c78 0 131 69 131 222c0 152 -53 219 -131 219c-79 0 -132 -67 -132 -219c0 -153 53 -222 132 -222z" />
    <glyph glyph-name="one" unicode="1" horiz-adv-x="386" 
d="M316 0h-153v443h-153v112c112 3 161 35 190 109h116v-664z" />
    <glyph glyph-name="two" unicode="2" horiz-adv-x="567" 
d="M292 675c141 0 244 -70 244 -190c0 -128 -112 -236 -293 -350h296v-135h-518v131c181 132 361 234 361 337c0 57 -46 84 -96 84c-52 0 -110 -32 -106 -131l-152 2c-5 157 108 252 264 252z" />
    <glyph glyph-name="three" unicode="3" horiz-adv-x="595" 
d="M293 111c62 0 108 30 108 81c0 59 -59 84 -145 84h-45v126h40c87 0 141 27 141 79c0 47 -49 71 -99 71c-58 0 -108 -23 -118 -84l-152 15c22 132 146 192 277 192c119 0 247 -51 247 -174c0 -70 -47 -124 -94 -151c67 -26 105 -95 105 -157c0 -139 -128 -205 -268 -205
c-135 0 -253 67 -275 209l152 14c11 -69 67 -100 126 -100z" />
    <glyph glyph-name="four" unicode="4" horiz-adv-x="588" 
d="M335 464l-160 -187h160v187zM581 277v-135h-93v-142h-153v142h-328v120l339 402h142v-387h93z" />
    <glyph glyph-name="five" unicode="5" horiz-adv-x="623" 
d="M309 111c68 0 119 41 119 109c0 73 -56 111 -116 111c-53 0 -92 -19 -115 -57l-140 14l47 376h451v-135h-324l-15 -110c31 22 86 35 133 35c119 0 237 -77 237 -234c0 -154 -126 -232 -275 -232c-138 0 -248 76 -272 199l148 24c13 -68 63 -100 122 -100z" />
    <glyph glyph-name="six" unicode="6" horiz-adv-x="608" 
d="M198 219c0 -62 42 -108 109 -108c66 0 107 46 107 108c0 60 -41 108 -107 108s-109 -44 -109 -108zM317 554c-72 0 -123 -47 -121 -151c33 30 78 49 145 49c122 0 230 -95 230 -233c0 -142 -110 -231 -264 -231c-191 0 -271 142 -271 329c0 198 83 358 289 358
c157 0 231 -86 239 -193l-151 -1c-7 56 -48 73 -96 73z" />
    <glyph glyph-name="seven" unicode="7" horiz-adv-x="487" 
d="M-3 529v135h505v-135c-189 -159 -271 -273 -276 -529h-164c0 248 116 406 279 529h-344z" />
    <glyph glyph-name="eight" unicode="8" horiz-adv-x="635" 
d="M318 675c156 0 255 -77 255 -178c0 -52 -28 -104 -71 -141c67 -43 90 -97 90 -159c0 -135 -119 -209 -274 -209c-156 0 -275 74 -275 209c0 63 21 116 91 159c-46 36 -72 84 -72 140c0 102 100 179 256 179zM318 290c-70 0 -118 -32 -118 -88c0 -55 48 -91 118 -91
c69 0 117 37 117 91c0 56 -48 88 -117 88zM422 483c0 45 -45 69 -104 69s-104 -24 -104 -69c0 -46 45 -73 104 -73s104 27 104 73z" />
    <glyph glyph-name="nine" unicode="9" horiz-adv-x="605" 
d="M404 442c0 62 -43 110 -109 110s-107 -48 -107 -110c0 -60 41 -106 107 -106s109 42 109 106zM285 109c72 0 123 47 121 151c-33 -30 -78 -49 -145 -49c-122 0 -230 92 -230 230s102 234 257 234c199 0 278 -142 278 -329c0 -198 -81 -358 -287 -358
c-157 0 -233 86 -241 193l151 1c7 -56 48 -73 96 -73z" />
    <glyph glyph-name="colon" unicode=":" horiz-adv-x="263" 
d="M45 0v165h173v-165h-173zM45 325v165h173v-165h-173z" />
    <glyph glyph-name="semicolon" unicode=";" horiz-adv-x="262" 
d="M44 325v165h173v-165h-173zM45 0v165h172v-174l-95 -138h-91l81 147h-67z" />
    <glyph glyph-name="less" unicode="&#x3c;" horiz-adv-x="568" 
d="M30 313l498 190v-143l-308 -111l308 -112v-143l-498 190v129z" />
    <glyph glyph-name="equal" unicode="=" horiz-adv-x="569" 
d="M529 276h-489v129h489v-129zM529 93h-489v128h489v-128z" />
    <glyph glyph-name="greater" unicode="&#x3e;" horiz-adv-x="568" 
d="M538 313v-129l-498 -190v143l308 112l-308 111v143z" />
    <glyph glyph-name="question" unicode="?" horiz-adv-x="580" 
d="M303 675c134 0 259 -52 259 -170c0 -88 -56 -129 -128 -163c-66 -31 -98 -51 -98 -110v-18h-154c-2 13 -2 26 -2 38c0 93 48 131 111 163c46 23 114 39 114 78c0 37 -41 59 -104 59c-78 0 -135 -35 -135 -111l-149 3c0 147 117 231 286 231zM171 0v165h174v-165h-174z
" />
    <glyph glyph-name="at" unicode="@" horiz-adv-x="751" 
d="M545 130h-1l38 -90c-74 -33 -165 -51 -225 -51c-200 0 -337 139 -337 328c0 195 162 342 373 342c186 0 338 -92 338 -293c0 -151 -94 -236 -186 -236zM357 94c47 0 111 12 170 37c-34 5 -63 23 -79 53c-31 -33 -73 -51 -129 -51c-81 0 -153 52 -153 173
c0 109 76 218 204 218c35 0 66 -12 89 -32l4 17h93c-40 32 -97 50 -164 50c-154 0 -257 -105 -257 -243c0 -128 82 -222 222 -222zM620 363c0 59 -20 104 -54 137l-27 -199c-2 -13 -3 -24 -3 -32c0 -25 6 -37 20 -37c34 0 64 49 64 131zM371 419c-53 0 -85 -54 -85 -114
c0 -46 19 -69 53 -69c57 0 88 56 88 120c0 40 -21 63 -56 63z" />
    <glyph glyph-name="A" unicode="A" horiz-adv-x="673" 
d="M-5 0l254 664h174l255 -664h-173l-42 120h-257l-42 -120h-169zM335 486l-80 -227h159z" />
    <glyph glyph-name="B" unicode="B" horiz-adv-x="664" 
d="M61 0v664h294c147 0 257 -32 257 -172c0 -61 -29 -106 -80 -137c62 -23 107 -68 107 -150c0 -150 -109 -205 -272 -205h-306zM220 275v-135h149c67 0 102 21 102 68s-35 67 -102 67h-149zM220 524v-117h140c55 0 87 17 87 59s-32 58 -87 58h-140z" />
    <glyph glyph-name="C" unicode="C" horiz-adv-x="694" 
d="M522 254l156 -23c-24 -147 -151 -243 -321 -243c-210 0 -337 129 -337 344c0 213 132 343 342 343c169 0 288 -99 311 -243l-156 -23c-17 92 -85 132 -161 132c-94 0 -168 -71 -168 -209c0 -142 74 -210 168 -210c68 0 147 30 166 132z" />
    <glyph glyph-name="D" unicode="D" horiz-adv-x="683" 
d="M499 332c0 178 -126 192 -243 192h-36v-384h36c117 0 243 14 243 192zM61 664h192c220 0 414 -75 414 -332s-194 -332 -414 -332h-192v664z" />
    <glyph glyph-name="E" unicode="E" horiz-adv-x="616" 
d="M61 0v664h517v-140h-358v-113h338v-140h-338v-131h358v-140h-517z" />
    <glyph glyph-name="F" unicode="F" horiz-adv-x="557" 
d="M61 0v664h496v-140h-337v-113h317v-140h-317v-271h-159z" />
    <glyph glyph-name="G" unicode="G" horiz-adv-x="728" 
d="M364 675c150 0 270 -75 302 -206l-156 -23c-14 50 -62 95 -148 95c-98 0 -174 -65 -174 -207s71 -212 177 -212c73 0 149 28 149 113v10h-162v130h321v-375h-121l-5 74c-44 -58 -110 -86 -206 -86c-199 0 -321 131 -321 346c0 213 139 341 344 341z" />
    <glyph glyph-name="H" unicode="H" horiz-adv-x="717" 
d="M497 664h159v-664h-159v271h-277v-271h-159v664h159v-253h277v253z" />
    <glyph glyph-name="I" unicode="I" horiz-adv-x="281" 
d="M220 664v-664h-159v664h159z" />
    <glyph glyph-name="J" unicode="J" horiz-adv-x="321" 
d="M10 0v137h24c43 0 68 7 68 44v483h159v-487c0 -139 -45 -177 -186 -177h-65z" />
    <glyph glyph-name="K" unicode="K" horiz-adv-x="663" 
d="M220 664v-258l244 258h195l-247 -262l260 -402h-192l-181 282l-79 -84v-198h-159v664h159z" />
    <glyph glyph-name="L" unicode="L" horiz-adv-x="543" 
d="M220 664v-524h323v-140h-482v664h159z" />
    <glyph glyph-name="M" unicode="M" horiz-adv-x="882" 
d="M516 0h-149l-147 529v-529h-159v664h260l123 -459l120 459h257v-664h-159v530z" />
    <glyph glyph-name="N" unicode="N" 
d="M678 0h-199l-259 455v-455h-159v664h199l259 -455v455h159v-664z" />
    <glyph glyph-name="O" unicode="O" 
d="M551 334c0 142 -83 207 -182 207c-98 0 -181 -65 -181 -207s83 -212 181 -212c99 0 182 70 182 212zM719 334c0 -213 -143 -346 -350 -346s-349 133 -349 346c0 214 142 341 349 341s350 -127 350 -341z" />
    <glyph glyph-name="P" unicode="P" horiz-adv-x="619" 
d="M61 664h249c175 0 306 -43 306 -220s-131 -219 -306 -219h-90v-225h-159v664zM315 524h-95v-159h95c74 0 133 8 133 79s-59 80 -133 80z" />
    <glyph glyph-name="Q" unicode="Q" horiz-adv-x="749" 
d="M719 334c0 -114 -41 -205 -110 -265l76 -96l-110 -81l-89 112c-36 -10 -75 -16 -117 -16c-207 0 -349 133 -349 346c0 214 142 341 349 341s350 -127 350 -341zM551 334c0 142 -83 207 -182 207c-98 0 -181 -65 -181 -207s83 -212 181 -212c8 0 16 0 23 1l-45 58l110 81
l54 -69c25 34 40 81 40 141z" />
    <glyph glyph-name="R" unicode="R" horiz-adv-x="660" 
d="M464 0l-144 244h-10h-90v-244h-159v664h249c175 0 306 -41 306 -208c0 -100 -54 -156 -131 -185l165 -271h-186zM315 524h-95v-140h95c75 0 133 7 133 70c0 62 -58 70 -133 70z" />
    <glyph glyph-name="S" unicode="S" horiz-adv-x="625" 
d="M30 477c0 139 151 198 276 198c134 0 255 -60 284 -190l-158 -23c-15 48 -65 77 -135 77c-59 0 -103 -18 -103 -54c0 -34 30 -56 77 -66l92 -20c104 -22 242 -57 242 -194c0 -147 -147 -217 -278 -217c-177 0 -285 80 -315 215l158 23c18 -67 73 -102 158 -102
c55 0 112 16 112 63c0 43 -57 63 -123 77l-82 18c-105 23 -205 72 -205 195z" />
    <glyph glyph-name="T" unicode="T" horiz-adv-x="602" 
d="M221 0v524h-216v140h592v-140h-217v-524h-159z" />
    <glyph glyph-name="U" unicode="U" horiz-adv-x="683" 
d="M50 664h159v-386c0 -98 23 -153 134 -153s131 63 131 163v376h159v-370c0 -208 -80 -306 -290 -306c-202 0 -293 78 -293 300v376z" />
    <glyph glyph-name="V" unicode="V" horiz-adv-x="631" 
d="M-5 664h175l149 -486l150 486h167l-228 -664h-186z" />
    <glyph glyph-name="W" unicode="W" horiz-adv-x="851" 
d="M508 664l100 -458l75 458h168l-152 -664h-171l-102 465l-102 -465h-170l-154 664h170l83 -456l91 456h164z" />
    <glyph glyph-name="X" unicode="X" horiz-adv-x="671" 
d="M-10 0l253 338l-242 326h187l148 -200l150 200h184l-242 -324l253 -340h-186l-161 215l-161 -215h-183z" />
    <glyph glyph-name="Y" unicode="Y" horiz-adv-x="643" 
d="M-15 664h186l150 -259l153 259h184l-260 -414v-250h-159v252z" />
    <glyph glyph-name="Z" unicode="Z" horiz-adv-x="610" 
d="M576 664v-122l-349 -402h353v-140h-562v122l350 402h-323v140h531z" />
    <glyph glyph-name="bracketleft" unicode="[" horiz-adv-x="301" 
d="M53 664h258v-126h-107v-585h107v-126h-258v837z" />
    <glyph glyph-name="backslash" unicode="\" horiz-adv-x="426" 
d="M154 663l272 -663h-153l-273 663h154z" />
    <glyph glyph-name="bracketright" unicode="]" horiz-adv-x="301" 
d="M-10 664h258v-837h-258v126h107v585h-107v126z" />
    <glyph glyph-name="asciicircum" unicode="^" horiz-adv-x="516" 
d="M321 664l175 -360h-145l-93 212l-93 -212h-145l175 360h126z" />
    <glyph glyph-name="underscore" unicode="_" horiz-adv-x="454" 
d="M434 -129h-414v129h414v-129z" />
    <glyph glyph-name="grave" unicode="`" horiz-adv-x="302" 
d="M167 546l-147 118h174l88 -118h-115z" />
    <glyph glyph-name="a" unicode="a" horiz-adv-x="555" 
d="M189 335l-143 3c13 132 138 164 242 164c148 0 224 -56 221 -198l-2 -107c-1 -65 2 -128 8 -197h-133l-3 50c-35 -45 -89 -62 -158 -62c-124 0 -192 75 -192 165c0 48 18 80 47 103c49 38 130 48 208 56l78 8v12c0 47 -30 65 -85 65c-49 0 -85 -18 -88 -62zM366 196v26
l-80 -8c-82 -8 -100 -26 -100 -57s22 -55 72 -55c53 0 108 27 108 94z" />
    <glyph glyph-name="c" unicode="c" horiz-adv-x="542" 
d="M281 501c104 0 215 -47 245 -175l-143 -24c-13 51 -48 76 -93 76c-55 0 -109 -37 -109 -133c0 -99 55 -134 109 -134c57 0 89 33 99 76l143 -24c-35 -135 -151 -175 -251 -175c-165 0 -256 107 -256 258c0 150 104 255 256 255z" />
    <glyph glyph-name="d" unicode="d" horiz-adv-x="595" 
d="M540 664v-664h-153v53c-32 -47 -95 -65 -142 -65c-129 0 -220 93 -220 257c0 161 97 256 228 256c47 0 106 -17 134 -58v221h153zM288 111c60 0 106 45 106 134c0 87 -46 133 -106 133c-61 0 -107 -54 -107 -134c0 -79 46 -133 107 -133z" />
    <glyph glyph-name="e" unicode="e" horiz-adv-x="572" 
d="M292 -12c-165 0 -267 110 -267 260c0 155 116 256 265 256c168 0 268 -109 256 -300h-367c3 -62 57 -93 114 -93s92 20 109 60l142 -26c-45 -116 -147 -157 -252 -157zM288 392c-53 0 -107 -27 -108 -89h214c-1 61 -52 89 -106 89z" />
    <glyph glyph-name="f" unicode="f" horiz-adv-x="344" 
d="M70 490v22c0 118 58 152 192 152h72v-121h-44c-55 0 -67 -7 -67 -45v-8h111v-119h-111v-371h-153v371h-68v119h68z" />
    <glyph glyph-name="g" unicode="g" horiz-adv-x="592" 
d="M384 28v50c-34 -47 -91 -65 -139 -65c-129 0 -220 81 -220 245c0 161 97 242 228 242c47 0 103 -19 131 -60v50h153v-432c0 -80 -22 -140 -65 -181c-43 -40 -108 -61 -192 -61c-147 0 -221 80 -240 172l139 3c16 -43 49 -57 100 -57c31 0 57 6 76 21c18 15 29 38 29 73z
M286 136c60 0 105 47 105 122c0 82 -45 119 -105 119c-61 0 -105 -37 -105 -120c0 -74 44 -121 105 -121z" />
    <glyph glyph-name="h" unicode="h" horiz-adv-x="585" 
d="M208 664v-229c32 39 80 65 155 65c60 0 111 -19 141 -58c24 -31 36 -75 36 -153v-289h-153v246c0 59 -7 88 -20 105c-14 18 -36 25 -61 25c-65 0 -98 -37 -98 -129v-247h-153v664h153z" />
    <glyph glyph-name="i" unicode="i" horiz-adv-x="263" 
d="M55 490h153v-490h-153v490zM55 664h153v-123h-153v123z" />
    <glyph glyph-name="j" unicode="j" horiz-adv-x="263" 
d="M55 2v488h153v-504c0 -127 -50 -159 -165 -159h-57v121h18c43 0 51 12 51 54zM55 664h153v-123h-153v123z" />
    <glyph glyph-name="k" unicode="k" horiz-adv-x="569" 
d="M55 664h153v-352l163 178h187l-177 -184l192 -306h-180l-117 195l-68 -71v-124h-153v664z" />
    <glyph glyph-name="l" unicode="l" horiz-adv-x="263" 
d="M208 664v-664h-153v664h153z" />
    <glyph glyph-name="m" unicode="m" horiz-adv-x="894" 
d="M55 0v490h150v-57c33 40 74 67 151 67c76 0 120 -26 150 -81c40 52 93 81 171 81c69 0 118 -22 146 -69c18 -30 26 -70 26 -140v-291h-153v247c0 54 -4 83 -15 101c-12 19 -31 28 -62 28c-65 0 -90 -38 -90 -127v-249h-154v247c0 54 -4 83 -15 101c-12 19 -31 28 -62 28
c-63 0 -90 -38 -90 -127v-249h-153z" />
    <glyph glyph-name="n" unicode="n" horiz-adv-x="585" 
d="M205 490v-58c32 41 81 68 158 68c60 0 111 -19 141 -58c24 -31 36 -75 36 -153v-289h-153v246c0 59 -7 88 -20 105c-14 18 -36 25 -61 25c-65 0 -98 -37 -98 -129v-247h-153v490h150z" />
    <glyph glyph-name="o" unicode="o" horiz-adv-x="573" 
d="M181 244c0 -85 43 -133 105 -133c61 0 106 48 106 133c0 86 -45 134 -106 134s-105 -48 -105 -134zM25 244c0 176 122 257 261 257c138 0 262 -81 262 -257s-124 -256 -262 -256c-139 0 -261 80 -261 256z" />
    <glyph glyph-name="p" unicode="p" horiz-adv-x="595" 
d="M208 46v-219h-153v663h153v-55c34 47 95 66 142 66c129 0 220 -94 220 -258c0 -161 -97 -255 -228 -255c-47 0 -106 17 -134 58zM307 378c-60 0 -106 -46 -106 -135c0 -87 46 -132 106 -132c61 0 107 53 107 133c0 79 -46 134 -107 134z" />
    <glyph glyph-name="q" unicode="q" horiz-adv-x="595" 
d="M387 442v48h153v-663h-153v226c-34 -47 -95 -65 -142 -65c-129 0 -220 93 -220 257c0 161 97 256 228 256c47 0 106 -18 134 -59zM288 111c60 0 106 45 106 134c0 87 -46 133 -106 133c-61 0 -107 -54 -107 -134c0 -79 46 -133 107 -133z" />
    <glyph glyph-name="r" unicode="r" horiz-adv-x="373" 
d="M363 495v-160c-19 3 -42 6 -64 6c-47 0 -91 -15 -91 -97v-244h-153v490h148v-83c27 50 65 86 136 89c8 0 16 0 24 -1z" />
    <glyph glyph-name="s" unicode="s" horiz-adv-x="541" 
d="M507 354l-143 -18c-10 37 -48 51 -96 51c-52 0 -76 -14 -76 -33c0 -20 16 -31 60 -39l81 -15c121 -22 182 -58 182 -146c0 -112 -104 -166 -243 -166c-132 0 -230 62 -249 167l142 18c13 -49 54 -71 107 -71c54 0 92 12 92 39c0 22 -21 31 -78 41l-78 13
c-98 16 -165 66 -165 155c0 100 105 151 229 151c114 0 213 -48 235 -147z" />
    <glyph glyph-name="t" unicode="t" horiz-adv-x="368" 
d="M79 490v147h153v-147h110v-119h-110v-194c0 -47 15 -56 66 -56h44v-121h-98c-122 0 -165 23 -165 140v231h-79v119h79z" />
    <glyph glyph-name="u" unicode="u" horiz-adv-x="573" 
d="M368 0v57c-32 -41 -73 -69 -151 -69c-61 0 -107 17 -135 51c-25 31 -37 78 -37 158v293h153v-252c0 -54 5 -84 18 -102s33 -24 62 -24c60 0 87 37 87 126v252h153v-490h-150z" />
    <glyph glyph-name="v" unicode="v" horiz-adv-x="531" 
d="M165 490l106 -342l102 342h158l-179 -490h-170l-182 490h165z" />
    <glyph glyph-name="w" unicode="w" horiz-adv-x="758" 
d="M223 161l68 329h177l67 -328l59 328h164l-121 -490h-182l-75 349l-77 -349h-182l-121 490h166z" />
    <glyph glyph-name="x" unicode="x" horiz-adv-x="551" 
d="M544 490l-182 -236l189 -254h-177l-103 136l-105 -136h-166l190 245l-183 245h179l95 -127l98 127h165z" />
    <glyph glyph-name="y" unicode="y" horiz-adv-x="523" 
d="M110 -173h-58v121h39c64 0 76 4 91 42l5 13l-187 487h168l92 -303l99 303h164l-196 -490c-50 -127 -87 -173 -217 -173z" />
    <glyph glyph-name="z" unicode="z" horiz-adv-x="509" 
d="M20 0v119l262 252h-244v119h441v-119l-262 -252h273v-119h-470z" />
    <glyph glyph-name="braceleft" unicode="{" horiz-adv-x="335" 
d="M283 -173c-120 0 -192 34 -192 164v97c0 58 -9 96 -71 96v124c62 0 71 38 71 96v96c0 130 72 164 192 164h52v-121h-24c-43 0 -66 -7 -66 -45v-124c0 -86 -45 -114 -94 -127v-2c49 -13 94 -41 94 -127v-125c0 -38 23 -45 66 -45h24v-121h-52z" />
    <glyph glyph-name="bar" unicode="|" horiz-adv-x="253" 
d="M53 664h147v-748h-147v748z" />
    <glyph glyph-name="braceright" unicode="}" horiz-adv-x="335" 
d="M0 -173v121h24c43 0 66 7 66 45v125c0 86 45 114 94 127v2c-49 13 -94 41 -94 127v124c0 38 -23 45 -66 45h-24v121h52c120 0 192 -34 192 -164v-96c0 -58 9 -96 71 -96v-124c-62 0 -71 -38 -71 -96v-97c0 -130 -72 -164 -192 -164h-52z" />
    <glyph glyph-name="asciitilde" unicode="~" horiz-adv-x="499" 
d="M331 280c24 0 40 14 41 61h107c-4 -114 -35 -186 -136 -186c-71 0 -118 61 -175 61c-24 0 -40 -14 -41 -61h-107c4 114 36 186 138 186c76 0 124 -61 173 -61z" />
    <glyph glyph-name="Adieresis" unicode="&#xc4;" horiz-adv-x="673" 
d="M-5 0l254 664h174l255 -664h-173l-42 120h-257l-42 -120h-169zM335 486l-80 -227h159zM160 803h137v-105h-137v105zM373 803h137v-105h-137v105z" />
    <glyph glyph-name="Aring" unicode="&#xc5;" horiz-adv-x="673" 
d="M-5 0l254 664h174l255 -664h-173l-42 120h-257l-42 -120h-169zM335 847c46 0 84 -33 84 -79s-37 -79 -84 -79s-84 33 -84 79s38 79 84 79zM335 486l-80 -227h159zM335 808c-21 0 -40 -17 -40 -40s19 -39 40 -39s40 16 40 39s-19 40 -40 40z" />
    <glyph glyph-name="Ccedilla" unicode="&#xc7;" horiz-adv-x="694" 
d="M245 -174l16 50c11 -6 37 -13 61 -13s45 7 45 27c0 17 -15 26 -37 26c-11 0 -26 -2 -36 -8l-28 16l41 67c-180 18 -287 143 -287 341c0 213 132 343 342 343c169 0 288 -99 311 -243l-156 -23c-17 92 -85 132 -161 132c-94 0 -168 -71 -168 -209c0 -142 74 -210 168 -210
c68 0 147 30 166 132l156 -23c-24 -145 -148 -240 -315 -243l-22 -35c9 2 20 3 34 3c38 0 87 -16 87 -63c0 -58 -64 -80 -129 -80c-31 0 -63 5 -88 13z" />
    <glyph glyph-name="Eacute" unicode="&#xc9;" horiz-adv-x="616" 
d="M61 0v664h517v-140h-358v-113h338v-140h-338v-131h358v-140h-517zM501 803l-148 -105h-135l96 105h187z" />
    <glyph glyph-name="Ntilde" unicode="&#xd1;" 
d="M678 0h-199l-259 455v-455h-159v664h199l259 -455v455h159v-664zM444 769c28 0 45 11 50 34h90c-17 -93 -92 -107 -134 -107c-60 0 -82 34 -120 34c-28 0 -44 -11 -49 -34h-90c17 93 92 107 134 107c60 0 77 -34 119 -34z" />
    <glyph glyph-name="Odieresis" unicode="&#xd6;" 
d="M551 334c0 142 -83 207 -182 207c-98 0 -181 -65 -181 -207s83 -212 181 -212c99 0 182 70 182 212zM719 334c0 -213 -143 -346 -350 -346s-349 133 -349 346c0 214 142 341 349 341s350 -127 350 -341zM191 803h137v-105h-137v105zM404 803h137v-105h-137v105z" />
    <glyph glyph-name="Udieresis" unicode="&#xdc;" horiz-adv-x="663" 
d="M40 664h159v-386c0 -98 23 -153 134 -153s131 63 131 163v376h159v-370c0 -208 -80 -306 -290 -306c-202 0 -293 78 -293 300v376zM152 803h137v-105h-137v105zM365 803h137v-105h-137v105z" />
    <glyph glyph-name="aacute" unicode="&#xe1;" horiz-adv-x="555" 
d="M46 338l143 -3c3 44 39 62 88 62c55 0 85 -18 85 -65v-12l-78 -8c-78 -8 -159 -18 -208 -56c-29 -23 -47 -55 -47 -103c0 -90 68 -165 192 -165c69 0 123 17 158 62l3 -50h133c-6 69 -9 132 -8 197l2 107c3 142 -73 198 -221 198c-104 0 -229 -32 -242 -164zM366 196
c0 -67 -55 -94 -108 -94c-50 0 -72 24 -72 55s18 49 100 57l80 8v-26zM457 664l-147 -118h-115l88 118h174z" />
    <glyph glyph-name="agrave" unicode="&#xe0;" horiz-adv-x="555" 
d="M46 338l143 -3c3 44 39 62 88 62c55 0 85 -18 85 -65v-12l-78 -8c-78 -8 -159 -18 -208 -56c-29 -23 -47 -55 -47 -103c0 -90 68 -165 192 -165c69 0 123 17 158 62l3 -50h133c-6 69 -9 132 -8 197l2 107c3 142 -73 198 -221 198c-104 0 -229 -32 -242 -164zM366 196
c0 -67 -55 -94 -108 -94c-50 0 -72 24 -72 55s18 49 100 57l80 8v-26zM260 546l-147 118h174l88 -118h-115z" />
    <glyph glyph-name="acircumflex" unicode="&#xe2;" horiz-adv-x="555" 
d="M46 338l143 -3c3 44 39 62 88 62c55 0 85 -18 85 -65v-12l-78 -8c-78 -8 -159 -18 -208 -56c-29 -23 -47 -55 -47 -103c0 -90 68 -165 192 -165c69 0 123 17 158 62l3 -50h133c-6 69 -9 132 -8 197l2 107c3 142 -73 198 -221 198c-104 0 -229 -32 -242 -164zM366 196
c0 -67 -55 -94 -108 -94c-50 0 -72 24 -72 55s18 49 100 57l80 8v-26zM348 664l127 -118h-140l-57 53l-59 -53h-141l131 118h139z" />
    <glyph glyph-name="adieresis" unicode="&#xe4;" horiz-adv-x="555" 
d="M46 338l143 -3c3 44 39 62 88 62c55 0 85 -18 85 -65v-12l-78 -8c-78 -8 -159 -18 -208 -56c-29 -23 -47 -55 -47 -103c0 -90 68 -165 192 -165c69 0 123 17 158 62l3 -50h133c-6 69 -9 132 -8 197l2 107c3 142 -73 198 -221 198c-104 0 -229 -32 -242 -164zM366 196
c0 -67 -55 -94 -108 -94c-50 0 -72 24 -72 55s18 49 100 57l80 8v-26zM109 546v118h138v-118h-138zM317 664h137v-118h-137v118z" />
    <glyph glyph-name="atilde" unicode="&#xe3;" horiz-adv-x="555" 
d="M46 338l143 -3c3 44 39 62 88 62c55 0 85 -18 85 -65v-12l-78 -8c-78 -8 -159 -18 -208 -56c-29 -23 -47 -55 -47 -103c0 -90 68 -165 192 -165c69 0 123 17 158 62l3 -50h133c-6 69 -9 132 -8 197l2 107c3 142 -73 198 -221 198c-104 0 -229 -32 -242 -164zM366 196
c0 -67 -55 -94 -108 -94c-50 0 -72 24 -72 55s18 49 100 57l80 8v-26zM337 623c28 0 44 14 49 41h90c-13 -78 -59 -118 -125 -118c-65 0 -89 41 -127 41c-28 0 -43 -14 -48 -41h-90c12 73 55 118 126 118c64 0 83 -41 125 -41z" />
    <glyph glyph-name="aring" unicode="&#xe5;" horiz-adv-x="555" 
d="M46 338l143 -3c3 44 39 62 88 62c55 0 85 -18 85 -65v-12l-78 -8c-78 -8 -159 -18 -208 -56c-29 -23 -47 -55 -47 -103c0 -90 68 -165 192 -165c69 0 123 17 158 62l3 -50h133c-6 69 -9 132 -8 197l2 107c3 142 -73 198 -221 198c-104 0 -229 -32 -242 -164zM366 196
c0 -67 -55 -94 -108 -94c-50 0 -72 24 -72 55s18 49 100 57l80 8v-26zM277 710c48 0 88 -35 88 -83s-39 -83 -88 -83s-88 35 -88 83s40 83 88 83zM277 665c-21 0 -38 -16 -38 -38s17 -37 38 -37s38 15 38 37s-17 38 -38 38z" />
    <glyph glyph-name="ccedilla" unicode="&#xe7;" horiz-adv-x="542" 
d="M163 -174l16 50c11 -6 37 -13 61 -13s45 7 45 27c0 17 -15 26 -37 26c-11 0 -26 -2 -36 -8l-28 16l42 69c-130 20 -201 119 -201 253c0 150 104 255 256 255c104 0 215 -47 245 -175l-143 -24c-13 51 -48 76 -93 76c-55 0 -109 -37 -109 -133c0 -99 55 -134 109 -134
c57 0 89 33 99 76l143 -24c-35 -135 -151 -175 -251 -175l-22 -35c9 2 20 3 34 3c38 0 87 -16 87 -63c0 -58 -64 -80 -129 -80c-31 0 -63 5 -88 13z" />
    <glyph glyph-name="eacute" unicode="&#xe9;" horiz-adv-x="572" 
d="M292 -12c-165 0 -267 110 -267 260c0 155 116 256 265 256c168 0 268 -109 256 -300h-367c3 -62 57 -93 114 -93s92 20 109 60l142 -26c-45 -116 -147 -157 -252 -157zM453 664l-147 -118h-115l88 118h174zM288 392c-53 0 -107 -27 -108 -89h214c-1 61 -52 89 -106 89z
" />
    <glyph glyph-name="egrave" unicode="&#xe8;" horiz-adv-x="572" 
d="M292 -12c-165 0 -267 110 -267 260c0 155 116 256 265 256c168 0 268 -109 256 -300h-367c3 -62 57 -93 114 -93s92 20 109 60l142 -26c-45 -116 -147 -157 -252 -157zM237 546l-147 118h174l88 -118h-115zM288 392c-53 0 -107 -27 -108 -89h214c-1 61 -52 89 -106 89z
" />
    <glyph glyph-name="ecircumflex" unicode="&#xea;" horiz-adv-x="572" 
d="M292 -12c-165 0 -267 110 -267 260c0 155 116 256 265 256c168 0 268 -109 256 -300h-367c3 -62 57 -93 114 -93s92 20 109 60l142 -26c-45 -116 -147 -157 -252 -157zM361 664l127 -118h-140l-57 53l-59 -53h-141l131 118h139zM288 392c-53 0 -107 -27 -108 -89h214
c-1 61 -52 89 -106 89z" />
    <glyph glyph-name="edieresis" unicode="&#xeb;" horiz-adv-x="572" 
d="M292 -12c-165 0 -267 110 -267 260c0 155 116 256 265 256c168 0 268 -109 256 -300h-367c3 -62 57 -93 114 -93s92 20 109 60l142 -26c-45 -116 -147 -157 -252 -157zM112 546v118h138v-118h-138zM320 664h137v-118h-137v118zM288 392c-53 0 -107 -27 -108 -89h214
c-1 61 -52 89 -106 89z" />
    <glyph glyph-name="iacute" unicode="&#xed;" horiz-adv-x="264" 
d="M55 490h154v-490h-154v490zM320 664l-147 -118h-115l88 118h174z" />
    <glyph glyph-name="igrave" unicode="&#xec;" horiz-adv-x="264" 
d="M55 490h154v-490h-154v490zM90 546l-147 118h174l88 -118h-115z" />
    <glyph glyph-name="icircumflex" unicode="&#xee;" horiz-adv-x="264" 
d="M201 664l97 -128h-130l-37 63l-39 -63h-131l101 128h139zM55 490h154v-490h-154v490z" />
    <glyph glyph-name="idieresis" unicode="&#xef;" horiz-adv-x="264" 
d="M-22 536v128h138v-128h-138zM146 536v128h137v-128h-137zM55 490h154v-490h-154v490z" />
    <glyph glyph-name="ntilde" unicode="&#xf1;" horiz-adv-x="585" 
d="M205 490v-58c32 41 81 68 158 68c60 0 111 -19 141 -58c24 -31 36 -75 36 -153v-289h-153v246c0 59 -7 88 -20 105c-14 18 -36 25 -61 25c-65 0 -98 -37 -98 -129v-247h-153v490h150zM367 623c28 0 44 14 49 41h90c-13 -78 -59 -118 -125 -118c-65 0 -89 41 -127 41
c-28 0 -43 -14 -48 -41h-90c12 73 55 118 126 118c64 0 83 -41 125 -41z" />
    <glyph glyph-name="oacute" unicode="&#xf3;" horiz-adv-x="573" 
d="M181 244c0 -85 43 -133 105 -133c61 0 106 48 106 133c0 86 -45 134 -106 134s-105 -48 -105 -134zM25 244c0 176 122 257 261 257c138 0 262 -81 262 -257s-124 -256 -262 -256c-139 0 -261 80 -261 256zM457 664l-147 -118h-115l88 118h174z" />
    <glyph glyph-name="ograve" unicode="&#xf2;" horiz-adv-x="573" 
d="M181 244c0 -85 43 -133 105 -133c61 0 106 48 106 133c0 86 -45 134 -106 134s-105 -48 -105 -134zM25 244c0 176 122 257 261 257c138 0 262 -81 262 -257s-124 -256 -262 -256c-139 0 -261 80 -261 256zM260 546l-147 118h174l88 -118h-115z" />
    <glyph glyph-name="ocircumflex" unicode="&#xf4;" horiz-adv-x="573" 
d="M181 244c0 -85 43 -133 105 -133c61 0 106 48 106 133c0 86 -45 134 -106 134s-105 -48 -105 -134zM25 244c0 176 122 257 261 257c138 0 262 -81 262 -257s-124 -256 -262 -256c-139 0 -261 80 -261 256zM358 664l127 -118h-140l-57 53l-59 -53h-141l131 118h139z" />
    <glyph glyph-name="odieresis" unicode="&#xf6;" horiz-adv-x="573" 
d="M181 244c0 -85 43 -133 105 -133c61 0 106 48 106 133c0 86 -45 134 -106 134s-105 -48 -105 -134zM25 244c0 176 122 257 261 257c138 0 262 -81 262 -257s-124 -256 -262 -256c-139 0 -261 80 -261 256zM111 546v118h138v-118h-138zM319 664h137v-118h-137v118z" />
    <glyph glyph-name="otilde" unicode="&#xf5;" horiz-adv-x="573" 
d="M181 244c0 -85 43 -133 105 -133c61 0 106 48 106 133c0 86 -45 134 -106 134s-105 -48 -105 -134zM25 244c0 176 122 257 261 257c138 0 262 -81 262 -257s-124 -256 -262 -256c-139 0 -261 80 -261 256zM338 623c28 0 44 14 49 41h90c-13 -78 -59 -118 -125 -118
c-65 0 -89 41 -127 41c-28 0 -43 -14 -48 -41h-90c12 73 55 118 126 118c64 0 83 -41 125 -41z" />
    <glyph glyph-name="uacute" unicode="&#xfa;" horiz-adv-x="573" 
d="M368 0v57c-32 -41 -73 -69 -151 -69c-61 0 -107 17 -135 51c-25 31 -37 78 -37 158v293h153v-252c0 -54 5 -84 18 -102s33 -24 62 -24c60 0 87 37 87 126v252h153v-490h-150zM457 664l-147 -118h-115l88 118h174z" />
    <glyph glyph-name="ugrave" unicode="&#xf9;" horiz-adv-x="573" 
d="M368 0v57c-32 -41 -73 -69 -151 -69c-61 0 -107 17 -135 51c-25 31 -37 78 -37 158v293h153v-252c0 -54 5 -84 18 -102s33 -24 62 -24c60 0 87 37 87 126v252h153v-490h-150zM270 546l-147 118h174l88 -118h-115z" />
    <glyph glyph-name="ucircumflex" unicode="&#xfb;" horiz-adv-x="573" 
d="M368 0v57c-32 -41 -73 -69 -151 -69c-61 0 -107 17 -135 51c-25 31 -37 78 -37 158v293h153v-252c0 -54 5 -84 18 -102s33 -24 62 -24c60 0 87 37 87 126v252h153v-490h-150zM358 664l127 -118h-140l-57 53l-59 -53h-141l131 118h139z" />
    <glyph glyph-name="udieresis" unicode="&#xfc;" horiz-adv-x="573" 
d="M368 0v57c-32 -41 -73 -69 -151 -69c-61 0 -107 17 -135 51c-25 31 -37 78 -37 158v293h153v-252c0 -54 5 -84 18 -102s33 -24 62 -24c60 0 87 37 87 126v252h153v-490h-150zM119 546v118h138v-118h-138zM327 664h137v-118h-137v118z" />
    <glyph glyph-name="dagger" unicode="&#x2020;" horiz-adv-x="577" 
d="M361 0h-144v361h-187v129h187v174h144v-174h186v-129h-186v-361z" />
    <glyph glyph-name="degree" unicode="&#xb0;" horiz-adv-x="347" 
d="M10 511c0 91 73 164 163 164c91 0 164 -73 164 -164c0 -90 -73 -163 -164 -163c-90 0 -163 73 -163 163zM105 511c0 -40 28 -73 68 -73c41 0 70 33 70 73c0 41 -29 74 -70 74c-40 0 -68 -33 -68 -74z" />
    <glyph glyph-name="cent" unicode="&#xa2;" horiz-adv-x="532" 
d="M516 326l-143 -24c-11 43 -39 69 -74 75v-265c45 5 71 37 80 75l143 -24c-32 -123 -131 -167 -223 -174v-86h-47v86c-153 8 -237 112 -237 257c0 143 95 246 237 254v80h47v-81c95 -8 189 -57 217 -173zM171 245c0 -82 37 -122 81 -132v262c-44 -11 -81 -51 -81 -130z
" />
    <glyph glyph-name="sterling" unicode="&#xa3;" horiz-adv-x="610" 
d="M311 552c-55 0 -95 -26 -95 -68c0 -47 28 -85 53 -125h156v-70h-123c2 -10 4 -21 4 -32c0 -56 -48 -95 -106 -131l1 -1c28 16 56 21 84 21c52 0 102 -22 145 -22c36 0 70 11 104 31l50 -129c-48 -25 -99 -38 -167 -38c-72 0 -136 36 -203 36c-29 0 -77 -4 -135 -36
l-56 117c80 38 123 75 123 149c0 11 -3 23 -7 35h-119v70h83c-24 40 -48 85 -48 138c0 126 129 178 254 178c155 0 275 -94 272 -243l-149 -2c3 90 -59 122 -121 122z" />
    <glyph glyph-name="currency" unicode="&#xa4;" horiz-adv-x="591" 
d="M73 322c0 48 15 93 41 129l-64 65l46 45l63 -63c37 29 84 46 134 46c52 0 99 -18 137 -47l65 64l46 -45l-66 -66c25 -36 40 -81 40 -128c0 -48 -15 -91 -41 -127l67 -67l-46 -45l-66 65c-38 -29 -85 -46 -136 -46c-50 0 -96 16 -133 44l-64 -63l-46 45l64 65
c-26 36 -41 81 -41 129zM200 322c0 -58 38 -99 93 -99c58 0 97 41 97 99c0 60 -39 102 -97 102c-55 0 -93 -42 -93 -102z" />
    <glyph glyph-name="yen" unicode="&#xa5;" horiz-adv-x="663" 
d="M556 83h-150v-83h-154v83h-145v73h145v60h-145v74h121l-233 374h186l150 -259l153 259h184l-237 -374h125v-74h-150v-60h150v-73z" />
    <glyph glyph-name="section" unicode="&#xa7;" horiz-adv-x="577" 
d="M283 -61c46 0 72 20 72 50s-26 52 -76 76l-117 57c-89 43 -142 96 -142 172c0 52 33 95 82 126c-22 28 -35 62 -35 100c0 101 101 155 217 155c125 0 217 -55 229 -181l-142 -6c-9 49 -40 70 -88 70c-40 0 -65 -13 -65 -35s23 -38 62 -57l125 -61
c96 -47 152 -92 152 -169c0 -54 -33 -100 -87 -132c24 -28 38 -62 38 -103c0 -111 -96 -180 -229 -180c-139 0 -222 80 -232 208l142 6c8 -63 39 -96 94 -96zM325 287l-122 59c-20 -11 -32 -25 -32 -40c0 -27 25 -44 62 -62l123 -60l14 -7c21 11 33 24 33 42
c0 29 -33 46 -78 68z" />
    <glyph glyph-name="bullet" unicode="&#x2022;" horiz-adv-x="415" 
d="M40 259c0 91 74 165 164 165c97 0 171 -74 171 -165c0 -96 -74 -170 -171 -170c-90 0 -164 74 -164 170z" />
    <glyph glyph-name="paragraph" unicode="&#xb6;" horiz-adv-x="468" 
d="M0 505c0 100 85 159 212 159h198v-747h-76v676h-104v-676h-76v430c-68 7 -154 46 -154 158z" />
    <glyph glyph-name="germandbls" unicode="&#xdf;" horiz-adv-x="631" 
d="M207 0h-154v430c0 100 27 151 71 187c51 42 124 58 206 58c137 0 241 -60 241 -184c0 -57 -26 -98 -53 -121c53 -28 95 -82 95 -167c0 -146 -101 -215 -244 -215c-41 0 -89 5 -135 18l33 125c29 -10 60 -16 90 -16c52 0 99 28 99 83c0 73 -55 98 -136 98h-31v119h26
c73 0 108 20 108 69c0 40 -30 67 -97 67c-37 0 -73 -7 -95 -31c-15 -17 -24 -42 -24 -102v-418z" />
    <glyph glyph-name="registered" unicode="&#xae;" horiz-adv-x="767" 
d="M40 331c0 203 153 345 344 345c189 0 343 -142 343 -345c0 -204 -154 -343 -343 -343c-191 0 -344 139 -344 343zM116 331c0 -163 117 -274 268 -274c153 0 267 111 267 274c0 164 -114 275 -267 275c-151 0 -268 -111 -268 -275zM373 291h-48v-131h-98v366h146
c97 0 170 -24 170 -120c0 -55 -27 -85 -67 -100l89 -146h-110l-77 131h-5zM444 406c0 21 -14 44 -46 44h-73v-83h73c32 0 46 18 46 39z" />
    <glyph glyph-name="copyright" unicode="&#xa9;" horiz-adv-x="767" 
d="M40 331c0 203 153 345 344 345c189 0 343 -142 343 -345c0 -204 -154 -343 -343 -343c-191 0 -344 139 -344 343zM116 331c0 -163 117 -274 268 -274c153 0 267 111 267 274c0 164 -114 275 -267 275c-151 0 -268 -111 -268 -275zM385 223c42 0 77 20 87 70l95 -22
c-21 -74 -90 -128 -185 -128c-115 0 -184 79 -184 189c0 112 75 187 187 187c92 0 162 -56 178 -133l-94 -24c-5 43 -38 78 -84 78c-48 0 -86 -38 -86 -108c0 -69 36 -109 86 -109z" />
    <glyph glyph-name="trademark" unicode="&#x2122;" horiz-adv-x="901" 
d="M132 293v278h-122v93h354v-93h-123v-278h-109zM678 293h-97l-86 258v-258h-108v371h175l68 -238l77 238h164v-371h-108v260z" />
    <glyph glyph-name="acute" unicode="&#xb4;" horiz-adv-x="302" 
d="M282 664l-147 -118h-115l88 118h174z" />
    <glyph glyph-name="dieresis" unicode="&#xa8;" horiz-adv-x="373" 
d="M16 546v118h138v-118h-138zM224 664h137v-118h-137v118z" />
    <glyph glyph-name="notequal" unicode="&#x2260;" horiz-adv-x="549" 
d="M124 93h-94v128h146l23 55h-169v129h222l35 85h153l-35 -85h114v-129h-167l-23 -55h190v-128h-242l-38 -93h-153z" />
    <glyph glyph-name="AE" unicode="&#xc6;" horiz-adv-x="1024" 
d="M472 664h514v-140h-359v-113h339v-140h-339v-131h359v-140h-517v120h-231l-88 -120h-190zM469 436l-130 -177h130v177z" />
    <glyph glyph-name="Oslash" unicode="&#xd8;" 
d="M667 640l-47 -55c62 -59 99 -145 99 -251c0 -211 -143 -346 -350 -346c-81 0 -152 21 -209 58l-55 -65l-51 44l55 65c-57 59 -89 143 -89 244c0 212 142 341 349 341c75 0 142 -18 197 -50l49 58zM551 334c0 55 -13 98 -34 131l-260 -305c31 -26 70 -38 112 -38
c99 0 182 70 182 212zM188 334c0 -49 9 -89 26 -121l255 299c-29 19 -63 28 -100 28c-98 0 -181 -64 -181 -206z" />
    <glyph glyph-name="infinity" unicode="&#x221e;" horiz-adv-x="718" 
d="M520 403c99 0 168 -66 168 -159c0 -94 -67 -160 -167 -160c-72 0 -120 37 -161 81c-42 -45 -92 -80 -165 -80c-97 0 -165 66 -165 159s70 159 170 159c67 0 115 -33 158 -77c44 47 92 77 162 77zM205 296c-35 0 -62 -21 -62 -51s25 -53 60 -53c37 0 66 25 89 53
c-24 27 -52 51 -87 51zM515 296c-37 0 -64 -24 -87 -51c24 -28 53 -53 89 -53c34 0 59 22 59 52s-25 52 -61 52z" />
    <glyph glyph-name="plusminus" unicode="&#xb1;" horiz-adv-x="597" 
d="M229 388v102h140v-102h188v-129h-188v-107h-140v107h-189v129h189zM557 0h-517v129h517v-129z" />
    <glyph glyph-name="lessequal" unicode="&#x2264;" horiz-adv-x="597" 
d="M220 323l337 -52v-133l-517 120v129l517 140v-133zM40 0v129h517v-129h-517z" />
    <glyph glyph-name="greaterequal" unicode="&#x2265;" horiz-adv-x="597" 
d="M377 323l-337 71v133l517 -140v-129l-517 -120v133zM557 0h-517v129h517v-129z" />
    <glyph glyph-name="mu" unicode="&#xb5;" horiz-adv-x="585" 
d="M41 -173c7 42 12 87 12 169v494h153v-258c0 -89 30 -126 87 -126s87 37 87 126v258h152v-490h-152v44c-23 -40 -55 -50 -87 -50c-31 0 -66 11 -88 50v-54c0 -68 -4 -122 -12 -163h-152z" />
    <glyph glyph-name="mu" unicode="&#x3bc;" horiz-adv-x="585" 
d="M41 -173c7 42 12 87 12 169v494h153v-258c0 -89 30 -126 87 -126s87 37 87 126v258h152v-490h-152v44c-23 -40 -55 -50 -87 -50c-31 0 -66 11 -88 50v-54c0 -68 -4 -122 -12 -163h-152z" />
    <glyph glyph-name="partialdiff" unicode="&#x2202;" horiz-adv-x="595" 
d="M403 221c0 64 -42 106 -108 106s-108 -45 -108 -106c0 -62 42 -110 108 -110s108 48 108 110zM289 -12c-159 0 -259 95 -259 233s105 231 227 231c67 0 115 -19 148 -49l1 1c-1 104 -122 148 -245 150v121c296 -6 404 -170 404 -358c0 -187 -80 -329 -276 -329z" />
    <glyph glyph-name="summation" unicode="&#x2211;" horiz-adv-x="600" 
d="M30 -44l278 288l-273 291v129h535v-129h-364l276 -291l-281 -288h369v-129h-540v129z" />
    <glyph glyph-name="product" unicode="&#x220f;" horiz-adv-x="643" 
d="M197 -173h-144v837h537v-837h-144v708h-249v-708z" />
    <glyph glyph-name="pi" unicode="&#x3c0;" horiz-adv-x="655" 
d="M248 0h-144v361h-74v129h595v-129h-74v-186c0 -42 10 -54 53 -54h21v-121h-51c-115 0 -167 32 -167 159v202h-159v-361z" />
    <glyph glyph-name="integral" unicode="&#x222b;" horiz-adv-x="347" 
d="M101 192v190c0 237 79 291 176 291c50 0 100 -27 100 -81c0 -33 -21 -55 -56 -55c-22 0 -51 11 -51 53c0 7 1 16 3 25c-27 -6 -38 -42 -38 -110c0 -66 10 -94 10 -241v-150c0 -237 -79 -291 -176 -291c-50 0 -100 27 -100 81c0 29 20 55 57 55c22 0 50 -13 50 -54
c0 -7 -1 -15 -3 -24c27 6 36 42 36 110c0 46 -8 117 -8 201z" />
    <glyph glyph-name="ordfeminine" unicode="&#xaa;" horiz-adv-x="325" 
d="M121 579h-95c6 65 59 96 146 96c85 0 127 -32 127 -112l-1 -60c-1 -34 1 -73 5 -114h-91l-1 32c-14 -23 -41 -39 -88 -39c-68 0 -106 44 -106 94c0 27 10 47 26 59c27 22 80 29 123 34l34 4v6c0 19 -12 28 -39 28c-20 0 -38 -6 -40 -28zM203 495v17l-37 -4
c-36 -3 -46 -13 -46 -28c0 -14 10 -27 33 -27c28 0 50 15 50 42z" />
    <glyph glyph-name="ordmasculine" unicode="&#xba;" horiz-adv-x="338" 
d="M120 528c0 -47 21 -69 49 -69s49 22 49 69c0 48 -21 70 -49 70s-49 -22 -49 -70zM16 528c0 101 70 147 153 147s154 -46 154 -147c0 -100 -71 -146 -154 -146s-153 46 -153 146z" />
    <glyph glyph-name="Omega" unicode="&#x2126;" 
d="M365 675c168 0 329 -98 329 -285c0 -116 -62 -206 -173 -246v-16h173v-128h-305v215c102 15 166 78 166 170c0 99 -72 175 -190 175c-120 0 -192 -76 -192 -175c0 -92 64 -155 166 -170v-215h-304v128h172v16c-111 40 -172 130 -172 246c0 187 160 285 330 285z" />
    <glyph glyph-name="ae" unicode="&#xe6;" horiz-adv-x="887" 
d="M182 335l-144 5c13 132 140 162 244 162c76 0 131 -18 166 -53c44 35 101 55 167 55c168 0 268 -109 256 -300h-367c3 -62 57 -93 114 -93s94 22 113 62l138 -31c-47 -111 -147 -154 -252 -154c-90 0 -158 31 -201 84c-52 -67 -119 -84 -193 -84c-132 0 -200 75 -200 165
c0 51 27 87 64 110c47 29 112 41 191 49l78 8v12c0 47 -30 65 -85 65c-49 0 -86 -18 -89 -62zM252 102c53 0 108 27 108 94v26l-72 -7c-82 -8 -108 -28 -108 -59c0 -30 22 -54 72 -54zM505 303h214c-1 61 -52 89 -106 89c-53 0 -107 -27 -108 -89z" />
    <glyph glyph-name="oslash" unicode="&#xf8;" horiz-adv-x="553" 
d="M15 244c0 176 122 257 261 257c52 0 102 -12 144 -36l48 55l46 -40l-45 -52c42 -42 69 -103 69 -184c0 -176 -124 -256 -262 -256c-57 0 -110 13 -154 40l-53 -61l-45 41l51 59c-37 42 -60 100 -60 177zM382 244c0 27 -5 50 -13 69l-156 -181c17 -14 38 -21 63 -21
c61 0 106 48 106 133zM171 244c0 -22 3 -41 8 -58l152 176c-16 10 -35 16 -55 16c-61 0 -105 -48 -105 -134z" />
    <glyph glyph-name="questiondown" unicode="&#xbf;" horiz-adv-x="580" 
d="M276 -184c-134 0 -259 52 -259 170c0 88 56 129 128 163c66 31 98 51 98 110v18h154c2 -13 2 -26 2 -38c0 -93 -48 -131 -111 -163c-46 -23 -114 -39 -114 -78c0 -37 41 -59 104 -59c78 0 135 35 135 111l149 -3c0 -147 -117 -231 -286 -231zM408 490v-165h-174v165h174z
" />
    <glyph glyph-name="exclamdown" unicode="&#xa1;" horiz-adv-x="284" 
d="M239 1v-174h-194v174l46 275h102zM51 490h173v-165h-173v165z" />
    <glyph glyph-name="logicalnot" unicode="&#xac;" horiz-adv-x="620" 
d="M423 298h-393v129h537v-370h-144v241z" />
    <glyph glyph-name="radical" unicode="&#x221a;" horiz-adv-x="625" 
d="M0 173l213 96l104 -252l163 647h145l-221 -839h-146l-116 268l-91 -43z" />
    <glyph glyph-name="approxequal" unicode="&#x2248;" horiz-adv-x="566" 
d="M373 378c27 0 43 14 45 60h118c-4 -112 -39 -182 -150 -182c-78 0 -130 60 -193 60c-27 0 -43 -14 -45 -60h-118c4 112 40 182 152 182c84 0 137 -60 191 -60zM373 178c27 0 43 14 45 60h118c-4 -112 -39 -182 -150 -182c-78 0 -130 60 -193 60c-27 0 -43 -14 -45 -60
h-118c4 112 40 182 152 182c84 0 137 -60 191 -60z" />
    <glyph glyph-name="Delta" unicode="&#x2206;" horiz-adv-x="644" 
d="M0 0l322 686l322 -686h-644zM463 118l-141 298l-142 -298h283z" />
    <glyph glyph-name="guillemotleft" unicode="&#xab;" horiz-adv-x="553" 
d="M157 28l-157 217l157 214h143l-121 -215l120 -216h-142zM400 28l-156 217l156 214h143l-123 -215l122 -216h-142z" />
    <glyph glyph-name="guillemotright" unicode="&#xbb;" horiz-adv-x="553" 
d="M553 245l-157 -217h-142l120 216l-121 215h143zM309 245l-156 -217h-142l122 216l-123 215h143z" />
    <glyph glyph-name="ellipsis" unicode="&#x2026;" horiz-adv-x="862" 
d="M45 0v165h173v-165h-173zM345 0v165h173v-165h-173zM644 0v165h173v-165h-173z" />
    <glyph glyph-name="Agrave" unicode="&#xc0;" horiz-adv-x="673" 
d="M-5 0l254 664h174l255 -664h-173l-42 120h-257l-42 -120h-169zM335 486l-80 -227h159zM319 698l-148 105h187l96 -105h-135z" />
    <glyph glyph-name="Atilde" unicode="&#xc3;" horiz-adv-x="673" 
d="M-5 0l254 664h174l255 -664h-173l-42 120h-257l-42 -120h-169zM335 486l-80 -227h159zM393 769c28 0 45 11 50 34h90c-17 -93 -92 -107 -134 -107c-60 0 -82 34 -120 34c-28 0 -44 -11 -49 -34h-90c17 93 92 107 134 107c60 0 77 -34 119 -34z" />
    <glyph glyph-name="Otilde" unicode="&#xd5;" horiz-adv-x="725" 
d="M544 334c0 142 -83 207 -182 207c-98 0 -181 -65 -181 -207s83 -212 181 -212c99 0 182 70 182 212zM712 334c0 -213 -143 -346 -350 -346s-349 133 -349 346c0 214 142 341 349 341s350 -127 350 -341zM419 769c28 0 45 11 50 34h90c-17 -93 -92 -107 -134 -107
c-60 0 -82 34 -120 34c-28 0 -44 -11 -49 -34h-90c17 93 92 107 134 107c60 0 77 -34 119 -34z" />
    <glyph glyph-name="OE" unicode="&#x152;" horiz-adv-x="1094" 
d="M369 675c64 0 121 -16 169 -44v33h518v-140h-359v-113h339v-140h-339v-131h359v-140h-518v33c-48 -29 -105 -45 -169 -45c-207 0 -349 135 -349 346c0 212 142 341 349 341zM551 334c0 142 -83 206 -182 206c-98 0 -181 -64 -181 -206s83 -212 181 -212
c99 0 182 70 182 212z" />
    <glyph glyph-name="oe" unicode="&#x153;" horiz-adv-x="928" 
d="M25 244c0 176 122 257 261 257c72 0 134 -22 178 -68c44 45 107 71 182 71c168 0 268 -109 256 -300h-367c3 -62 57 -93 114 -93s94 22 113 62l138 -31c-47 -111 -147 -154 -252 -154c-80 0 -142 25 -184 68c-43 -46 -106 -68 -178 -68c-139 0 -261 80 -261 256zM181 244
c0 -85 43 -133 105 -133c61 0 106 48 106 133c0 86 -45 134 -106 134s-105 -48 -105 -134zM644 392c-53 0 -107 -27 -108 -89h214c-1 61 -52 89 -106 89z" />
    <glyph glyph-name="endash" unicode="&#x2013;" horiz-adv-x="454" 
d="M434 182h-414v129h414v-129z" />
    <glyph glyph-name="emdash" unicode="&#x2014;" horiz-adv-x="672" 
d="M652 182h-632v129h632v-129z" />
    <glyph glyph-name="quotedblleft" unicode="&#x201c;" horiz-adv-x="486" 
d="M440 517v-165h-172v174l95 138h92l-82 -147h67zM217 517v-165h-172v174l96 138h91l-82 -147h67z" />
    <glyph glyph-name="quotedblright" unicode="&#x201d;" horiz-adv-x="486" 
d="M46 499v165h172v-174l-95 -138h-92l82 147h-67zM269 499v165h172v-174l-96 -138h-91l82 147h-67z" />
    <glyph glyph-name="quoteleft" unicode="&#x2018;" horiz-adv-x="262" 
d="M217 517v-165h-172v174l95 138h91l-81 -147h67z" />
    <glyph glyph-name="quoteright" unicode="&#x2019;" horiz-adv-x="262" 
d="M45 501v165h172v-174l-95 -138h-91l81 147h-67z" />
    <glyph glyph-name="divide" unicode="&#xf7;" horiz-adv-x="597" 
d="M212 0v165h173v-165h-173zM212 329v165h173v-165h-173zM30 182h537v129h-537v-129z" />
    <glyph glyph-name="lozenge" unicode="&#x25ca;" horiz-adv-x="534" 
d="M271 495l-119 -183l119 -183l118 183zM2 312l268 407l262 -407l-262 -408z" />
    <glyph glyph-name="ydieresis" unicode="&#xff;" horiz-adv-x="523" 
d="M52 -173h58c130 0 167 46 217 173l196 490h-164l-99 -303l-92 303h-168l187 -487l-5 -13c-15 -38 -27 -42 -91 -42h-39v-121zM100 546v118h138v-118h-138zM308 664h137v-118h-137v118z" />
    <glyph glyph-name="Ydieresis" unicode="&#x178;" horiz-adv-x="643" 
d="M-15 664h186l150 -259l153 259h184l-260 -414v-250h-159v252zM145 803h137v-105h-137v105zM358 803h137v-105h-137v105z" />
    <glyph glyph-name="fraction" unicode="&#x2044;" horiz-adv-x="179" 
d="M-66 0h-154l465 664h154z" />
    <glyph glyph-name="Euro" unicode="&#x20ac;" horiz-adv-x="734" 
d="M364 229h-78c15 -66 53 -117 139 -117c64 0 125 34 141 123l148 -3c-29 -157 -140 -244 -292 -244c-155 0 -259 87 -290 241h-142l60 83h73v21c0 10 0 20 1 30h-134l60 83h85c35 147 142 229 291 229c150 0 264 -87 286 -244l-148 -3c-15 88 -73 123 -141 123
c-78 0 -117 -42 -135 -105h220l-60 -83h-172v-30v-21h148z" />
    <glyph glyph-name="guilsinglleft" unicode="&#x2039;" horiz-adv-x="310" 
d="M156 28l-156 217l156 214h144l-122 -215l121 -216h-143z" />
    <glyph glyph-name="guilsinglright" unicode="&#x203a;" horiz-adv-x="310" 
d="M310 245l-156 -217h-143l121 216l-122 215h144z" />
    <glyph glyph-name="daggerdbl" unicode="&#x2021;" horiz-adv-x="597" 
d="M371 273h196v-129h-196v-144h-144v144h-197v129h197v119h-197v129h197v143h144v-143h196v-129h-196v-119z" />
    <glyph glyph-name="periodcentered" unicode="&#xb7;" horiz-adv-x="238" 
d="M28 167v165h173v-165h-173z" />
    <glyph glyph-name="quotesinglbase" unicode="&#x201a;" horiz-adv-x="262" 
d="M45 0v165h172v-174l-95 -138h-91l81 147h-67z" />
    <glyph glyph-name="quotedblbase" unicode="&#x201e;" horiz-adv-x="485" 
d="M45 0v165h172v-174l-95 -138h-91l81 147h-67zM268 0v165h172v-174l-95 -138h-91l81 147h-67z" />
    <glyph glyph-name="perthousand" unicode="&#x2030;" horiz-adv-x="1278" 
d="M180 278c-109 0 -166 73 -166 196s57 196 166 196c108 0 165 -73 165 -196s-57 -196 -165 -196zM180 355c35 0 60 30 60 119c0 90 -25 119 -60 119c-36 0 -61 -29 -61 -119c0 -89 25 -119 61 -119zM140 0h154l465 664h-154zM719 -7c-109 0 -166 73 -166 196
s57 196 166 196c108 0 165 -73 165 -196s-57 -196 -165 -196zM719 70c35 0 60 30 60 119c0 90 -25 119 -60 119c-36 0 -61 -29 -61 -119c0 -89 25 -119 61 -119zM1099 -7c-109 0 -166 73 -166 196s57 196 166 196c108 0 165 -73 165 -196s-57 -196 -165 -196zM1099 70
c35 0 60 30 60 119c0 90 -25 119 -60 119c-36 0 -61 -29 -61 -119c0 -89 25 -119 61 -119z" />
    <glyph glyph-name="Acircumflex" unicode="&#xc2;" horiz-adv-x="673" 
d="M-5 0l254 664h174l255 -664h-173l-42 120h-257l-42 -120h-169zM335 486l-80 -227h159zM411 803l127 -105h-152l-51 46l-54 -46h-151l130 105h151z" />
    <glyph glyph-name="Ecircumflex" unicode="&#xca;" horiz-adv-x="616" 
d="M61 0v664h517v-140h-358v-113h338v-140h-338v-131h358v-140h-517zM403 803l127 -105h-152l-51 46l-54 -46h-151l130 105h151z" />
    <glyph glyph-name="Aacute" unicode="&#xc1;" horiz-adv-x="673" 
d="M-5 0l254 664h174l255 -664h-173l-42 120h-257l-42 -120h-169zM335 486l-80 -227h159zM477 803l-148 -105h-135l96 105h187z" />
    <glyph glyph-name="Edieresis" unicode="&#xcb;" horiz-adv-x="616" 
d="M61 0v664h517v-140h-358v-113h338v-140h-338v-131h358v-140h-517zM151 803h137v-105h-137v105zM364 803h137v-105h-137v105z" />
    <glyph glyph-name="Egrave" unicode="&#xc8;" horiz-adv-x="616" 
d="M61 0v664h517v-140h-358v-113h338v-140h-338v-131h358v-140h-517zM286 698l-148 105h187l96 -105h-135z" />
    <glyph glyph-name="Iacute" unicode="&#xcd;" horiz-adv-x="281" 
d="M220 664v-664h-159v664h159zM344 803l-148 -105h-135l96 105h187z" />
    <glyph glyph-name="Icircumflex" unicode="&#xce;" horiz-adv-x="281" 
d="M220 664v-664h-159v664h159zM217 803l127 -105h-152l-51 46l-54 -46h-151l130 105h151z" />
    <glyph glyph-name="Idieresis" unicode="&#xcf;" horiz-adv-x="281" 
d="M220 664v-664h-159v664h159zM-35 803h137v-105h-137v105zM178 803h137v-105h-137v105z" />
    <glyph glyph-name="Igrave" unicode="&#xcc;" horiz-adv-x="281" 
d="M220 664v-664h-159v664h159zM80 698l-148 105h187l96 -105h-135z" />
    <glyph glyph-name="Oacute" unicode="&#xd3;" 
d="M551 334c0 142 -83 207 -182 207c-98 0 -181 -65 -181 -207s83 -212 181 -212c99 0 182 70 182 212zM719 334c0 -213 -143 -346 -350 -346s-349 133 -349 346c0 214 142 341 349 341s350 -127 350 -341zM543 803l-148 -105h-135l96 105h187z" />
    <glyph glyph-name="Ocircumflex" unicode="&#xd4;" 
d="M551 334c0 142 -83 207 -182 207c-98 0 -181 -65 -181 -207s83 -212 181 -212c99 0 182 70 182 212zM719 334c0 -213 -143 -346 -350 -346s-349 133 -349 346c0 214 142 341 349 341s350 -127 350 -341zM442 803l127 -105h-152l-51 46l-54 -46h-151l130 105h151z" />
    <glyph glyph-name="Ograve" unicode="&#xd2;" 
d="M551 334c0 142 -83 207 -182 207c-98 0 -181 -65 -181 -207s83 -212 181 -212c99 0 182 70 182 212zM719 334c0 -213 -143 -346 -350 -346s-349 133 -349 346c0 214 142 341 349 341s350 -127 350 -341zM345 698l-148 105h187l96 -105h-135z" />
    <glyph glyph-name="Uacute" unicode="&#xda;" horiz-adv-x="683" 
d="M50 664h159v-386c0 -98 23 -153 134 -153s131 63 131 163v376h159v-370c0 -208 -80 -306 -290 -306c-202 0 -293 78 -293 300v376zM522 803l-148 -105h-135l96 105h187z" />
    <glyph glyph-name="Ucircumflex" unicode="&#xdb;" horiz-adv-x="683" 
d="M50 664h159v-386c0 -98 23 -153 134 -153s131 63 131 163v376h159v-370c0 -208 -80 -306 -290 -306c-202 0 -293 78 -293 300v376zM413 803l127 -105h-152l-51 46l-54 -46h-151l130 105h151z" />
    <glyph glyph-name="Ugrave" unicode="&#xd9;" horiz-adv-x="683" 
d="M50 664h159v-386c0 -98 23 -153 134 -153s131 63 131 163v376h159v-370c0 -208 -80 -306 -290 -306c-202 0 -293 78 -293 300v376zM310 698l-148 105h187l96 -105h-135z" />
    <glyph glyph-name="dotlessi" unicode="&#x131;" horiz-adv-x="264" 
d="M55 490h154v-490h-154v490z" />
    <glyph glyph-name="circumflex" unicode="&#x2c6;" horiz-adv-x="437" 
d="M290 664l127 -118h-140l-57 53l-59 -53h-141l131 118h139z" />
    <glyph glyph-name="tilde" unicode="&#x2dc;" horiz-adv-x="430" 
d="M271 623c28 0 44 14 49 41h90c-13 -78 -59 -118 -125 -118c-65 0 -89 41 -127 41c-28 0 -43 -14 -48 -41h-90c12 73 55 118 126 118c64 0 83 -41 125 -41z" />
    <glyph glyph-name="macron" unicode="&#xaf;" horiz-adv-x="331" 
d="M311 555h-291v100h291v-100z" />
    <glyph glyph-name="breve" unicode="&#x2d8;" horiz-adv-x="355" 
d="M335 664c-7 -66 -53 -123 -159 -123c-103 0 -150 57 -156 123h100c4 -30 23 -47 57 -47s54 17 58 47h100z" />
    <glyph glyph-name="dotaccent" unicode="&#x2d9;" horiz-adv-x="178" 
d="M20 664h138v-118h-138v118z" />
    <glyph glyph-name="ring" unicode="&#x2da;" horiz-adv-x="216" 
d="M108 710c48 0 88 -35 88 -83s-39 -83 -88 -83s-88 35 -88 83s40 83 88 83zM108 665c-21 0 -38 -16 -38 -38s17 -37 38 -37s38 15 38 37s-17 38 -38 38z" />
    <glyph glyph-name="cedilla" unicode="&#xb8;" horiz-adv-x="257" 
d="M20 -174l16 50c11 -6 37 -13 61 -13s45 7 45 27c0 17 -15 26 -37 26c-11 0 -26 -2 -36 -8l-28 16l48 77h57l-30 -48c9 2 20 3 34 3c38 0 87 -16 87 -63c0 -58 -64 -80 -129 -80c-31 0 -63 5 -88 13z" />
    <glyph glyph-name="hungarumlaut" unicode="&#x2dd;" horiz-adv-x="510" 
d="M282 664l-147 -118h-115l88 118h174zM490 664l-147 -118h-115l88 118h174z" />
    <glyph glyph-name="ogonek" unicode="&#x2db;" horiz-adv-x="264" 
d="M84 0h148c-47 -23 -81 -41 -81 -69c0 -24 19 -31 41 -31c19 0 39 5 52 9v-76c-24 -6 -71 -10 -96 -10c-67 0 -128 25 -128 86c0 37 26 71 64 91z" />
    <glyph glyph-name="caron" unicode="&#x2c7;" horiz-adv-x="437" 
d="M147 546l-127 118h140l57 -53l59 53h141l-131 -118h-139z" />
    <glyph glyph-name="commaaccent" horiz-adv-x="161" 
d="M23 -126v93h118v-99l-41 -83h-80l36 89h-33z" />
    <glyph glyph-name="a.alt" horiz-adv-x="584" 
d="M544 490v-490h-153v53c-32 -47 -95 -65 -142 -65c-129 0 -220 93 -220 257c0 161 97 256 228 256c47 0 106 -17 134 -58v47h153zM292 111c60 0 106 45 106 134c0 87 -46 133 -106 133c-61 0 -107 -54 -107 -134c0 -79 46 -133 107 -133z" />
    <glyph glyph-name="aacute.alt" horiz-adv-x="584" 
d="M544 0v490h-153v-47c-28 41 -87 58 -134 58c-131 0 -228 -95 -228 -256c0 -164 91 -257 220 -257c47 0 110 18 142 65v-53h153zM292 111c-61 0 -107 54 -107 133c0 80 46 134 107 134c60 0 106 -46 106 -133c0 -89 -46 -134 -106 -134zM486 664l-147 -118h-115l88 118
h174z" />
    <glyph glyph-name="abreve.alt" horiz-adv-x="584" 
d="M544 0v490h-153v-47c-28 41 -87 58 -134 58c-131 0 -228 -95 -228 -256c0 -164 91 -257 220 -257c47 0 110 18 142 65v-53h153zM292 111c-61 0 -107 54 -107 133c0 80 46 134 107 134c60 0 106 -46 106 -133c0 -89 -46 -134 -106 -134zM459 664
c-7 -66 -53 -123 -159 -123c-103 0 -150 57 -156 123h100c4 -30 23 -47 57 -47s54 17 58 47h100z" />
    <glyph glyph-name="acircumflex.alt" horiz-adv-x="584" 
d="M544 0v490h-153v-47c-28 41 -87 58 -134 58c-131 0 -228 -95 -228 -256c0 -164 91 -257 220 -257c47 0 110 18 142 65v-53h153zM292 111c-61 0 -107 54 -107 133c0 80 46 134 107 134c60 0 106 -46 106 -133c0 -89 -46 -134 -106 -134zM380 664l127 -118h-140l-57 53
l-59 -53h-141l131 118h139z" />
    <glyph glyph-name="adieresis.alt" horiz-adv-x="584" 
d="M544 0v490h-153v-47c-28 41 -87 58 -134 58c-131 0 -228 -95 -228 -256c0 -164 91 -257 220 -257c47 0 110 18 142 65v-53h153zM292 111c-61 0 -107 54 -107 133c0 80 46 134 107 134c60 0 106 -46 106 -133c0 -89 -46 -134 -106 -134zM143 546v118h138v-118h-138z
M351 664h137v-118h-137v118z" />
    <glyph glyph-name="ae.alt" horiz-adv-x="937" 
d="M292 111c60 0 106 45 106 134c0 87 -46 133 -106 133c-61 0 -107 -54 -107 -134c0 -79 46 -133 107 -133zM545 303h214c-1 61 -52 89 -106 89c-53 0 -107 -27 -108 -89zM391 490h128v-47c28 41 87 58 134 58c168 0 270 -106 258 -297h-367c3 -62 57 -93 114 -93
s92 20 109 60l142 -26c-45 -116 -147 -157 -252 -157c-47 0 -106 18 -138 65v-53h-128v53c-32 -47 -95 -65 -142 -65c-129 0 -220 93 -220 257c0 161 97 256 228 256c47 0 106 -17 134 -58v47z" />
    <glyph glyph-name="aeacute.alt" horiz-adv-x="937" 
d="M292 111c-61 0 -107 54 -107 133c0 80 46 134 107 134c60 0 106 -46 106 -133c0 -89 -46 -134 -106 -134zM759 303h-214c1 62 55 89 108 89c54 0 105 -28 106 -89zM519 490h-128v-47c-28 41 -87 58 -134 58c-131 0 -228 -95 -228 -256c0 -164 91 -257 220 -257
c47 0 110 18 142 65v-53h128v53c32 -47 91 -65 138 -65c105 0 207 41 252 157l-142 26c-17 -40 -52 -60 -109 -60s-111 31 -114 93h367c12 191 -90 297 -258 297c-47 0 -106 -17 -134 -58v47zM660 664l-147 -118h-115l88 118h174z" />
    <glyph glyph-name="agrave.alt" horiz-adv-x="584" 
d="M544 0v490h-153v-47c-28 41 -87 58 -134 58c-131 0 -228 -95 -228 -256c0 -164 91 -257 220 -257c47 0 110 18 142 65v-53h153zM292 111c-61 0 -107 54 -107 133c0 80 46 134 107 134c60 0 106 -46 106 -133c0 -89 -46 -134 -106 -134zM283 546l-147 118h174l88 -118
h-115z" />
    <glyph glyph-name="amacron.alt" horiz-adv-x="584" 
d="M544 0v490h-153v-47c-28 41 -87 58 -134 58c-131 0 -228 -95 -228 -256c0 -164 91 -257 220 -257c47 0 110 18 142 65v-53h153zM292 111c-61 0 -107 54 -107 133c0 80 46 134 107 134c60 0 106 -46 106 -133c0 -89 -46 -134 -106 -134zM457 555h-291v100h291v-100z" />
    <glyph glyph-name="aogonek.alt" horiz-adv-x="584" 
d="M292 111c60 0 106 45 106 134c0 87 -46 133 -106 133c-61 0 -107 -54 -107 -134c0 -79 46 -133 107 -133zM391 0v53c-32 -47 -95 -65 -142 -65c-129 0 -220 93 -220 257c0 161 97 256 228 256c47 0 106 -17 134 -58v47h153v-490c-47 -23 -81 -41 -81 -69
c0 -24 19 -31 41 -31c19 0 39 5 52 9v-76c-24 -6 -71 -10 -96 -10c-67 0 -128 25 -128 86c0 37 21 68 59 91z" />
    <glyph glyph-name="aring.alt" horiz-adv-x="584" 
d="M544 0v490h-153v-47c-28 41 -87 58 -134 58c-131 0 -228 -95 -228 -256c0 -164 91 -257 220 -257c47 0 110 18 142 65v-53h153zM292 111c-61 0 -107 54 -107 133c0 80 46 134 107 134c60 0 106 -46 106 -133c0 -89 -46 -134 -106 -134zM294 710c48 0 88 -35 88 -83
s-39 -83 -88 -83s-88 35 -88 83s40 83 88 83zM294 665c-21 0 -38 -16 -38 -38s17 -37 38 -37s38 15 38 37s-17 38 -38 38z" />
    <glyph glyph-name="aringacute.alt" horiz-adv-x="584" 
d="M470 778l-126 -110c17 -15 28 -36 28 -61c0 -48 -39 -83 -88 -83s-88 35 -88 83c0 16 2 32 33 76l67 95h174zM284 645c-21 0 -38 -16 -38 -38s17 -37 38 -37s38 15 38 37s-17 38 -38 38zM544 0v490h-153v-47c-28 41 -87 58 -134 58c-131 0 -228 -95 -228 -256
c0 -164 91 -257 220 -257c47 0 110 18 142 65v-53h153zM292 111c-61 0 -107 54 -107 133c0 80 46 134 107 134c60 0 106 -46 106 -133c0 -89 -46 -134 -106 -134z" />
    <glyph glyph-name="atilde.alt" horiz-adv-x="584" 
d="M544 0v490h-153v-47c-28 41 -87 58 -134 58c-131 0 -228 -95 -228 -256c0 -164 91 -257 220 -257c47 0 110 18 142 65v-53h153zM292 111c-61 0 -107 54 -107 133c0 80 46 134 107 134c60 0 106 -46 106 -133c0 -89 -46 -134 -106 -134zM366 623c28 0 44 14 49 41h90
c-13 -78 -59 -118 -125 -118c-65 0 -89 41 -127 41c-28 0 -43 -14 -48 -41h-90c12 73 55 118 126 118c64 0 83 -41 125 -41z" />
    <glyph glyph-name="uni0227.alt" horiz-adv-x="584" 
d="M544 0v490h-153v-47c-28 41 -87 58 -134 58c-131 0 -228 -95 -228 -256c0 -164 91 -257 220 -257c47 0 110 18 142 65v-53h153zM292 111c-61 0 -107 54 -107 133c0 80 46 134 107 134c60 0 106 -46 106 -133c0 -89 -46 -134 -106 -134zM233 664h138v-118h-138v118z" />
    <glyph glyph-name="uni1EA1.alt" horiz-adv-x="584" 
d="M544 490v-490h-153v53c-32 -47 -95 -65 -142 -65c-129 0 -220 93 -220 257c0 161 97 256 228 256c47 0 106 -17 134 -58v47h153zM292 111c60 0 106 45 106 134c0 87 -46 133 -106 133c-61 0 -107 -54 -107 -134c0 -79 46 -133 107 -133zM225 -34h138v-118h-138v118z" />
    <glyph glyph-name="l.alt" horiz-adv-x="331" 
d="M55 140v524h153v-487c0 -47 15 -56 66 -56h44v-121h-98c-122 0 -165 23 -165 140z" />
    <glyph glyph-name="lacute.alt" horiz-adv-x="331" 
d="M55 140v524h153v-487c0 -47 15 -56 66 -56h44v-121h-98c-122 0 -165 23 -165 140zM343 803l-148 -105h-135l96 105h187z" />
    <glyph glyph-name="lcaron.alt" horiz-adv-x="362" 
d="M389 664l-55 -158h-104l18 158h141zM55 140v524h153v-487c0 -47 15 -56 66 -56h44v-121h-98c-122 0 -165 23 -165 140z" />
    <glyph glyph-name="lcommaaccent.alt" horiz-adv-x="331" 
d="M55 140v524h153v-487c0 -47 15 -56 66 -56h44v-121h-98c-122 0 -165 23 -165 140zM75 -126v93h118v-99l-41 -83h-80l36 89h-33z" />
    <glyph glyph-name="ldot.alt" horiz-adv-x="331" 
d="M55 698v105h154v-105h-154zM55 140v524h153v-487c0 -47 15 -56 66 -56h44v-121h-98c-122 0 -165 23 -165 140z" />
    <glyph glyph-name="lslash.alt" horiz-adv-x="345" 
d="M5 222v124l64 34v284h153v-204l67 36v-124l-67 -36v-159c0 -47 15 -56 66 -56h44v-121h-98c-122 0 -165 23 -165 140v116z" />
    <glyph glyph-name="zero.plf" horiz-adv-x="665" 
d="M333 -12c-190 0 -289 130 -289 345s99 342 289 342c189 0 288 -127 288 -342s-99 -345 -288 -345zM333 111c78 0 131 69 131 222c0 152 -53 219 -131 219c-79 0 -132 -67 -132 -219c0 -153 53 -222 132 -222z" />
    <glyph glyph-name="zeroslashed.plf" horiz-adv-x="665" 
d="M333 -12c-190 0 -289 130 -289 345s99 342 289 342c189 0 288 -127 288 -342s-99 -345 -288 -345zM201 333v-11l253 111c-19 82 -63 119 -121 119c-79 0 -132 -67 -132 -219zM333 111c78 0 131 69 131 222v8l-253 -111c19 -81 63 -119 122 -119z" />
    <glyph glyph-name="one.plf" horiz-adv-x="386" 
d="M316 0h-153v443h-153v112c112 3 161 35 190 109h116v-664z" />
    <glyph glyph-name="two.plf" horiz-adv-x="567" 
d="M292 675c141 0 244 -70 244 -190c0 -128 -112 -236 -293 -350h296v-135h-518v131c181 132 361 234 361 337c0 57 -46 84 -96 84c-52 0 -110 -32 -106 -131l-152 2c-5 157 108 252 264 252z" />
    <glyph glyph-name="three.plf" horiz-adv-x="595" 
d="M293 111c62 0 108 30 108 81c0 59 -59 84 -145 84h-45v126h40c87 0 141 27 141 79c0 47 -49 71 -99 71c-58 0 -108 -23 -118 -84l-152 15c22 132 146 192 277 192c119 0 247 -51 247 -174c0 -70 -47 -124 -94 -151c67 -26 105 -95 105 -157c0 -139 -128 -205 -268 -205
c-135 0 -253 67 -275 209l152 14c11 -69 67 -100 126 -100z" />
    <glyph glyph-name="four.plf" horiz-adv-x="588" 
d="M335 464l-160 -187h160v187zM581 277v-135h-93v-142h-153v142h-328v120l339 402h142v-387h93z" />
    <glyph glyph-name="five.plf" horiz-adv-x="623" 
d="M309 111c68 0 119 41 119 109c0 73 -56 111 -116 111c-53 0 -92 -19 -115 -57l-140 14l47 376h451v-135h-324l-15 -110c31 22 86 35 133 35c119 0 237 -77 237 -234c0 -154 -126 -232 -275 -232c-138 0 -248 76 -272 199l148 24c13 -68 63 -100 122 -100z" />
    <glyph glyph-name="six.plf" horiz-adv-x="608" 
d="M198 219c0 -62 42 -108 109 -108c66 0 107 46 107 108c0 60 -41 108 -107 108s-109 -44 -109 -108zM317 554c-72 0 -123 -47 -121 -151c33 30 78 49 145 49c122 0 230 -95 230 -233c0 -142 -110 -231 -264 -231c-191 0 -271 142 -271 329c0 198 83 358 289 358
c157 0 231 -86 239 -193l-151 -1c-7 56 -48 73 -96 73z" />
    <glyph glyph-name="seven.plf" horiz-adv-x="487" 
d="M-3 529v135h505v-135c-189 -159 -271 -273 -276 -529h-164c0 248 116 406 279 529h-344z" />
    <glyph glyph-name="eight.plf" horiz-adv-x="635" 
d="M318 675c156 0 255 -77 255 -178c0 -52 -28 -104 -71 -141c67 -43 90 -97 90 -159c0 -135 -119 -209 -274 -209c-156 0 -275 74 -275 209c0 63 21 116 91 159c-46 36 -72 84 -72 140c0 102 100 179 256 179zM318 290c-70 0 -118 -32 -118 -88c0 -55 48 -91 118 -91
c69 0 117 37 117 91c0 56 -48 88 -117 88zM422 483c0 45 -45 69 -104 69s-104 -24 -104 -69c0 -46 45 -73 104 -73s104 27 104 73z" />
    <glyph glyph-name="nine.plf" horiz-adv-x="605" 
d="M404 442c0 62 -43 110 -109 110s-107 -48 -107 -110c0 -60 41 -106 107 -106s109 42 109 106zM285 109c72 0 123 47 121 151c-33 -30 -78 -49 -145 -49c-122 0 -230 92 -230 230s102 234 257 234c199 0 278 -142 278 -329c0 -198 -81 -358 -287 -358
c-157 0 -233 86 -241 193l151 1c7 -56 48 -73 96 -73z" />
    <glyph glyph-name="zero.pof" horiz-adv-x="614" 
d="M308 -11c-180 0 -274 116 -274 313s94 314 274 314c179 0 272 -117 272 -314s-93 -313 -272 -313zM308 112c68 0 115 47 115 190s-47 191 -115 191c-70 0 -117 -48 -117 -191s47 -190 117 -190z" />
    <glyph glyph-name="zeroslashed.pof" horiz-adv-x="614" 
d="M308 -11c-180 0 -274 116 -274 313s94 314 274 314c179 0 272 -117 272 -314s-93 -313 -272 -313zM308 112c68 0 115 47 115 190v7l-224 -98c17 -73 56 -99 109 -99zM308 493c-70 0 -117 -48 -117 -190l221 98c-17 67 -55 92 -104 92z" />
    <glyph glyph-name="one.pof" horiz-adv-x="376" 
d="M306 0h-153v398h-143v115c107 2 152 29 179 93h117v-606z" />
    <glyph glyph-name="two.pof" horiz-adv-x="542" 
d="M280 616c133 0 232 -57 232 -176s-104 -200 -272 -304h274v-136h-493v131c150 78 336 199 336 297c0 45 -39 65 -84 65c-50 0 -100 -35 -98 -113l-150 1c-3 149 102 235 255 235z" />
    <glyph glyph-name="three.pof" horiz-adv-x="572" 
d="M281 112c58 0 96 26 96 62c0 48 -51 68 -132 68h-38v131h35c78 0 125 22 125 64c0 37 -44 56 -88 56c-53 0 -98 -23 -106 -82l-151 18c20 119 130 187 265 187c121 0 235 -59 235 -165c0 -64 -42 -112 -87 -133c62 -20 100 -75 100 -143c0 -123 -122 -186 -257 -186
c-137 0 -245 81 -263 201l150 16c11 -67 60 -94 116 -94z" />
    <glyph glyph-name="four.pof" horiz-adv-x="564" 
d="M314 408l-144 -148h144v148zM557 260v-136h-90v-124h-153v124h-307v120l320 362h140v-346h90z" />
    <glyph glyph-name="five.pof" horiz-adv-x="600" 
d="M297 112c64 0 108 37 108 90c0 54 -47 92 -104 92c-49 0 -85 -19 -106 -50l-139 13l46 349h428v-135h-301l-14 -94c31 29 83 40 129 40c115 0 219 -80 219 -214c0 -136 -115 -214 -261 -214c-134 0 -242 62 -263 189l147 24c12 -55 56 -90 111 -90z" />
    <glyph glyph-name="six.pof" horiz-adv-x="586" 
d="M197 203c0 -58 40 -91 99 -91c57 0 96 33 96 91c0 56 -39 89 -96 89c-58 0 -99 -32 -99 -89zM305 493c-65 0 -112 -42 -111 -125c32 33 78 47 140 47c110 0 215 -69 215 -210c0 -138 -106 -216 -253 -216c-180 0 -260 122 -260 301c0 186 82 326 277 326
c148 0 221 -77 227 -176l-148 -1c-6 38 -43 54 -87 54z" />
    <glyph glyph-name="seven.pof" horiz-adv-x="468" 
d="M-3 471v135h486v-139c-177 -119 -257 -251 -259 -467h-166c-1 209 116 380 265 471h-326z" />
    <glyph glyph-name="eight.pof" horiz-adv-x="604" 
d="M303 616c147 0 240 -76 240 -165c0 -50 -26 -98 -66 -127c61 -35 84 -83 84 -144c0 -113 -111 -191 -258 -191c-148 0 -260 78 -260 191c0 61 23 109 86 144c-43 29 -67 76 -67 127c0 89 92 165 241 165zM303 263c-63 0 -103 -31 -103 -74c0 -47 40 -77 103 -77
c62 0 102 30 102 77c0 43 -40 74 -102 74zM392 432c0 37 -37 61 -89 61c-53 0 -89 -24 -89 -61s36 -62 89 -62c52 0 89 25 89 62z" />
    <glyph glyph-name="nine.pof" horiz-adv-x="583" 
d="M384 402c0 57 -41 91 -99 91s-97 -34 -97 -91c0 -56 40 -89 97 -89c58 0 99 32 99 89zM276 112c65 0 112 42 110 124c-32 -32 -78 -46 -139 -46c-111 0 -216 68 -216 209c0 138 101 217 248 217c187 0 265 -118 265 -301c0 -186 -80 -326 -274 -326
c-148 0 -224 77 -230 176l148 1c7 -38 44 -54 88 -54z" />
    <glyph glyph-name="zero.tlf" horiz-adv-x="630" 
d="M315 -12c-190 0 -289 130 -289 345s99 342 289 342c189 0 288 -127 288 -342s-99 -345 -288 -345zM315 111c78 0 131 69 131 222c0 152 -53 219 -131 219c-79 0 -132 -67 -132 -219c0 -153 53 -222 132 -222z" />
    <glyph glyph-name="zeroslashed.tlf" horiz-adv-x="630" 
d="M315 -12c-190 0 -289 130 -289 345s99 342 289 342c189 0 288 -127 288 -342s-99 -345 -288 -345zM183 333v-11l253 111c-19 82 -63 119 -121 119c-79 0 -132 -67 -132 -219zM315 111c78 0 131 69 131 222v8l-253 -111c19 -81 63 -119 122 -119z" />
    <glyph glyph-name="one.tlf" horiz-adv-x="630" 
d="M401 135h168v-135h-509v135h188v308h-188v112c128 3 196 35 225 109h116v-529z" />
    <glyph glyph-name="two.tlf" horiz-adv-x="630" 
d="M327 675c141 0 244 -70 244 -190c0 -128 -112 -236 -293 -350h296v-135h-518v131c181 132 361 234 361 337c0 57 -46 84 -96 84c-52 0 -110 -32 -106 -131l-152 2c-5 157 108 252 264 252z" />
    <glyph glyph-name="three.tlf" horiz-adv-x="630" 
d="M321 111c62 0 108 30 108 81c0 59 -59 84 -145 84h-45v126h40c87 0 141 27 141 79c0 47 -49 71 -99 71c-58 0 -108 -23 -118 -84l-152 15c22 132 146 192 277 192c119 0 247 -51 247 -174c0 -70 -47 -124 -94 -151c67 -26 105 -95 105 -157c0 -139 -128 -205 -268 -205
c-135 0 -253 67 -275 209l152 14c11 -69 67 -100 126 -100z" />
    <glyph glyph-name="four.tlf" horiz-adv-x="630" 
d="M356 464l-160 -187h160v187zM602 277v-135h-93v-142h-153v142h-328v120l339 402h142v-387h93z" />
    <glyph glyph-name="five.tlf" horiz-adv-x="630" 
d="M311 111c68 0 119 41 119 109c0 73 -56 111 -116 111c-53 0 -92 -19 -115 -57l-140 14l47 376h451v-135h-324l-15 -110c31 22 86 35 133 35c119 0 237 -77 237 -234c0 -154 -126 -232 -275 -232c-138 0 -248 76 -272 199l148 24c13 -68 63 -100 122 -100z" />
    <glyph glyph-name="six.tlf" horiz-adv-x="630" 
d="M209 219c0 -62 42 -108 109 -108c66 0 107 46 107 108c0 60 -41 108 -107 108s-109 -44 -109 -108zM328 554c-72 0 -123 -47 -121 -151c33 30 78 49 145 49c122 0 230 -95 230 -233c0 -142 -110 -231 -264 -231c-191 0 -271 142 -271 329c0 198 83 358 289 358
c157 0 231 -86 239 -193l-151 -1c-7 56 -48 73 -96 73z" />
    <glyph glyph-name="seven.tlf" horiz-adv-x="630" 
d="M62 529v135h505v-135c-189 -159 -271 -273 -276 -529h-164c0 248 116 406 279 529h-344z" />
    <glyph glyph-name="eight.tlf" horiz-adv-x="630" 
d="M315 675c156 0 255 -77 255 -178c0 -52 -28 -104 -71 -141c67 -43 90 -97 90 -159c0 -135 -119 -209 -274 -209c-156 0 -275 74 -275 209c0 63 21 116 91 159c-46 36 -72 84 -72 140c0 102 100 179 256 179zM315 290c-70 0 -118 -32 -118 -88c0 -55 48 -91 118 -91
c69 0 117 37 117 91c0 56 -48 88 -117 88zM419 483c0 45 -45 69 -104 69s-104 -24 -104 -69c0 -46 45 -73 104 -73s104 27 104 73z" />
    <glyph glyph-name="nine.tlf" horiz-adv-x="630" 
d="M420 442c0 62 -43 110 -109 110s-107 -48 -107 -110c0 -60 41 -106 107 -106s109 42 109 106zM301 109c72 0 123 47 121 151c-33 -30 -78 -49 -145 -49c-122 0 -230 92 -230 230s102 234 257 234c199 0 278 -142 278 -329c0 -198 -81 -358 -287 -358
c-157 0 -233 86 -241 193l151 1c7 -56 48 -73 96 -73z" />
    <glyph glyph-name="zero.superior" unicode="&#x2070;" horiz-adv-x="375" 
d="M188 400c-109 0 -166 73 -166 196s57 196 166 196c108 0 165 -73 165 -196s-57 -196 -165 -196zM188 477c35 0 60 30 60 119c0 90 -25 119 -60 119c-36 0 -61 -29 -61 -119c0 -89 25 -119 61 -119z" />
    <glyph glyph-name="zeroslashed.superior" horiz-adv-x="375" 
d="M188 400c-109 0 -166 73 -166 196s57 196 166 196c108 0 165 -73 165 -196s-57 -196 -165 -196zM188 715c-33 0 -57 -25 -61 -100l118 30c-8 52 -30 70 -57 70zM188 477c32 0 55 25 59 97l-117 -29c8 -50 30 -68 58 -68z" />
    <glyph glyph-name="one.superior" unicode="&#xb9;" horiz-adv-x="231" 
d="M192 407h-102v246h-85v75c66 2 92 19 107 58h80v-379z" />
    <glyph glyph-name="two.superior" unicode="&#xb2;" horiz-adv-x="339" 
d="M175 792c81 0 143 -35 143 -109c0 -75 -63 -123 -161 -188h160v-88h-303v82c68 48 200 125 200 186c0 28 -20 40 -44 40c-32 0 -56 -22 -58 -70l-98 1c1 93 61 146 161 146z" />
    <glyph glyph-name="three.superior" unicode="&#xb3;" horiz-adv-x="359" 
d="M179 477c35 0 52 17 52 39c0 30 -26 42 -75 42h-18v83h18c43 0 66 13 66 40c0 23 -23 34 -46 34c-29 0 -54 -14 -57 -51l-100 11c10 75 70 117 164 117c82 0 143 -37 143 -103c0 -40 -23 -70 -50 -83c36 -13 61 -47 61 -90c0 -76 -75 -116 -159 -116
c-94 0 -156 51 -164 126l99 10c6 -42 32 -59 66 -59z" />
    <glyph glyph-name="four.superior" unicode="&#x2074;" horiz-adv-x="370" 
d="M197 662l-79 -92h79v92zM357 570v-88h-58v-75h-102v75h-182v78l194 226h90v-216h58z" />
    <glyph glyph-name="five.superior" unicode="&#x2075;" horiz-adv-x="369" 
d="M182 477c37 0 60 23 60 57c0 33 -23 57 -57 57c-29 0 -50 -12 -61 -31l-91 8l28 218h262v-87h-176l-9 -56c20 18 52 25 82 25c72 0 127 -50 127 -134c0 -85 -66 -134 -160 -134c-85 0 -154 39 -166 118l98 15c6 -34 29 -56 63 -56z" />
    <glyph glyph-name="six.superior" unicode="&#x2076;" horiz-adv-x="363" 
d="M128 534c0 -36 24 -57 54 -57s54 21 54 57c0 35 -25 56 -54 56c-30 0 -54 -20 -54 -56zM188 715c-36 0 -63 -26 -63 -77c20 20 52 29 88 29c61 0 128 -43 128 -132c0 -86 -67 -135 -159 -135c-106 0 -160 76 -160 188c0 117 54 204 171 204c89 0 137 -48 139 -110h-95
c-3 23 -24 33 -49 33z" />
    <glyph glyph-name="seven.superior" unicode="&#x2077;" horiz-adv-x="314" 
d="M10 699v87h304v-87c-105 -74 -157 -157 -155 -292h-112c-3 131 77 236 161 292h-198z" />
    <glyph glyph-name="eight.superior" unicode="&#x2078;" horiz-adv-x="362" 
d="M181 792c95 0 149 -47 149 -103c0 -31 -15 -61 -39 -79c34 -22 50 -52 50 -91c0 -70 -65 -119 -160 -119s-160 49 -160 119c0 39 16 69 50 91c-24 18 -39 47 -39 79c0 56 54 103 149 103zM181 572c-34 0 -56 -20 -56 -47c0 -29 22 -48 56 -48s56 19 56 48
c0 27 -22 47 -56 47zM229 677c0 23 -20 38 -48 38s-48 -15 -48 -38s20 -39 48 -39s48 16 48 39z" />
    <glyph glyph-name="nine.superior" unicode="&#x2079;" horiz-adv-x="363" 
d="M235 658c0 36 -25 57 -55 57c-29 0 -53 -21 -53 -57c0 -35 24 -55 53 -55c30 0 55 20 55 55zM175 477c35 0 63 26 62 78c-20 -20 -51 -29 -87 -29c-61 0 -128 42 -128 131c0 86 67 135 155 135c111 0 164 -73 164 -188c0 -117 -52 -204 -170 -204c-89 0 -139 48 -141 110
l96 1c3 -24 24 -34 49 -34z" />
    <glyph glyph-name="zero.inferior" unicode="&#x2080;" horiz-adv-x="375" 
d="M188 -127c-109 0 -166 73 -166 196s57 196 166 196c108 0 165 -73 165 -196s-57 -196 -165 -196zM188 -50c35 0 60 30 60 119c0 90 -25 119 -60 119c-36 0 -61 -29 -61 -119c0 -89 25 -119 61 -119z" />
    <glyph glyph-name="zeroslashed.inferior" horiz-adv-x="375" 
d="M188 -127c-109 0 -166 73 -166 196s57 196 166 196c108 0 165 -73 165 -196s-57 -196 -165 -196zM188 188c-33 0 -57 -25 -61 -100l118 30c-8 52 -30 70 -57 70zM188 -50c32 0 55 25 59 97l-117 -29c8 -50 30 -68 58 -68z" />
    <glyph glyph-name="one.inferior" unicode="&#x2081;" horiz-adv-x="231" 
d="M192 -120h-102v246h-85v75c66 2 92 19 107 58h80v-379z" />
    <glyph glyph-name="two.inferior" unicode="&#x2082;" horiz-adv-x="339" 
d="M175 265c81 0 143 -35 143 -109c0 -75 -63 -123 -161 -188h160v-88h-303v82c68 48 200 125 200 186c0 28 -20 40 -44 40c-32 0 -56 -22 -58 -70l-98 1c1 93 61 146 161 146z" />
    <glyph glyph-name="three.inferior" unicode="&#x2083;" horiz-adv-x="359" 
d="M179 -50c35 0 52 17 52 39c0 30 -26 42 -75 42h-18v83h18c43 0 66 13 66 40c0 23 -23 34 -46 34c-29 0 -54 -14 -57 -51l-100 11c10 75 70 117 164 117c82 0 143 -37 143 -103c0 -40 -23 -70 -50 -83c36 -13 61 -47 61 -90c0 -76 -75 -116 -159 -116
c-94 0 -156 51 -164 126l99 10c6 -42 32 -59 66 -59z" />
    <glyph glyph-name="four.inferior" unicode="&#x2084;" horiz-adv-x="370" 
d="M197 135l-79 -92h79v92zM357 43v-88h-58v-75h-102v75h-182v78l194 226h90v-216h58z" />
    <glyph glyph-name="five.inferior" unicode="&#x2085;" horiz-adv-x="369" 
d="M182 -50c37 0 60 23 60 57c0 33 -23 57 -57 57c-29 0 -50 -12 -61 -31l-91 8l28 218h262v-87h-176l-9 -56c20 18 52 25 82 25c72 0 127 -50 127 -134c0 -85 -66 -134 -160 -134c-85 0 -154 39 -166 118l98 15c6 -34 29 -56 63 -56z" />
    <glyph glyph-name="six.inferior" unicode="&#x2086;" horiz-adv-x="363" 
d="M128 7c0 -36 24 -57 54 -57s54 21 54 57c0 35 -25 56 -54 56c-30 0 -54 -20 -54 -56zM188 188c-36 0 -63 -26 -63 -77c20 20 52 29 88 29c61 0 128 -43 128 -132c0 -86 -67 -135 -159 -135c-106 0 -160 76 -160 188c0 117 54 204 171 204c89 0 137 -48 139 -110h-95
c-3 23 -24 33 -49 33z" />
    <glyph glyph-name="seven.inferior" unicode="&#x2087;" horiz-adv-x="314" 
d="M10 172v87h304v-87c-105 -74 -157 -157 -155 -292h-112c-3 131 77 236 161 292h-198z" />
    <glyph glyph-name="eight.inferior" unicode="&#x2088;" horiz-adv-x="362" 
d="M181 265c95 0 149 -47 149 -103c0 -31 -15 -61 -39 -79c34 -22 50 -52 50 -91c0 -70 -65 -119 -160 -119s-160 49 -160 119c0 39 16 69 50 91c-24 18 -39 47 -39 79c0 56 54 103 149 103zM181 45c-34 0 -56 -20 -56 -47c0 -29 22 -48 56 -48s56 19 56 48
c0 27 -22 47 -56 47zM229 150c0 23 -20 38 -48 38s-48 -15 -48 -38s20 -39 48 -39s48 16 48 39z" />
    <glyph glyph-name="nine.inferior" unicode="&#x2089;" horiz-adv-x="363" 
d="M235 131c0 36 -25 57 -55 57c-29 0 -53 -21 -53 -57c0 -35 24 -55 53 -55c30 0 55 20 55 55zM175 -50c35 0 63 26 62 78c-20 -20 -51 -29 -87 -29c-61 0 -128 42 -128 131c0 86 67 135 155 135c111 0 164 -73 164 -188c0 -117 -52 -204 -170 -204c-89 0 -139 48 -141 110
l96 1c3 -24 24 -34 49 -34z" />
    <glyph glyph-name="zero.denominator" horiz-adv-x="375" 
d="M188 -7c-109 0 -166 73 -166 196s57 196 166 196c108 0 165 -73 165 -196s-57 -196 -165 -196zM188 70c35 0 60 30 60 119c0 90 -25 119 -60 119c-36 0 -61 -29 -61 -119c0 -89 25 -119 61 -119z" />
    <glyph glyph-name="zeroslashed.denominator" horiz-adv-x="375" 
d="M188 -7c-109 0 -166 73 -166 196s57 196 166 196c108 0 165 -73 165 -196s-57 -196 -165 -196zM188 308c-33 0 -57 -25 -61 -100l118 30c-8 52 -30 70 -57 70zM188 70c32 0 55 25 59 97l-117 -29c8 -50 30 -68 58 -68z" />
    <glyph glyph-name="one.denominator" horiz-adv-x="231" 
d="M192 0h-102v246h-85v75c66 2 92 19 107 58h80v-379z" />
    <glyph glyph-name="two.denominator" horiz-adv-x="339" 
d="M175 385c81 0 143 -35 143 -109c0 -75 -63 -123 -161 -188h160v-88h-303v82c68 48 200 125 200 186c0 28 -20 40 -44 40c-32 0 -56 -22 -58 -70l-98 1c1 93 61 146 161 146z" />
    <glyph glyph-name="three.denominator" horiz-adv-x="359" 
d="M179 70c35 0 52 17 52 39c0 30 -26 42 -75 42h-18v83h18c43 0 66 13 66 40c0 23 -23 34 -46 34c-29 0 -54 -14 -57 -51l-100 11c10 75 70 117 164 117c82 0 143 -37 143 -103c0 -40 -23 -70 -50 -83c36 -13 61 -47 61 -90c0 -76 -75 -116 -159 -116
c-94 0 -156 51 -164 126l99 10c6 -42 32 -59 66 -59z" />
    <glyph glyph-name="four.denominator" horiz-adv-x="370" 
d="M197 255l-79 -92h79v92zM357 163v-88h-58v-75h-102v75h-182v78l194 226h90v-216h58z" />
    <glyph glyph-name="five.denominator" horiz-adv-x="369" 
d="M182 70c37 0 60 23 60 57c0 33 -23 57 -57 57c-29 0 -50 -12 -61 -31l-91 8l28 218h262v-87h-176l-9 -56c20 18 52 25 82 25c72 0 127 -50 127 -134c0 -85 -66 -134 -160 -134c-85 0 -154 39 -166 118l98 15c6 -34 29 -56 63 -56z" />
    <glyph glyph-name="six.denominator" horiz-adv-x="363" 
d="M128 127c0 -36 24 -57 54 -57s54 21 54 57c0 35 -25 56 -54 56c-30 0 -54 -20 -54 -56zM188 308c-36 0 -63 -26 -63 -77c20 20 52 29 88 29c61 0 128 -43 128 -132c0 -86 -67 -135 -159 -135c-106 0 -160 76 -160 188c0 117 54 204 171 204c89 0 137 -48 139 -110h-95
c-3 23 -24 33 -49 33z" />
    <glyph glyph-name="seven.denominator" horiz-adv-x="314" 
d="M10 292v87h304v-87c-105 -74 -157 -157 -155 -292h-112c-3 131 77 236 161 292h-198z" />
    <glyph glyph-name="eight.denominator" horiz-adv-x="362" 
d="M181 385c95 0 149 -47 149 -103c0 -31 -15 -61 -39 -79c34 -22 50 -52 50 -91c0 -70 -65 -119 -160 -119s-160 49 -160 119c0 39 16 69 50 91c-24 18 -39 47 -39 79c0 56 54 103 149 103zM181 165c-34 0 -56 -20 -56 -47c0 -29 22 -48 56 -48s56 19 56 48
c0 27 -22 47 -56 47zM229 270c0 23 -20 38 -48 38s-48 -15 -48 -38s20 -39 48 -39s48 16 48 39z" />
    <glyph glyph-name="nine.denominator" horiz-adv-x="363" 
d="M235 251c0 36 -25 57 -55 57c-29 0 -53 -21 -53 -57c0 -35 24 -55 53 -55c30 0 55 20 55 55zM175 70c35 0 63 26 62 78c-20 -20 -51 -29 -87 -29c-61 0 -128 42 -128 131c0 86 67 135 155 135c111 0 164 -73 164 -188c0 -117 -52 -204 -170 -204c-89 0 -139 48 -141 110
l96 1c3 -24 24 -34 49 -34z" />
    <glyph glyph-name="zero.numerator" horiz-adv-x="375" 
d="M188 278c-109 0 -166 73 -166 196s57 196 166 196c108 0 165 -73 165 -196s-57 -196 -165 -196zM188 355c35 0 60 30 60 119c0 90 -25 119 -60 119c-36 0 -61 -29 -61 -119c0 -89 25 -119 61 -119z" />
    <glyph glyph-name="zeroslashed.numerator" horiz-adv-x="375" 
d="M188 278c-109 0 -166 73 -166 196s57 196 166 196c108 0 165 -73 165 -196s-57 -196 -165 -196zM188 593c-33 0 -57 -25 -61 -100l118 30c-8 52 -30 70 -57 70zM188 355c32 0 55 25 59 97l-117 -29c8 -50 30 -68 58 -68z" />
    <glyph glyph-name="one.numerator" horiz-adv-x="231" 
d="M192 285h-102v246h-85v75c66 2 92 19 107 58h80v-379z" />
    <glyph glyph-name="two.numerator" horiz-adv-x="339" 
d="M175 670c81 0 143 -35 143 -109c0 -75 -63 -123 -161 -188h160v-88h-303v82c68 48 200 125 200 186c0 28 -20 40 -44 40c-32 0 -56 -22 -58 -70l-98 1c1 93 61 146 161 146z" />
    <glyph glyph-name="three.numerator" horiz-adv-x="359" 
d="M179 355c35 0 52 17 52 39c0 30 -26 42 -75 42h-18v83h18c43 0 66 13 66 40c0 23 -23 34 -46 34c-29 0 -54 -14 -57 -51l-100 11c10 75 70 117 164 117c82 0 143 -37 143 -103c0 -40 -23 -70 -50 -83c36 -13 61 -47 61 -90c0 -76 -75 -116 -159 -116
c-94 0 -156 51 -164 126l99 10c6 -42 32 -59 66 -59z" />
    <glyph glyph-name="four.numerator" horiz-adv-x="370" 
d="M197 540l-79 -92h79v92zM357 448v-88h-58v-75h-102v75h-182v78l194 226h90v-216h58z" />
    <glyph glyph-name="five.numerator" horiz-adv-x="369" 
d="M182 355c37 0 60 23 60 57c0 33 -23 57 -57 57c-29 0 -50 -12 -61 -31l-91 8l28 218h262v-87h-176l-9 -56c20 18 52 25 82 25c72 0 127 -50 127 -134c0 -85 -66 -134 -160 -134c-85 0 -154 39 -166 118l98 15c6 -34 29 -56 63 -56z" />
    <glyph glyph-name="six.numerator" horiz-adv-x="363" 
d="M128 412c0 -36 24 -57 54 -57s54 21 54 57c0 35 -25 56 -54 56c-30 0 -54 -20 -54 -56zM188 593c-36 0 -63 -26 -63 -77c20 20 52 29 88 29c61 0 128 -43 128 -132c0 -86 -67 -135 -159 -135c-106 0 -160 76 -160 188c0 117 54 204 171 204c89 0 137 -48 139 -110h-95
c-3 23 -24 33 -49 33z" />
    <glyph glyph-name="seven.numerator" horiz-adv-x="314" 
d="M10 577v87h304v-87c-105 -74 -157 -157 -155 -292h-112c-3 131 77 236 161 292h-198z" />
    <glyph glyph-name="eight.numerator" horiz-adv-x="362" 
d="M181 670c95 0 149 -47 149 -103c0 -31 -15 -61 -39 -79c34 -22 50 -52 50 -91c0 -70 -65 -119 -160 -119s-160 49 -160 119c0 39 16 69 50 91c-24 18 -39 47 -39 79c0 56 54 103 149 103zM181 450c-34 0 -56 -20 -56 -47c0 -29 22 -48 56 -48s56 19 56 48
c0 27 -22 47 -56 47zM229 555c0 23 -20 38 -48 38s-48 -15 -48 -38s20 -39 48 -39s48 16 48 39z" />
    <glyph glyph-name="nine.numerator" horiz-adv-x="363" 
d="M235 536c0 36 -25 57 -55 57c-29 0 -53 -21 -53 -57c0 -35 24 -55 53 -55c30 0 55 20 55 55zM175 355c35 0 63 26 62 78c-20 -20 -51 -29 -87 -29c-61 0 -128 42 -128 131c0 86 67 135 155 135c111 0 164 -73 164 -188c0 -117 -52 -204 -170 -204c-89 0 -139 48 -141 110
l96 1c3 -24 24 -34 49 -34z" />
    <glyph glyph-name="a.superior" horiz-adv-x="325" 
d="M121 597h-95c6 65 59 96 146 96c85 0 127 -32 127 -112l-1 -60c-1 -34 1 -73 5 -114h-91l-1 32c-14 -23 -41 -39 -88 -39c-68 0 -106 44 -106 94c0 27 10 47 26 59c27 22 80 29 123 34l34 4v6c0 19 -12 28 -39 28c-20 0 -38 -6 -40 -28zM203 513v17l-37 -4
c-36 -3 -46 -13 -46 -28c0 -14 10 -27 33 -27c28 0 50 15 50 42z" />
    <glyph glyph-name="b.superior" horiz-adv-x="348" 
d="M34 407v379h102v-128c14 21 40 35 77 35c68 0 120 -54 120 -147s-55 -146 -122 -146c-31 0 -60 11 -75 35v-28h-102zM182 616c-30 0 -50 -30 -50 -70c0 -39 20 -69 50 -69c31 0 46 34 46 70c0 35 -15 69 -46 69z" />
    <glyph glyph-name="c.superior" horiz-adv-x="326" 
d="M166 693c79 0 130 -42 145 -103l-94 -15c-5 26 -21 41 -46 41c-36 0 -51 -28 -51 -69s16 -70 51 -70c28 0 43 16 48 41l94 -15c-16 -62 -69 -103 -146 -103c-99 0 -151 60 -151 147s60 146 150 146z" />
    <glyph glyph-name="d.superior" horiz-adv-x="353" 
d="M319 786v-379h-102v28c-13 -20 -40 -35 -77 -35c-68 0 -120 54 -120 147s55 146 123 146c30 0 59 -11 74 -34v127h102zM171 477c31 0 50 30 50 70c0 39 -19 69 -50 69s-46 -34 -46 -70c0 -35 15 -69 46 -69z" />
    <glyph glyph-name="e.superior" horiz-adv-x="335" 
d="M170 400c-99 0 -154 62 -154 149c0 88 64 144 154 144c101 0 158 -66 149 -171h-201c3 -28 22 -45 54 -45c27 0 41 13 48 30l96 -14c-17 -47 -60 -93 -146 -93zM169 625c-22 0 -47 -9 -50 -43h99c-1 31 -25 43 -49 43z" />
    <glyph glyph-name="f.superior" horiz-adv-x="216" 
d="M45 687v11c0 73 28 88 106 88h53v-75h-33c-19 0 -24 -4 -24 -20v-4h57v-72h-57v-208h-102v208h-36v72h36z" />
    <glyph glyph-name="g.superior" horiz-adv-x="348" 
d="M213 415v32c-14 -20 -41 -35 -77 -35c-68 0 -120 48 -120 141s54 140 122 140c31 0 60 -11 75 -35v29h102v-270c0 -42 -15 -71 -40 -90c-26 -19 -63 -27 -107 -27c-92 0 -132 36 -142 94l96 5c4 -18 15 -30 45 -30c13 0 24 3 32 10s14 18 14 36zM167 489
c30 0 49 26 49 64s-19 63 -49 63c-31 0 -46 -27 -46 -64c0 -35 15 -63 46 -63z" />
    <glyph glyph-name="h.superior" horiz-adv-x="347" 
d="M136 786v-131c18 25 47 38 87 38c31 0 58 -9 74 -28c15 -16 22 -43 22 -90v-168h-102v147c0 26 -3 38 -8 45c-7 9 -17 12 -29 12c-27 0 -44 -17 -44 -61v-143h-102v379h102z" />
    <glyph glyph-name="i.superior" horiz-adv-x="170" 
d="M34 687h102v-280h-102v280zM34 786h102v-79h-102v79z" />
    <glyph glyph-name="j.superior" horiz-adv-x="170" 
d="M34 406v281h102v-284c0 -77 -28 -95 -104 -95h-38v76h17c16 0 23 4 23 22zM34 786h102v-79h-102v79z" />
    <glyph glyph-name="k.superior" horiz-adv-x="350" 
d="M34 786h102v-188l81 89h125l-103 -105l107 -175h-117l-61 102l-32 -33v-69h-102v379z" />
    <glyph glyph-name="l.superior" horiz-adv-x="170" 
d="M136 786v-379h-102v379h102z" />
    <glyph glyph-name="m.superior" horiz-adv-x="521" 
d="M34 407v280h101v-32c17 23 44 38 85 38c43 0 68 -15 81 -48c21 30 50 48 98 48c33 0 58 -9 73 -29c14 -17 21 -43 21 -88v-169h-102v146c0 20 -1 37 -10 47c-4 7 -13 11 -25 11c-27 0 -42 -17 -42 -60v-144h-102v146c0 20 -1 37 -9 47c-5 7 -13 11 -25 11
c-28 0 -42 -17 -42 -60v-144h-102z" />
    <glyph glyph-name="n.superior" unicode="&#x207f;" horiz-adv-x="347" 
d="M135 687v-32c19 25 47 38 88 38c31 0 58 -9 74 -28c15 -16 22 -43 22 -90v-168h-102v147c0 26 -3 38 -8 45c-7 9 -17 12 -29 12c-27 0 -44 -17 -44 -61v-143h-102v280h101z" />
    <glyph glyph-name="o.superior" horiz-adv-x="338" 
d="M120 546c0 -47 21 -69 49 -69s49 22 49 69c0 48 -21 70 -49 70s-49 -22 -49 -70zM16 546c0 101 70 147 153 147s154 -46 154 -147c0 -100 -71 -146 -154 -146s-153 46 -153 146z" />
    <glyph glyph-name="p.superior" horiz-adv-x="348" 
d="M136 435v-127h-102v379h102v-29c14 21 40 35 77 35c68 0 120 -54 120 -147s-55 -146 -122 -146c-31 0 -60 11 -75 35zM182 616c-30 0 -50 -30 -50 -70c0 -39 20 -69 50 -69c31 0 46 34 46 70c0 35 -15 69 -46 69z" />
    <glyph glyph-name="q.superior" horiz-adv-x="348" 
d="M213 658v29h102v-379h-102v127c-14 -20 -41 -35 -78 -35c-67 0 -119 54 -119 147s54 146 122 146c31 0 60 -11 75 -35zM167 477c30 0 49 30 49 70c0 39 -19 69 -49 69c-31 0 -47 -34 -47 -70c0 -35 16 -69 47 -69z" />
    <glyph glyph-name="r.superior" horiz-adv-x="227" 
d="M219 689v-102c-10 2 -22 4 -34 4c-26 0 -49 -8 -49 -42v-142h-102v280h99v-41c13 30 42 43 74 43h12z" />
    <glyph glyph-name="s.superior" horiz-adv-x="308" 
d="M285 652l-45 -62c-22 17 -49 28 -86 28c-21 0 -30 -5 -30 -12c0 -6 4 -12 24 -16l39 -7c62 -12 104 -32 104 -85c0 -66 -65 -98 -138 -98c-66 0 -116 22 -142 52l49 62c20 -23 53 -38 93 -38c21 0 39 4 39 15c0 10 -10 13 -35 17l-32 6c-58 11 -99 36 -99 90
c0 59 61 89 133 89c60 0 105 -18 126 -41z" />
    <glyph glyph-name="t.superior" horiz-adv-x="227" 
d="M50 687v84h102v-84h58v-72h-58v-110c0 -19 8 -22 24 -22h34v-76h-57c-76 0 -103 9 -103 85v123h-46v72h46z" />
    <glyph glyph-name="u.superior" horiz-adv-x="345" 
d="M209 407v33c-16 -26 -42 -40 -82 -40c-33 0 -59 9 -75 28c-14 18 -22 44 -22 91v168h103v-149c0 -24 2 -37 8 -44c6 -8 15 -12 28 -12c26 0 40 17 40 61v144h102v-280h-102z" />
    <glyph glyph-name="v.superior" horiz-adv-x="318" 
d="M114 687l48 -178l46 178h105l-96 -280h-113l-100 280h110z" />
    <glyph glyph-name="w.superior" horiz-adv-x="467" 
d="M148 510l32 177h108l36 -177l32 177h106l-81 -280h-113l-33 167l-34 -167h-113l-84 280h110z" />
    <glyph glyph-name="x.superior" horiz-adv-x="339" 
d="M332 687l-106 -137l109 -143h-114l-53 69l-53 -69h-111l109 141l-105 139h115l48 -64l50 64h111z" />
    <glyph glyph-name="y.superior" horiz-adv-x="317" 
d="M72 308h-37v76h30c25 0 35 2 41 18l2 4l-104 281h110l46 -176l46 176h106l-108 -284c-28 -73 -55 -95 -132 -95z" />
    <glyph glyph-name="z.superior" horiz-adv-x="315" 
d="M17 407v76l136 125h-125v79h262v-77l-136 -124h142v-79h-279z" />
    <glyph glyph-name="a.inferior" horiz-adv-x="325" 
d="M121 70h-95c6 65 59 96 146 96c85 0 127 -32 127 -112l-1 -60c-1 -34 1 -73 5 -114h-91l-1 32c-14 -23 -41 -39 -88 -39c-68 0 -106 44 -106 94c0 27 10 47 26 59c27 22 80 29 123 34l34 4v6c0 19 -12 28 -39 28c-20 0 -38 -6 -40 -28zM203 -14v17l-37 -4
c-36 -3 -46 -13 -46 -28c0 -14 10 -27 33 -27c28 0 50 15 50 42z" />
    <glyph glyph-name="b.inferior" horiz-adv-x="348" 
d="M34 -120v379h102v-128c14 21 40 35 77 35c68 0 120 -54 120 -147s-55 -146 -122 -146c-31 0 -60 11 -75 35v-28h-102zM182 89c-30 0 -50 -30 -50 -70c0 -39 20 -69 50 -69c31 0 46 34 46 70c0 35 -15 69 -46 69z" />
    <glyph glyph-name="c.inferior" horiz-adv-x="326" 
d="M166 166c79 0 130 -42 145 -103l-94 -15c-5 26 -21 41 -46 41c-36 0 -51 -28 -51 -69s16 -70 51 -70c28 0 43 16 48 41l94 -15c-16 -62 -69 -103 -146 -103c-99 0 -151 60 -151 147s60 146 150 146z" />
    <glyph glyph-name="d.inferior" horiz-adv-x="353" 
d="M319 259v-379h-102v28c-13 -20 -40 -35 -77 -35c-68 0 -120 54 -120 147s55 146 123 146c30 0 59 -11 74 -34v127h102zM171 -50c31 0 50 30 50 70c0 39 -19 69 -50 69s-46 -34 -46 -70c0 -35 15 -69 46 -69z" />
    <glyph glyph-name="e.inferior" horiz-adv-x="335" 
d="M170 -127c-99 0 -154 62 -154 149c0 88 64 144 154 144c101 0 158 -66 149 -171h-201c3 -28 22 -45 54 -45c27 0 41 13 48 30l96 -14c-17 -47 -60 -93 -146 -93zM169 98c-22 0 -47 -9 -50 -43h99c-1 31 -25 43 -49 43z" />
    <glyph glyph-name="f.inferior" horiz-adv-x="216" 
d="M45 160v11c0 73 28 88 106 88h53v-75h-33c-19 0 -24 -4 -24 -20v-4h57v-72h-57v-208h-102v208h-36v72h36z" />
    <glyph glyph-name="g.inferior" horiz-adv-x="348" 
d="M213 -112v32c-14 -20 -41 -35 -77 -35c-68 0 -120 48 -120 141s54 140 122 140c31 0 60 -11 75 -35v29h102v-270c0 -42 -15 -71 -40 -90c-26 -19 -63 -27 -107 -27c-92 0 -132 36 -142 94l96 5c4 -18 15 -30 45 -30c13 0 24 3 32 10s14 18 14 36zM167 -38
c30 0 49 26 49 64s-19 63 -49 63c-31 0 -46 -27 -46 -64c0 -35 15 -63 46 -63z" />
    <glyph glyph-name="h.inferior" horiz-adv-x="347" 
d="M136 259v-131c18 25 47 38 87 38c31 0 58 -9 74 -28c15 -16 22 -43 22 -90v-168h-102v147c0 26 -3 38 -8 45c-7 9 -17 12 -29 12c-27 0 -44 -17 -44 -61v-143h-102v379h102z" />
    <glyph glyph-name="i.inferior" horiz-adv-x="170" 
d="M34 160h102v-280h-102v280zM34 259h102v-79h-102v79z" />
    <glyph glyph-name="j.inferior" horiz-adv-x="170" 
d="M34 -121v281h102v-284c0 -77 -28 -95 -104 -95h-38v76h17c16 0 23 4 23 22zM34 259h102v-79h-102v79z" />
    <glyph glyph-name="k.inferior" horiz-adv-x="350" 
d="M34 259h102v-188l81 89h125l-103 -105l107 -175h-117l-61 103l-32 -34v-69h-102v379z" />
    <glyph glyph-name="l.inferior" horiz-adv-x="170" 
d="M136 259v-379h-102v379h102z" />
    <glyph glyph-name="m.inferior" horiz-adv-x="521" 
d="M34 -120v280h101v-32c17 23 44 38 85 38c43 0 68 -15 81 -48c21 30 50 48 98 48c33 0 58 -9 73 -29c14 -17 21 -43 21 -88v-169h-102v146c0 20 -1 37 -10 47c-4 7 -13 11 -25 11c-27 0 -42 -17 -42 -60v-144h-102v146c0 20 -1 37 -9 47c-5 7 -13 11 -25 11
c-28 0 -42 -17 -42 -60v-144h-102z" />
    <glyph glyph-name="n.inferior" horiz-adv-x="347" 
d="M135 160v-32c19 25 47 38 88 38c31 0 58 -9 74 -28c15 -16 22 -43 22 -90v-168h-102v147c0 26 -3 38 -8 45c-7 9 -17 12 -29 12c-27 0 -44 -17 -44 -61v-143h-102v280h101z" />
    <glyph glyph-name="o.inferior" horiz-adv-x="338" 
d="M120 19c0 -47 21 -69 49 -69s49 22 49 69c0 48 -21 70 -49 70s-49 -22 -49 -70zM16 19c0 101 70 147 153 147s154 -46 154 -147c0 -100 -71 -146 -154 -146s-153 46 -153 146z" />
    <glyph glyph-name="p.inferior" horiz-adv-x="348" 
d="M136 -92v-127h-102v379h102v-29c14 21 40 35 77 35c68 0 120 -54 120 -147s-55 -146 -122 -146c-31 0 -60 11 -75 35zM182 89c-30 0 -50 -30 -50 -70c0 -39 20 -69 50 -69c31 0 46 34 46 70c0 35 -15 69 -46 69z" />
    <glyph glyph-name="q.inferior" horiz-adv-x="348" 
d="M213 131v29h102v-379h-102v127c-14 -20 -41 -35 -78 -35c-67 0 -119 54 -119 147s54 146 122 146c31 0 60 -11 75 -35zM167 -50c30 0 49 30 49 70c0 39 -19 69 -49 69c-31 0 -47 -34 -47 -70c0 -35 16 -69 47 -69z" />
    <glyph glyph-name="r.inferior" horiz-adv-x="227" 
d="M219 162v-102c-10 2 -22 4 -34 4c-26 0 -49 -8 -49 -42v-142h-102v280h99v-41c13 30 42 43 74 43h12z" />
    <glyph glyph-name="s.inferior" horiz-adv-x="308" 
d="M285 125l-45 -62c-22 17 -49 28 -86 28c-21 0 -30 -5 -30 -12c0 -6 4 -12 24 -16l39 -7c62 -12 104 -32 104 -85c0 -66 -65 -98 -138 -98c-66 0 -116 22 -142 52l49 62c20 -23 53 -38 93 -38c21 0 39 4 39 15c0 10 -10 13 -35 17l-32 6c-58 11 -99 36 -99 90
c0 59 61 89 133 89c60 0 105 -18 126 -41z" />
    <glyph glyph-name="t.inferior" horiz-adv-x="227" 
d="M50 160v84h102v-84h58v-72h-58v-110c0 -19 8 -22 24 -22h34v-76h-57c-76 0 -103 9 -103 85v123h-46v72h46z" />
    <glyph glyph-name="u.inferior" horiz-adv-x="345" 
d="M209 -120v33c-16 -26 -42 -40 -82 -40c-33 0 -59 9 -75 28c-14 18 -22 44 -22 91v168h103v-149c0 -24 2 -37 8 -44c6 -8 15 -12 28 -12c26 0 40 17 40 61v144h102v-280h-102z" />
    <glyph glyph-name="v.inferior" horiz-adv-x="318" 
d="M114 160l48 -178l46 178h105l-96 -280h-113l-100 280h110z" />
    <glyph glyph-name="w.inferior" horiz-adv-x="467" 
d="M148 -17l32 177h108l36 -177l32 177h106l-81 -280h-113l-33 167l-34 -167h-113l-84 280h110z" />
    <glyph glyph-name="x.inferior" horiz-adv-x="339" 
d="M332 160l-106 -137l109 -143h-114l-53 69l-53 -69h-111l109 141l-105 139h115l48 -64l50 64h111z" />
    <glyph glyph-name="y.inferior" horiz-adv-x="317" 
d="M72 -219h-37v76h30c25 0 35 2 41 18l2 4l-104 281h110l46 -176l46 176h106l-108 -284c-28 -73 -55 -95 -132 -95z" />
    <glyph glyph-name="z.inferior" horiz-adv-x="315" 
d="M17 -120v76l136 125h-125v79h262v-77l-136 -124h142v-79h-279z" />
    <glyph glyph-name="a.denominator" horiz-adv-x="325" 
d="M121 190h-95c6 65 59 96 146 96c85 0 127 -32 127 -112l-1 -60c-1 -34 1 -73 5 -114h-91l-1 32c-14 -23 -41 -39 -88 -39c-68 0 -106 44 -106 94c0 27 10 47 26 59c27 22 80 29 123 34l34 4v6c0 19 -12 28 -39 28c-20 0 -38 -6 -40 -28zM203 106v17l-37 -4
c-36 -3 -46 -13 -46 -28c0 -14 10 -27 33 -27c28 0 50 15 50 42z" />
    <glyph glyph-name="b.denominator" horiz-adv-x="348" 
d="M34 0v379h102v-128c14 21 40 35 77 35c68 0 120 -54 120 -147s-55 -146 -122 -146c-31 0 -60 11 -75 35v-28h-102zM182 209c-30 0 -50 -30 -50 -70c0 -39 20 -69 50 -69c31 0 46 34 46 70c0 35 -15 69 -46 69z" />
    <glyph glyph-name="c.denominator" horiz-adv-x="326" 
d="M166 286c79 0 130 -42 145 -103l-94 -15c-5 26 -21 41 -46 41c-36 0 -51 -28 -51 -69s16 -70 51 -70c28 0 43 16 48 41l94 -15c-16 -62 -69 -103 -146 -103c-99 0 -151 60 -151 147s60 146 150 146z" />
    <glyph glyph-name="d.denominator" horiz-adv-x="353" 
d="M319 379v-379h-102v28c-13 -20 -40 -35 -77 -35c-68 0 -120 54 -120 147s55 146 123 146c30 0 59 -11 74 -34v127h102zM171 70c31 0 50 30 50 70c0 39 -19 69 -50 69s-46 -34 -46 -70c0 -35 15 -69 46 -69z" />
    <glyph glyph-name="e.denominator" horiz-adv-x="335" 
d="M170 -7c-99 0 -154 62 -154 149c0 88 64 144 154 144c101 0 158 -66 149 -171h-201c3 -28 22 -45 54 -45c27 0 41 13 48 30l96 -14c-17 -47 -60 -93 -146 -93zM169 218c-22 0 -47 -9 -50 -43h99c-1 31 -25 43 -49 43z" />
    <glyph glyph-name="f.denominator" horiz-adv-x="216" 
d="M45 280v11c0 73 28 88 106 88h53v-75h-33c-19 0 -24 -4 -24 -20v-4h57v-72h-57v-208h-102v208h-36v72h36z" />
    <glyph glyph-name="g.denominator" horiz-adv-x="348" 
d="M213 8v32c-14 -20 -41 -35 -77 -35c-68 0 -120 48 -120 141s54 140 122 140c31 0 60 -11 75 -35v29h102v-270c0 -42 -15 -71 -40 -90c-26 -19 -63 -27 -107 -27c-92 0 -132 36 -142 94l96 5c4 -18 15 -30 45 -30c13 0 24 3 32 10s14 18 14 36zM167 82c30 0 49 26 49 64
s-19 63 -49 63c-31 0 -46 -27 -46 -64c0 -35 15 -63 46 -63z" />
    <glyph glyph-name="h.denominator" horiz-adv-x="347" 
d="M136 379v-131c18 25 47 38 87 38c31 0 58 -9 74 -28c15 -16 22 -43 22 -90v-168h-102v147c0 26 -3 38 -8 45c-7 9 -17 12 -29 12c-27 0 -44 -17 -44 -61v-143h-102v379h102z" />
    <glyph glyph-name="i.denominator" horiz-adv-x="170" 
d="M34 280h102v-280h-102v280zM34 379h102v-79h-102v79z" />
    <glyph glyph-name="j.denominator" horiz-adv-x="170" 
d="M34 -1v281h102v-284c0 -77 -28 -95 -104 -95h-38v76h17c16 0 23 4 23 22zM34 379h102v-79h-102v79z" />
    <glyph glyph-name="k.denominator" horiz-adv-x="350" 
d="M34 379h102v-188l81 89h125l-103 -105l107 -175h-117l-61 102l-32 -33v-69h-102v379z" />
    <glyph glyph-name="l.denominator" horiz-adv-x="170" 
d="M136 379v-379h-102v379h102z" />
    <glyph glyph-name="m.denominator" horiz-adv-x="521" 
d="M34 0v280h101v-32c17 23 44 38 85 38c43 0 68 -15 81 -48c21 30 50 48 98 48c33 0 58 -9 73 -29c14 -17 21 -43 21 -88v-169h-102v146c0 20 -1 37 -10 47c-4 7 -13 11 -25 11c-27 0 -42 -17 -42 -60v-144h-102v146c0 20 -1 37 -9 47c-5 7 -13 11 -25 11
c-28 0 -42 -17 -42 -60v-144h-102z" />
    <glyph glyph-name="n.denominator" horiz-adv-x="347" 
d="M135 280v-32c19 25 47 38 88 38c31 0 58 -9 74 -28c15 -16 22 -43 22 -90v-168h-102v147c0 26 -3 38 -8 45c-7 9 -17 12 -29 12c-27 0 -44 -17 -44 -61v-143h-102v280h101z" />
    <glyph glyph-name="o.denominator" horiz-adv-x="338" 
d="M120 139c0 -47 21 -69 49 -69s49 22 49 69c0 48 -21 70 -49 70s-49 -22 -49 -70zM16 139c0 101 70 147 153 147s154 -46 154 -147c0 -100 -71 -146 -154 -146s-153 46 -153 146z" />
    <glyph glyph-name="p.denominator" horiz-adv-x="348" 
d="M136 28v-127h-102v379h102v-29c14 21 40 35 77 35c68 0 120 -54 120 -147s-55 -146 -122 -146c-31 0 -60 11 -75 35zM182 209c-30 0 -50 -30 -50 -70c0 -39 20 -69 50 -69c31 0 46 34 46 70c0 35 -15 69 -46 69z" />
    <glyph glyph-name="q.denominator" horiz-adv-x="348" 
d="M213 251v29h102v-379h-102v127c-14 -20 -41 -35 -78 -35c-67 0 -119 54 -119 147s54 146 122 146c31 0 60 -11 75 -35zM167 70c30 0 49 30 49 70c0 39 -19 69 -49 69c-31 0 -47 -34 -47 -70c0 -35 16 -69 47 -69z" />
    <glyph glyph-name="r.denominator" horiz-adv-x="227" 
d="M219 282v-102c-10 2 -22 4 -34 4c-26 0 -49 -8 -49 -42v-142h-102v280h99v-41c13 30 42 43 74 43h12z" />
    <glyph glyph-name="s.denominator" horiz-adv-x="308" 
d="M285 245l-45 -62c-22 17 -49 28 -86 28c-21 0 -30 -5 -30 -12c0 -6 4 -12 24 -16l39 -7c62 -12 104 -32 104 -85c0 -66 -65 -98 -138 -98c-66 0 -116 22 -142 52l49 62c20 -23 53 -38 93 -38c21 0 39 4 39 15c0 10 -10 13 -35 17l-32 6c-58 11 -99 36 -99 90
c0 59 61 89 133 89c60 0 105 -18 126 -41z" />
    <glyph glyph-name="t.denominator" horiz-adv-x="227" 
d="M50 280v84h102v-84h58v-72h-58v-110c0 -19 8 -22 24 -22h34v-76h-57c-76 0 -103 9 -103 85v123h-46v72h46z" />
    <glyph glyph-name="u.denominator" horiz-adv-x="345" 
d="M209 0v33c-16 -26 -42 -40 -82 -40c-33 0 -59 9 -75 28c-14 18 -22 44 -22 91v168h103v-149c0 -24 2 -37 8 -44c6 -8 15 -12 28 -12c26 0 40 17 40 61v144h102v-280h-102z" />
    <glyph glyph-name="v.denominator" horiz-adv-x="318" 
d="M114 280l48 -178l46 178h105l-96 -280h-113l-100 280h110z" />
    <glyph glyph-name="w.denominator" horiz-adv-x="467" 
d="M148 103l32 177h108l36 -177l32 177h106l-81 -280h-113l-33 167l-34 -167h-113l-84 280h110z" />
    <glyph glyph-name="x.denominator" horiz-adv-x="339" 
d="M332 280l-106 -137l109 -143h-114l-53 69l-53 -69h-111l109 141l-105 139h115l48 -64l50 64h111z" />
    <glyph glyph-name="y.denominator" horiz-adv-x="317" 
d="M72 -99h-37v76h30c25 0 35 2 41 18l2 4l-104 281h110l46 -176l46 176h106l-108 -284c-28 -73 -55 -95 -132 -95z" />
    <glyph glyph-name="z.denominator" horiz-adv-x="315" 
d="M17 0v76l136 125h-125v79h262v-77l-136 -124h142v-79h-279z" />
    <glyph glyph-name="a.numerator" horiz-adv-x="325" 
d="M121 475h-95c6 65 59 96 146 96c85 0 127 -32 127 -112l-1 -60c-1 -34 1 -73 5 -114h-91l-1 32c-14 -23 -41 -39 -88 -39c-68 0 -106 44 -106 94c0 27 10 47 26 59c27 22 80 29 123 34l34 4v6c0 19 -12 28 -39 28c-20 0 -38 -6 -40 -28zM203 391v17l-37 -4
c-36 -3 -46 -13 -46 -28c0 -14 10 -27 33 -27c28 0 50 15 50 42z" />
    <glyph glyph-name="b.numerator" horiz-adv-x="348" 
d="M34 285v379h102v-128c14 21 40 35 77 35c68 0 120 -54 120 -147s-55 -146 -122 -146c-31 0 -60 11 -75 35v-28h-102zM182 494c-30 0 -50 -30 -50 -70c0 -39 20 -69 50 -69c31 0 46 34 46 70c0 35 -15 69 -46 69z" />
    <glyph glyph-name="c.numerator" horiz-adv-x="326" 
d="M166 571c79 0 130 -42 145 -103l-94 -15c-5 26 -21 41 -46 41c-36 0 -51 -28 -51 -69s16 -70 51 -70c28 0 43 16 48 41l94 -15c-16 -62 -69 -103 -146 -103c-99 0 -151 60 -151 147s60 146 150 146z" />
    <glyph glyph-name="d.numerator" horiz-adv-x="353" 
d="M319 664v-379h-102v28c-13 -20 -40 -35 -77 -35c-68 0 -120 54 -120 147s55 146 123 146c30 0 59 -11 74 -34v127h102zM171 355c31 0 50 30 50 70c0 39 -19 69 -50 69s-46 -34 -46 -70c0 -35 15 -69 46 -69z" />
    <glyph glyph-name="e.numerator" horiz-adv-x="335" 
d="M170 278c-99 0 -154 62 -154 149c0 88 64 144 154 144c101 0 158 -66 149 -171h-201c3 -28 22 -45 54 -45c27 0 41 13 48 30l96 -14c-17 -47 -60 -93 -146 -93zM169 503c-22 0 -47 -9 -50 -43h99c-1 31 -25 43 -49 43z" />
    <glyph glyph-name="f.numerator" horiz-adv-x="216" 
d="M45 565v11c0 73 28 88 106 88h53v-75h-33c-19 0 -24 -4 -24 -20v-4h57v-72h-57v-208h-102v208h-36v72h36z" />
    <glyph glyph-name="g.numerator" horiz-adv-x="348" 
d="M213 293v32c-14 -20 -41 -35 -77 -35c-68 0 -120 48 -120 141s54 140 122 140c31 0 60 -11 75 -35v29h102v-270c0 -42 -15 -71 -40 -90c-26 -19 -63 -27 -107 -27c-92 0 -132 36 -142 94l96 5c4 -18 15 -30 45 -30c13 0 24 3 32 10s14 18 14 36zM167 367
c30 0 49 26 49 64s-19 63 -49 63c-31 0 -46 -27 -46 -64c0 -35 15 -63 46 -63z" />
    <glyph glyph-name="h.numerator" horiz-adv-x="347" 
d="M136 664v-131c18 25 47 38 87 38c31 0 58 -9 74 -28c15 -16 22 -43 22 -90v-168h-102v147c0 26 -3 38 -8 45c-7 9 -17 12 -29 12c-27 0 -44 -17 -44 -61v-143h-102v379h102z" />
    <glyph glyph-name="i.numerator" horiz-adv-x="170" 
d="M34 565h102v-280h-102v280zM34 664h102v-79h-102v79z" />
    <glyph glyph-name="j.numerator" horiz-adv-x="170" 
d="M34 284v281h102v-284c0 -77 -28 -95 -104 -95h-38v76h17c16 0 23 4 23 22zM34 664h102v-79h-102v79z" />
    <glyph glyph-name="k.numerator" horiz-adv-x="350" 
d="M34 664h102v-188l81 89h125l-103 -105l107 -175h-117l-61 102l-32 -33v-69h-102v379z" />
    <glyph glyph-name="l.numerator" horiz-adv-x="170" 
d="M136 664v-379h-102v379h102z" />
    <glyph glyph-name="m.numerator" horiz-adv-x="521" 
d="M34 285v280h101v-32c17 23 44 38 85 38c43 0 68 -15 81 -48c21 30 50 48 98 48c33 0 58 -9 73 -29c14 -17 21 -43 21 -88v-169h-102v146c0 20 -1 37 -10 47c-4 7 -13 11 -25 11c-27 0 -42 -17 -42 -60v-144h-102v146c0 20 -1 37 -9 47c-5 7 -13 11 -25 11
c-28 0 -42 -17 -42 -60v-144h-102z" />
    <glyph glyph-name="n.numerator" horiz-adv-x="347" 
d="M135 565v-32c19 25 47 38 88 38c31 0 58 -9 74 -28c15 -16 22 -43 22 -90v-168h-102v147c0 26 -3 38 -8 45c-7 9 -17 12 -29 12c-27 0 -44 -17 -44 -61v-143h-102v280h101z" />
    <glyph glyph-name="o.numerator" horiz-adv-x="338" 
d="M120 424c0 -47 21 -69 49 -69s49 22 49 69c0 48 -21 70 -49 70s-49 -22 -49 -70zM16 424c0 101 70 147 153 147s154 -46 154 -147c0 -100 -71 -146 -154 -146s-153 46 -153 146z" />
    <glyph glyph-name="p.numerator" horiz-adv-x="348" 
d="M136 313v-127h-102v379h102v-29c14 21 40 35 77 35c68 0 120 -54 120 -147s-55 -146 -122 -146c-31 0 -60 11 -75 35zM182 494c-30 0 -50 -30 -50 -70c0 -39 20 -69 50 -69c31 0 46 34 46 70c0 35 -15 69 -46 69z" />
    <glyph glyph-name="q.numerator" horiz-adv-x="348" 
d="M213 536v29h102v-379h-102v127c-14 -20 -41 -35 -78 -35c-67 0 -119 54 -119 147s54 146 122 146c31 0 60 -11 75 -35zM167 355c30 0 49 30 49 70c0 39 -19 69 -49 69c-31 0 -47 -34 -47 -70c0 -35 16 -69 47 -69z" />
    <glyph glyph-name="r.numerator" horiz-adv-x="227" 
d="M219 567v-102c-10 2 -22 4 -34 4c-26 0 -49 -8 -49 -42v-142h-102v280h99v-41c13 30 42 43 74 43h12z" />
    <glyph glyph-name="s.numerator" horiz-adv-x="308" 
d="M285 530l-45 -62c-22 17 -49 28 -86 28c-21 0 -30 -5 -30 -12c0 -6 4 -12 24 -16l39 -7c62 -12 104 -32 104 -85c0 -66 -65 -98 -138 -98c-66 0 -116 22 -142 52l49 62c20 -23 53 -38 93 -38c21 0 39 4 39 15c0 10 -10 13 -35 17l-32 6c-58 11 -99 36 -99 90
c0 59 61 89 133 89c60 0 105 -18 126 -41z" />
    <glyph glyph-name="t.numerator" horiz-adv-x="227" 
d="M50 565v84h102v-84h58v-72h-58v-110c0 -19 8 -22 24 -22h34v-76h-57c-76 0 -103 9 -103 85v123h-46v72h46z" />
    <glyph glyph-name="u.numerator" horiz-adv-x="345" 
d="M209 285v33c-16 -26 -42 -40 -82 -40c-33 0 -59 9 -75 28c-14 18 -22 44 -22 91v168h103v-149c0 -24 2 -37 8 -44c6 -8 15 -12 28 -12c26 0 40 17 40 61v144h102v-280h-102z" />
    <glyph glyph-name="v.numerator" horiz-adv-x="318" 
d="M114 565l48 -178l46 178h105l-96 -280h-113l-100 280h110z" />
    <glyph glyph-name="w.numerator" horiz-adv-x="467" 
d="M148 388l32 177h108l36 -177l32 177h106l-81 -280h-113l-33 167l-34 -167h-113l-84 280h110z" />
    <glyph glyph-name="x.numerator" horiz-adv-x="339" 
d="M332 565l-106 -137l109 -143h-114l-53 69l-53 -69h-111l109 141l-105 139h115l48 -64l50 64h111z" />
    <glyph glyph-name="y.numerator" horiz-adv-x="317" 
d="M72 186h-37v76h30c25 0 35 2 41 18l2 4l-104 281h110l46 -176l46 176h106l-108 -284c-28 -73 -55 -95 -132 -95z" />
    <glyph glyph-name="z.numerator" horiz-adv-x="315" 
d="M17 285v76l136 125h-125v79h262v-77l-136 -124h142v-79h-279z" />
    <glyph glyph-name="zero.fractioninf" horiz-adv-x="360" 
d="M180 -7c-109 0 -166 73 -166 196s57 196 166 196c108 0 165 -73 165 -196s-57 -196 -165 -196zM180 70c35 0 60 30 60 119c0 90 -25 119 -60 119c-36 0 -61 -29 -61 -119c0 -89 25 -119 61 -119z" />
    <glyph glyph-name="one.fractioninf" horiz-adv-x="360" 
d="M273 0h-102v246h-85v75c66 2 92 19 107 58h80v-379z" />
    <glyph glyph-name="two.fractioninf" horiz-adv-x="360" 
d="M189 385c81 0 143 -35 143 -109c0 -75 -63 -123 -161 -188h160v-88h-303v82c68 48 200 125 200 186c0 28 -20 40 -44 40c-32 0 -56 -22 -58 -70l-98 1c1 93 61 146 161 146z" />
    <glyph glyph-name="three.fractioninf" horiz-adv-x="360" 
d="M183 70c35 0 52 17 52 39c0 30 -26 42 -75 42h-18v83h18c43 0 66 13 66 40c0 23 -23 34 -46 34c-29 0 -54 -14 -57 -51l-100 11c10 75 70 117 164 117c82 0 143 -37 143 -103c0 -40 -23 -70 -50 -83c36 -13 61 -47 61 -90c0 -76 -75 -116 -159 -116
c-94 0 -156 51 -164 126l99 10c6 -42 32 -59 66 -59z" />
    <glyph glyph-name="four.fractioninf" horiz-adv-x="360" 
d="M191 255l-79 -92h79v92zM351 163v-88h-58v-75h-102v75h-182v78l194 226h90v-216h58z" />
    <glyph glyph-name="five.fractioninf" horiz-adv-x="360" 
d="M178 70c37 0 60 23 60 57c0 33 -23 57 -57 57c-29 0 -50 -12 -61 -31l-91 8l28 218h262v-87h-176l-9 -56c20 18 52 25 82 25c72 0 127 -50 127 -134c0 -85 -66 -134 -160 -134c-85 0 -154 39 -166 118l98 15c6 -34 29 -56 63 -56z" />
    <glyph glyph-name="six.fractioninf" horiz-adv-x="360" 
d="M126 127c0 -36 24 -57 54 -57s54 21 54 57c0 35 -25 56 -54 56c-30 0 -54 -20 -54 -56zM186 308c-36 0 -63 -26 -63 -77c20 20 52 29 88 29c61 0 128 -43 128 -132c0 -86 -67 -135 -159 -135c-106 0 -160 76 -160 188c0 117 54 204 171 204c89 0 137 -48 139 -110h-95
c-3 23 -24 33 -49 33z" />
    <glyph glyph-name="seven.fractioninf" horiz-adv-x="360" 
d="M28 292v87h304v-87c-105 -74 -157 -157 -155 -292h-112c-3 131 77 236 161 292h-198z" />
    <glyph glyph-name="eight.fractioninf" horiz-adv-x="360" 
d="M180 385c95 0 149 -47 149 -103c0 -31 -15 -61 -39 -79c34 -22 50 -52 50 -91c0 -70 -65 -119 -160 -119s-160 49 -160 119c0 39 16 69 50 91c-24 18 -39 47 -39 79c0 56 54 103 149 103zM180 165c-34 0 -56 -20 -56 -47c0 -29 22 -48 56 -48s56 19 56 48
c0 27 -22 47 -56 47zM228 270c0 23 -20 38 -48 38s-48 -15 -48 -38s20 -39 48 -39s48 16 48 39z" />
    <glyph glyph-name="nine.fractioninf" horiz-adv-x="360" 
d="M233 251c0 36 -25 57 -55 57c-29 0 -53 -21 -53 -57c0 -35 24 -55 53 -55c30 0 55 20 55 55zM173 70c35 0 63 26 62 78c-20 -20 -51 -29 -87 -29c-61 0 -128 42 -128 131c0 86 67 135 155 135c111 0 164 -73 164 -188c0 -117 -52 -204 -170 -204c-89 0 -139 48 -141 110
l96 1c3 -24 24 -34 49 -34z" />
    <glyph glyph-name="zero.fractionsup" horiz-adv-x="360" 
d="M180 278c-109 0 -166 73 -166 196s57 196 166 196c108 0 165 -73 165 -196s-57 -196 -165 -196zM180 355c35 0 60 30 60 119c0 90 -25 119 -60 119c-36 0 -61 -29 -61 -119c0 -89 25 -119 61 -119z" />
    <glyph glyph-name="one.fractionsup" horiz-adv-x="360" 
d="M273 285h-102v246h-85v75c66 2 92 19 107 58h80v-379z" />
    <glyph glyph-name="two.fractionsup" horiz-adv-x="360" 
d="M189 670c81 0 143 -35 143 -109c0 -75 -63 -123 -161 -188h149v-88h-292v82c68 48 200 125 200 186c0 28 -20 40 -44 40c-32 0 -56 -22 -58 -70l-98 1c1 93 61 146 161 146z" />
    <glyph glyph-name="three.fractionsup" horiz-adv-x="360" 
d="M183 355c35 0 52 17 52 39c0 30 -26 42 -75 42h-18v83h18c43 0 66 13 66 40c0 23 -23 34 -46 34c-29 0 -54 -14 -57 -51l-100 11c10 75 70 117 164 117c82 0 143 -37 143 -103c0 -40 -23 -70 -50 -83c36 -13 61 -47 61 -90c0 -76 -75 -116 -159 -116
c-94 0 -156 51 -164 126l99 10c6 -42 32 -59 66 -59z" />
    <glyph glyph-name="four.fractionsup" horiz-adv-x="360" 
d="M191 540l-79 -92h79v92zM351 448v-88h-58v-75h-102v75h-182v78l194 226h90v-216h58z" />
    <glyph glyph-name="five.fractionsup" horiz-adv-x="360" 
d="M178 355c37 0 60 23 60 57c0 33 -23 57 -57 57c-29 0 -50 -12 -61 -31l-91 8l28 218h262v-87h-176l-9 -56c20 18 52 25 82 25c72 0 127 -50 127 -134c0 -85 -66 -134 -160 -134c-85 0 -154 39 -166 118l98 15c6 -34 29 -56 63 -56z" />
    <glyph glyph-name="six.fractionsup" horiz-adv-x="360" 
d="M126 412c0 -36 24 -57 54 -57s54 21 54 57c0 35 -25 56 -54 56c-30 0 -54 -20 -54 -56zM186 593c-36 0 -63 -26 -63 -77c20 20 52 29 88 29c61 0 128 -43 128 -132c0 -86 -67 -135 -159 -135c-106 0 -160 76 -160 188c0 117 54 204 171 204c89 0 137 -48 139 -110h-95
c-3 23 -24 33 -49 33z" />
    <glyph glyph-name="seven.fractionsup" horiz-adv-x="360" 
d="M28 577v87h304v-87c-105 -74 -157 -157 -155 -292h-112c-3 131 77 236 161 292h-198z" />
    <glyph glyph-name="eight.fractionsup" horiz-adv-x="360" 
d="M180 670c95 0 149 -47 149 -103c0 -31 -15 -61 -39 -79c34 -22 50 -52 50 -91c0 -70 -65 -119 -160 -119s-160 49 -160 119c0 39 16 69 50 91c-24 18 -39 47 -39 79c0 56 54 103 149 103zM180 450c-34 0 -56 -20 -56 -47c0 -29 22 -48 56 -48s56 19 56 48
c0 27 -22 47 -56 47zM228 555c0 23 -20 38 -48 38s-48 -15 -48 -38s20 -39 48 -39s48 16 48 39z" />
    <glyph glyph-name="nine.fractionsup" horiz-adv-x="360" 
d="M233 536c0 36 -25 57 -55 57c-29 0 -53 -21 -53 -57c0 -35 24 -55 53 -55c30 0 55 20 55 55zM173 355c35 0 63 26 62 78c-20 -20 -51 -29 -87 -29c-61 0 -128 42 -128 131c0 86 67 135 155 135c111 0 164 -73 164 -188c0 -117 -52 -204 -170 -204c-89 0 -139 48 -141 110
l96 1c3 -24 24 -34 49 -34z" />
    <glyph glyph-name="parenleft.superior" unicode="&#x207d;" horiz-adv-x="198" 
d="M21 549c0 97 42 191 74 237h101c-40 -63 -72 -156 -72 -237s32 -178 72 -241h-101c-32 46 -74 144 -74 241z" />
    <glyph glyph-name="parenright.superior" unicode="&#x207e;" horiz-adv-x="198" 
d="M177 549c0 -97 -42 -195 -74 -241h-101c40 63 73 160 73 241s-33 174 -73 237h101c32 -46 74 -140 74 -237z" />
    <glyph glyph-name="plus.superior" unicode="&#x207a;" horiz-adv-x="353" 
d="M227 407h-101v97h-104v89h104v94h101v-94h104v-89h-104v-97z" />
    <glyph glyph-name="minus.superior" unicode="&#x207b;" horiz-adv-x="353" 
d="M22 593h309v-89h-309v89z" />
    <glyph glyph-name="equal.superior" unicode="&#x207c;" horiz-adv-x="339" 
d="M317 566h-295v89h295v-89zM317 446h-295v89h295v-89z" />
    <glyph glyph-name="comma.superior" horiz-adv-x="158" 
d="M24 407v108h111v-114l-48 -82h-72l40 88h-31z" />
    <glyph glyph-name="period.superior" horiz-adv-x="158" 
d="M135 407h-112v108h112v-108z" />
    <glyph glyph-name="hyphen.superior" horiz-adv-x="217" 
d="M205 504h-193v89h193v-89z" />
    <glyph glyph-name="dollar.superior" horiz-adv-x="357" 
d="M163 841h29v-50c85 -6 137 -53 142 -123l-98 -1c-3 29 -18 46 -44 48v-73l13 -3c65 -16 135 -35 135 -119c0 -76 -71 -117 -148 -120v-53h-29v54c-87 6 -142 61 -146 135l98 1c2 -35 20 -58 48 -61v79l-29 8c-55 14 -112 44 -112 117s71 108 141 111v50zM240 509
c0 21 -20 31 -48 39v-73c27 0 48 14 48 34zM121 686c0 -16 12 -28 39 -35l3 -1v66c-26 -1 -42 -15 -42 -30z" />
    <glyph glyph-name="Euro.superior" horiz-adv-x="425" 
d="M222 545h-49c7 -38 25 -68 73 -68c40 0 65 23 70 66l97 -2c-4 -87 -71 -141 -167 -141s-160 52 -178 145h-73l28 38h41v15v13h-66l29 39h41c17 91 81 142 179 142c95 0 161 -53 165 -141l-98 -1c-5 42 -28 65 -69 65c-46 0 -65 -28 -72 -65h120l-29 -39h-95v-13v-15h82z
" />
    <glyph glyph-name="cent.superior" horiz-adv-x="327" 
d="M310 590l-94 -15c-5 22 -17 37 -35 40v-137c21 3 32 18 37 40l94 -15c-15 -58 -62 -98 -131 -103v-49h-28v49c-90 6 -137 64 -137 147s54 140 137 145v50h28v-50c70 -5 115 -45 129 -102zM119 547c0 -34 11 -60 34 -68v135c-25 -7 -34 -33 -34 -67z" />
    <glyph glyph-name="parenleft.inferior" unicode="&#x208d;" horiz-adv-x="198" 
d="M21 22c0 97 42 191 74 237h101c-40 -63 -72 -156 -72 -237s32 -178 72 -241h-101c-32 46 -74 144 -74 241z" />
    <glyph glyph-name="parenright.inferior" unicode="&#x208e;" horiz-adv-x="198" 
d="M177 22c0 -97 -42 -195 -74 -241h-101c40 63 73 160 73 241s-33 174 -73 237h101c32 -46 74 -140 74 -237z" />
    <glyph glyph-name="plus.inferior" horiz-adv-x="353" 
d="M227 -120h-101v97h-104v89h104v94h101v-94h104v-89h-104v-97z" />
    <glyph glyph-name="minus.inferior" horiz-adv-x="353" 
d="M22 66h309v-89h-309v89z" />
    <glyph glyph-name="equal.inferior" horiz-adv-x="339" 
d="M317 39h-295v89h295v-89zM317 -81h-295v89h295v-89z" />
    <glyph glyph-name="comma.inferior" horiz-adv-x="158" 
d="M24 -120v108h111v-114l-48 -82h-72l40 88h-31z" />
    <glyph glyph-name="period.inferior" horiz-adv-x="158" 
d="M135 -120h-112v108h112v-108z" />
    <glyph glyph-name="hyphen.inferior" horiz-adv-x="217" 
d="M205 -23h-193v89h193v-89z" />
    <glyph glyph-name="dollar.inferior" horiz-adv-x="357" 
d="M163 314h29v-50c85 -6 137 -53 142 -123l-98 -1c-3 29 -18 46 -44 48v-73l13 -3c65 -16 135 -35 135 -119c0 -75 -71 -116 -148 -120v-53h-29v54c-87 7 -142 61 -146 135l98 1c2 -34 20 -57 48 -60v78l-29 8c-55 14 -112 44 -112 117s71 108 141 111v50zM240 -18
c0 21 -20 31 -48 39v-72c27 -1 48 14 48 33zM121 159c0 -16 12 -28 39 -35l3 -1v66c-26 -1 -42 -15 -42 -30z" />
    <glyph glyph-name="Euro.inferior" horiz-adv-x="425" 
d="M222 18h-49c7 -37 25 -68 73 -68c40 0 65 23 70 66l97 -2c-4 -87 -71 -141 -167 -141s-160 53 -178 145h-73l28 38h41v15v13h-66l29 39h41c17 91 81 142 179 142c95 0 161 -53 165 -141l-98 -1c-5 42 -28 65 -69 65c-46 0 -65 -28 -72 -65h120l-29 -39h-95v-13v-15h82z
" />
    <glyph glyph-name="cent.inferior" horiz-adv-x="327" 
d="M310 63l-94 -15c-5 22 -17 37 -35 40v-137c21 4 32 19 37 40l94 -15c-15 -58 -62 -98 -131 -102v-50h-28v50c-90 5 -137 63 -137 146s54 140 137 145v50h28v-50c70 -5 115 -45 129 -102zM119 20c0 -33 11 -59 34 -67v134c-25 -7 -34 -33 -34 -67z" />
    <glyph glyph-name="parenleft.denominator" horiz-adv-x="198" 
d="M21 142c0 97 42 191 74 237h101c-40 -63 -72 -156 -72 -237s32 -178 72 -241h-101c-32 46 -74 144 -74 241z" />
    <glyph glyph-name="parenright.denominator" horiz-adv-x="198" 
d="M177 142c0 -97 -42 -195 -74 -241h-101c40 63 73 160 73 241s-33 174 -73 237h101c32 -46 74 -140 74 -237z" />
    <glyph glyph-name="plus.denominator" horiz-adv-x="353" 
d="M227 0h-101v97h-104v89h104v94h101v-94h104v-89h-104v-97z" />
    <glyph glyph-name="minus.denominator" horiz-adv-x="353" 
d="M22 186h309v-89h-309v89z" />
    <glyph glyph-name="equal.denominator" horiz-adv-x="339" 
d="M317 159h-295v89h295v-89zM317 39h-295v89h295v-89z" />
    <glyph glyph-name="comma.denominator" horiz-adv-x="158" 
d="M24 0v108h111v-114l-48 -82h-72l40 88h-31z" />
    <glyph glyph-name="period.denominator" horiz-adv-x="158" 
d="M135 0h-112v108h112v-108z" />
    <glyph glyph-name="hyphen.denominator" horiz-adv-x="217" 
d="M205 97h-193v89h193v-89z" />
    <glyph glyph-name="dollar.denominator" horiz-adv-x="357" 
d="M163 434h29v-50c85 -6 137 -53 142 -123l-98 -1c-3 29 -18 46 -44 48v-73l13 -3c65 -16 135 -35 135 -119c0 -76 -71 -116 -148 -120v-53h-29v54c-87 6 -142 61 -146 135l98 1c2 -35 20 -58 48 -61v79l-29 8c-55 14 -112 44 -112 117s71 108 141 112v49zM240 102
c0 21 -20 31 -48 39v-73c27 0 48 14 48 34zM121 279c0 -16 12 -28 39 -35l3 -1v66c-26 -1 -42 -15 -42 -30z" />
    <glyph glyph-name="Euro.denominator" horiz-adv-x="425" 
d="M222 138h-49c7 -38 25 -68 73 -68c40 0 65 23 70 66l97 -2c-4 -87 -71 -141 -167 -141s-160 52 -178 145h-73l28 38h41v15v13h-66l29 39h41c17 91 81 142 179 142c95 0 161 -53 165 -141l-98 -1c-5 42 -28 65 -69 65c-46 0 -65 -28 -72 -65h120l-29 -39h-95v-13v-15h82z
" />
    <glyph glyph-name="cent.denominator" horiz-adv-x="327" 
d="M310 183l-94 -15c-5 22 -17 37 -35 40v-137c21 3 32 18 37 40l94 -15c-15 -58 -62 -98 -131 -102v-50h-28v50c-90 5 -137 63 -137 146s54 140 137 145v50h28v-50c70 -5 115 -45 129 -102zM119 140c0 -34 11 -60 34 -68v135c-25 -7 -34 -33 -34 -67z" />
    <glyph glyph-name="parenleft.numerator" horiz-adv-x="198" 
d="M21 427c0 97 42 191 74 237h101c-40 -63 -72 -156 -72 -237s32 -178 72 -241h-101c-32 46 -74 144 -74 241z" />
    <glyph glyph-name="parenright.numerator" horiz-adv-x="198" 
d="M177 427c0 -97 -42 -195 -74 -241h-101c40 63 73 160 73 241s-33 174 -73 237h101c32 -46 74 -140 74 -237z" />
    <glyph glyph-name="plus.numerator" horiz-adv-x="353" 
d="M227 285h-101v97h-104v89h104v94h101v-94h104v-89h-104v-97z" />
    <glyph glyph-name="minus.numerator" horiz-adv-x="353" 
d="M22 471h309v-89h-309v89z" />
    <glyph glyph-name="equal.numerator" horiz-adv-x="339" 
d="M317 444h-295v89h295v-89zM317 324h-295v89h295v-89z" />
    <glyph glyph-name="comma.numerator" horiz-adv-x="158" 
d="M24 285v108h111v-114l-48 -82h-72l40 88h-31z" />
    <glyph glyph-name="period.numerator" horiz-adv-x="158" 
d="M135 285h-112v108h112v-108z" />
    <glyph glyph-name="hyphen.numerator" horiz-adv-x="217" 
d="M205 382h-193v89h193v-89z" />
    <glyph glyph-name="dollar.numerator" horiz-adv-x="357" 
d="M163 719h29v-50c85 -6 137 -53 142 -123l-98 -1c-3 29 -18 46 -44 48v-73l13 -3c65 -16 135 -35 135 -119c0 -76 -71 -117 -148 -120v-53h-29v54c-87 6 -142 61 -146 135l98 1c2 -35 20 -58 48 -61v79l-29 8c-55 14 -112 44 -112 117s71 108 141 111v50zM240 387
c0 21 -20 31 -48 39v-73c27 0 48 14 48 34zM121 564c0 -16 12 -28 39 -35l3 -1v66c-26 -1 -42 -15 -42 -30z" />
    <glyph glyph-name="Euro.numerator" horiz-adv-x="425" 
d="M222 423h-49c7 -38 25 -68 73 -68c40 0 65 23 70 66l97 -2c-4 -87 -71 -141 -167 -141s-160 52 -178 145h-73l28 38h41v15v13h-66l29 39h41c17 91 81 142 179 142c95 0 161 -53 165 -141l-98 -1c-5 42 -28 65 -69 65c-46 0 -65 -28 -72 -65h120l-29 -39h-95v-13v-15h82z
" />
    <glyph glyph-name="cent.numerator" horiz-adv-x="327" 
d="M310 468l-94 -15c-5 22 -17 37 -35 40v-137c21 3 32 18 37 40l94 -15c-15 -58 -62 -98 -131 -103v-49h-28v49c-90 6 -137 64 -137 147s54 140 137 145v50h28v-50c70 -5 115 -45 129 -102zM119 425c0 -34 11 -60 34 -68v135c-25 -7 -34 -33 -34 -67z" />
    <glyph glyph-name="onethird" unicode="&#x2153;" horiz-adv-x="899" 
d="M273 285h-102v246h-85v75c66 2 92 19 107 58h80v-379zM294 0h-154l465 664h154zM722 70c35 0 52 17 52 39c0 30 -26 42 -75 42h-18v83h18c43 0 66 13 66 40c0 23 -23 34 -46 34c-29 0 -54 -14 -57 -51l-100 11c10 75 70 117 164 117c82 0 143 -37 143 -103
c0 -40 -23 -70 -50 -83c36 -13 61 -47 61 -90c0 -76 -75 -116 -159 -116c-94 0 -156 51 -164 126l99 10c6 -42 32 -59 66 -59z" />
    <glyph glyph-name="twothirds" unicode="&#x2154;" horiz-adv-x="899" 
d="M189 670c81 0 143 -35 143 -109c0 -75 -63 -123 -161 -188h149v-88h-292v82c68 48 200 125 200 186c0 28 -20 40 -44 40c-32 0 -56 -22 -58 -70l-98 1c1 93 61 146 161 146zM140 0h154l465 664h-154zM722 70c35 0 52 17 52 39c0 30 -26 42 -75 42h-18v83h18
c43 0 66 13 66 40c0 23 -23 34 -46 34c-29 0 -54 -14 -57 -51l-100 11c10 75 70 117 164 117c82 0 143 -37 143 -103c0 -40 -23 -70 -50 -83c36 -13 61 -47 61 -90c0 -76 -75 -116 -159 -116c-94 0 -156 51 -164 126l99 10c6 -42 32 -59 66 -59z" />
    <glyph glyph-name="uni2155" unicode="&#x2155;" horiz-adv-x="899" 
d="M273 285h-102v246h-85v75c66 2 92 19 107 58h80v-379zM294 0h-154l465 664h154zM717 70c37 0 60 23 60 57c0 33 -23 57 -57 57c-29 0 -50 -12 -61 -31l-91 8l28 218h262v-87h-176l-9 -56c20 18 52 25 82 25c72 0 127 -50 127 -134c0 -85 -66 -134 -160 -134
c-85 0 -154 39 -166 118l98 15c6 -34 29 -56 63 -56z" />
    <glyph glyph-name="uni2156" unicode="&#x2156;" horiz-adv-x="899" 
d="M189 670c81 0 143 -35 143 -109c0 -75 -63 -123 -161 -188h149v-88h-292v82c68 48 200 125 200 186c0 28 -20 40 -44 40c-32 0 -56 -22 -58 -70l-98 1c1 93 61 146 161 146zM140 0h154l465 664h-154zM717 70c37 0 60 23 60 57c0 33 -23 57 -57 57c-29 0 -50 -12 -61 -31
l-91 8l28 218h262v-87h-176l-9 -56c20 18 52 25 82 25c72 0 127 -50 127 -134c0 -85 -66 -134 -160 -134c-85 0 -154 39 -166 118l98 15c6 -34 29 -56 63 -56z" />
    <glyph glyph-name="uni2157" unicode="&#x2157;" horiz-adv-x="899" 
d="M183 355c35 0 52 17 52 39c0 30 -26 42 -75 42h-18v83h18c43 0 66 13 66 40c0 23 -23 34 -46 34c-29 0 -54 -14 -57 -51l-100 11c10 75 70 117 164 117c82 0 143 -37 143 -103c0 -40 -23 -70 -50 -83c36 -13 61 -47 61 -90c0 -76 -75 -116 -159 -116
c-94 0 -156 51 -164 126l99 10c6 -42 32 -59 66 -59zM140 0h154l465 664h-154zM717 70c37 0 60 23 60 57c0 33 -23 57 -57 57c-29 0 -50 -12 -61 -31l-91 8l28 218h262v-87h-176l-9 -56c20 18 52 25 82 25c72 0 127 -50 127 -134c0 -85 -66 -134 -160 -134
c-85 0 -154 39 -166 118l98 15c6 -34 29 -56 63 -56z" />
    <glyph glyph-name="uni2158" unicode="&#x2158;" horiz-adv-x="899" 
d="M191 540l-79 -92h79v92zM351 448v-88h-58v-75h-102v75h-182v78l194 226h90v-216h58zM294 0h-154l465 664h154zM717 70c37 0 60 23 60 57c0 33 -23 57 -57 57c-29 0 -50 -12 -61 -31l-91 8l28 218h262v-87h-176l-9 -56c20 18 52 25 82 25c72 0 127 -50 127 -134
c0 -85 -66 -134 -160 -134c-85 0 -154 39 -166 118l98 15c6 -34 29 -56 63 -56z" />
    <glyph glyph-name="uni2159" unicode="&#x2159;" horiz-adv-x="899" 
d="M273 285h-102v246h-85v75c66 2 92 19 107 58h80v-379zM294 0h-154l465 664h154zM665 127c0 -36 24 -57 54 -57s54 21 54 57c0 35 -25 56 -54 56c-30 0 -54 -20 -54 -56zM725 308c-36 0 -63 -26 -63 -77c20 20 52 29 88 29c61 0 128 -43 128 -132
c0 -86 -67 -135 -159 -135c-106 0 -160 76 -160 188c0 117 54 204 171 204c89 0 137 -48 139 -110h-95c-3 23 -24 33 -49 33z" />
    <glyph glyph-name="uni215A" unicode="&#x215a;" horiz-adv-x="899" 
d="M178 355c37 0 60 23 60 57c0 33 -23 57 -57 57c-29 0 -50 -12 -61 -31l-91 8l28 218h262v-87h-176l-9 -56c20 18 52 25 82 25c72 0 127 -50 127 -134c0 -85 -66 -134 -160 -134c-85 0 -154 39 -166 118l98 15c6 -34 29 -56 63 -56zM140 0h154l465 664h-154zM665 127
c0 -36 24 -57 54 -57s54 21 54 57c0 35 -25 56 -54 56c-30 0 -54 -20 -54 -56zM725 308c-36 0 -63 -26 -63 -77c20 20 52 29 88 29c61 0 128 -43 128 -132c0 -86 -67 -135 -159 -135c-106 0 -160 76 -160 188c0 117 54 204 171 204c89 0 137 -48 139 -110h-95
c-3 23 -24 33 -49 33z" />
    <glyph glyph-name="oneeighth" unicode="&#x215b;" horiz-adv-x="899" 
d="M273 285h-102v246h-85v75c66 2 92 19 107 58h80v-379zM294 0h-154l465 664h154zM719 385c95 0 149 -47 149 -103c0 -31 -15 -61 -39 -79c34 -22 50 -52 50 -91c0 -70 -65 -119 -160 -119s-160 49 -160 119c0 39 16 69 50 91c-24 18 -39 47 -39 79c0 56 54 103 149 103z
M719 165c-34 0 -56 -20 -56 -47c0 -29 22 -48 56 -48s56 19 56 48c0 27 -22 47 -56 47zM767 270c0 23 -20 38 -48 38s-48 -15 -48 -38s20 -39 48 -39s48 16 48 39z" />
    <glyph glyph-name="threeeighths" unicode="&#x215c;" horiz-adv-x="899" 
d="M183 355c35 0 52 17 52 39c0 30 -26 42 -75 42h-18v83h18c43 0 66 13 66 40c0 23 -23 34 -46 34c-29 0 -54 -14 -57 -51l-100 11c10 75 70 117 164 117c82 0 143 -37 143 -103c0 -40 -23 -70 -50 -83c36 -13 61 -47 61 -90c0 -76 -75 -116 -159 -116
c-94 0 -156 51 -164 126l99 10c6 -42 32 -59 66 -59zM140 0h154l465 664h-154zM719 385c-95 0 -149 -47 -149 -103c0 -32 15 -61 39 -79c-34 -22 -50 -52 -50 -91c0 -70 65 -119 160 -119s160 49 160 119c0 39 -16 69 -50 91c24 18 39 48 39 79c0 56 -54 103 -149 103z
M719 165c34 0 56 -20 56 -47c0 -29 -22 -48 -56 -48s-56 19 -56 48c0 27 22 47 56 47zM767 270c0 -23 -20 -39 -48 -39s-48 16 -48 39s20 38 48 38s48 -15 48 -38z" />
    <glyph glyph-name="fiveeighths" unicode="&#x215d;" horiz-adv-x="899" 
d="M178 355c37 0 60 23 60 57c0 33 -23 57 -57 57c-29 0 -50 -12 -61 -31l-91 8l28 218h262v-87h-176l-9 -56c20 18 52 25 82 25c72 0 127 -50 127 -134c0 -85 -66 -134 -160 -134c-85 0 -154 39 -166 118l98 15c6 -34 29 -56 63 -56zM140 0h154l465 664h-154zM719 385
c-95 0 -149 -47 -149 -103c0 -32 15 -61 39 -79c-34 -22 -50 -52 -50 -91c0 -70 65 -119 160 -119s160 49 160 119c0 39 -16 69 -50 91c24 18 39 48 39 79c0 56 -54 103 -149 103zM719 165c34 0 56 -20 56 -47c0 -29 -22 -48 -56 -48s-56 19 -56 48c0 27 22 47 56 47z
M767 270c0 -23 -20 -39 -48 -39s-48 16 -48 39s20 38 48 38s48 -15 48 -38z" />
    <glyph glyph-name="seveneighths" unicode="&#x215e;" horiz-adv-x="899" 
d="M28 577v87h304v-87c-105 -74 -157 -157 -155 -292h-112c-3 131 77 236 161 292h-198zM140 0h154l465 664h-154zM719 385c-95 0 -149 -47 -149 -103c0 -32 15 -61 39 -79c-34 -22 -50 -52 -50 -91c0 -70 65 -119 160 -119s160 49 160 119c0 39 -16 69 -50 91
c24 18 39 48 39 79c0 56 -54 103 -149 103zM719 165c34 0 56 -20 56 -47c0 -29 -22 -48 -56 -48s-56 19 -56 48c0 27 22 47 56 47zM767 270c0 -23 -20 -39 -48 -39s-48 16 -48 39s20 38 48 38s48 -15 48 -38z" />
    <glyph glyph-name="uni215F" unicode="&#x215f;" horiz-adv-x="539" 
d="M273 285h-102v246h-85v75c66 2 92 19 107 58h80v-379zM294 0h-154l465 664h154z" />
    <glyph glyph-name="AEacute" unicode="&#x1fc;" horiz-adv-x="1024" 
d="M472 664h514v-140h-359v-113h339v-140h-339v-131h359v-140h-517v120h-231l-88 -120h-190zM935 803l-148 -105h-135l96 105h187zM469 436l-130 -177h130v177z" />
    <glyph glyph-name="aeacute" unicode="&#x1fd;" horiz-adv-x="887" 
d="M38 340l144 -5c3 44 40 62 89 62c55 0 85 -18 85 -65v-12l-78 -8c-79 -8 -144 -20 -191 -49c-37 -23 -64 -59 -64 -110c0 -90 68 -165 200 -165c74 0 141 17 193 84c43 -53 111 -84 201 -84c105 0 205 43 252 154l-138 31c-19 -40 -56 -62 -113 -62s-111 31 -114 93h367
c12 191 -88 300 -256 300c-66 0 -123 -20 -167 -55c-35 35 -90 53 -166 53c-104 0 -231 -30 -244 -162zM252 102c-50 0 -72 24 -72 54c0 31 26 51 108 59l72 7v-26c0 -67 -55 -94 -108 -94zM719 303h-214c1 62 55 89 108 89c54 0 105 -28 106 -89zM634 664l-147 -118h-115
l88 118h174z" />
    <glyph glyph-name="Abreve" unicode="&#x102;" horiz-adv-x="673" 
d="M-5 0l254 664h174l255 -664h-173l-42 120h-257l-42 -120h-169zM404 803h110c-7 -76 -62 -109 -178 -109c-113 0 -171 33 -177 109h110c4 -33 33 -43 67 -43s64 10 68 43zM335 486l-80 -227h159z" />
    <glyph glyph-name="abreve" unicode="&#x103;" horiz-adv-x="555" 
d="M46 338l143 -3c3 44 39 62 88 62c55 0 85 -18 85 -65v-12l-78 -8c-78 -8 -159 -18 -208 -56c-29 -23 -47 -55 -47 -103c0 -90 68 -165 192 -165c69 0 123 17 158 62l3 -50h133c-6 69 -9 132 -8 197l2 107c3 142 -73 198 -221 198c-104 0 -229 -32 -242 -164zM366 196
c0 -67 -55 -94 -108 -94c-50 0 -72 24 -72 55s18 49 100 57l80 8v-26zM451 664c-7 -66 -53 -123 -159 -123c-103 0 -150 57 -156 123h100c4 -30 23 -47 57 -47s54 17 58 47h100z" />
    <glyph glyph-name="Amacron" unicode="&#x100;" horiz-adv-x="673" 
d="M-5 0l254 664h174l255 -664h-173l-42 120h-257l-42 -120h-169zM335 486l-80 -227h159zM492 707h-311v88h311v-88z" />
    <glyph glyph-name="amacron" unicode="&#x101;" horiz-adv-x="555" 
d="M46 338l143 -3c3 44 39 62 88 62c55 0 85 -18 85 -65v-12l-78 -8c-78 -8 -159 -18 -208 -56c-29 -23 -47 -55 -47 -103c0 -90 68 -165 192 -165c69 0 123 17 158 62l3 -50h133c-6 69 -9 132 -8 197l2 107c3 142 -73 198 -221 198c-104 0 -229 -32 -242 -164zM366 196
c0 -67 -55 -94 -108 -94c-50 0 -72 24 -72 55s18 49 100 57l80 8v-26zM431 555h-291v100h291v-100z" />
    <glyph glyph-name="Aogonek" unicode="&#x104;" horiz-adv-x="673" 
d="M505 0l-42 120h-257l-42 -120h-169l254 664h174l255 -664c-47 -23 -82 -41 -82 -69c0 -24 19 -31 41 -31c19 0 39 5 52 9v-76c-24 -6 -71 -10 -96 -10c-67 0 -135 25 -135 86c0 37 12 67 47 91zM335 486l-80 -227h159z" />
    <glyph glyph-name="aogonek" unicode="&#x105;" horiz-adv-x="555" 
d="M366 196v26l-80 -8c-82 -8 -100 -26 -100 -57s22 -55 72 -55c53 0 108 27 108 94zM515 0c-47 -23 -81 -41 -81 -69c0 -24 19 -31 41 -31c19 0 39 5 52 9v-76c-24 -6 -71 -10 -96 -10c-67 0 -128 25 -128 86c0 37 31 73 79 91l-3 50c-35 -45 -89 -62 -158 -62
c-124 0 -192 75 -192 165c0 48 18 80 47 103c49 38 130 48 208 56l78 8v12c0 47 -30 65 -85 65c-49 0 -85 -18 -88 -62l-143 3c13 132 138 164 242 164c148 0 224 -56 221 -198l-2 -107c-1 -65 2 -128 8 -197z" />
    <glyph glyph-name="Aringacute" unicode="&#x1fa;" horiz-adv-x="673" 
d="M551 919l-147 -104c10 -13 17 -29 17 -47c0 -46 -37 -79 -84 -79s-84 33 -84 79c0 18 4 34 25 57l86 94h187zM337 808c-21 0 -40 -17 -40 -40s19 -39 40 -39s40 16 40 39s-19 40 -40 40zM-5 0l254 664h174l255 -664h-173l-42 120h-257l-42 -120h-169zM335 486l-80 -227
h159z" />
    <glyph glyph-name="aringacute" unicode="&#x1fb;" horiz-adv-x="555" 
d="M462 778l-126 -110c17 -15 28 -36 28 -61c0 -48 -39 -83 -88 -83s-88 35 -88 83c0 16 2 32 33 76l67 95h174zM276 645c-21 0 -38 -16 -38 -38s17 -37 38 -37s38 15 38 37s-17 38 -38 38zM46 338l143 -3c3 44 39 62 88 62c55 0 85 -18 85 -65v-12l-78 -8
c-78 -8 -159 -18 -208 -56c-29 -23 -47 -55 -47 -103c0 -90 68 -165 192 -165c69 0 123 17 158 62l3 -50h133c-6 69 -9 132 -8 197l2 107c3 142 -73 198 -221 198c-104 0 -229 -32 -242 -164zM366 196c0 -67 -55 -94 -108 -94c-50 0 -72 24 -72 55s18 49 100 57l80 8v-26z
" />
    <glyph glyph-name="Cacute" unicode="&#x106;" horiz-adv-x="694" 
d="M522 254l156 -23c-24 -147 -151 -243 -321 -243c-210 0 -337 129 -337 344c0 213 132 343 342 343c169 0 288 -99 311 -243l-156 -23c-17 92 -85 132 -161 132c-94 0 -168 -71 -168 -209c0 -142 74 -210 168 -210c68 0 147 30 166 132zM538 803l-148 -105h-135l96 105
h187z" />
    <glyph glyph-name="cacute" unicode="&#x107;" horiz-adv-x="542" 
d="M281 501c104 0 215 -47 245 -175l-143 -24c-13 51 -48 76 -93 76c-55 0 -109 -37 -109 -133c0 -99 55 -134 109 -134c57 0 89 33 99 76l143 -24c-35 -135 -151 -175 -251 -175c-165 0 -256 107 -256 258c0 150 104 255 256 255zM461 664l-147 -118h-115l88 118h174z" />
    <glyph glyph-name="Ccaron" unicode="&#x10c;" horiz-adv-x="694" 
d="M522 254l156 -23c-24 -147 -151 -243 -321 -243c-210 0 -337 129 -337 344c0 213 132 343 342 343c169 0 288 -99 311 -243l-156 -23c-17 92 -85 132 -161 132c-94 0 -168 -71 -168 -209c0 -142 74 -210 168 -210c68 0 147 30 166 132zM283 698l-127 105h152l51 -46
l54 46h151l-130 -105h-151z" />
    <glyph glyph-name="ccaron" unicode="&#x10d;" horiz-adv-x="542" 
d="M281 501c104 0 215 -47 245 -175l-143 -24c-13 51 -48 76 -93 76c-55 0 -109 -37 -109 -133c0 -99 55 -134 109 -134c57 0 89 33 99 76l143 -24c-35 -135 -151 -175 -251 -175c-165 0 -256 107 -256 258c0 150 104 255 256 255zM217 546l-127 118h140l57 -53l59 53h141
l-131 -118h-139z" />
    <glyph glyph-name="Ccircumflex" unicode="&#x108;" horiz-adv-x="694" 
d="M522 254l156 -23c-24 -147 -151 -243 -321 -243c-210 0 -337 129 -337 344c0 213 132 343 342 343c169 0 288 -99 311 -243l-156 -23c-17 92 -85 132 -161 132c-94 0 -168 -71 -168 -209c0 -142 74 -210 168 -210c68 0 147 30 166 132zM437 803l127 -105h-152l-51 46
l-54 -46h-151l130 105h151z" />
    <glyph glyph-name="ccircumflex" unicode="&#x109;" horiz-adv-x="542" 
d="M281 501c104 0 215 -47 245 -175l-143 -24c-13 51 -48 76 -93 76c-55 0 -109 -37 -109 -133c0 -99 55 -134 109 -134c57 0 89 33 99 76l143 -24c-35 -135 -151 -175 -251 -175c-165 0 -256 107 -256 258c0 150 104 255 256 255zM353 664l127 -118h-140l-57 53l-59 -53
h-141l131 118h139z" />
    <glyph glyph-name="Cdotaccent" unicode="&#x10a;" horiz-adv-x="694" 
d="M522 254l156 -23c-24 -147 -151 -243 -321 -243c-210 0 -337 129 -337 344c0 213 132 343 342 343c169 0 288 -99 311 -243l-156 -23c-17 92 -85 132 -161 132c-94 0 -168 -71 -168 -209c0 -142 74 -210 168 -210c68 0 147 30 166 132zM277 803h159v-105h-159v105z" />
    <glyph glyph-name="cdotaccent" unicode="&#x10b;" horiz-adv-x="542" 
d="M281 501c104 0 215 -47 245 -175l-143 -24c-13 51 -48 76 -93 76c-55 0 -109 -37 -109 -133c0 -99 55 -134 109 -134c57 0 89 33 99 76l143 -24c-35 -135 -151 -175 -251 -175c-165 0 -256 107 -256 258c0 150 104 255 256 255zM212 664h138v-118h-138v118z" />
    <glyph glyph-name="Dcaron" unicode="&#x10e;" horiz-adv-x="683" 
d="M499 332c0 178 -126 192 -243 192h-36v-384h36c117 0 243 14 243 192zM61 664h192c220 0 414 -75 414 -332s-194 -332 -414 -332h-192v664zM249 698l-127 105h152l51 -46l54 46h151l-130 -105h-151z" />
    <glyph glyph-name="dcaron" unicode="&#x10f;" horiz-adv-x="689" 
d="M716 664l-55 -158h-104l18 158h141zM540 0v664h-153v-221c-28 41 -87 58 -134 58c-131 0 -228 -95 -228 -256c0 -164 91 -257 220 -257c47 0 110 18 142 65v-53h153zM288 111c-61 0 -107 54 -107 133c0 80 46 134 107 134c60 0 106 -46 106 -133
c0 -89 -46 -134 -106 -134z" />
    <glyph glyph-name="Dcroat" unicode="&#x110;" horiz-adv-x="693" 
d="M10 411h61v253h192c220 0 414 -75 414 -332s-194 -332 -414 -332h-192v271h-61v140zM509 332c0 178 -126 192 -243 192h-37v-113h120v-140h-120v-131h37c117 0 243 14 243 192z" />
    <glyph glyph-name="dcroat" unicode="&#x111;" horiz-adv-x="595" 
d="M540 525v-525h-153v53c-32 -47 -95 -65 -142 -65c-129 0 -220 93 -220 257c0 161 97 256 228 256c47 0 106 -17 134 -58v82h-101v81h101v58h153v-58h69v-81h-69zM288 111c60 0 106 45 106 134c0 87 -46 133 -106 133c-61 0 -107 -54 -107 -134c0 -79 46 -133 107 -133z
" />
    <glyph glyph-name="Ebreve" unicode="&#x114;" horiz-adv-x="616" 
d="M61 0v664h517v-140h-358v-113h338v-140h-338v-131h358v-140h-517zM394 803h110c-7 -76 -62 -109 -178 -109c-113 0 -171 33 -177 109h110c4 -33 33 -43 67 -43s64 10 68 43z" />
    <glyph glyph-name="ebreve" unicode="&#x115;" horiz-adv-x="572" 
d="M292 -12c-165 0 -267 110 -267 260c0 155 116 256 265 256c168 0 268 -109 256 -300h-367c3 -62 57 -93 114 -93s92 20 109 60l142 -26c-45 -116 -147 -157 -252 -157zM444 664c-7 -66 -53 -123 -159 -123c-103 0 -150 57 -156 123h100c4 -30 23 -47 57 -47s54 17 58 47
h100zM288 392c-53 0 -107 -27 -108 -89h214c-1 61 -52 89 -106 89z" />
    <glyph glyph-name="Ecaron" unicode="&#x11a;" horiz-adv-x="616" 
d="M61 0v664h517v-140h-358v-113h338v-140h-338v-131h358v-140h-517zM238 698l-127 105h152l51 -46l54 46h151l-130 -105h-151z" />
    <glyph glyph-name="ecaron" unicode="&#x11b;" horiz-adv-x="572" 
d="M292 -12c-165 0 -267 110 -267 260c0 155 116 256 265 256c168 0 268 -109 256 -300h-367c3 -62 57 -93 114 -93s92 20 109 60l142 -26c-45 -116 -147 -157 -252 -157zM217 546l-127 118h140l57 -53l59 53h141l-131 -118h-139zM288 392c-53 0 -107 -27 -108 -89h214
c-1 61 -52 89 -106 89z" />
    <glyph glyph-name="Edotaccent" unicode="&#x116;" horiz-adv-x="616" 
d="M61 0v664h517v-140h-358v-113h338v-140h-338v-131h358v-140h-517zM242 803h159v-105h-159v105z" />
    <glyph glyph-name="edotaccent" unicode="&#x117;" horiz-adv-x="572" 
d="M292 -12c-165 0 -267 110 -267 260c0 155 116 256 265 256c168 0 268 -109 256 -300h-367c3 -62 57 -93 114 -93s92 20 109 60l142 -26c-45 -116 -147 -157 -252 -157zM216 664h138v-118h-138v118zM288 392c-53 0 -107 -27 -108 -89h214c-1 61 -52 89 -106 89z" />
    <glyph glyph-name="Emacron" unicode="&#x112;" horiz-adv-x="616" 
d="M61 0v664h517v-140h-358v-113h338v-140h-338v-131h358v-140h-517zM476 707h-311v88h311v-88z" />
    <glyph glyph-name="emacron" unicode="&#x113;" horiz-adv-x="572" 
d="M292 -12c-165 0 -267 110 -267 260c0 155 116 256 265 256c168 0 268 -109 256 -300h-367c3 -62 57 -93 114 -93s92 20 109 60l142 -26c-45 -116 -147 -157 -252 -157zM433 555h-291v100h291v-100zM288 392c-53 0 -107 -27 -108 -89h214c-1 61 -52 89 -106 89z" />
    <glyph glyph-name="Eng" unicode="&#x14a;" 
d="M516 0l-296 455v-455h-159v664h199l259 -405v405h159v-668c0 -139 -45 -169 -186 -169h-65v129h24c40 0 65 6 65 37v7z" />
    <glyph glyph-name="eng" unicode="&#x14b;" horiz-adv-x="584" 
d="M386 2v248c0 98 -27 126 -85 126c-63 0 -93 -37 -93 -126v-250h-153v490h150v-59c32 41 79 69 157 69c113 0 177 -62 177 -198v-316c0 -127 -52 -159 -167 -159h-60v121h21c43 0 53 12 53 54z" />
    <glyph glyph-name="Eogonek" unicode="&#x118;" horiz-adv-x="616" 
d="M61 0v664h517v-140h-358v-113h338v-140h-338v-131h358v-140c-47 -23 -81 -41 -81 -69c0 -24 19 -31 41 -31c19 0 39 5 52 9v-76c-24 -6 -71 -10 -96 -10c-67 0 -128 25 -128 86c0 37 26 71 64 91h-369z" />
    <glyph glyph-name="eogonek" unicode="&#x119;" horiz-adv-x="572" 
d="M544 145c-32 -82 -87 -120 -159 -145c-49 -17 -81 -41 -81 -69c0 -24 19 -31 41 -31c19 0 39 5 52 9v-76c-24 -6 -71 -10 -96 -10c-67 0 -128 25 -128 86c0 34 21 65 53 85c-126 25 -201 125 -201 254c0 155 116 256 265 256c168 0 268 -109 256 -300h-367
c3 -62 57 -93 114 -93s92 20 109 60zM288 392c-53 0 -107 -27 -108 -89h214c-1 61 -52 89 -106 89z" />
    <glyph glyph-name="Gbreve" unicode="&#x11e;" horiz-adv-x="728" 
d="M364 675c150 0 270 -75 302 -206l-156 -23c-14 50 -62 95 -148 95c-98 0 -174 -65 -174 -207s71 -212 177 -212c73 0 149 28 149 113v10h-162v130h321v-375h-121l-5 74c-44 -58 -110 -86 -206 -86c-199 0 -321 131 -321 346c0 213 139 341 344 341zM426 803h110
c-7 -76 -62 -109 -178 -109c-113 0 -171 33 -177 109h110c4 -33 33 -43 67 -43s64 10 68 43z" />
    <glyph glyph-name="gbreve" unicode="&#x11f;" horiz-adv-x="592" 
d="M384 78v-50c0 -35 -11 -58 -29 -73c-19 -15 -45 -21 -76 -21c-51 0 -84 14 -100 57l-139 -3c19 -92 93 -172 240 -172c84 0 149 21 192 61c43 41 65 101 65 181v432h-153v-50c-28 41 -84 60 -131 60c-131 0 -228 -81 -228 -242c0 -164 91 -245 220 -245
c48 0 105 18 139 65zM286 136c-61 0 -105 47 -105 121c0 83 44 120 105 120c60 0 105 -37 105 -119c0 -75 -45 -122 -105 -122zM442 664c-7 -66 -53 -123 -159 -123c-103 0 -150 57 -156 123h100c4 -30 23 -47 57 -47s54 17 58 47h100z" />
    <glyph glyph-name="Gcircumflex" unicode="&#x11c;" horiz-adv-x="728" 
d="M364 675c150 0 270 -75 302 -206l-156 -23c-14 50 -62 95 -148 95c-98 0 -174 -65 -174 -207s71 -212 177 -212c73 0 149 28 149 113v10h-162v130h321v-375h-121l-5 74c-44 -58 -110 -86 -206 -86c-199 0 -321 131 -321 346c0 213 139 341 344 341zM439 803l127 -105
h-152l-51 46l-54 -46h-151l130 105h151z" />
    <glyph glyph-name="gcircumflex" unicode="&#x11d;" horiz-adv-x="592" 
d="M384 78v-50c0 -35 -11 -58 -29 -73c-19 -15 -45 -21 -76 -21c-51 0 -84 14 -100 57l-139 -3c19 -92 93 -172 240 -172c84 0 149 21 192 61c43 41 65 101 65 181v432h-153v-50c-28 41 -84 60 -131 60c-131 0 -228 -81 -228 -242c0 -164 91 -245 220 -245
c48 0 105 18 139 65zM286 136c-61 0 -105 47 -105 121c0 83 44 120 105 120c60 0 105 -37 105 -119c0 -75 -45 -122 -105 -122zM377 664l127 -118h-140l-57 53l-59 -53h-141l131 118h139z" />
    <glyph glyph-name="Gcommaaccent" unicode="&#x122;" horiz-adv-x="728" 
d="M364 675c150 0 270 -75 302 -206l-156 -23c-14 50 -62 95 -148 95c-98 0 -174 -65 -174 -207s71 -212 177 -212c73 0 149 28 149 113v10h-162v130h321v-375h-121l-5 74c-44 -58 -110 -86 -206 -86c-199 0 -321 131 -321 346c0 213 139 341 344 341zM282 -126v93h118v-99
l-41 -83h-80l36 89h-33z" />
    <glyph glyph-name="gcommaaccent" unicode="&#x123;" horiz-adv-x="592" 
d="M325 628v-93h-118v99l41 83h80l-36 -89h33zM384 78v-50c0 -35 -11 -58 -29 -73c-19 -15 -45 -21 -76 -21c-51 0 -84 14 -100 57l-139 -3c19 -92 93 -172 240 -172c84 0 149 21 192 61c43 41 65 101 65 181v432h-153v-50c-28 41 -84 60 -131 60c-131 0 -228 -81 -228 -242
c0 -164 91 -245 220 -245c48 0 105 18 139 65zM286 136c-61 0 -105 47 -105 121c0 83 44 120 105 120c60 0 105 -37 105 -119c0 -75 -45 -122 -105 -122z" />
    <glyph glyph-name="Gdotaccent" unicode="&#x120;" horiz-adv-x="728" 
d="M364 675c150 0 270 -75 302 -206l-156 -23c-14 50 -62 95 -148 95c-98 0 -174 -65 -174 -207s71 -212 177 -212c73 0 149 28 149 113v10h-162v130h321v-375h-121l-5 74c-44 -58 -110 -86 -206 -86c-199 0 -321 131 -321 346c0 213 139 341 344 341zM283 803h159v-105
h-159v105z" />
    <glyph glyph-name="gdotaccent" unicode="&#x121;" horiz-adv-x="592" 
d="M384 78v-50c0 -35 -11 -58 -29 -73c-19 -15 -45 -21 -76 -21c-51 0 -84 14 -100 57l-139 -3c19 -92 93 -172 240 -172c84 0 149 21 192 61c43 41 65 101 65 181v432h-153v-50c-28 41 -84 60 -131 60c-131 0 -228 -81 -228 -242c0 -164 91 -245 220 -245
c48 0 105 18 139 65zM286 136c-61 0 -105 47 -105 121c0 83 44 120 105 120c60 0 105 -37 105 -119c0 -75 -45 -122 -105 -122zM218 664h138v-118h-138v118z" />
    <glyph glyph-name="Gtilde" horiz-adv-x="728" 
d="M364 675c150 0 270 -75 302 -206l-156 -23c-14 50 -62 95 -148 95c-98 0 -174 -65 -174 -207s71 -212 177 -212c73 0 149 28 149 113v10h-162v130h321v-375h-121l-5 74c-44 -58 -110 -86 -206 -86c-199 0 -321 131 -321 346c0 213 139 341 344 341zM415 769
c28 0 45 11 50 34h90c-17 -93 -92 -107 -134 -107c-60 0 -82 34 -120 34c-28 0 -44 -11 -49 -34h-90c17 93 92 107 134 107c60 0 77 -34 119 -34z" />
    <glyph glyph-name="gtilde" horiz-adv-x="592" 
d="M384 78v-50c0 -35 -11 -58 -29 -73c-19 -15 -45 -21 -76 -21c-51 0 -84 14 -100 57l-139 -3c19 -92 93 -172 240 -172c84 0 149 21 192 61c43 41 65 101 65 181v432h-153v-50c-28 41 -84 60 -131 60c-131 0 -228 -81 -228 -242c0 -164 91 -245 220 -245
c48 0 105 18 139 65zM286 136c-61 0 -105 47 -105 121c0 83 44 120 105 120c60 0 105 -37 105 -119c0 -75 -45 -122 -105 -122zM355 623c28 0 44 14 49 41h90c-13 -78 -59 -118 -125 -118c-65 0 -89 41 -127 41c-28 0 -43 -14 -48 -41h-90c12 73 55 118 126 118
c64 0 83 -41 125 -41z" />
    <glyph glyph-name="Hbar" unicode="&#x126;" horiz-adv-x="717" 
d="M497 664h159v-664h-159v271h-277v-271h-159v664h159v-79h277v79zM220 411h277v74h-277v-74z" />
    <glyph glyph-name="hbar" unicode="&#x127;" horiz-adv-x="585" 
d="M208 664v-58h99v-81h-99v-90c32 39 80 65 155 65c60 0 111 -19 141 -58c24 -31 36 -75 36 -153v-289h-153v246c0 59 -7 88 -20 105c-14 18 -36 25 -61 25c-65 0 -98 -37 -98 -129v-247h-153v525h-71v81h71v58h153z" />
    <glyph glyph-name="Hcircumflex" unicode="&#x124;" horiz-adv-x="717" 
d="M497 664h159v-664h-159v271h-277v-271h-159v664h159v-253h277v253zM434 803l127 -105h-152l-51 46l-54 -46h-151l130 105h151z" />
    <glyph glyph-name="hcircumflex" unicode="&#x125;" horiz-adv-x="585" 
d="M443 664l77 -128h-110l-37 63l-39 -63h-111l81 128h139zM208 664v-229c32 39 80 65 155 65c60 0 111 -19 141 -58c24 -31 36 -75 36 -153v-289h-153v246c0 59 -7 88 -20 105c-14 18 -36 25 -61 25c-65 0 -98 -37 -98 -129v-247h-153v664h153z" />
    <glyph glyph-name="IJ" unicode="&#x132;" horiz-adv-x="606" 
d="M220 664v-664h-159v664h159zM301 0v137h24c43 0 68 7 68 44v483h159v-487c0 -139 -45 -177 -186 -177h-65z" />
    <glyph glyph-name="ij" unicode="&#x133;" horiz-adv-x="543" 
d="M53 490h153v-490h-153v490zM53 664h153v-123h-153v123zM330 2v488h153v-504c0 -127 -50 -159 -165 -159h-57v121h18c43 0 51 12 51 54zM330 664h153v-123h-153v123z" />
    <glyph glyph-name="Ibreve" unicode="&#x12c;" horiz-adv-x="281" 
d="M139 694c-93 0 -151 33 -157 109h110c4 -33 23 -43 47 -43s44 10 48 43h110c-7 -76 -62 -109 -158 -109zM220 664v-664h-159v664h159z" />
    <glyph glyph-name="ibreve" unicode="&#x12d;" horiz-adv-x="264" 
d="M55 490h154v-490h-154v490zM288 664c-7 -66 -53 -123 -159 -123c-103 0 -150 57 -156 123h100c4 -30 23 -47 57 -47s54 17 58 47h100z" />
    <glyph glyph-name="Idotaccent" unicode="&#x130;" horiz-adv-x="281" 
d="M61 803h159v-105h-159v105zM220 664v-664h-159v664h159z" />
    <glyph glyph-name="Imacron" unicode="&#x12a;" horiz-adv-x="281" 
d="M281 707h-281v88h281v-88zM220 664v-664h-159v664h159z" />
    <glyph glyph-name="imacron" unicode="&#x12b;" horiz-adv-x="264" 
d="M276 552h-291v100h291v-100zM55 490h154v-490h-154v490z" />
    <glyph glyph-name="Iogonek" unicode="&#x12e;" horiz-adv-x="281" 
d="M61 0v664h159v-664c-47 -23 -81 -41 -81 -69c0 -24 19 -31 41 -31c19 0 39 5 52 9v-76c-24 -6 -71 -10 -96 -10c-67 0 -131 25 -131 86c0 37 23 70 56 91z" />
    <glyph glyph-name="iogonek" unicode="&#x12f;" horiz-adv-x="263" 
d="M55 664h153v-123h-153v123zM55 0v490h153v-490c-47 -23 -82 -41 -82 -69c0 -24 19 -31 41 -31c19 0 39 5 52 9v-76c-24 -6 -71 -10 -96 -10c-67 0 -132 25 -132 86c0 37 26 71 64 91z" />
    <glyph glyph-name="Itilde" unicode="&#x128;" horiz-adv-x="281" 
d="M187 769c23 0 36 11 40 34h72c-13 -92 -73 -106 -107 -106c-48 0 -65 34 -95 34c-23 0 -35 -11 -39 -34h-72c13 92 73 106 107 106c48 0 61 -34 94 -34zM220 664v-664h-159v664h159z" />
    <glyph glyph-name="itilde" unicode="&#x129;" horiz-adv-x="264" 
d="M173 623c21 0 33 14 37 41h69c-13 -111 -71 -128 -102 -128c-46 0 -62 41 -92 41c-20 0 -32 -14 -36 -41h-69c13 111 71 128 102 128c46 0 58 -41 91 -41zM55 490h154v-490h-154v490z" />
    <glyph glyph-name="Jcircumflex" unicode="&#x134;" horiz-adv-x="321" 
d="M257 803l97 -105h-132l-41 46l-44 -46h-131l100 105h151zM10 0v137h24c43 0 68 7 68 44v483h159v-487c0 -139 -45 -177 -186 -177h-65z" />
    <glyph glyph-name="jcircumflex" unicode="&#x135;" horiz-adv-x="268" 
d="M60 2v488h153v-504c0 -127 -52 -159 -167 -159h-60v121h21c43 0 53 12 53 54zM208 664l97 -128h-130l-37 63l-39 -63h-131l101 128h139z" />
    <glyph glyph-name="dotlessj" unicode="&#x237;" horiz-adv-x="268" 
d="M60 2v488h153v-504c0 -127 -52 -159 -167 -159h-60v121h21c43 0 53 12 53 54z" />
    <glyph glyph-name="Kcommaaccent" unicode="&#x136;" horiz-adv-x="663" 
d="M220 664v-258l244 258h195l-247 -262l260 -402h-192l-181 282l-79 -84v-198h-159v664h159zM280 -126v93h118v-99l-41 -83h-80l36 89h-33z" />
    <glyph glyph-name="kcommaaccent" unicode="&#x137;" horiz-adv-x="569" 
d="M55 664h153v-352l163 178h187l-177 -184l192 -306h-180l-117 195l-68 -71v-124h-153v664zM233 -126v93h118v-99l-41 -83h-80l36 89h-33z" />
    <glyph glyph-name="kgreenlandic" unicode="&#x138;" horiz-adv-x="567" 
d="M53 490h153v-178l163 178h187l-184 -192l200 -298h-181l-124 188l-61 -64v-124h-153v490z" />
    <glyph glyph-name="Lacute" unicode="&#x139;" horiz-adv-x="543" 
d="M220 664v-524h323v-140h-482v664h159zM347 803l-148 -105h-135l96 105h187z" />
    <glyph glyph-name="lacute" unicode="&#x13a;" horiz-adv-x="261" 
d="M208 664v-664h-153v664h153zM342 803l-148 -105h-135l96 105h187z" />
    <glyph glyph-name="Lcaron" unicode="&#x13d;" horiz-adv-x="543" 
d="M455 664l-55 -158h-104l18 158h141zM220 664v-524h323v-140h-482v664h159z" />
    <glyph glyph-name="lcaron" unicode="&#x13e;" horiz-adv-x="358" 
d="M385 664l-55 -158h-104l18 158h141zM208 664v-664h-153v664h153z" />
    <glyph glyph-name="Lcommaaccent" unicode="&#x13b;" horiz-adv-x="543" 
d="M220 664v-524h323v-140h-482v664h159zM254 -126v93h118v-99l-41 -83h-80l36 89h-33z" />
    <glyph glyph-name="lcommaaccent" unicode="&#x13c;" horiz-adv-x="261" 
d="M208 664v-664h-153v664h153zM73 -126v93h118v-99l-41 -83h-80l36 89h-33z" />
    <glyph glyph-name="Ldot" unicode="&#x13f;" horiz-adv-x="543" 
d="M61 803h159v-105h-159v105zM220 664v-524h323v-140h-482v664h159z" />
    <glyph glyph-name="ldot" unicode="&#x140;" horiz-adv-x="262" 
d="M55 698v105h154v-105h-154zM208 664v-664h-153v664h153z" />
    <glyph glyph-name="Mcircumflex" horiz-adv-x="882" 
d="M516 0h-149l-147 529v-529h-159v664h260l123 -459l120 459h257v-664h-159v530zM520 803l127 -105h-152l-51 46l-54 -46h-151l130 105h151z" />
    <glyph glyph-name="mcircumflex" horiz-adv-x="894" 
d="M55 0v490h150v-57c33 40 74 67 151 67c76 0 120 -26 150 -81c40 52 93 81 171 81c69 0 118 -22 146 -69c18 -30 26 -70 26 -140v-291h-153v247c0 54 -4 83 -15 101c-12 19 -31 28 -62 28c-65 0 -90 -38 -90 -127v-249h-154v247c0 54 -4 83 -15 101c-12 19 -31 28 -62 28
c-63 0 -90 -38 -90 -127v-249h-153zM524 664l127 -118h-140l-57 53l-59 -53h-141l131 118h139z" />
    <glyph glyph-name="Mmacron" horiz-adv-x="882" 
d="M516 0h-149l-147 529v-529h-159v664h260l123 -459l120 459h257v-664h-159v530zM599 707h-311v88h311v-88z" />
    <glyph glyph-name="mmacron" horiz-adv-x="894" 
d="M55 0v490h150v-57c33 40 74 67 151 67c76 0 120 -26 150 -81c40 52 93 81 171 81c69 0 118 -22 146 -69c18 -30 26 -70 26 -140v-291h-153v247c0 54 -4 83 -15 101c-12 19 -31 28 -62 28c-65 0 -90 -38 -90 -127v-249h-154v247c0 54 -4 83 -15 101c-12 19 -31 28 -62 28
c-63 0 -90 -38 -90 -127v-249h-153zM595 555h-291v100h291v-100z" />
    <glyph glyph-name="Nacute" unicode="&#x143;" 
d="M678 0h-199l-259 455v-455h-159v664h199l259 -455v455h159v-664zM567 803l-148 -105h-135l96 105h187z" />
    <glyph glyph-name="nacute" unicode="&#x144;" horiz-adv-x="585" 
d="M205 490v-58c32 41 81 68 158 68c60 0 111 -19 141 -58c24 -31 36 -75 36 -153v-289h-153v246c0 59 -7 88 -20 105c-14 18 -36 25 -61 25c-65 0 -98 -37 -98 -129v-247h-153v490h150zM493 664l-147 -118h-115l88 118h174z" />
    <glyph glyph-name="Ncaron" unicode="&#x147;" 
d="M678 0h-199l-259 455v-455h-159v664h199l259 -455v455h159v-664zM308 698l-127 105h152l51 -46l54 46h151l-130 -105h-151z" />
    <glyph glyph-name="ncaron" unicode="&#x148;" horiz-adv-x="585" 
d="M205 490v-58c32 41 81 68 158 68c60 0 111 -19 141 -58c24 -31 36 -75 36 -153v-289h-153v246c0 59 -7 88 -20 105c-14 18 -36 25 -61 25c-65 0 -98 -37 -98 -129v-247h-153v490h150zM238 546l-127 118h140l57 -53l59 53h141l-131 -118h-139z" />
    <glyph glyph-name="Ncircumflex" 
d="M678 0h-199l-259 455v-455h-159v664h199l259 -455v455h159v-664zM459 803l127 -105h-152l-51 46l-54 -46h-151l130 105h151z" />
    <glyph glyph-name="ncircumflex" horiz-adv-x="585" 
d="M205 490v-58c32 41 81 68 158 68c60 0 111 -19 141 -58c24 -31 36 -75 36 -153v-289h-153v246c0 59 -7 88 -20 105c-14 18 -36 25 -61 25c-65 0 -98 -37 -98 -129v-247h-153v490h150zM370 664l127 -118h-140l-57 53l-59 -53h-141l131 118h139z" />
    <glyph glyph-name="Ncommaaccent" unicode="&#x145;" 
d="M678 0h-199l-259 455v-455h-159v664h199l259 -455v455h159v-664zM312 -126v93h118v-99l-41 -83h-80l36 89h-33z" />
    <glyph glyph-name="ncommaaccent" unicode="&#x146;" horiz-adv-x="585" 
d="M205 490v-58c32 41 81 68 158 68c60 0 111 -19 141 -58c24 -31 36 -75 36 -153v-289h-153v246c0 59 -7 88 -20 105c-14 18 -36 25 -61 25c-65 0 -98 -37 -98 -129v-247h-153v490h150zM243 -126v93h118v-99l-41 -83h-80l36 89h-33z" />
    <glyph glyph-name="Ndieresis" 
d="M678 0h-199l-259 455v-455h-159v664h199l259 -455v455h159v-664zM205 803h137v-105h-137v105zM418 803h137v-105h-137v105z" />
    <glyph glyph-name="ndieresis" horiz-adv-x="585" 
d="M205 490v-58c32 41 81 68 158 68c60 0 111 -19 141 -58c24 -31 36 -75 36 -153v-289h-153v246c0 59 -7 88 -20 105c-14 18 -36 25 -61 25c-65 0 -98 -37 -98 -129v-247h-153v490h150zM138 546v118h138v-118h-138zM346 664h137v-118h-137v118z" />
    <glyph glyph-name="Nmacron" 
d="M678 0h-199l-259 455v-455h-159v664h199l259 -455v455h159v-664zM536 707h-311v88h311v-88z" />
    <glyph glyph-name="nmacron" horiz-adv-x="585" 
d="M205 490v-58c32 41 81 68 158 68c60 0 111 -19 141 -58c24 -31 36 -75 36 -153v-289h-153v246c0 59 -7 88 -20 105c-14 18 -36 25 -61 25c-65 0 -98 -37 -98 -129v-247h-153v490h150zM451 555h-291v100h291v-100z" />
    <glyph glyph-name="napostrophe" unicode="&#x149;" horiz-adv-x="585" 
d="M205 490v-58c32 41 81 68 158 68c60 0 111 -19 141 -58c24 -31 36 -75 36 -153v-289h-153v246c0 59 -7 88 -20 105c-14 18 -36 25 -61 25c-65 0 -98 -37 -98 -129v-247h-153v490h150zM84 624v93h118v-99l-41 -83h-80l36 89h-33z" />
    <glyph glyph-name="Obreve" unicode="&#x14e;" 
d="M551 334c0 142 -83 207 -182 207c-98 0 -181 -65 -181 -207s83 -212 181 -212c99 0 182 70 182 212zM719 334c0 -213 -143 -346 -350 -346s-349 133 -349 346c0 214 142 341 349 341s350 -127 350 -341zM435 803h110c-7 -76 -62 -109 -178 -109c-113 0 -171 33 -177 109
h110c4 -33 33 -43 67 -43s64 10 68 43z" />
    <glyph glyph-name="obreve" unicode="&#x14f;" horiz-adv-x="573" 
d="M181 244c0 -85 43 -133 105 -133c61 0 106 48 106 133c0 86 -45 134 -106 134s-105 -48 -105 -134zM25 244c0 176 122 257 261 257c138 0 262 -81 262 -257s-124 -256 -262 -256c-139 0 -261 80 -261 256zM444 664c-7 -66 -53 -123 -159 -123c-103 0 -150 57 -156 123
h100c4 -30 23 -47 57 -47s54 17 58 47h100z" />
    <glyph glyph-name="Ohorn" unicode="&#x1a0;" 
d="M719 334c0 -213 -143 -346 -350 -346s-349 133 -349 346c0 214 142 341 349 341c66 0 125 -14 177 -37c66 -29 108 11 58 74l117 20c47 -71 29 -166 -67 -185c41 -55 65 -127 65 -213zM551 334c0 142 -83 207 -182 207c-98 0 -181 -65 -181 -207s83 -212 181 -212
c99 0 182 70 182 212z" />
    <glyph glyph-name="ohorn" unicode="&#x1a1;" horiz-adv-x="573" 
d="M25 244c0 176 122 257 261 257c33 0 64 -4 97 -15c23 -8 49 -21 78 -21c18 0 33 7 33 29c0 30 -15 50 -15 50l106 17c10 -21 17 -42 17 -67c0 -56 -30 -96 -96 -99c26 -39 42 -89 42 -151c0 -176 -124 -256 -262 -256c-139 0 -261 80 -261 256zM181 244
c0 -85 43 -133 105 -133c61 0 106 48 106 133c0 86 -45 134 -106 134s-105 -48 -105 -134z" />
    <glyph glyph-name="Ohungarumlaut" unicode="&#x150;" 
d="M551 334c0 142 -83 207 -182 207c-98 0 -181 -65 -181 -207s83 -212 181 -212c99 0 182 70 182 212zM719 334c0 -213 -143 -346 -350 -346s-349 133 -349 346c0 214 142 341 349 341s350 -127 350 -341zM477 803l-148 -105h-135l96 105h187zM681 803l-148 -105h-135
l96 105h187z" />
    <glyph glyph-name="ohungarumlaut" unicode="&#x151;" horiz-adv-x="573" 
d="M181 244c0 -85 43 -133 105 -133c61 0 106 48 106 133c0 86 -45 134 -106 134s-105 -48 -105 -134zM25 244c0 176 122 257 261 257c138 0 262 -81 262 -257s-124 -256 -262 -256c-139 0 -261 80 -261 256zM379 664l-147 -118h-115l88 118h174zM587 664l-147 -118h-115
l88 118h174z" />
    <glyph glyph-name="Omacron" unicode="&#x14c;" 
d="M551 334c0 142 -83 207 -182 207c-98 0 -181 -65 -181 -207s83 -212 181 -212c99 0 182 70 182 212zM719 334c0 -213 -143 -346 -350 -346s-349 133 -349 346c0 214 142 341 349 341s350 -127 350 -341zM523 707h-311v88h311v-88z" />
    <glyph glyph-name="omacron" unicode="&#x14d;" horiz-adv-x="573" 
d="M181 244c0 -85 43 -133 105 -133c61 0 106 48 106 133c0 86 -45 134 -106 134s-105 -48 -105 -134zM25 244c0 176 122 257 261 257c138 0 262 -81 262 -257s-124 -256 -262 -256c-139 0 -261 80 -261 256zM431 555h-291v100h291v-100z" />
    <glyph glyph-name="Oslashacute" unicode="&#x1fe;" 
d="M675 640l-51 -59c60 -59 95 -143 95 -247c0 -211 -143 -346 -350 -346c-79 0 -148 19 -203 55l-53 -62l-51 44l51 60c-59 60 -93 145 -93 249c0 212 142 341 349 341c78 0 147 -19 202 -53l52 61zM551 334c0 52 -11 93 -30 125l-259 -303c30 -23 67 -34 107 -34
c99 0 182 70 182 212zM188 334c0 -52 11 -94 29 -127l258 302c-30 21 -67 31 -106 31c-98 0 -181 -64 -181 -206zM571 803l-148 -105h-135l96 105h187z" />
    <glyph glyph-name="oslashacute" unicode="&#x1ff;" horiz-adv-x="573" 
d="M39 8l49 57c-39 41 -63 100 -63 179c0 176 122 257 261 257c53 0 105 -13 148 -38l49 57l46 -40l-47 -54c40 -42 66 -102 66 -182c0 -176 -124 -256 -262 -256c-55 0 -108 12 -151 38l-51 -59zM466 664l-147 -128h-115l88 128h174zM392 244c0 25 -4 47 -11 65l-156 -179
c17 -13 37 -19 61 -19c61 0 106 48 106 133zM181 244c0 -24 3 -44 9 -62l154 178c-16 12 -36 18 -58 18c-61 0 -105 -48 -105 -134z" />
    <glyph glyph-name="Pmacron" horiz-adv-x="619" 
d="M61 664h249c175 0 306 -43 306 -220s-131 -219 -306 -219h-90v-225h-159v664zM315 524h-95v-159h95c74 0 133 8 133 79s-59 80 -133 80zM434 707h-311v88h311v-88z" />
    <glyph glyph-name="pmacron" horiz-adv-x="595" 
d="M208 -173v219c28 -41 87 -58 134 -58c131 0 228 94 228 255c0 164 -91 258 -220 258c-47 0 -108 -19 -142 -66v55h-153v-663h153zM307 378c61 0 107 -55 107 -134c0 -80 -46 -133 -107 -133c-60 0 -106 45 -106 132c0 89 46 135 106 135zM447 555h-291v100h291v-100z" />
    <glyph glyph-name="Racute" unicode="&#x154;" horiz-adv-x="660" 
d="M464 0l-144 244h-100v-244h-159v664h249c175 0 306 -41 306 -208c0 -100 -54 -156 -131 -185l165 -271h-186zM315 524h-95v-140h95c75 0 133 7 133 70c0 62 -58 70 -133 70zM498 803l-148 -105h-135l96 105h187z" />
    <glyph glyph-name="racute" unicode="&#x155;" horiz-adv-x="373" 
d="M363 495v-160c-19 3 -42 6 -64 6c-47 0 -91 -15 -91 -97v-244h-153v490h148v-83c27 50 65 86 136 89c8 0 16 0 24 -1zM325 664l-147 -118h-115l88 118h174z" />
    <glyph glyph-name="Rcaron" unicode="&#x158;" horiz-adv-x="660" 
d="M464 0l-144 244h-10h-90v-244h-159v664h249c175 0 306 -41 306 -208c0 -100 -54 -156 -131 -185l165 -271h-186zM315 524h-95v-140h95c75 0 133 7 133 70c0 62 -58 70 -133 70zM231 698l-127 105h152l51 -46l54 46h151l-130 -105h-151z" />
    <glyph glyph-name="rcaron" unicode="&#x159;" horiz-adv-x="373" 
d="M363 495v-160c-19 3 -42 6 -64 6c-47 0 -91 -15 -91 -97v-244h-153v490h148v-83c27 50 65 86 136 89c8 0 16 0 24 -1zM132 546l-127 118h140l57 -53l59 53h141l-131 -118h-139z" />
    <glyph glyph-name="Rcommaaccent" unicode="&#x156;" horiz-adv-x="660" 
d="M464 0l-144 244h-10h-90v-244h-159v664h249c175 0 306 -41 306 -208c0 -100 -54 -156 -131 -185l165 -271h-186zM315 524h-95v-140h95c75 0 133 7 133 70c0 62 -58 70 -133 70zM268 -126v93h118v-99l-41 -83h-80l36 89h-33z" />
    <glyph glyph-name="rcommaaccent" unicode="&#x157;" horiz-adv-x="373" 
d="M363 495v-160c-19 3 -42 6 -64 6c-47 0 -91 -15 -91 -97v-244h-153v490h148v-83c27 50 65 86 136 89c8 0 16 0 24 -1zM72 -126v93h118v-99l-41 -83h-80l36 89h-33z" />
    <glyph glyph-name="Sacute" unicode="&#x15a;" horiz-adv-x="625" 
d="M30 477c0 139 151 198 276 198c134 0 255 -60 284 -190l-158 -23c-15 48 -65 77 -135 77c-59 0 -103 -18 -103 -54c0 -34 30 -56 77 -66l92 -20c104 -22 242 -57 242 -194c0 -147 -147 -217 -278 -217c-177 0 -285 80 -315 215l158 23c18 -67 73 -102 158 -102
c55 0 112 16 112 63c0 43 -57 63 -123 77l-82 18c-105 23 -205 72 -205 195zM503 803l-148 -105h-135l96 105h187z" />
    <glyph glyph-name="sacute" unicode="&#x15b;" horiz-adv-x="541" 
d="M507 354l-143 -18c-10 37 -48 51 -96 51c-52 0 -76 -14 -76 -33c0 -20 16 -31 60 -39l81 -15c121 -22 182 -58 182 -146c0 -112 -104 -166 -243 -166c-132 0 -230 62 -249 167l142 18c13 -49 54 -71 107 -71c54 0 92 12 92 39c0 22 -21 31 -78 41l-78 13
c-98 16 -165 66 -165 155c0 100 105 151 229 151c114 0 213 -48 235 -147zM463 664l-147 -118h-115l88 118h174z" />
    <glyph glyph-name="Scedilla" unicode="&#x15e;" horiz-adv-x="625" 
d="M192 -174l16 50c11 -6 37 -13 61 -13s45 7 45 27c0 17 -15 26 -37 26c-11 0 -26 -2 -36 -8l-28 16l43 69c-135 18 -219 94 -244 210l158 23c18 -67 73 -102 158 -102c55 0 112 16 112 63c0 43 -57 63 -123 77l-82 18c-105 23 -205 72 -205 195c0 139 151 198 276 198
c134 0 255 -60 284 -190l-158 -23c-15 48 -65 77 -135 77c-59 0 -103 -18 -103 -54c0 -34 30 -56 77 -66l92 -20c104 -22 242 -57 242 -194c0 -147 -147 -217 -278 -217h-17l-22 -35c9 2 20 3 34 3c38 0 87 -16 87 -63c0 -58 -64 -80 -129 -80c-31 0 -63 5 -88 13z" />
    <glyph glyph-name="scedilla" unicode="&#x15f;" horiz-adv-x="541" 
d="M162 -174l16 50c11 -6 37 -13 61 -13s45 7 45 27c0 17 -15 26 -37 26c-11 0 -26 -2 -36 -8l-28 16l41 67c-107 13 -185 72 -201 164l142 18c13 -49 54 -71 107 -71c54 0 92 12 92 39c0 22 -21 31 -78 41l-78 13c-98 16 -165 66 -165 155c0 100 105 151 229 151
c114 0 213 -48 235 -147l-143 -18c-10 37 -48 51 -96 51c-52 0 -76 -14 -76 -33c0 -20 16 -31 60 -39l81 -15c121 -22 182 -58 182 -146c0 -110 -100 -164 -235 -166l-22 -35c9 2 20 3 34 3c38 0 87 -16 87 -63c0 -58 -64 -80 -129 -80c-31 0 -63 5 -88 13z" />
    <glyph glyph-name="Scircumflex" unicode="&#x15c;" horiz-adv-x="625" 
d="M30 477c0 139 151 198 276 198c134 0 255 -60 284 -190l-158 -23c-15 48 -65 77 -135 77c-59 0 -103 -18 -103 -54c0 -34 30 -56 77 -66l92 -20c104 -22 242 -57 242 -194c0 -147 -147 -217 -278 -217c-177 0 -285 80 -315 215l158 23c18 -67 73 -102 158 -102
c55 0 112 16 112 63c0 43 -57 63 -123 77l-82 18c-105 23 -205 72 -205 195zM387 803l127 -105h-152l-51 46l-54 -46h-151l130 105h151z" />
    <glyph glyph-name="scircumflex" unicode="&#x15d;" horiz-adv-x="541" 
d="M507 354l-143 -18c-10 37 -48 51 -96 51c-52 0 -76 -14 -76 -33c0 -20 16 -31 60 -39l81 -15c121 -22 182 -58 182 -146c0 -112 -104 -166 -243 -166c-132 0 -230 62 -249 167l142 18c13 -49 54 -71 107 -71c54 0 92 12 92 39c0 22 -21 31 -78 41l-78 13
c-98 16 -165 66 -165 155c0 100 105 151 229 151c114 0 213 -48 235 -147zM353 664l127 -118h-140l-57 53l-59 -53h-141l131 118h139z" />
    <glyph glyph-name="Scommaaccent" unicode="&#x218;" horiz-adv-x="625" 
d="M30 477c0 139 151 198 276 198c134 0 255 -60 284 -190l-158 -23c-15 48 -65 77 -135 77c-59 0 -103 -18 -103 -54c0 -34 30 -56 77 -66l92 -20c104 -22 242 -57 242 -194c0 -147 -147 -217 -278 -217c-177 0 -285 80 -315 215l158 23c18 -67 73 -102 158 -102
c55 0 112 16 112 63c0 43 -57 63 -123 77l-82 18c-105 23 -205 72 -205 195zM264 -126v93h118v-99l-41 -83h-80l36 89h-33z" />
    <glyph glyph-name="scommaaccent" unicode="&#x219;" horiz-adv-x="541" 
d="M507 354l-143 -18c-10 37 -48 51 -96 51c-52 0 -76 -14 -76 -33c0 -20 16 -31 60 -39l81 -15c121 -22 182 -58 182 -146c0 -112 -104 -166 -243 -166c-132 0 -230 62 -249 167l142 18c13 -49 54 -71 107 -71c54 0 92 12 92 39c0 22 -21 31 -78 41l-78 13
c-98 16 -165 66 -165 155c0 100 105 151 229 151c114 0 213 -48 235 -147zM214 -126v93h118v-99l-41 -83h-80l36 89h-33z" />
    <glyph glyph-name="Tbar" unicode="&#x166;" horiz-adv-x="602" 
d="M221 0v271h-130v140h130v113h-216v140h592v-140h-217v-113h130v-140h-130v-271h-159z" />
    <glyph glyph-name="tbar" unicode="&#x167;" horiz-adv-x="415" 
d="M109 490v147h153v-147h110v-119h-110v-51h110v-119h-110v-24c0 -47 15 -56 66 -56h44v-121h-98c-122 0 -165 23 -165 140v61h-79v119h79v51h-79v119h79z" />
    <glyph glyph-name="Tcaron" unicode="&#x164;" horiz-adv-x="602" 
d="M221 0v524h-216v140h592v-140h-217v-524h-159zM224 698l-127 105h152l51 -46l54 46h151l-130 -105h-151z" />
    <glyph glyph-name="tcaron" unicode="&#x165;" horiz-adv-x="404" 
d="M439 664l-55 -158h-104l18 158h141zM79 490v147h153v-147h110v-119h-110v-194c0 -47 15 -56 66 -56h44v-121h-98c-122 0 -165 23 -165 140v231h-79v119h79z" />
    <glyph glyph-name="Tcommaaccent" unicode="&#x162;" horiz-adv-x="602" 
d="M221 0v524h-216v140h592v-140h-217v-524h-47l-29 -47c9 2 20 3 34 3c38 0 87 -16 87 -63c0 -58 -64 -80 -129 -80c-31 0 -63 5 -88 13l16 50c11 -6 37 -13 61 -13s45 7 45 27c0 17 -15 26 -37 26c-11 0 -26 -2 -36 -8l-28 16l47 76h-55z" />
    <glyph glyph-name="tcommaaccent" unicode="&#x163;" horiz-adv-x="368" 
d="M118 -174l16 50c11 -6 37 -13 61 -13s45 7 45 27c0 17 -15 26 -37 26c-11 0 -26 -2 -36 -8l-28 16l49 78c-80 9 -109 41 -109 138v231h-79v119h79v147h153v-147h110v-119h-110v-194c0 -47 15 -56 66 -56h44v-121h-98h-1l-29 -47c9 2 20 3 34 3c38 0 87 -16 87 -63
c0 -58 -64 -80 -129 -80c-31 0 -63 5 -88 13z" />
    <glyph glyph-name="Ubreve" unicode="&#x16c;" horiz-adv-x="683" 
d="M50 664h159v-386c0 -98 23 -153 134 -153s131 63 131 163v376h159v-370c0 -208 -80 -306 -290 -306c-202 0 -293 78 -293 300v376zM405 803h110c-7 -76 -62 -109 -178 -109c-113 0 -171 33 -177 109h110c4 -33 33 -43 67 -43s64 10 68 43z" />
    <glyph glyph-name="ubreve" unicode="&#x16d;" horiz-adv-x="573" 
d="M368 0v57c-32 -41 -73 -69 -151 -69c-61 0 -107 17 -135 51c-25 31 -37 78 -37 158v293h153v-252c0 -54 5 -84 18 -102s33 -24 62 -24c60 0 87 37 87 126v252h153v-490h-150zM446 664c-7 -66 -53 -123 -159 -123c-103 0 -150 57 -156 123h100c4 -30 23 -47 57 -47
s54 17 58 47h100z" />
    <glyph glyph-name="Uhorn" unicode="&#x1af;" horiz-adv-x="683" 
d="M50 664h159v-386c0 -98 23 -153 134 -153s131 63 131 163v376h73c28 2 44 24 44 57c0 19 -3 35 -8 44l108 25c13 -20 19 -42 19 -63c0 -40 -21 -90 -77 -105v-328c0 -208 -80 -306 -290 -306c-202 0 -293 78 -293 300v376z" />
    <glyph glyph-name="uhorn" unicode="&#x1b0;" horiz-adv-x="573" 
d="M368 0v57c-32 -41 -73 -69 -151 -69c-61 0 -107 17 -135 51c-25 31 -37 78 -37 158v293h153v-252c0 -54 5 -84 18 -102s33 -24 62 -24c60 0 87 37 87 126v252h82c28 2 44 24 44 57c0 19 -3 35 -8 44l108 25c13 -20 19 -42 19 -63c0 -43 -25 -98 -92 -108v-445h-150z" />
    <glyph glyph-name="Uhungarumlaut" unicode="&#x170;" horiz-adv-x="683" 
d="M50 664h159v-386c0 -98 23 -153 134 -153s131 63 131 163v376h159v-370c0 -208 -80 -306 -290 -306c-202 0 -293 78 -293 300v376zM414 803l-148 -105h-135l96 105h187zM618 803l-148 -105h-135l96 105h187z" />
    <glyph glyph-name="uhungarumlaut" unicode="&#x171;" horiz-adv-x="573" 
d="M368 0v57c-32 -41 -73 -69 -151 -69c-61 0 -107 17 -135 51c-25 31 -37 78 -37 158v293h153v-252c0 -54 5 -84 18 -102s33 -24 62 -24c60 0 87 37 87 126v252h153v-490h-150zM355 664l-147 -118h-115l88 118h174zM563 664l-147 -118h-115l88 118h174z" />
    <glyph glyph-name="Umacron" unicode="&#x16a;" horiz-adv-x="683" 
d="M50 664h159v-386c0 -98 23 -153 134 -153s131 63 131 163v376h159v-370c0 -208 -80 -306 -290 -306c-202 0 -293 78 -293 300v376zM494 707h-311v88h311v-88z" />
    <glyph glyph-name="umacron" unicode="&#x16b;" horiz-adv-x="573" 
d="M368 0v57c-32 -41 -73 -69 -151 -69c-61 0 -107 17 -135 51c-25 31 -37 78 -37 158v293h153v-252c0 -54 5 -84 18 -102s33 -24 62 -24c60 0 87 37 87 126v252h153v-490h-150zM429 555h-291v100h291v-100z" />
    <glyph glyph-name="Uogonek" unicode="&#x172;" horiz-adv-x="683" 
d="M50 664h159v-386c0 -98 23 -153 134 -153s131 63 131 163v376h159v-370c0 -181 -61 -279 -215 -301c-39 -20 -66 -37 -66 -62c0 -24 19 -31 41 -31c19 0 39 5 52 9v-76c-24 -6 -71 -10 -96 -10c-67 0 -128 25 -128 86c0 33 20 63 50 83c-152 18 -221 102 -221 296v376z
" />
    <glyph glyph-name="uogonek" unicode="&#x173;" horiz-adv-x="573" 
d="M368 0v57c-32 -41 -73 -69 -151 -69c-61 0 -107 17 -135 51c-25 31 -37 78 -37 158v293h153v-252c0 -54 5 -84 18 -102s33 -24 62 -24c60 0 87 37 87 126v252h153v-490c-47 -23 -82 -41 -82 -69c0 -24 19 -31 41 -31c19 0 39 5 52 9v-76c-24 -6 -71 -10 -96 -10
c-67 0 -128 25 -128 86c0 37 25 71 63 91z" />
    <glyph glyph-name="Uring" unicode="&#x16e;" horiz-adv-x="683" 
d="M50 664h159v-386c0 -98 23 -153 134 -153s131 63 131 163v376h159v-370c0 -208 -80 -306 -290 -306c-202 0 -293 78 -293 300v376zM338 847c46 0 84 -33 84 -79s-37 -79 -84 -79s-84 33 -84 79s38 79 84 79zM338 808c-21 0 -40 -17 -40 -40s19 -39 40 -39s40 16 40 39
s-19 40 -40 40z" />
    <glyph glyph-name="uring" unicode="&#x16f;" horiz-adv-x="573" 
d="M368 0v57c-32 -41 -73 -69 -151 -69c-61 0 -107 17 -135 51c-25 31 -37 78 -37 158v293h153v-252c0 -54 5 -84 18 -102s33 -24 62 -24c60 0 87 37 87 126v252h153v-490h-150zM282 710c48 0 88 -35 88 -83s-39 -83 -88 -83s-88 35 -88 83s40 83 88 83zM282 665
c-21 0 -38 -16 -38 -38s17 -37 38 -37s38 15 38 37s-17 38 -38 38z" />
    <glyph glyph-name="Utilde" unicode="&#x168;" horiz-adv-x="683" 
d="M50 664h159v-386c0 -98 23 -153 134 -153s131 63 131 163v376h159v-370c0 -208 -80 -306 -290 -306c-202 0 -293 78 -293 300v376zM400 769c28 0 45 11 50 34h90c-17 -93 -92 -107 -134 -107c-60 0 -82 34 -120 34c-28 0 -44 -11 -49 -34h-90c17 93 92 107 134 107
c60 0 77 -34 119 -34z" />
    <glyph glyph-name="utilde" unicode="&#x169;" horiz-adv-x="573" 
d="M368 0v57c-32 -41 -73 -69 -151 -69c-61 0 -107 17 -135 51c-25 31 -37 78 -37 158v293h153v-252c0 -54 5 -84 18 -102s33 -24 62 -24c60 0 87 37 87 126v252h153v-490h-150zM339 623c28 0 44 14 49 41h90c-13 -78 -59 -118 -125 -118c-65 0 -89 41 -127 41
c-28 0 -43 -14 -48 -41h-90c12 73 55 118 126 118c64 0 83 -41 125 -41z" />
    <glyph glyph-name="Wacute" unicode="&#x1e82;" horiz-adv-x="851" 
d="M508 664l100 -458l75 458h168l-152 -664h-171l-102 465l-102 -465h-170l-154 664h170l83 -456l91 456h164zM633 803l-148 -105h-135l96 105h187z" />
    <glyph glyph-name="wacute" unicode="&#x1e83;" horiz-adv-x="758" 
d="M291 490l-68 -329l-57 329h-166l121 -490h182l77 349l75 -349h182l121 490h-164l-59 -328l-67 328h-177zM563 664l-147 -118h-115l88 118h174z" />
    <glyph glyph-name="Wcircumflex" unicode="&#x174;" horiz-adv-x="851" 
d="M508 664l100 -458l75 458h168l-152 -664h-171l-102 465l-102 -465h-170l-154 664h170l83 -456l91 456h164zM503 803l127 -105h-152l-51 46l-54 -46h-151l130 105h151z" />
    <glyph glyph-name="wcircumflex" unicode="&#x175;" horiz-adv-x="758" 
d="M291 490l-68 -329l-57 329h-166l121 -490h182l77 349l75 -349h182l121 490h-164l-59 -328l-67 328h-177zM452 664l127 -118h-140l-57 53l-59 -53h-141l131 118h139z" />
    <glyph glyph-name="Wdieresis" unicode="&#x1e84;" horiz-adv-x="851" 
d="M508 664l100 -458l75 458h168l-152 -664h-171l-102 465l-102 -465h-170l-154 664h170l83 -456l91 456h164zM251 803h137v-105h-137v105zM464 803h137v-105h-137v105z" />
    <glyph glyph-name="wdieresis" unicode="&#x1e85;" horiz-adv-x="758" 
d="M291 490l-68 -329l-57 329h-166l121 -490h182l77 349l75 -349h182l121 490h-164l-59 -328l-67 328h-177zM208 546v118h138v-118h-138zM416 664h137v-118h-137v118z" />
    <glyph glyph-name="Wgrave" unicode="&#x1e80;" horiz-adv-x="851" 
d="M508 664l100 -458l75 458h168l-152 -664h-171l-102 465l-102 -465h-170l-154 664h170l83 -456l91 456h164zM384 698l-148 105h187l96 -105h-135z" />
    <glyph glyph-name="wgrave" unicode="&#x1e81;" horiz-adv-x="758" 
d="M291 490l-68 -329l-57 329h-166l121 -490h182l77 349l75 -349h182l121 490h-164l-59 -328l-67 328h-177zM359 546l-147 118h174l88 -118h-115z" />
    <glyph glyph-name="Ycircumflex" unicode="&#x176;" horiz-adv-x="643" 
d="M-15 664h186l150 -259l153 259h184l-260 -414v-250h-159v252zM398 803l127 -105h-152l-51 46l-54 -46h-151l130 105h151z" />
    <glyph glyph-name="ycircumflex" unicode="&#x177;" horiz-adv-x="523" 
d="M52 -173h58c130 0 167 46 217 173l196 490h-164l-99 -303l-92 303h-168l187 -487l-5 -13c-15 -38 -27 -42 -91 -42h-39v-121zM335 664l127 -118h-140l-57 53l-59 -53h-141l131 118h139z" />
    <glyph glyph-name="Ygrave" unicode="&#x1ef2;" horiz-adv-x="643" 
d="M-15 664h186l150 -259l153 259h184l-260 -414v-250h-159v252zM291 698l-148 105h187l96 -105h-135z" />
    <glyph glyph-name="ygrave" unicode="&#x1ef3;" horiz-adv-x="523" 
d="M52 -173h58c130 0 167 46 217 173l196 490h-164l-99 -303l-92 303h-168l187 -487l-5 -13c-15 -38 -27 -42 -91 -42h-39v-121zM235 546l-147 118h174l88 -118h-115z" />
    <glyph glyph-name="Zacute" unicode="&#x179;" horiz-adv-x="610" 
d="M576 664v-122l-349 -402h353v-140h-562v122l350 402h-323v140h531zM488 803l-148 -105h-135l96 105h187z" />
    <glyph glyph-name="zacute" unicode="&#x17a;" horiz-adv-x="509" 
d="M20 119v-119h470v119h-273l262 252v119h-441v-119h244zM449 664l-147 -118h-115l88 118h174z" />
    <glyph glyph-name="Zdotaccent" unicode="&#x17b;" horiz-adv-x="610" 
d="M576 664v-122l-349 -402h353v-140h-562v122l350 402h-323v140h531zM231 803h159v-105h-159v105z" />
    <glyph glyph-name="zdotaccent" unicode="&#x17c;" horiz-adv-x="509" 
d="M20 119v-119h470v119h-273l262 252v119h-441v-119h244zM191 664h138v-118h-138v118z" />
    <glyph glyph-name="uni0186" unicode="&#x186;" horiz-adv-x="699" 
d="M181 421l-158 28c32 130 152 226 324 226c210 0 332 -131 332 -346c0 -213 -137 -341 -342 -341c-169 0 -291 102 -315 238l160 30c17 -92 83 -133 161 -133c94 0 168 64 168 206s-69 212 -168 212c-68 0 -142 -30 -162 -120z" />
    <glyph glyph-name="uni018F" unicode="&#x18f;" 
d="M204 452l-159 46c33 96 154 177 324 177c201 0 350 -129 350 -341c0 -211 -146 -346 -353 -346c-233 0 -368 154 -335 418h511c-12 97 -97 134 -172 134c-80 0 -143 -31 -166 -88zM365 122c88 0 165 43 180 154h-348c12 -111 88 -154 168 -154z" />
    <glyph glyph-name="uni0190" unicode="&#x190;" horiz-adv-x="602" 
d="M564 140v-140h-276c-163 0 -272 55 -272 205c0 82 45 127 107 150c-51 31 -80 76 -80 137c0 140 110 172 257 172h259v-140h-264c-55 0 -87 -16 -87 -58s32 -59 87 -59h243v-132h-252c-67 0 -102 -20 -102 -67s35 -68 102 -68h278z" />
    <glyph glyph-name="uni019D" unicode="&#x19d;" 
d="M-8 -173v137h18c42 0 51 12 51 52v648h199l259 -455v455h159v-664h-199l-259 455v-469c0 -127 -56 -159 -171 -159h-57z" />
    <glyph glyph-name="uni019F" unicode="&#x19f;" 
d="M719 334c0 -211 -143 -346 -350 -346s-349 135 -349 346c0 212 142 341 349 341s350 -129 350 -341zM369 122c85 0 159 52 177 158h-354c19 -106 92 -158 177 -158zM369 540c-82 0 -153 -45 -175 -142h350c-21 97 -93 142 -175 142z" />
    <glyph glyph-name="uni01C4" unicode="&#x1c4;" horiz-adv-x="1245" 
d="M499 332c0 178 -126 192 -243 192h-36v-384h36c117 0 243 14 243 192zM61 664h192c220 0 414 -75 414 -332s-194 -332 -414 -332h-192v664zM1219 664v-122l-349 -402h353v-140h-562v122l350 402h-323v140h531zM883 698l-127 105h152l51 -46l54 46h151l-130 -105h-151z
" />
    <glyph glyph-name="uni01C5" unicode="&#x1c5;" horiz-adv-x="1184" 
d="M499 332c0 178 -126 192 -243 192h-36v-384h36c117 0 243 14 243 192zM61 664h192c220 0 414 -75 414 -332s-194 -332 -414 -332h-192v664zM704 119v-119h470v119h-273l262 252v119h-441v-119h244zM878 546l-127 118h140l57 -53l59 53h141l-131 -118h-139z" />
    <glyph glyph-name="uni01C6" unicode="&#x1c6;" horiz-adv-x="1080" 
d="M530 664v-664h-153v53c-32 -47 -95 -65 -142 -65c-129 0 -220 93 -220 257c0 161 97 256 228 256c47 0 106 -17 134 -58v221h153zM278 111c60 0 106 45 106 134c0 87 -46 133 -106 133c-61 0 -107 -54 -107 -134c0 -79 46 -133 107 -133zM600 0v119l262 252h-244v119h441
v-119l-262 -252h273v-119h-470zM783 546l-127 118h140l57 -53l59 53h141l-131 -118h-139z" />
    <glyph glyph-name="uni01C7" unicode="&#x1c7;" horiz-adv-x="860" 
d="M211 664v-524h323v-140h-482v664h159zM549 0v137h24c43 0 68 7 68 44v483h159v-487c0 -139 -45 -177 -186 -177h-65z" />
    <glyph glyph-name="uni01C8" unicode="&#x1c8;" horiz-adv-x="798" 
d="M211 664v-524h323v-140h-482v664h159zM592 2v488h153v-504c0 -127 -50 -159 -165 -159h-57v121h18c43 0 51 12 51 54zM592 664h153v-123h-153v123z" />
    <glyph glyph-name="uni01C9" unicode="&#x1c9;" horiz-adv-x="519" 
d="M206 664v-664h-153v664h153zM313 2v488h153v-504c0 -127 -50 -159 -165 -159h-57v121h18c43 0 51 12 51 54zM313 664h153v-123h-153v123z" />
    <glyph glyph-name="uni01CA" unicode="&#x1ca;" horiz-adv-x="1060" 
d="M678 0h-199l-259 455v-455h-159v664h199l259 -455v455h159v-664zM749 0v137h24c43 0 68 7 68 44v483h159v-487c0 -139 -45 -177 -186 -177h-65z" />
    <glyph glyph-name="uni01CB" unicode="&#x1cb;" horiz-adv-x="998" 
d="M678 0h-199l-259 455v-455h-159v664h199l259 -455v455h159v-664zM792 2v488h153v-504c0 -127 -50 -159 -165 -159h-57v121h18c43 0 51 12 51 54zM792 664h153v-123h-153v123z" />
    <glyph glyph-name="uni01CC" unicode="&#x1cc;" horiz-adv-x="840" 
d="M198 490v-58c32 41 81 68 158 68c60 0 111 -19 141 -58c24 -31 36 -75 36 -153v-289h-153v246c0 59 -7 88 -20 105c-14 18 -36 25 -61 25c-65 0 -98 -37 -98 -129v-247h-153v490h150zM634 2v488h153v-504c0 -127 -50 -159 -165 -159h-57v121h18c43 0 51 12 51 54z
M634 664h153v-123h-153v123z" />
    <glyph glyph-name="uni01F1" unicode="&#x1f1;" horiz-adv-x="1245" 
d="M499 332c0 178 -126 192 -243 192h-36v-384h36c117 0 243 14 243 192zM61 664h192c220 0 414 -75 414 -332s-194 -332 -414 -332h-192v664zM1219 664v-122l-349 -402h353v-140h-562v122l350 402h-323v140h531z" />
    <glyph glyph-name="uni01F2" unicode="&#x1f2;" horiz-adv-x="1184" 
d="M499 332c0 178 -126 192 -243 192h-36v-384h36c117 0 243 14 243 192zM61 664h192c220 0 414 -75 414 -332s-194 -332 -414 -332h-192v664zM704 119v-119h470v119h-273l262 252v119h-441v-119h244z" />
    <glyph glyph-name="uni01F3" unicode="&#x1f3;" horiz-adv-x="1080" 
d="M530 664v-664h-153v53c-32 -47 -95 -65 -142 -65c-129 0 -220 93 -220 257c0 161 97 256 228 256c47 0 106 -17 134 -58v221h153zM278 111c60 0 106 45 106 134c0 87 -46 133 -106 133c-61 0 -107 -54 -107 -134c0 -79 46 -133 107 -133zM600 0v119l262 252h-244v119h441
v-119l-262 -252h273v-119h-470z" />
    <glyph glyph-name="uni021C" unicode="&#x21c;" horiz-adv-x="621" 
d="M35 -186l-10 139c196 17 397 37 397 154c0 61 -51 84 -124 84c-26 0 -55 -3 -87 -10l-19 141c140 26 218 54 218 129c0 51 -44 90 -118 90c-70 0 -121 -43 -134 -113l-159 27c39 151 168 220 307 220c155 0 272 -78 272 -208c0 -93 -53 -152 -120 -188
c91 -36 132 -100 132 -186c0 -185 -194 -265 -555 -279z" />
    <glyph glyph-name="uni021D" unicode="&#x21d;" horiz-adv-x="532" 
d="M136 312l-136 30c36 110 138 159 260 159c110 0 236 -51 236 -169c0 -75 -42 -120 -94 -144c66 -27 105 -75 105 -148c0 -148 -161 -218 -486 -226l-8 127c169 12 337 28 337 106c0 44 -46 82 -180 53l-20 126c127 20 191 40 191 90c0 43 -47 61 -95 61
c-57 0 -93 -21 -110 -65z" />
    <glyph glyph-name="uni0226" unicode="&#x226;" horiz-adv-x="673" 
d="M-5 0l254 664h174l255 -664h-173l-42 120h-257l-42 -120h-169zM335 486l-80 -227h159zM257 803h159v-105h-159v105z" />
    <glyph glyph-name="uni0227" unicode="&#x227;" horiz-adv-x="555" 
d="M46 338l143 -3c3 44 39 62 88 62c55 0 85 -18 85 -65v-12l-78 -8c-78 -8 -159 -18 -208 -56c-29 -23 -47 -55 -47 -103c0 -90 68 -165 192 -165c69 0 123 17 158 62l3 -50h133c-6 69 -9 132 -8 197l2 107c3 142 -73 198 -221 198c-104 0 -229 -32 -242 -164zM366 196
c0 -67 -55 -94 -108 -94c-50 0 -72 24 -72 55s18 49 100 57l80 8v-26zM211 664h138v-118h-138v118z" />
    <glyph glyph-name="uni0232" unicode="&#x232;" horiz-adv-x="643" 
d="M-15 664h186l150 -259l153 259h184l-260 -414v-250h-159v252zM478 707h-311v88h311v-88z" />
    <glyph glyph-name="uni0233" unicode="&#x233;" horiz-adv-x="523" 
d="M52 -173h58c130 0 167 46 217 173l196 490h-164l-99 -303l-92 303h-168l187 -487l-5 -13c-15 -38 -27 -42 -91 -42h-39v-121zM408 555h-291v100h291v-100z" />
    <glyph glyph-name="uni0254" unicode="&#x254;" horiz-adv-x="538" 
d="M267 -12c-104 0 -211 48 -244 170l142 29c13 -49 48 -76 93 -76c55 0 109 34 109 132c0 99 -55 135 -110 135c-57 0 -89 -40 -98 -76l-142 28c38 127 150 171 250 171c165 0 256 -108 256 -262c0 -147 -109 -251 -256 -251z" />
    <glyph glyph-name="uni0259" unicode="&#x259;" horiz-adv-x="559" 
d="M277 504c166 0 267 -108 267 -260c0 -155 -116 -256 -265 -256c-168 0 -268 109 -256 300h367c-3 62 -57 93 -114 93s-94 -22 -113 -62l-138 31c47 111 147 154 252 154zM281 100c52 0 107 26 108 89h-214c1 -61 52 -89 106 -89z" />
    <glyph glyph-name="uni025B" unicode="&#x25b;" horiz-adv-x="523" 
d="M489 119v-119h-244c-129 0 -213 36 -213 146c0 58 36 99 84 116c-39 23 -62 55 -62 101c0 103 84 127 201 127h230v-119h-212c-43 0 -66 -4 -66 -30s23 -30 66 -30h196v-119h-214c-43 0 -67 -8 -67 -36s24 -37 67 -37h234z" />
    <glyph glyph-name="uni0272" unicode="&#x272;" horiz-adv-x="583" 
d="M53 2v488h150v-59c32 41 79 69 157 69c113 0 178 -62 178 -198v-302h-153v250c0 98 -28 126 -86 126c-63 0 -93 -37 -93 -126v-264c0 -127 -50 -159 -165 -159h-57v121h18c43 0 51 12 51 54z" />
    <glyph glyph-name="uni0275" unicode="&#x275;" horiz-adv-x="553" 
d="M15 244c0 176 122 257 261 257c138 0 262 -81 262 -257s-124 -256 -262 -256c-139 0 -261 80 -261 256zM276 111c48 0 86 30 100 85h-200c14 -55 51 -85 100 -85zM276 378c-48 0 -85 -30 -99 -83h199c-15 53 -53 83 -100 83z" />
    <glyph glyph-name="uni032C" unicode="&#x32c;" horiz-adv-x="437" 
d="M147 -128l-127 128h140l57 -53l59 53h141l-131 -128h-139z" />
    <glyph glyph-name="uni1EA0" unicode="&#x1ea0;" horiz-adv-x="673" 
d="M-5 0l254 664h174l255 -664h-173l-42 120h-257l-42 -120h-169zM335 486l-80 -227h159zM268 -34h138v-118h-138v118z" />
    <glyph glyph-name="uni1EA1" unicode="&#x1ea1;" horiz-adv-x="555" 
d="M189 335l-143 3c13 132 138 164 242 164c148 0 224 -56 221 -198l-2 -107c-1 -65 2 -128 8 -197h-133l-3 50c-35 -45 -89 -62 -158 -62c-124 0 -192 75 -192 165c0 48 18 80 47 103c49 38 130 48 208 56l78 8v12c0 47 -30 65 -85 65c-49 0 -85 -18 -88 -62zM366 196v26
l-80 -8c-82 -8 -100 -26 -100 -57s22 -55 72 -55c53 0 108 27 108 94zM206 -34h138v-118h-138v118z" />
    <glyph glyph-name="uni1EB8" unicode="&#x1eb8;" horiz-adv-x="616" 
d="M61 0v664h517v-140h-358v-113h338v-140h-338v-131h358v-140h-517zM253 -34h138v-118h-138v118z" />
    <glyph glyph-name="uni1EB9" unicode="&#x1eb9;" horiz-adv-x="572" 
d="M292 -12c-165 0 -267 110 -267 260c0 155 116 256 265 256c168 0 268 -109 256 -300h-367c3 -62 57 -93 114 -93s92 20 109 60l142 -26c-45 -116 -147 -157 -252 -157zM220 -34h138v-118h-138v118zM288 392c-53 0 -107 -27 -108 -89h214c-1 61 -52 89 -106 89z" />
    <glyph glyph-name="uni1ECA" unicode="&#x1eca;" horiz-adv-x="281" 
d="M220 664v-664h-159v664h159zM71 -34h138v-118h-138v118z" />
    <glyph glyph-name="uni1ECB" unicode="&#x1ecb;" horiz-adv-x="263" 
d="M55 490h153v-490h-153v490zM55 664h153v-123h-153v123zM61 -34h138v-118h-138v118z" />
    <glyph glyph-name="uni1ECC" unicode="&#x1ecc;" 
d="M551 334c0 142 -83 207 -182 207c-98 0 -181 -65 -181 -207s83 -212 181 -212c99 0 182 70 182 212zM719 334c0 -213 -143 -346 -350 -346s-349 133 -349 346c0 214 142 341 349 341s350 -127 350 -341zM296 -34h138v-118h-138v118z" />
    <glyph glyph-name="uni1ECD" unicode="&#x1ecd;" horiz-adv-x="573" 
d="M181 244c0 -85 43 -133 105 -133c61 0 106 48 106 133c0 86 -45 134 -106 134s-105 -48 -105 -134zM25 244c0 176 122 257 261 257c138 0 262 -81 262 -257s-124 -256 -262 -256c-139 0 -261 80 -261 256zM217 -34h138v-118h-138v118z" />
    <glyph glyph-name="uni1EE4" unicode="&#x1ee4;" horiz-adv-x="683" 
d="M50 664h159v-386c0 -98 23 -153 134 -153s131 63 131 163v376h159v-370c0 -208 -80 -306 -290 -306c-202 0 -293 78 -293 300v376zM271 -34h138v-118h-138v118z" />
    <glyph glyph-name="uni1EE5" unicode="&#x1ee5;" horiz-adv-x="573" 
d="M368 0v57c-32 -41 -73 -69 -151 -69c-61 0 -107 17 -135 51c-25 31 -37 78 -37 158v293h153v-252c0 -54 5 -84 18 -102s33 -24 62 -24c60 0 87 37 87 126v252h153v-490h-150zM213 -34h138v-118h-138v118z" />
    <glyph glyph-name="afii61352" unicode="&#x2116;" horiz-adv-x="1078" 
d="M678 0h-199l-259 455v-455h-159v664h199l259 -455v455h159v-664zM1056 499c0 -122 -68 -178 -168 -178c-99 0 -168 56 -168 178c0 124 78 176 168 176c91 0 168 -47 168 -176zM930 499c0 55 -13 82 -42 82c-31 0 -43 -27 -43 -82c0 -53 11 -83 43 -83c29 0 42 30 42 83z
M725 166h326v129h-326v-129z" />
    <glyph glyph-name="estimated" unicode="&#x212e;" horiz-adv-x="518" 
d="M453 137h37c-30 -83 -102 -149 -224 -149c-165 0 -251 114 -251 257c0 150 97 256 246 256c156 0 240 -118 242 -255h-381v-176c29 -30 89 -51 151 -51c88 0 150 45 180 118zM122 422v-146h273v145c-27 27 -75 49 -135 49c-57 0 -108 -17 -138 -48z" />
    <glyph glyph-name="afii61289" unicode="&#x2113;" horiz-adv-x="481" 
d="M283 -12c-101 0 -179 44 -181 170l-65 -46l-48 73l113 81v179c0 167 78 230 193 230c105 0 168 -54 168 -149c0 -107 -83 -172 -197 -252l-11 -8v-74c0 -59 20 -81 62 -81c34 0 61 15 86 34l53 -93c-31 -27 -90 -64 -173 -64zM255 495v-118l4 3c48 35 79 78 79 135
c0 35 -15 52 -40 52c-32 0 -43 -24 -43 -72z" />
    <glyph glyph-name="zero.case" horiz-adv-x="666" 
d="M334 -12c-191 0 -290 128 -290 344c0 215 99 343 290 343c189 0 288 -128 288 -343c0 -216 -99 -344 -288 -344zM334 122c74 0 125 53 125 210c0 156 -51 209 -125 209c-76 0 -127 -53 -127 -209c0 -157 51 -210 127 -210z" />
    <glyph glyph-name="one.case" horiz-adv-x="391" 
d="M321 0h-159v433h-152v129c113 3 161 32 190 102h121v-664z" />
    <glyph glyph-name="two.case" horiz-adv-x="570" 
d="M295 675c141 0 244 -63 244 -192c0 -131 -110 -231 -289 -343h292v-140h-521v142c167 91 358 220 358 322c0 55 -42 77 -87 77c-57 0 -111 -38 -109 -124l-156 2c-4 162 107 256 268 256z" />
    <glyph glyph-name="three.case" horiz-adv-x="601" 
d="M296 122c62 0 104 29 104 69c0 53 -56 75 -142 75h-42v143h38c85 0 136 24 136 71c0 41 -47 61 -96 61c-56 0 -105 -25 -114 -89l-157 19c21 131 141 204 280 204c124 0 248 -64 248 -180c0 -71 -46 -123 -93 -146c67 -23 106 -84 106 -157c0 -135 -129 -204 -271 -204
s-258 88 -278 220l157 17c11 -73 65 -103 124 -103z" />
    <glyph glyph-name="four.case" horiz-adv-x="594" 
d="M333 458l-155 -186h155v186zM587 272v-140h-95v-132h-159v132h-326v135l339 397h146v-392h95z" />
    <glyph glyph-name="five.case" horiz-adv-x="629" 
d="M312 122c67 0 116 37 116 99c0 70 -53 102 -113 102c-52 0 -91 -21 -113 -55l-145 14l48 382h453v-140h-321l-15 -107c37 30 92 40 141 40c120 0 229 -83 229 -235c0 -149 -124 -234 -277 -234c-140 0 -253 69 -276 206l153 27c10 -61 60 -99 120 -99z" />
    <glyph glyph-name="six.case" horiz-adv-x="614" 
d="M203 222c0 -63 43 -100 107 -100c62 0 104 37 104 100c0 61 -42 98 -104 98c-64 0 -107 -36 -107 -98zM319 541c-69 0 -120 -46 -118 -137c33 35 81 51 147 51c119 0 229 -77 229 -231c0 -151 -112 -236 -267 -236c-191 0 -274 134 -274 330c0 204 86 357 292 357
c157 0 233 -85 240 -193l-155 -1c-6 43 -47 60 -94 60z" />
    <glyph glyph-name="seven.case" horiz-adv-x="494" 
d="M-3 524v140h512v-142c-188 -132 -272 -284 -276 -522h-171c-1 230 111 419 280 524h-345z" />
    <glyph glyph-name="eight.case" horiz-adv-x="633" 
d="M317 675c155 0 253 -79 253 -180c0 -55 -27 -107 -70 -140c65 -38 90 -92 90 -158c0 -131 -119 -209 -273 -209c-155 0 -274 78 -274 209c0 67 23 120 91 158c-45 33 -71 84 -71 140c0 101 99 180 254 180zM317 289c-68 0 -111 -35 -111 -83c0 -51 43 -84 111 -84
c67 0 110 33 110 84c0 48 -43 83 -110 83zM413 474c0 40 -39 67 -96 67s-96 -27 -96 -67s39 -68 96 -68s96 28 96 68z" />
    <glyph glyph-name="nine.case" horiz-adv-x="611" 
d="M404 441c0 62 -43 100 -106 100s-104 -38 -104 -100s42 -98 104 -98c63 0 106 35 106 98zM288 122c70 0 121 46 119 137c-34 -35 -81 -51 -147 -51c-119 0 -229 76 -229 230c0 150 105 237 261 237c198 0 280 -129 280 -330c0 -204 -84 -357 -290 -357
c-157 0 -235 85 -242 193l154 1c7 -43 47 -60 94 -60z" />
    <glyph glyph-name="emdash.case" horiz-adv-x="672" 
d="M652 271h-632v140h632v-140z" />
    <glyph glyph-name="endash.case" horiz-adv-x="454" 
d="M434 271h-414v140h414v-140z" />
    <glyph glyph-name="guillemotleft.case" horiz-adv-x="553" 
d="M157 121l-157 217l157 214h143l-121 -215l120 -216h-142zM400 121l-156 217l156 214h143l-123 -215l122 -216h-142z" />
    <glyph glyph-name="guillemotright.case" horiz-adv-x="553" 
d="M553 338l-157 -217h-142l120 216l-121 215h143zM309 338l-156 -217h-142l122 216l-123 215h143z" />
    <glyph glyph-name="guilsinglleft.case" horiz-adv-x="310" 
d="M156 121l-156 217l156 214h144l-122 -215l121 -216h-143z" />
    <glyph glyph-name="guilsinglright.case" horiz-adv-x="310" 
d="M310 338l-156 -217h-143l121 216l-122 215h144z" />
    <glyph glyph-name="hyphen.case" horiz-adv-x="408" 
d="M368 271h-328v140h328v-140z" />
    <glyph glyph-name="braceleft.case" horiz-adv-x="335" 
d="M283 0c-120 0 -192 34 -192 164v11c0 58 -9 96 -71 96v124c62 0 71 38 71 96v9c0 130 72 164 192 164h52v-121h-24c-43 0 -66 -7 -66 -45v-37c0 -86 -45 -114 -94 -127v-2c49 -13 94 -41 94 -127v-39c0 -38 23 -45 66 -45h24v-121h-52z" />
    <glyph glyph-name="braceright.case" horiz-adv-x="335" 
d="M0 0v121h24c43 0 66 7 66 45v39c0 86 45 114 94 127v2c-49 13 -94 41 -94 127v37c0 38 -23 45 -66 45h-24v121h52c120 0 192 -34 192 -164v-9c0 -58 9 -96 71 -96v-124c-62 0 -71 -38 -71 -96v-11c0 -130 -72 -164 -192 -164h-52z" />
    <glyph glyph-name="bracketleft.case" horiz-adv-x="301" 
d="M53 664h258v-126h-99v-412h99v-126h-258v664z" />
    <glyph glyph-name="bracketright.case" horiz-adv-x="301" 
d="M-10 664h258v-664h-258v126h99v412h-99v126z" />
    <glyph glyph-name="parenleft.case" horiz-adv-x="295" 
d="M23 333c0 138 48 250 103 331h162c-68 -106 -104 -204 -104 -331s36 -227 104 -333h-162c-55 81 -103 195 -103 333z" />
    <glyph glyph-name="parenright.case" horiz-adv-x="295" 
d="M272 333c0 -138 -48 -252 -103 -333h-162c68 106 104 206 104 333s-36 225 -104 331h162c55 -81 103 -193 103 -331z" />
    <glyph glyph-name="periodcentered.case" horiz-adv-x="238" 
d="M28 259v165h173v-165h-173z" />
    <glyph glyph-name="bullet.case" horiz-adv-x="415" 
d="M40 338c0 91 74 165 164 165c97 0 171 -74 171 -165c0 -96 -74 -170 -171 -170c-90 0 -164 74 -164 170z" />
    <glyph glyph-name="less.case" horiz-adv-x="568" 
d="M30 402l498 190v-143l-308 -111l308 -112v-143l-498 190v129z" />
    <glyph glyph-name="greater.case" horiz-adv-x="568" 
d="M538 402v-129l-498 -190v143l308 112l-308 111v143z" />
    <glyph glyph-name="plus.case" horiz-adv-x="597" 
d="M371 89h-144v182h-197v129h197v179h144v-179h196v-129h-196v-182z" />
    <glyph glyph-name="equal.case" horiz-adv-x="569" 
d="M529 365h-489v129h489v-129zM529 182h-489v128h489v-128z" />
    <glyph glyph-name="notequal.case" horiz-adv-x="549" 
d="M124 182h-94v128h146l23 55h-169v129h222l35 85h153l-35 -85h114v-129h-167l-23 -55h190v-128h-242l-38 -93h-153z" />
    <glyph glyph-name="lessequal.case" horiz-adv-x="597" 
d="M220 412l337 -52v-133l-517 120v129l517 140v-133zM40 89v129h517v-129h-517z" />
    <glyph glyph-name="greaterequal.case" horiz-adv-x="597" 
d="M377 412l-337 71v133l517 -140v-129l-517 -120v133zM557 89h-517v129h517v-129z" />
    <glyph glyph-name="divide.case" horiz-adv-x="597" 
d="M212 89v165h173v-165h-173zM212 418v165h173v-165h-173zM30 271h537v129h-537v-129z" />
    <glyph glyph-name="plusminus.case" horiz-adv-x="549" 
d="M124 182h-94v128h146l23 55h-169v129h222l35 85h153l-35 -85h114v-129h-167l-23 -55h190v-128h-242l-38 -93h-153z" />
    <glyph glyph-name="question.case" horiz-adv-x="580" 
d="M303 675c144 0 262 -52 262 -170c0 -88 -59 -129 -131 -163c-66 -31 -89 -51 -89 -110v-18h-174v27c0 93 57 131 120 163c46 23 104 39 104 82c0 33 -35 55 -102 55c-70 0 -127 -24 -127 -100l-163 3c0 147 121 231 300 231zM171 0v165h174v-165h-174z" />
    <glyph glyph-name="exclam.case" horiz-adv-x="296" 
d="M199 215h-102l-52 275v174h206v-174zM239 0h-173v165h173v-165z" />
    <glyph glyph-name="questiondown.case" horiz-adv-x="580" 
d="M283 -11c-144 0 -262 54 -262 174c0 79 59 124 131 159c66 32 89 51 89 110v18h174v-27c0 -93 -57 -131 -120 -163c-46 -23 -104 -39 -104 -82c0 -33 35 -55 102 -55c70 0 127 24 127 100l163 -3c0 -147 -121 -231 -300 -231zM415 664v-165h-174v165h174z" />
    <glyph glyph-name="exclamdown.case" horiz-adv-x="296" 
d="M97 449h102l52 -275v-174h-206v174zM57 664h173v-165h-173v165z" />
    <glyph glyph-name="caron.caps" horiz-adv-x="448" 
d="M147 698l-127 105h152l51 -46l54 46h151l-130 -105h-151z" />
    <glyph glyph-name="acute.caps" horiz-adv-x="323" 
d="M303 803l-148 -105h-135l96 105h187z" />
    <glyph glyph-name="dieresis.caps" horiz-adv-x="390" 
d="M20 803h137v-105h-137v105zM233 803h137v-105h-137v105z" />
    <glyph glyph-name="ring.caps" horiz-adv-x="208" 
d="M104 847c46 0 84 -33 84 -79s-37 -79 -84 -79s-84 33 -84 79s38 79 84 79zM104 808c-21 0 -40 -17 -40 -40s19 -39 40 -39s40 16 40 39s-19 40 -40 40z" />
    <glyph glyph-name="cedilla.caps" horiz-adv-x="257" 
d="M20 -174l16 50c11 -6 37 -13 61 -13s45 7 45 27c0 17 -15 26 -37 26c-11 0 -26 -2 -36 -8l-28 16l48 77h57l-30 -48c9 2 20 3 34 3c38 0 87 -16 87 -63c0 -58 -64 -80 -129 -80c-31 0 -63 5 -88 13z" />
    <glyph glyph-name="tilde.caps" horiz-adv-x="433" 
d="M273 769c28 0 45 11 50 34h90c-17 -93 -92 -107 -134 -107c-60 0 -82 34 -120 34c-28 0 -44 -11 -49 -34h-90c17 93 92 107 134 107c60 0 77 -34 119 -34z" />
    <glyph glyph-name="grave.caps" horiz-adv-x="323" 
d="M168 698l-148 105h187l96 -105h-135z" />
    <glyph glyph-name="circumflex.caps" horiz-adv-x="448" 
d="M301 803l127 -105h-152l-51 46l-54 -46h-151l130 105h151z" />
    <glyph glyph-name="macron.caps" horiz-adv-x="351" 
d="M331 707h-311v88h311v-88z" />
    <glyph glyph-name="breve.caps" horiz-adv-x="395" 
d="M265 803h110c-7 -76 -62 -109 -178 -109c-113 0 -171 33 -177 109h110c4 -33 33 -43 67 -43s64 10 68 43z" />
    <glyph glyph-name="dotaccent.caps" horiz-adv-x="199" 
d="M20 803h159v-105h-159v105z" />
    <glyph glyph-name="hungarumlaut.caps" horiz-adv-x="527" 
d="M303 803l-148 -105h-135l96 105h187zM507 803l-148 -105h-135l96 105h187z" />
    <glyph glyph-name="ogonek.caps" horiz-adv-x="264" 
d="M84 0h148c-47 -23 -81 -41 -81 -69c0 -24 19 -31 41 -31c19 0 39 5 52 9v-76c-24 -6 -71 -10 -96 -10c-67 0 -128 25 -128 86c0 37 26 71 64 91z" />
    <glyph glyph-name="dotaccent.low" horiz-adv-x="178" 
d="M20 -34h138v-128h-138v128z" />
    <glyph glyph-name="b" unicode="b" horiz-adv-x="595" 
d="M55 0v664h153v-228c34 47 95 65 142 65c129 0 220 -94 220 -258c0 -161 -97 -255 -228 -255c-47 0 -106 17 -134 58v-46h-153zM307 378c-60 0 -106 -46 -106 -135c0 -87 46 -132 106 -132c61 0 107 53 107 133c0 79 -46 134 -107 134z" />
    <glyph glyph-name="uni2190" unicode="&#x2190;" horiz-adv-x="745" 
d="M20 250l292 293l89 -92l-146 -140h460v-128h-454l140 -135l-89 -92z" />
    <glyph glyph-name="uni2191" unicode="&#x2191;" horiz-adv-x="627" 
d="M313 679l294 -294l-90 -88l-140 142v-439h-128v439l-140 -142l-89 88z" />
    <glyph glyph-name="uni2192" unicode="&#x2192;" horiz-adv-x="746" 
d="M434 543l292 -293l-292 -294l-89 92l140 136h-455v128h459l-144 139z" />
    <glyph glyph-name="uni2193" unicode="&#x2193;" horiz-adv-x="627" 
d="M607 266l-294 -293l-293 293l89 89l140 -144v440h128v-440l140 144z" />
    <glyph glyph-name="uni2196" unicode="&#x2196;" horiz-adv-x="612" 
d="M55 516h412v-125h-196l321 -323l-89 -89l-324 320v-197h-124v414z" />
    <glyph glyph-name="uni2197" unicode="&#x2197;" horiz-adv-x="613" 
d="M144 516h414v-414h-125v197l-322 -320l-91 89l321 323h-197v125z" />
    <glyph glyph-name="uni2198" unicode="&#x2198;" horiz-adv-x="613" 
d="M558 413v-413h-414v123h199l-323 324l91 91l322 -322v197h125z" />
    <glyph glyph-name="uni2199" unicode="&#x2199;" horiz-adv-x="612" 
d="M55 0v413h124v-197l324 322l89 -91l-324 -324h199v-123h-412z" />
    <glyph glyph-name="uni219E" unicode="&#x219e;" horiz-adv-x="775" 
d="M20 250l292 293l89 -92l-145 -139h74l231 231l89 -92l-145 -139h240v-128h-236l141 -136l-89 -92l-227 228h-74l141 -136l-89 -92z" />
    <glyph glyph-name="uni219F" unicode="&#x219f;" horiz-adv-x="627" 
d="M313 679l294 -294l-90 -88l-140 140v-66l230 -230l-90 -88l-140 140v-193h-128v193l-140 -140l-89 88l229 230v66l-140 -140l-89 88z" />
    <glyph glyph-name="uni21A0" unicode="&#x21a0;" horiz-adv-x="774" 
d="M462 543l292 -293l-292 -294l-89 92l140 136h-73l-226 -228l-89 92l140 136h-235v128h239l-144 139l89 92l230 -231h73l-144 139z" />
    <glyph glyph-name="uni21A1" unicode="&#x21a1;" horiz-adv-x="627" 
d="M607 266l-294 -293l-293 293l89 89l140 -141v67l-229 229l89 89l140 -141v199h128v-199l140 141l90 -89l-230 -229v-67l140 141z" />
    <glyph glyph-name="uni21A2" unicode="&#x21a2;" horiz-adv-x="884" 
d="M20 250l293 293l89 -92l-144 -139h287l231 231l88 -92l-202 -201l202 -202l-88 -92l-227 228h-287l140 -136l-89 -92z" />
    <glyph glyph-name="uni21A3" unicode="&#x21a3;" horiz-adv-x="884" 
d="M571 543l293 -293l-293 -294l-89 92l140 136h-287l-228 -228l-87 92l202 202l-202 201l87 92l232 -231h287l-144 139z" />
    <glyph glyph-name="uni21A4" unicode="&#x21a4;" horiz-adv-x="770" 
d="M715 490v-490h-132v184h-323l141 -136l-89 -92l-292 294l292 293l89 -92l-145 -139h327v178h132z" />
    <glyph glyph-name="uni21A5" unicode="&#x21a5;" horiz-adv-x="647" 
d="M324 679l293 -294l-92 -88l-138 143v-311h178v-129h-490v129h185v310l-136 -141l-94 87z" />
    <glyph glyph-name="uni21A6" unicode="&#x21a6;" horiz-adv-x="781" 
d="M55 0v490h132v-178h327l-144 139l88 92l293 -293l-293 -294l-88 92l141 137h-324v-185h-132z" />
    </font>
</defs>
</svg>
