<?xml version="1.0" standalone="no"?>
<!DOCTYPE svg PUBLIC "-//W3C//DTD SVG 1.1//EN" "http://www.w3.org/Graphics/SVG/1.1/DTD/svg11.dtd" >
<svg xmlns="http://www.w3.org/2000/svg" xmlns:xlink="http://www.w3.org/1999/xlink" version="1.1">
<metadata>
Created by FontForge 20161116 at Fri Apr 29 00:27:47 2011
 By Jimmy Wärting
Copyright (c) 2010 by Ian Party, distributed by B&#38;P Foundry Srl, Switzerland, http://www.bpfoundry.com. All rights reserved.
</metadata>
<defs>
<font id="SuisseBPIntl-Regular" horiz-adv-x="531" >
  <font-face 
    font-family="Suisse BP Int'l Regular"
    font-weight="400"
    font-stretch="normal"
    units-per-em="1000"
    panose-1="0 0 0 0 0 0 0 0 0 0"
    ascent="750"
    descent="-250"
    x-height="490"
    cap-height="664"
    bbox="-216 -221 1179 923"
    underline-thickness="50"
    underline-position="-100"
    unicode-range="U+0020-FB06"
  />
<missing-glyph horiz-adv-x="0" 
 />
    <glyph glyph-name="fi" unicode="fi" horiz-adv-x="510" 
d="M88 490v36c0 104 22 138 135 138h44v-72h-42c-44 0 -52 -13 -52 -65v-37h94v-70h-94v-420h-85v420h-69v70h69zM358 490h85v-490h-85v490zM358 664h85v-102h-85v102z" />
    <glyph glyph-name="fl" unicode="fl" horiz-adv-x="510" 
d="M88 490v36c0 104 22 138 135 138h44v-72h-42c-44 0 -52 -13 -52 -65v-37h94v-70h-94v-420h-85v420h-69v70h69zM443 664v-664h-85v664h85z" />
    <glyph glyph-name="f_b" unicode="fb" horiz-adv-x="840" 
d="M88 490v36c0 104 22 138 135 138h44v-72h-42c-44 0 -52 -13 -52 -65v-37h94v-70h-94v-420h-85v420h-69v70h69zM358 664v-664h81l4 60c27 -42 78 -72 149 -72c125 0 214 96 214 254c0 160 -86 256 -204 256c-82 0 -128 -32 -159 -79v245h-85zM580 424
c90 0 136 -68 136 -182c0 -113 -47 -180 -136 -180c-78 0 -141 53 -141 180s66 182 141 182z" />
    <glyph glyph-name="f_h" unicode="fh" horiz-adv-x="828" 
d="M88 490v36c0 104 22 138 135 138h44v-72h-42c-44 0 -52 -13 -52 -65v-37h94v-70h-94v-420h-85v420h-69v70h69zM443 664v-242c28 43 77 76 161 76c66 0 112 -25 138 -67c19 -31 27 -72 27 -130v-301h-85v278c0 52 -6 83 -18 104c-18 30 -48 42 -91 42
c-82 0 -132 -56 -132 -163v-261h-85v664h85z" />
    <glyph glyph-name="f_k" unicode="fk" horiz-adv-x="760" 
d="M88 490v36c0 104 22 138 135 138h44v-72h-42c-44 0 -52 -13 -52 -65v-37h94v-70h-94v-420h-85v420h-69v70h69zM443 664h-85v-664h85v176l71 73l151 -249h99l-192 309l176 181h-104l-201 -207v381z" />
    <glyph glyph-name="f_j" unicode="fj" horiz-adv-x="510" 
d="M88 490v36c0 104 22 138 135 138h44v-72h-42c-44 0 -52 -13 -52 -65v-37h94v-70h-94v-420h-85v420h-69v70h69zM358 -36v526h85v-525c0 -104 -22 -138 -118 -138h-43v72h24c44 0 52 13 52 65zM358 664h85v-102h-85v102z" />
    <glyph glyph-name="f_t" unicode="ft" horiz-adv-x="593" 
d="M88 490v36c0 104 22 138 135 138h44v-72h-42c-44 0 -52 -13 -52 -65v-37h94v-70h-94v-420h-85v420h-69v70h69zM382 490v135h85v-135h94v-70h-94v-283c0 -52 3 -65 52 -65h42v-72h-61c-96 0 -118 21 -118 125v295h-79v70h79z" />
    <glyph glyph-name="f_f" unicode="ff" horiz-adv-x="582" 
d="M88 490v36c0 104 22 138 135 138h44v-72h-42c-44 0 -52 -13 -52 -65v-37h94v-70h-94v-420h-85v420h-69v70h69zM379 490v36c0 104 22 138 135 138h44v-72h-42c-44 0 -52 -13 -52 -65v-37h94v-70h-94v-420h-85v420h-69v70h69z" />
    <glyph glyph-name="f_f_l" unicode="ffl" horiz-adv-x="801" 
d="M88 490v36c0 104 22 138 135 138h44v-72h-42c-44 0 -52 -13 -52 -65v-37h94v-70h-94v-420h-85v420h-69v70h69zM379 490v36c0 104 22 138 135 138h44v-72h-42c-44 0 -52 -13 -52 -65v-37h94v-70h-94v-420h-85v420h-69v70h69zM734 664v-664h-85v664h85z" />
    <glyph glyph-name="f_f_i" unicode="ffi" horiz-adv-x="801" 
d="M88 490v36c0 104 22 138 135 138h44v-72h-42c-44 0 -52 -13 -52 -65v-37h94v-70h-94v-420h-85v420h-69v70h69zM379 490v36c0 104 22 138 135 138h44v-72h-42c-44 0 -52 -13 -52 -65v-37h94v-70h-94v-420h-85v420h-69v70h69zM649 490h85v-490h-85v490zM649 664h85v-102
h-85v102z" />
    <glyph glyph-name="f_f_j" unicode="ffj" horiz-adv-x="801" 
d="M88 490v36c0 104 22 138 135 138h44v-72h-42c-44 0 -52 -13 -52 -65v-37h94v-70h-94v-420h-85v420h-69v70h69zM379 490v36c0 104 22 138 135 138h44v-72h-42c-44 0 -52 -13 -52 -65v-37h94v-70h-94v-420h-85v420h-69v70h69zM649 -36v526h85v-525
c0 -104 -22 -138 -118 -138h-43v72h24c44 0 52 13 52 65zM649 664h85v-102h-85v102z" />
    <glyph glyph-name="f_f_k" unicode="ffk" horiz-adv-x="1051" 
d="M88 490v36c0 104 22 138 135 138h44v-72h-42c-44 0 -52 -13 -52 -65v-37h94v-70h-94v-420h-85v420h-69v70h69zM379 490v36c0 104 22 138 135 138h44v-72h-42c-44 0 -52 -13 -52 -65v-37h94v-70h-94v-420h-85v420h-69v70h69zM734 664h-85v-664h85v176l71 73l151 -249h99
l-192 309l176 181h-104l-201 -207v381z" />
    <glyph glyph-name="f_f_t" unicode="fft" horiz-adv-x="884" 
d="M88 490v36c0 104 22 138 135 138h44v-72h-42c-44 0 -52 -13 -52 -65v-37h94v-70h-94v-420h-85v420h-69v70h69zM379 490v36c0 104 22 138 135 138h44v-72h-42c-44 0 -52 -13 -52 -65v-37h94v-70h-94v-420h-85v420h-69v70h69zM673 490v135h85v-135h94v-70h-94v-283
c0 -52 3 -65 52 -65h42v-72h-61c-96 0 -118 21 -118 125v295h-79v70h79z" />
    <glyph glyph-name="f_f_b" unicode="ffb" horiz-adv-x="1131" 
d="M88 490v36c0 104 22 138 135 138h44v-72h-42c-44 0 -52 -13 -52 -65v-37h94v-70h-94v-420h-85v420h-69v70h69zM379 490v36c0 104 22 138 135 138h44v-72h-42c-44 0 -52 -13 -52 -65v-37h94v-70h-94v-420h-85v420h-69v70h69zM649 664v-664h81l4 60c27 -42 78 -72 149 -72
c125 0 214 96 214 254c0 160 -86 256 -204 256c-82 0 -128 -32 -159 -79v245h-85zM871 424c90 0 136 -68 136 -182c0 -113 -47 -180 -136 -180c-78 0 -141 53 -141 180s66 182 141 182z" />
    <glyph glyph-name="f_f_h" unicode="ffh" horiz-adv-x="1119" 
d="M88 490v36c0 104 22 138 135 138h44v-72h-42c-44 0 -52 -13 -52 -65v-37h94v-70h-94v-420h-85v420h-69v70h69zM379 490v36c0 104 22 138 135 138h44v-72h-42c-44 0 -52 -13 -52 -65v-37h94v-70h-94v-420h-85v420h-69v70h69zM734 664v-242c28 43 77 76 161 76
c66 0 112 -25 138 -67c19 -31 27 -72 27 -130v-301h-85v278c0 52 -6 83 -18 104c-18 30 -48 42 -91 42c-82 0 -132 -56 -132 -163v-261h-85v664h85z" />
    <glyph glyph-name="s_p" unicode="sp" horiz-adv-x="1029" 
d="M441 357l-88 -8c-13 57 -60 78 -122 78c-53 0 -105 -19 -105 -60c0 -38 29 -54 81 -65l59 -12c92 -19 178 -52 178 -149c0 -98 -89 -153 -204 -153c-131 0 -203 82 -212 159l89 8c13 -59 51 -96 125 -96c68 0 116 30 116 73c0 45 -50 67 -107 79l-64 13
c-71 14 -146 45 -146 138c0 86 94 136 199 136c110 0 182 -57 201 -141zM632 -173v233c27 -42 78 -72 149 -72c125 0 214 96 214 254c0 160 -86 256 -204 256c-82 0 -128 -32 -159 -79l-2 71h-83v-663h85zM769 424c90 0 136 -68 136 -182c0 -113 -47 -180 -136 -180
c-78 0 -141 53 -141 180s66 182 141 182z" />
    <glyph glyph-name="c_t" unicode="ct" horiz-adv-x="809" 
d="M272 498c122 0 195 -86 206 -162l-86 -12c-12 61 -60 99 -126 99c-78 0 -142 -58 -142 -178c0 -122 65 -182 142 -182c72 0 118 44 130 98l87 -11c-16 -86 -102 -162 -219 -162c-146 0 -230 109 -230 256c0 144 87 254 238 254zM598 490v135h85v-135h94v-70h-94v-283
c0 -52 3 -65 52 -65h42v-72h-61c-96 0 -118 21 -118 125v295h-79v70h79z" />
    <glyph glyph-name="s_t" unicode="st" horiz-adv-x="787" 
d="M441 357l-88 -8c-13 57 -60 78 -122 78c-53 0 -105 -19 -105 -60c0 -38 29 -54 81 -65l59 -12c92 -19 178 -52 178 -149c0 -98 -89 -153 -204 -153c-131 0 -203 82 -212 159l89 8c13 -59 51 -96 125 -96c68 0 116 30 116 73c0 45 -50 67 -107 79l-64 13
c-71 14 -146 45 -146 138c0 86 94 136 199 136c110 0 182 -57 201 -141zM576 490v135h85v-135h94v-70h-94v-283c0 -52 3 -65 52 -65h42v-72h-61c-96 0 -118 21 -118 125v295h-79v70h79z" />
    <glyph glyph-name="t_t" unicode="tt" horiz-adv-x="604" 
d="M91 490v135h85v-135h94v-70h-94v-283c0 -52 3 -65 52 -65h42v-72h-61c-96 0 -118 21 -118 125v295h-79v70h79zM393 490v135h85v-135h94v-70h-94v-283c0 -52 3 -65 52 -65h42v-72h-61c-96 0 -118 21 -118 125v295h-79v70h79z" />
    <glyph glyph-name="t_f" unicode="tf" horiz-adv-x="593" 
d="M91 490v135h85v-135h94v-70h-94v-283c0 -52 3 -65 52 -65h42v-72h-61c-96 0 -118 21 -118 125v295h-79v70h79zM390 490v36c0 104 22 138 135 138h44v-72h-42c-44 0 -52 -13 -52 -65v-37h94v-70h-94v-420h-85v420h-69v70h69z" />
    <glyph glyph-name=".notdef" horiz-adv-x="0" 
 />
    <glyph glyph-name="eth" unicode="&#xf0;" horiz-adv-x="533" 
d="M299 636l64 40l43 -24l-70 -43c90 -69 157 -169 157 -320c0 -204 -95 -301 -234 -301c-140 0 -225 96 -225 256c0 158 89 254 214 254c62 0 111 -28 143 -72l1 1c-27 62 -71 105 -124 140l-72 -44l-42 23l73 45c-24 13 -49 25 -74 37l61 55c29 -14 57 -30 85 -47zM260 62
c80 0 141 55 141 182s-63 181 -141 181c-89 0 -136 -68 -136 -181c0 -114 46 -182 136 -182z" />
    <glyph glyph-name="Lslash" unicode="&#x141;" horiz-adv-x="536" 
d="M0 179v85l85 58v342h95v-277l170 117v-85l-170 -117v-218h356v-84h-451v237z" />
    <glyph glyph-name="lslash" unicode="&#x142;" horiz-adv-x="219" 
d="M0 248v71l67 46v299h85v-241l67 46v-71l-67 -46v-352h-85v294z" />
    <glyph glyph-name="Scaron" unicode="&#x160;" horiz-adv-x="596" 
d="M52 494c0 128 135 182 244 182c121 0 229 -56 255 -177l-92 -13c-22 83 -99 108 -167 108c-52 0 -143 -21 -143 -97c0 -59 47 -85 110 -99l78 -17c103 -23 226 -59 226 -194c0 -132 -122 -199 -256 -199c-159 0 -259 87 -277 213l92 13c18 -92 80 -144 187 -144
c99 0 157 42 157 108c0 71 -61 98 -145 116l-84 18c-92 20 -185 69 -185 182zM259 698l-122 105h99l63 -52l64 52h99l-125 -105h-78z" />
    <glyph glyph-name="scaron" unicode="&#x161;" horiz-adv-x="480" 
d="M441 357l-88 -8c-13 57 -60 78 -122 78c-53 0 -105 -19 -105 -60c0 -38 29 -54 81 -65l59 -12c92 -19 178 -52 178 -149c0 -98 -89 -153 -204 -153c-131 0 -203 82 -212 159l89 8c13 -59 51 -96 125 -96c68 0 116 30 116 73c0 45 -50 67 -107 79l-64 13
c-71 14 -146 45 -146 138c0 86 94 136 199 136c110 0 182 -57 201 -141zM193 546l-120 118h89l73 -60l74 60h89l-123 -118h-82z" />
    <glyph glyph-name="Yacute" unicode="&#xdd;" horiz-adv-x="580" 
d="M0 664h104l184 -329l188 329h104l-247 -413v-251h-95v253zM420 803l-138 -105h-84l102 105h120z" />
    <glyph glyph-name="yacute" unicode="&#xfd;" horiz-adv-x="440" 
d="M44 -173h44c111 0 139 52 174 152l178 511h-88l-124 -376l-127 376h-94l180 -490l-3 -10c-25 -83 -50 -89 -105 -89h-35v-74zM364 664l-121 -118h-71l84 118h108z" />
    <glyph glyph-name="Thorn" unicode="&#xde;" horiz-adv-x="576" 
d="M175 547h101c164 0 280 -42 280 -209s-116 -209 -280 -209h-101v-129h-95v664h95v-117zM283 463h-108v-250h108c99 0 176 15 176 125s-77 125 -176 125z" />
    <glyph glyph-name="thorn" unicode="&#xfe;" horiz-adv-x="549" 
d="M67 -173v837h85v-245c31 47 77 79 159 79c118 0 204 -96 204 -256c0 -158 -89 -254 -214 -254c-71 0 -122 30 -149 72v-233h-85zM289 424c-75 0 -141 -55 -141 -182s63 -180 141 -180c89 0 136 67 136 180c0 114 -46 182 -136 182z" />
    <glyph glyph-name="Zcaron" unicode="&#x17d;" horiz-adv-x="588" 
d="M546 664v-84l-396 -496h411v-84h-523v84l397 496h-366v84h477zM280 698l-122 105h99l63 -52l64 52h99l-125 -105h-78z" />
    <glyph glyph-name="zcaron" unicode="&#x17e;" horiz-adv-x="454" 
d="M31 70v-70h393v70h-294l289 350v70h-369v-70h270zM194 546l-120 118h89l73 -60l74 60h89l-123 -118h-82z" />
    <glyph glyph-name="onehalf" unicode="&#xbd;" horiz-adv-x="828" 
d="M250 285h-67v285h-84v46c56 2 82 6 101 48h50v-379zM228 0h-94l465 664h94zM660 386c76 0 129 -37 129 -103c0 -76 -85 -143 -190 -225h184v-58h-270v55c125 100 206 161 206 223c0 35 -29 55 -64 55c-34 0 -68 -19 -68 -78h-67c-1 79 55 131 140 131z" />
    <glyph glyph-name="onequarter" unicode="&#xbc;" horiz-adv-x="828" 
d="M250 285h-67v285h-84v46c56 2 82 6 101 48h50v-379zM228 0h-94l465 664h94zM680 290l-115 -142h115v142zM814 148v-60h-67v-88h-67v88h-189v56l190 235h66v-231h67z" />
    <glyph glyph-name="threequarters" unicode="&#xbe;" horiz-adv-x="828" 
d="M175 331c42 0 75 22 75 61c0 47 -44 63 -99 63h-14v55h11c58 0 92 18 92 56c0 35 -30 52 -64 52c-45 0 -70 -29 -77 -69l-65 7c11 69 60 115 146 115c64 0 129 -29 129 -101c0 -38 -23 -68 -54 -84c43 -17 64 -54 64 -93c0 -77 -67 -115 -146 -115
c-88 0 -135 57 -143 119l65 7c7 -40 31 -73 80 -73zM134 0h94l465 664h-94zM565 148l115 142v-142h-115zM814 88v60h-67v231h-66l-190 -235v-56h189v-88h67v88h67z" />
    <glyph glyph-name="brokenbar" unicode="&#xa6;" horiz-adv-x="211" 
d="M67 664h77v-284h-77v284zM67 201h77v-284h-77v284z" />
    <glyph glyph-name="minus" unicode="&#x2212;" horiz-adv-x="575" 
d="M35 290h505v-80h-505v80z" />
    <glyph glyph-name="multiply" unicode="&#xd7;" horiz-adv-x="477" 
d="M457 88l-60 -60l-161 161l-156 -155l-60 60l156 155l-156 157l60 60l156 -156l156 155l60 -60l-156 -156z" />
    <glyph glyph-name="space" unicode=" " horiz-adv-x="220" 
 />
    <glyph glyph-name="exclam" unicode="!" horiz-adv-x="227" 
d="M137 197h-53l-18 273v194h89v-194zM167 0h-107v107h107v-107z" />
    <glyph glyph-name="quotedbl" unicode="&#x22;" horiz-adv-x="287" 
d="M25 664h95l-19 -236h-57zM167 664h95l-19 -236h-57z" />
    <glyph glyph-name="numbersign" unicode="#" horiz-adv-x="619" 
d="M60 490h131l25 174h69l-25 -174h145l25 174h69l-25 -174h125l-9 -66h-125l-21 -152h124l-9 -66h-124l-29 -206h-69l29 206h-145l-29 -206h-69l29 206h-132l9 66h132l21 152h-131zM251 424l-21 -152h145l21 152h-145z" />
    <glyph glyph-name="dollar" unicode="$" horiz-adv-x="546" 
d="M245 754h51v-79c126 -9 206 -87 204 -208l-87 -2c-2 94 -56 130 -117 136v-222l14 -4c102 -28 206 -67 206 -193c0 -124 -100 -185 -220 -193v-79h-51v79c-128 11 -216 100 -214 221l87 2c2 -98 63 -142 127 -149v243l-21 6c-100 27 -175 86 -175 189
c0 105 96 165 196 174v79zM429 169c0 78 -51 101 -133 123v-230c71 3 133 35 133 107zM136 502c0 -55 35 -89 108 -109l1 -1v210c-54 -3 -109 -32 -109 -100z" />
    <glyph glyph-name="percent" unicode="%" horiz-adv-x="827" 
d="M175 278c-103 0 -153 80 -153 197c0 118 50 196 153 196c102 0 152 -78 152 -196c0 -117 -50 -197 -152 -197zM175 331c54 0 83 50 83 144c0 95 -29 143 -83 143c-55 0 -84 -48 -84 -143c0 -94 29 -144 84 -144zM134 0h94l465 664h-94zM653 -7c-103 0 -153 80 -153 197
c0 118 50 196 153 196c102 0 152 -78 152 -196c0 -117 -50 -197 -152 -197zM653 46c54 0 83 50 83 144c0 95 -29 143 -83 143c-55 0 -84 -48 -84 -143c0 -94 29 -144 84 -144z" />
    <glyph glyph-name="ampersand" unicode="&#x26;" horiz-adv-x="653" 
d="M250 -12c-138 0 -224 85 -224 194c0 101 68 168 170 203c-45 50 -74 98 -74 150c0 86 76 141 181 141c82 0 173 -36 173 -143c0 -84 -57 -138 -139 -172l136 -142c17 40 29 86 33 140h87c-6 -72 -26 -142 -61 -202l151 -157h-122l-82 86c-57 -60 -134 -98 -229 -98z
M250 62c69 0 130 28 176 80l-180 190c-80 -28 -130 -73 -130 -146c0 -77 63 -124 134 -124zM212 537c0 -42 36 -84 72 -121l3 -3c64 23 108 62 108 115c0 54 -41 74 -90 74c-48 0 -93 -20 -93 -65z" />
    <glyph glyph-name="quotesingle" unicode="'" horiz-adv-x="145" 
d="M25 664h95l-19 -236h-57z" />
    <glyph glyph-name="parenleft" unicode="(" horiz-adv-x="228" 
d="M30 246c0 188 72 337 128 418h70c-61 -100 -111 -243 -111 -418s50 -319 111 -419h-70c-56 81 -128 231 -128 419z" />
    <glyph glyph-name="parenright" unicode=")" horiz-adv-x="228" 
d="M198 246c0 -188 -72 -338 -128 -419h-70c61 100 111 244 111 419s-50 318 -111 418h70c56 -81 128 -230 128 -418z" />
    <glyph glyph-name="asterisk" unicode="*" horiz-adv-x="327" 
d="M190 669v-111l105 40l22 -52l-107 -37l64 -90l-43 -33l-69 94l-63 -94l-49 32l65 91l-105 37l19 52l105 -40v111h56z" />
    <glyph glyph-name="plus" unicode="+" horiz-adv-x="575" 
d="M330 0h-85v210h-210v80h210v204h85v-204h210v-80h-210v-210z" />
    <glyph glyph-name="comma" unicode="," horiz-adv-x="227" 
d="M60 0v107h107v-114l-57 -122h-54l49 129h-45z" />
    <glyph glyph-name="hyphen" unicode="-" horiz-adv-x="376" 
d="M336 215h-296v80h296v-80z" />
    <glyph glyph-name="period" unicode="." horiz-adv-x="227" 
d="M167 0h-107v107h107v-107z" />
    <glyph glyph-name="slash" unicode="/" horiz-adv-x="350" 
d="M85 0h-85l265 664h85z" />
    <glyph glyph-name="zero" unicode="0" horiz-adv-x="615" 
d="M307 -12c-179 0 -262 137 -262 347c0 209 83 341 262 341s263 -132 263 -341c0 -210 -84 -347 -263 -347zM307 62c106 0 173 89 173 273s-67 267 -173 267s-172 -83 -172 -267s66 -273 172 -273z" />
    <glyph glyph-name="one" unicode="1" horiz-adv-x="342" 
d="M252 0h-85v517h-156v58c97 3 146 15 183 89h58v-664z" />
    <glyph glyph-name="two" unicode="2" horiz-adv-x="548" 
d="M281 676c124 0 214 -63 214 -177c0 -156 -165 -282 -346 -420h364v-79h-485v76c238 176 377 293 377 412c0 70 -46 114 -126 114c-73 0 -143 -39 -145 -150l-87 2c-2 129 91 222 234 222z" />
    <glyph glyph-name="three" unicode="3" horiz-adv-x="546" 
d="M262 62c89 0 152 44 152 124c0 95 -86 126 -194 126h-14v76h11c117 0 179 33 179 111c0 68 -59 103 -131 103c-90 0 -139 -52 -146 -127l-88 7c10 113 97 194 236 194c115 0 219 -46 219 -169c0 -68 -39 -125 -110 -153c100 -32 128 -98 128 -167
c0 -134 -118 -199 -243 -199c-158 0 -231 98 -240 203l87 7c10 -82 59 -136 154 -136z" />
    <glyph glyph-name="four" unicode="4" horiz-adv-x="580" 
d="M351 548l-241 -302h241v302zM560 246v-80h-124v-166h-85v166h-335v80l334 418h86v-418h124z" />
    <glyph glyph-name="five" unicode="5" horiz-adv-x="564" 
d="M282 62c81 0 150 54 150 156c0 110 -78 155 -152 155c-67 0 -115 -38 -130 -71l-85 4l44 358h387v-82h-318l-24 -185c36 34 90 50 146 50c118 0 222 -82 222 -228c0 -152 -115 -231 -241 -231c-156 0 -227 99 -240 201l87 7c13 -82 59 -134 154 -134z" />
    <glyph glyph-name="six" unicode="6" horiz-adv-x="572" 
d="M143 213c0 -92 57 -151 146 -151c87 0 148 60 148 151c0 90 -60 152 -147 152c-88 0 -147 -62 -147 -152zM298 602c-104 0 -161 -98 -166 -252c31 52 89 92 178 92c125 0 217 -92 217 -225c0 -124 -93 -229 -237 -229c-168 0 -245 115 -245 320c0 189 68 368 263 368
c132 0 194 -81 208 -165l-92 -1c-11 60 -57 92 -126 92z" />
    <glyph glyph-name="seven" unicode="7" horiz-adv-x="477" 
d="M10 581v83h467v-83c-167 -135 -270 -329 -286 -581h-102c15 242 122 436 289 581h-368z" />
    <glyph glyph-name="eight" unicode="8" horiz-adv-x="582" 
d="M291 676c138 0 225 -72 225 -170c0 -54 -26 -117 -93 -152c88 -36 114 -107 114 -167c0 -127 -107 -199 -246 -199s-246 72 -246 199c0 60 26 131 114 167c-67 35 -93 98 -93 152c0 98 87 170 225 170zM291 315c-95 0 -156 -50 -156 -128s61 -125 156 -125
s156 47 156 125s-61 128 -156 128zM431 497c0 66 -56 105 -140 105s-140 -39 -140 -105c0 -67 56 -114 140 -114s140 47 140 114z" />
    <glyph glyph-name="nine" unicode="9" horiz-adv-x="567" 
d="M424 451c0 92 -57 151 -146 151c-87 0 -148 -60 -148 -151c0 -90 60 -152 147 -152c88 0 147 62 147 152zM269 62c104 0 161 98 166 252c-31 -52 -89 -92 -178 -92c-125 0 -217 92 -217 225c0 124 93 229 237 229c168 0 245 -115 245 -320c0 -189 -66 -368 -261 -368
c-132 0 -196 81 -210 165l92 1c11 -60 57 -92 126 -92z" />
    <glyph glyph-name="colon" unicode=":" horiz-adv-x="227" 
d="M60 0v107h107v-107h-107zM60 383v107h107v-107h-107z" />
    <glyph glyph-name="semicolon" unicode=";" horiz-adv-x="227" 
d="M60 383v107h107v-107h-107zM60 0v107h107v-114l-57 -122h-54l49 129h-45z" />
    <glyph glyph-name="less" unicode="&#x3c;" horiz-adv-x="552" 
d="M35 285l477 211v-91l-371 -156l371 -153v-90l-477 207v72z" />
    <glyph glyph-name="equal" unicode="=" horiz-adv-x="546" 
d="M506 309h-466v80h466v-80zM506 121h-466v80h466v-80z" />
    <glyph glyph-name="greater" unicode="&#x3e;" horiz-adv-x="552" 
d="M517 285v-72l-477 -207v90l371 153l-371 156v91z" />
    <glyph glyph-name="question" unicode="?" horiz-adv-x="464" 
d="M240 676c105 0 210 -51 210 -164c0 -88 -63 -140 -126 -181c-57 -37 -78 -54 -78 -105v-29h-86v32c0 78 38 112 115 161c48 31 86 58 86 119c0 58 -52 92 -123 92c-104 0 -138 -71 -141 -128l-85 3c1 121 96 200 228 200zM151 0v107h107v-107h-107z" />
    <glyph glyph-name="at" unicode="@" horiz-adv-x="789" 
d="M566 142c-49 0 -86 30 -94 86c-28 -53 -74 -83 -141 -83c-72 0 -137 50 -137 166c0 108 71 216 190 216c51 0 90 -28 107 -71l7 55h66l-27 -202c-4 -32 -12 -100 39 -100c48 0 89 61 89 165c0 154 -106 235 -259 235c-172 0 -289 -124 -289 -287c0 -152 95 -264 253 -264
c57 0 127 13 180 40l26 -65c-62 -29 -145 -45 -206 -45c-195 0 -327 143 -327 336c0 199 158 350 365 350c180 0 328 -93 328 -297c0 -151 -86 -235 -170 -235zM385 457c-69 0 -111 -69 -111 -147c0 -65 28 -97 78 -97c73 0 114 71 114 153c0 58 -30 91 -81 91z" />
    <glyph glyph-name="A" unicode="A" horiz-adv-x="613" 
d="M0 0l250 664h110l253 -664h-104l-53 144h-306l-51 -144h-99zM302 566l-122 -339h246z" />
    <glyph glyph-name="B" unicode="B" horiz-adv-x="625" 
d="M80 0v664h243c125 0 237 -31 237 -165c0 -64 -28 -119 -75 -146c64 -27 102 -74 102 -157c0 -143 -106 -196 -241 -196h-266zM175 302v-218h172c95 0 143 35 143 111c0 79 -48 107 -149 107h-166zM175 580v-199h162c78 0 127 26 127 105c0 69 -51 94 -127 94h-162z" />
    <glyph glyph-name="C" unicode="C" horiz-adv-x="670" 
d="M548 205l92 -13c-30 -130 -141 -204 -287 -204c-194 0 -306 140 -306 345c0 209 123 343 313 343c140 0 247 -78 276 -204l-92 -13c-20 78 -81 135 -188 135c-119 0 -212 -89 -212 -261c0 -167 89 -263 214 -263c107 0 169 54 190 135z" />
    <glyph glyph-name="D" unicode="D" horiz-adv-x="668" 
d="M524 332c0 229 -153 248 -293 248h-56v-496h56c140 0 293 19 293 248zM80 664h154c214 0 387 -75 387 -332s-173 -332 -387 -332h-154v664z" />
    <glyph glyph-name="E" unicode="E" horiz-adv-x="570" 
d="M80 0v664h457v-84h-362v-196h341v-84h-341v-216h362v-84h-457z" />
    <glyph glyph-name="F" unicode="F" horiz-adv-x="520" 
d="M80 0v664h438v-84h-343v-196h323v-84h-323v-300h-95z" />
    <glyph glyph-name="G" unicode="G" horiz-adv-x="716" 
d="M360 676c140 0 248 -78 279 -203l-92 -13c-22 75 -84 134 -191 134c-119 0 -212 -89 -212 -261c0 -167 87 -263 212 -263c90 0 198 35 198 174v16h-178v84h268v-344h-75l-4 85c-44 -69 -123 -97 -213 -97c-194 0 -305 140 -305 345c0 209 124 343 313 343z" />
    <glyph glyph-name="H" unicode="H" horiz-adv-x="704" 
d="M529 664h95v-664h-95v300h-354v-300h-95v664h95v-280h354v280z" />
    <glyph glyph-name="I" unicode="I" horiz-adv-x="255" 
d="M175 664v-664h-95v664h95z" />
    <glyph glyph-name="J" unicode="J" horiz-adv-x="304" 
d="M30 0v85h15c81 0 84 10 84 84v495h95v-503c0 -143 -46 -161 -158 -161h-36z" />
    <glyph glyph-name="K" unicode="K" horiz-adv-x="619" 
d="M175 664v-330l304 330h118l-251 -268l280 -396h-114l-230 327l-107 -115v-212h-95v664h95z" />
    <glyph glyph-name="L" unicode="L" 
d="M175 664v-580h356v-84h-451v664h95z" />
    <glyph glyph-name="M" unicode="M" horiz-adv-x="822" 
d="M461 0h-100l-186 577v-577h-95v664h159l172 -552l172 552h159v-664h-95v577z" />
    <glyph glyph-name="N" unicode="N" horiz-adv-x="702" 
d="M622 0h-139l-308 565v-565h-95v664h139l308 -564v564h95v-664z" />
    <glyph glyph-name="O" unicode="O" horiz-adv-x="726" 
d="M582 332c0 170 -96 262 -219 262s-219 -92 -219 -262s96 -262 219 -262s219 92 219 262zM679 332c0 -213 -130 -344 -317 -344c-193 0 -315 141 -315 344s130 344 317 344s315 -131 315 -344z" />
    <glyph glyph-name="P" unicode="P" horiz-adv-x="576" 
d="M80 664h196c164 0 280 -42 280 -209s-116 -209 -280 -209h-101v-246h-95v664zM283 580h-108v-250h108c99 0 176 15 176 125s-77 125 -176 125z" />
    <glyph glyph-name="Q" unicode="Q" horiz-adv-x="739" 
d="M679 332c0 -100 -29 -182 -78 -241l78 -78l-58 -58l-82 82c-49 -32 -110 -49 -177 -49c-193 0 -315 141 -315 344s130 344 317 344s315 -131 315 -344zM582 332c0 170 -96 262 -219 262s-219 -92 -219 -262s96 -262 219 -262c41 0 80 10 113 31l-62 62l58 58l63 -64
c30 43 47 102 47 175z" />
    <glyph glyph-name="R" unicode="R" horiz-adv-x="623" 
d="M483 0l-144 273c-17 -1 -35 -1 -53 -1h-111v-272h-95v664h206c164 0 280 -33 280 -194c0 -106 -50 -158 -130 -182l153 -288h-106zM293 580h-118v-224h118c99 0 176 8 176 112s-77 112 -176 112z" />
    <glyph glyph-name="S" unicode="S" horiz-adv-x="596" 
d="M52 494c0 128 135 182 244 182c121 0 229 -56 255 -177l-92 -13c-22 83 -99 108 -167 108c-52 0 -143 -21 -143 -97c0 -59 47 -85 110 -99l78 -17c103 -23 226 -59 226 -194c0 -132 -122 -199 -256 -199c-159 0 -259 87 -277 213l92 13c18 -92 80 -144 187 -144
c99 0 157 42 157 108c0 71 -61 98 -145 116l-84 18c-92 20 -185 69 -185 182z" />
    <glyph glyph-name="T" unicode="T" horiz-adv-x="533" 
d="M219 0v580h-219v84h533v-84h-219v-580h-95z" />
    <glyph glyph-name="U" unicode="U" horiz-adv-x="680" 
d="M70 664h95v-400c0 -132 47 -194 174 -194c129 0 176 71 176 204v390h95v-382c0 -197 -75 -294 -271 -294c-187 0 -269 76 -269 286v390z" />
    <glyph glyph-name="V" unicode="V" horiz-adv-x="593" 
d="M10 664h104l187 -566l183 566h99l-228 -664h-114z" />
    <glyph glyph-name="W" unicode="W" horiz-adv-x="857" 
d="M485 664l133 -556l125 556h99l-168 -664h-115l-130 544l-128 -544h-115l-171 664h104l130 -556l125 556h111z" />
    <glyph glyph-name="X" unicode="X" horiz-adv-x="610" 
d="M0 0l250 342l-233 322h112l178 -245l179 245h107l-233 -319l250 -345h-112l-195 268l-196 -268h-107z" />
    <glyph glyph-name="Y" unicode="Y" horiz-adv-x="580" 
d="M0 664h104l184 -329l188 329h104l-247 -413v-251h-95v253z" />
    <glyph glyph-name="Z" unicode="Z" horiz-adv-x="588" 
d="M546 664v-84l-396 -496h411v-84h-523v84l397 496h-366v84h477z" />
    <glyph glyph-name="bracketleft" unicode="[" horiz-adv-x="284" 
d="M75 664h209v-72h-127v-693h127v-72h-209v837z" />
    <glyph glyph-name="backslash" unicode="\" horiz-adv-x="350" 
d="M85 664l265 -664h-85l-265 664h85z" />
    <glyph glyph-name="bracketright" unicode="]" horiz-adv-x="284" 
d="M0 664h209v-837h-209v72h127v693h-127v72z" />
    <glyph glyph-name="asciicircum" unicode="^" horiz-adv-x="410" 
d="M239 664l191 -360h-91l-136 254l-133 -254h-90l187 360h72z" />
    <glyph glyph-name="underscore" unicode="_" horiz-adv-x="426" 
d="M396 -81h-366v80h366v-80z" />
    <glyph glyph-name="grave" unicode="`" horiz-adv-x="252" 
d="M151 546l-121 118h108l84 -118h-71z" />
    <glyph glyph-name="a" unicode="a" horiz-adv-x="515" 
d="M139 339l-83 3c6 101 95 157 205 157c139 0 196 -54 194 -186l-2 -124c-1 -77 4 -124 10 -189h-82l-3 69c-30 -49 -78 -81 -165 -81c-114 0 -173 75 -173 159c0 53 27 89 66 111c47 26 106 36 169 43l95 10v18c0 80 -48 101 -113 101c-77 0 -113 -37 -118 -91zM376 212
v29l-102 -10c-96 -9 -144 -32 -144 -87c0 -52 41 -82 99 -82c69 0 147 37 147 150z" />
    <glyph glyph-name="c" unicode="c" horiz-adv-x="507" 
d="M272 498c122 0 195 -86 206 -162l-86 -12c-12 61 -60 99 -126 99c-78 0 -142 -58 -142 -178c0 -122 65 -182 142 -182c72 0 118 44 130 98l87 -11c-16 -86 -102 -162 -219 -162c-146 0 -230 109 -230 256c0 144 87 254 238 254z" />
    <glyph glyph-name="d" unicode="d" horiz-adv-x="549" 
d="M482 664v-664h-82l-3 67c-31 -47 -77 -79 -159 -79c-118 0 -204 96 -204 256c0 158 89 254 214 254c71 0 122 -30 149 -72v238h85zM260 62c75 0 141 55 141 182s-63 180 -141 180c-89 0 -136 -67 -136 -180c0 -114 46 -182 136 -182z" />
    <glyph glyph-name="e" unicode="e" 
d="M271 -12c-160 0 -237 112 -237 255c0 153 99 255 238 255c154 0 242 -122 230 -280h-378c0 -96 62 -155 145 -155c78 0 117 33 138 86l87 -11c-23 -81 -100 -150 -223 -150zM272 426c-85 0 -143 -51 -147 -137h287c-2 66 -49 137 -140 137z" />
    <glyph glyph-name="f" unicode="f" horiz-adv-x="291" 
d="M88 490v36c0 104 22 138 135 138h44v-72h-42c-44 0 -52 -13 -52 -65v-37h94v-70h-94v-420h-85v420h-69v70h69z" />
    <glyph glyph-name="g" unicode="g" horiz-adv-x="545" 
d="M393 43v44c-31 -47 -73 -79 -155 -79c-118 0 -204 90 -204 246c0 154 89 244 214 244c71 0 118 -30 145 -72l2 64h83v-428c0 -102 -15 -144 -43 -175c-37 -42 -99 -66 -173 -66c-114 0 -190 52 -206 150l90 3c12 -45 39 -79 117 -79c45 0 80 13 102 37
c18 20 28 43 28 111zM260 82c75 0 137 49 137 172s-59 170 -137 170c-89 0 -136 -61 -136 -170c0 -110 46 -172 136 -172z" />
    <glyph glyph-name="h" unicode="h" horiz-adv-x="537" 
d="M152 664v-242c28 43 77 76 161 76c66 0 112 -25 138 -67c19 -31 27 -72 27 -130v-301h-85v278c0 52 -6 83 -18 104c-18 30 -48 42 -91 42c-82 0 -132 -56 -132 -163v-261h-85v664h85z" />
    <glyph glyph-name="i" unicode="i" horiz-adv-x="219" 
d="M67 490h85v-490h-85v490zM67 664h85v-102h-85v102z" />
    <glyph glyph-name="j" unicode="j" horiz-adv-x="219" 
d="M67 -36v526h85v-525c0 -104 -22 -138 -118 -138h-43v72h24c44 0 52 13 52 65zM67 664h85v-102h-85v102z" />
    <glyph glyph-name="k" unicode="k" horiz-adv-x="469" 
d="M67 664h85v-381l201 207h104l-176 -181l192 -309h-99l-151 249l-71 -73v-176h-85v664z" />
    <glyph glyph-name="l" unicode="l" horiz-adv-x="219" 
d="M152 664v-664h-85v664h85z" />
    <glyph glyph-name="m" unicode="m" horiz-adv-x="835" 
d="M67 0v490h85v-68c26 44 71 76 152 76c78 0 117 -34 140 -85c37 56 91 85 172 85c52 0 91 -19 117 -46c30 -32 43 -82 43 -151v-301h-85v277c0 60 -8 98 -28 119c-18 19 -44 28 -78 28c-74 0 -121 -57 -121 -160v-264h-85v277c0 60 -8 98 -28 119c-18 19 -44 28 -78 28
c-74 0 -121 -57 -121 -160v-264h-85z" />
    <glyph glyph-name="n" unicode="n" horiz-adv-x="537" 
d="M152 490v-68c28 43 77 76 161 76c66 0 112 -25 138 -67c19 -31 27 -72 27 -130v-301h-85v278c0 52 -6 83 -18 104c-18 30 -48 42 -91 42c-82 0 -132 -56 -132 -163v-261h-85v490h85z" />
    <glyph glyph-name="o" unicode="o" horiz-adv-x="530" 
d="M124 243c0 -128 61 -181 141 -181s141 53 141 181s-61 181 -141 181s-141 -53 -141 -181zM34 243c0 176 111 255 231 255s231 -79 231 -255s-111 -255 -231 -255s-231 79 -231 255z" />
    <glyph glyph-name="p" unicode="p" horiz-adv-x="549" 
d="M152 60v-233h-85v663h83l2 -71c31 47 77 79 159 79c118 0 204 -96 204 -256c0 -158 -89 -254 -214 -254c-71 0 -122 30 -149 72zM289 424c-75 0 -141 -55 -141 -182s63 -180 141 -180c89 0 136 67 136 180c0 114 -46 182 -136 182z" />
    <glyph glyph-name="q" unicode="q" horiz-adv-x="549" 
d="M397 426v64h85v-663h-85v240c-31 -47 -77 -79 -159 -79c-118 0 -204 96 -204 256c0 158 89 254 214 254c71 0 122 -30 149 -72zM260 62c75 0 141 55 141 182s-63 180 -141 180c-89 0 -136 -67 -136 -180c0 -114 46 -182 136 -182z" />
    <glyph glyph-name="r" unicode="r" horiz-adv-x="330" 
d="M316 492v-90c-18 2 -33 3 -47 3c-78 0 -117 -43 -117 -153v-252h-85v490h83v-87c25 56 76 88 141 90c8 0 16 0 25 -1z" />
    <glyph glyph-name="s" unicode="s" horiz-adv-x="480" 
d="M441 357l-88 -8c-13 57 -60 78 -122 78c-53 0 -105 -19 -105 -60c0 -38 29 -54 81 -65l59 -12c92 -19 178 -52 178 -149c0 -98 -89 -153 -204 -153c-131 0 -203 82 -212 159l89 8c13 -59 51 -96 125 -96c68 0 116 30 116 73c0 45 -50 67 -107 79l-64 13
c-71 14 -146 45 -146 138c0 86 94 136 199 136c110 0 182 -57 201 -141z" />
    <glyph glyph-name="t" unicode="t" horiz-adv-x="302" 
d="M91 490v135h85v-135h94v-70h-94v-283c0 -52 3 -65 52 -65h42v-72h-61c-96 0 -118 21 -118 125v295h-79v70h79z" />
    <glyph glyph-name="u" unicode="u" 
d="M379 0v70c-27 -46 -70 -81 -154 -81c-60 0 -102 22 -128 57c-24 32 -34 79 -34 140v304h85v-277c0 -50 5 -82 16 -104c16 -33 48 -46 92 -46c77 0 123 57 123 160v267h85v-490h-85z" />
    <glyph glyph-name="v" unicode="v" horiz-adv-x="453" 
d="M94 490l136 -373l135 373h88l-189 -490h-75l-189 490h94z" />
    <glyph glyph-name="w" unicode="w" horiz-adv-x="660" 
d="M187 130l99 360h88l99 -360l96 360h91l-144 -490h-77l-111 392l-107 -392h-77l-144 490h91z" />
    <glyph glyph-name="x" unicode="x" horiz-adv-x="486" 
d="M462 490l-170 -235l186 -255h-101l-135 186l-135 -186h-97l184 252l-173 238h101l122 -169l123 169h95z" />
    <glyph glyph-name="y" unicode="y" horiz-adv-x="440" 
d="M88 -173h-44v74h35c55 0 80 6 105 89l3 10l-180 490h94l127 -376l124 376h88l-178 -511c-35 -100 -63 -152 -174 -152z" />
    <glyph glyph-name="z" unicode="z" horiz-adv-x="454" 
d="M31 0v70l289 350h-270v70h369v-70l-289 -350h294v-70h-393z" />
    <glyph glyph-name="braceleft" unicode="{" horiz-adv-x="250" 
d="M216 -173c-113 0 -135 34 -135 138v151c0 58 -9 96 -71 96v68c62 0 71 38 71 96v150c0 104 22 138 135 138h44v-72h-42c-44 0 -52 -13 -52 -65v-153c0 -86 -29 -114 -78 -127v-2c49 -13 78 -41 78 -127v-154c0 -52 8 -65 52 -65h42v-72h-44z" />
    <glyph glyph-name="bar" unicode="|" horiz-adv-x="237" 
d="M80 664h77v-747h-77v747z" />
    <glyph glyph-name="braceright" unicode="}" horiz-adv-x="250" 
d="M-10 -173v72h42c44 0 52 13 52 65v154c0 86 29 114 78 127v2c-49 13 -78 41 -78 127v153c0 52 -8 65 -52 65h-42v72h44c113 0 135 -34 135 -138v-150c0 -58 9 -96 71 -96v-68c-62 0 -71 -38 -71 -96v-151c0 -104 -22 -138 -135 -138h-44z" />
    <glyph glyph-name="asciitilde" unicode="~" horiz-adv-x="536" 
d="M373 266c34 0 61 23 64 64h79c-5 -81 -59 -138 -143 -138c-76 0 -147 64 -210 64c-34 0 -61 -23 -64 -64h-79c5 81 59 138 143 138c88 0 154 -64 210 -64z" />
    <glyph glyph-name="Adieresis" unicode="&#xc4;" horiz-adv-x="613" 
d="M0 0l250 664h110l253 -664h-104l-53 144h-306l-51 -144h-99zM302 566l-122 -339h246zM154 797h85v-92h-85v92zM367 797h85v-92h-85v92z" />
    <glyph glyph-name="Aring" unicode="&#xc5;" horiz-adv-x="613" 
d="M0 0l250 664h110l253 -664h-104l-53 144h-306l-51 -144h-99zM302 566l-122 -339h246zM303 847c46 0 84 -33 84 -79s-37 -79 -84 -79s-84 33 -84 79s38 79 84 79zM303 808c-21 0 -40 -17 -40 -40s19 -39 40 -39s40 16 40 39s-19 40 -40 40z" />
    <glyph glyph-name="Ccedilla" unicode="&#xc7;" horiz-adv-x="670" 
d="M247 -164l15 38c16 -8 36 -13 54 -13c27 0 56 7 56 29c0 19 -18 28 -40 28c-11 0 -26 -2 -36 -8l-28 16l40 65c-166 19 -261 153 -261 342c0 209 123 343 313 343c140 0 247 -78 276 -204l-92 -13c-20 78 -81 135 -188 135c-119 0 -212 -89 -212 -261
c0 -167 89 -263 214 -263c107 0 169 54 190 135l92 -13c-30 -130 -140 -203 -285 -204l-20 -33c10 2 20 3 28 3c45 0 71 -25 71 -63c0 -49 -53 -76 -101 -76c-25 0 -55 3 -86 17z" />
    <glyph glyph-name="Eacute" unicode="&#xc9;" horiz-adv-x="570" 
d="M80 0v664h457v-84h-362v-196h341v-84h-341v-216h362v-84h-457zM452 803l-138 -105h-84l102 105h120z" />
    <glyph glyph-name="Ntilde" unicode="&#xd1;" horiz-adv-x="702" 
d="M622 0h-139l-308 565v-565h-95v664h139l308 -564v564h95v-664zM425 760c24 0 40 14 44 42h66c-13 -77 -59 -105 -108 -105c-56 0 -87 44 -126 44c-24 0 -39 -15 -42 -41h-66c12 72 54 104 107 104c57 0 83 -44 125 -44z" />
    <glyph glyph-name="Odieresis" unicode="&#xd6;" horiz-adv-x="726" 
d="M582 332c0 170 -96 262 -219 262s-219 -92 -219 -262s96 -262 219 -262s219 92 219 262zM679 332c0 -213 -130 -344 -317 -344c-193 0 -315 141 -315 344s130 344 317 344s315 -131 315 -344zM210 797h85v-92h-85v92zM423 797h85v-92h-85v92z" />
    <glyph glyph-name="Udieresis" unicode="&#xdc;" horiz-adv-x="680" 
d="M70 664h95v-400c0 -132 47 -194 174 -194c129 0 176 71 176 204v390h95v-382c0 -197 -75 -294 -271 -294c-187 0 -269 76 -269 286v390zM184 797h85v-92h-85v92zM397 797h85v-92h-85v92z" />
    <glyph glyph-name="aacute" unicode="&#xe1;" horiz-adv-x="515" 
d="M56 342l83 -3c5 54 41 91 118 91c65 0 113 -21 113 -101v-18l-95 -10c-63 -7 -122 -17 -169 -43c-39 -22 -66 -58 -66 -111c0 -84 59 -159 173 -159c87 0 135 32 165 81l3 -69h82c-6 65 -11 112 -10 189l2 124c2 132 -55 186 -194 186c-110 0 -199 -56 -205 -157z
M376 212c0 -113 -78 -150 -147 -150c-58 0 -99 30 -99 82c0 55 48 78 144 87l102 10v-29zM381 664l-121 -118h-71l84 118h108z" />
    <glyph glyph-name="agrave" unicode="&#xe0;" horiz-adv-x="515" 
d="M56 342l83 -3c5 54 41 91 118 91c65 0 113 -21 113 -101v-18l-95 -10c-63 -7 -122 -17 -169 -43c-39 -22 -66 -58 -66 -111c0 -84 59 -159 173 -159c87 0 135 32 165 81l3 -69h82c-6 65 -11 112 -10 189l2 124c2 132 -55 186 -194 186c-110 0 -199 -56 -205 -157z
M376 212c0 -113 -78 -150 -147 -150c-58 0 -99 30 -99 82c0 55 48 78 144 87l102 10v-29zM259 546l-121 118h108l84 -118h-71z" />
    <glyph glyph-name="acircumflex" unicode="&#xe2;" horiz-adv-x="515" 
d="M56 342l83 -3c5 54 41 91 118 91c65 0 113 -21 113 -101v-18l-95 -10c-63 -7 -122 -17 -169 -43c-39 -22 -66 -58 -66 -111c0 -84 59 -159 173 -159c87 0 135 32 165 81l3 -69h82c-6 65 -11 112 -10 189l2 124c2 132 -55 186 -194 186c-110 0 -199 -56 -205 -157z
M376 212c0 -113 -78 -150 -147 -150c-58 0 -99 30 -99 82c0 55 48 78 144 87l102 10v-29zM299 664l120 -118h-89l-73 60l-74 -60h-89l123 118h82z" />
    <glyph glyph-name="adieresis" unicode="&#xe4;" horiz-adv-x="515" 
d="M56 342l83 -3c5 54 41 91 118 91c65 0 113 -21 113 -101v-18l-95 -10c-63 -7 -122 -17 -169 -43c-39 -22 -66 -58 -66 -111c0 -84 59 -159 173 -159c87 0 135 32 165 81l3 -69h82c-6 65 -11 112 -10 189l2 124c2 132 -55 186 -194 186c-110 0 -199 -56 -205 -157z
M376 212c0 -113 -78 -150 -147 -150c-58 0 -99 30 -99 82c0 55 48 78 144 87l102 10v-29zM109 557v92h85v-92h-85zM322 649h85v-92h-85v92z" />
    <glyph glyph-name="atilde" unicode="&#xe3;" horiz-adv-x="515" 
d="M56 342l83 -3c5 54 41 91 118 91c65 0 113 -21 113 -101v-18l-95 -10c-63 -7 -122 -17 -169 -43c-39 -22 -66 -58 -66 -111c0 -84 59 -159 173 -159c87 0 135 32 165 81l3 -69h82c-6 65 -11 112 -10 189l2 124c2 132 -55 186 -194 186c-110 0 -199 -56 -205 -157z
M376 212c0 -113 -78 -150 -147 -150c-58 0 -99 30 -99 82c0 55 48 78 144 87l102 10v-29zM321 615c24 0 40 14 44 42h66c-13 -77 -59 -105 -108 -105c-56 0 -87 44 -126 44c-24 0 -39 -15 -42 -41h-66c12 72 54 104 107 104c57 0 83 -44 125 -44z" />
    <glyph glyph-name="aring" unicode="&#xe5;" horiz-adv-x="515" 
d="M56 342l83 -3c5 54 41 91 118 91c65 0 113 -21 113 -101v-18l-95 -10c-63 -7 -122 -17 -169 -43c-39 -22 -66 -58 -66 -111c0 -84 59 -159 173 -159c87 0 135 32 165 81l3 -69h82c-6 65 -11 112 -10 189l2 124c2 132 -55 186 -194 186c-110 0 -199 -56 -205 -157z
M376 212c0 -113 -78 -150 -147 -150c-58 0 -99 30 -99 82c0 55 48 78 144 87l102 10v-29zM265 696c46 0 84 -33 84 -79s-37 -79 -84 -79s-84 33 -84 79s38 79 84 79zM265 657c-21 0 -40 -17 -40 -40s19 -39 40 -39s40 16 40 39s-19 40 -40 40z" />
    <glyph glyph-name="ccedilla" unicode="&#xe7;" horiz-adv-x="507" 
d="M161 -164l15 38c16 -8 36 -13 54 -13c27 0 56 7 56 29c0 19 -18 28 -40 28c-11 0 -26 -2 -36 -8l-28 16l40 65c-120 19 -188 120 -188 253c0 144 87 254 238 254c122 0 195 -86 206 -162l-86 -12c-12 61 -60 99 -126 99c-78 0 -142 -58 -142 -178
c0 -122 65 -182 142 -182c72 0 118 44 130 98l87 -11c-16 -85 -100 -159 -214 -162l-20 -33c10 2 20 3 28 3c45 0 71 -25 71 -63c0 -49 -53 -76 -101 -76c-25 0 -55 3 -86 17z" />
    <glyph glyph-name="eacute" unicode="&#xe9;" 
d="M271 -12c-160 0 -237 112 -237 255c0 153 99 255 238 255c154 0 242 -122 230 -280h-378c0 -96 62 -155 145 -155c78 0 117 33 138 86l87 -11c-23 -81 -100 -150 -223 -150zM272 426c-85 0 -143 -51 -147 -137h287c-2 66 -49 137 -140 137zM393 664l-121 -118h-71l84 118
h108z" />
    <glyph glyph-name="egrave" unicode="&#xe8;" 
d="M271 -12c-160 0 -237 112 -237 255c0 153 99 255 238 255c154 0 242 -122 230 -280h-378c0 -96 62 -155 145 -155c78 0 117 33 138 86l87 -11c-23 -81 -100 -150 -223 -150zM272 426c-85 0 -143 -51 -147 -137h287c-2 66 -49 137 -140 137zM270 546l-121 118h108l84 -118
h-71z" />
    <glyph glyph-name="ecircumflex" unicode="&#xea;" 
d="M271 -12c-160 0 -237 112 -237 255c0 153 99 255 238 255c154 0 242 -122 230 -280h-378c0 -96 62 -155 145 -155c78 0 117 33 138 86l87 -11c-23 -81 -100 -150 -223 -150zM272 426c-85 0 -143 -51 -147 -137h287c-2 66 -49 137 -140 137zM310 664l120 -118h-89l-73 60
l-74 -60h-89l123 118h82z" />
    <glyph glyph-name="edieresis" unicode="&#xeb;" 
d="M271 -12c-160 0 -237 112 -237 255c0 153 99 255 238 255c154 0 242 -122 230 -280h-378c0 -96 62 -155 145 -155c78 0 117 33 138 86l87 -11c-23 -81 -100 -150 -223 -150zM272 426c-85 0 -143 -51 -147 -137h287c-2 66 -49 137 -140 137zM119 557v92h85v-92h-85z
M332 649h85v-92h-85v92z" />
    <glyph glyph-name="iacute" unicode="&#xed;" horiz-adv-x="219" 
d="M67 490h85v-490h-85v490zM260 664l-121 -118h-71l84 118h108z" />
    <glyph glyph-name="igrave" unicode="&#xec;" horiz-adv-x="219" 
d="M67 490h85v-490h-85v490zM77 546l-121 118h108l84 -118h-71z" />
    <glyph glyph-name="icircumflex" unicode="&#xee;" horiz-adv-x="219" 
d="M142 664l110 -128h-94l-48 66l-49 -66h-94l113 128h62zM67 490h85v-490h-85v490z" />
    <glyph glyph-name="idieresis" unicode="&#xef;" horiz-adv-x="219" 
d="M-19 559v92h85v-92h-85zM154 559v92h85v-92h-85zM67 490h85v-490h-85v490z" />
    <glyph glyph-name="ntilde" unicode="&#xf1;" horiz-adv-x="537" 
d="M152 490v-68c28 43 77 76 161 76c66 0 112 -25 138 -67c19 -31 27 -72 27 -130v-301h-85v278c0 52 -6 83 -18 104c-18 30 -48 42 -91 42c-82 0 -132 -56 -132 -163v-261h-85v490h85zM343 615c24 0 40 14 44 42h66c-13 -77 -59 -105 -108 -105c-56 0 -87 44 -126 44
c-24 0 -39 -15 -42 -41h-66c12 72 54 104 107 104c57 0 83 -44 125 -44z" />
    <glyph glyph-name="oacute" unicode="&#xf3;" horiz-adv-x="530" 
d="M124 243c0 -128 61 -181 141 -181s141 53 141 181s-61 181 -141 181s-141 -53 -141 -181zM34 243c0 176 111 255 231 255s231 -79 231 -255s-111 -255 -231 -255s-231 79 -231 255zM405 664l-121 -118h-71l84 118h108z" />
    <glyph glyph-name="ograve" unicode="&#xf2;" horiz-adv-x="530" 
d="M124 243c0 -128 61 -181 141 -181s141 53 141 181s-61 181 -141 181s-141 -53 -141 -181zM34 243c0 176 111 255 231 255s231 -79 231 -255s-111 -255 -231 -255s-231 79 -231 255zM280 546l-121 118h108l84 -118h-71z" />
    <glyph glyph-name="ocircumflex" unicode="&#xf4;" horiz-adv-x="530" 
d="M124 243c0 -128 61 -181 141 -181s141 53 141 181s-61 181 -141 181s-141 -53 -141 -181zM34 243c0 176 111 255 231 255s231 -79 231 -255s-111 -255 -231 -255s-231 79 -231 255zM307 664l120 -118h-89l-73 60l-74 -60h-89l123 118h82z" />
    <glyph glyph-name="odieresis" unicode="&#xf6;" horiz-adv-x="530" 
d="M124 243c0 -128 61 -181 141 -181s141 53 141 181s-61 181 -141 181s-141 -53 -141 -181zM34 243c0 176 111 255 231 255s231 -79 231 -255s-111 -255 -231 -255s-231 79 -231 255zM116 557v92h85v-92h-85zM329 649h85v-92h-85v92z" />
    <glyph glyph-name="otilde" unicode="&#xf5;" horiz-adv-x="530" 
d="M124 243c0 -128 61 -181 141 -181s141 53 141 181s-61 181 -141 181s-141 -53 -141 -181zM34 243c0 176 111 255 231 255s231 -79 231 -255s-111 -255 -231 -255s-231 79 -231 255zM331 615c24 0 40 14 44 42h66c-13 -77 -59 -105 -108 -105c-56 0 -87 44 -126 44
c-24 0 -39 -15 -42 -41h-66c12 72 54 104 107 104c57 0 83 -44 125 -44z" />
    <glyph glyph-name="uacute" unicode="&#xfa;" 
d="M379 0v70c-27 -46 -70 -81 -154 -81c-60 0 -102 22 -128 57c-24 32 -34 79 -34 140v304h85v-277c0 -50 5 -82 16 -104c16 -33 48 -46 92 -46c77 0 123 57 123 160v267h85v-490h-85zM394 664l-121 -118h-71l84 118h108z" />
    <glyph glyph-name="ugrave" unicode="&#xf9;" 
d="M379 0v70c-27 -46 -70 -81 -154 -81c-60 0 -102 22 -128 57c-24 32 -34 79 -34 140v304h85v-277c0 -50 5 -82 16 -104c16 -33 48 -46 92 -46c77 0 123 57 123 160v267h85v-490h-85zM269 546l-121 118h108l84 -118h-71z" />
    <glyph glyph-name="ucircumflex" unicode="&#xfb;" 
d="M379 0v70c-27 -46 -70 -81 -154 -81c-60 0 -102 22 -128 57c-24 32 -34 79 -34 140v304h85v-277c0 -50 5 -82 16 -104c16 -33 48 -46 92 -46c77 0 123 57 123 160v267h85v-490h-85zM313 664l120 -118h-89l-73 60l-74 -60h-89l123 118h82z" />
    <glyph glyph-name="udieresis" unicode="&#xfc;" 
d="M379 0v70c-27 -46 -70 -81 -154 -81c-60 0 -102 22 -128 57c-24 32 -34 79 -34 140v304h85v-277c0 -50 5 -82 16 -104c16 -33 48 -46 92 -46c77 0 123 57 123 160v267h85v-490h-85zM122 557v92h85v-92h-85zM335 649h85v-92h-85v92z" />
    <glyph glyph-name="dagger" unicode="&#x2020;" horiz-adv-x="525" 
d="M305 0h-85v380h-190v80h190v204h85v-204h190v-80h-190v-380z" />
    <glyph glyph-name="degree" unicode="&#xb0;" horiz-adv-x="313" 
d="M20 539c0 76 61 137 136 137c76 0 137 -61 137 -137c0 -75 -61 -136 -137 -136c-75 0 -136 61 -136 136zM88 539c0 -40 28 -73 68 -73c41 0 70 33 70 73c0 41 -29 74 -70 74c-40 0 -68 -33 -68 -74z" />
    <glyph glyph-name="cent" unicode="&#xa2;" horiz-adv-x="507" 
d="M478 336l-86 -12c-11 54 -50 90 -104 97v-357c59 8 97 48 108 97l87 -11c-15 -80 -91 -151 -195 -161v-79h-43v79c-135 9 -211 114 -211 255c0 137 80 240 211 252v88h43v-87c111 -7 178 -87 190 -161zM124 245c0 -111 53 -171 121 -181v357c-68 -9 -121 -67 -121 -176z
" />
    <glyph glyph-name="sterling" unicode="&#xa3;" 
d="M277 602c-57 0 -129 -22 -129 -100c0 -47 24 -90 48 -134h182v-60h-154c8 -22 14 -45 14 -69c0 -73 -49 -121 -98 -150l1 -2c21 8 39 12 63 12c53 0 98 -36 165 -36c40 0 78 11 112 25l25 -73c-26 -15 -80 -31 -129 -31c-71 0 -121 37 -194 37c-40 0 -92 -13 -136 -37
l-28 68c41 17 130 75 130 173c0 30 -8 57 -18 83h-111v60h82c-22 42 -44 85 -44 138c0 123 116 170 223 170c143 0 227 -88 225 -218l-87 -2c-2 111 -65 146 -142 146z" />
    <glyph glyph-name="currency" unicode="&#xa4;" horiz-adv-x="591" 
d="M73 322c0 48 15 93 41 129l-64 65l46 45l63 -63c37 29 84 46 134 46c52 0 99 -18 137 -47l65 64l46 -45l-66 -66c25 -36 40 -81 40 -128c0 -48 -15 -91 -41 -127l67 -67l-46 -45l-66 65c-38 -29 -85 -46 -136 -46c-50 0 -96 16 -133 44l-64 -63l-46 45l64 65
c-26 36 -41 81 -41 129zM150 322c0 -84 59 -150 142 -150c87 0 148 66 148 150c0 86 -61 153 -148 153c-83 0 -142 -67 -142 -153z" />
    <glyph glyph-name="yen" unicode="&#xa5;" horiz-adv-x="560" 
d="M477 103h-159v-103h-85v103h-152v60h152v70h-152v60h129l-215 371h99l184 -339l188 339h99l-222 -371h134v-60h-159v-70h159v-60z" />
    <glyph glyph-name="section" unicode="&#xa7;" horiz-adv-x="539" 
d="M267 -108c59 0 101 25 101 70c0 37 -17 66 -90 105l-120 64c-73 39 -124 89 -124 162c0 62 50 109 111 132c-36 26 -65 65 -65 120c0 88 91 131 181 131c110 0 181 -60 195 -149l-87 -4c-11 59 -57 82 -112 82s-91 -22 -91 -56c0 -33 19 -55 75 -85l128 -69
c80 -43 136 -84 136 -161c0 -65 -44 -117 -108 -147c35 -30 57 -65 57 -112c0 -100 -86 -154 -189 -154c-116 0 -193 66 -202 169l87 4c9 -63 43 -102 117 -102zM325 326l-112 60c-47 -14 -95 -43 -95 -88c0 -37 20 -63 73 -92l127 -68c7 -4 13 -8 20 -11c42 19 83 50 83 93
c0 42 -30 71 -96 106z" />
    <glyph glyph-name="bullet" unicode="&#x2022;" horiz-adv-x="415" 
d="M40 259c0 91 74 165 164 165c97 0 171 -74 171 -165c0 -96 -74 -170 -171 -170c-90 0 -164 74 -164 170z" />
    <glyph glyph-name="paragraph" unicode="&#xb6;" horiz-adv-x="484" 
d="M0 489c0 108 74 175 224 175h193v-747h-70v682h-113v-682h-70v408c-82 9 -164 59 -164 164z" />
    <glyph glyph-name="germandbls" unicode="&#xdf;" horiz-adv-x="588" 
d="M152 0h-85v450c0 81 19 130 51 163c44 46 112 63 187 63c120 0 210 -60 210 -158c0 -66 -32 -115 -101 -144c79 -20 140 -70 140 -178c0 -155 -122 -208 -248 -208c-32 0 -70 4 -101 10l18 81c25 -8 59 -12 87 -12c78 0 153 28 153 128c0 99 -77 134 -189 134h-3v76h2
c100 0 156 35 156 101c0 59 -51 96 -125 96c-52 0 -97 -9 -124 -44c-17 -22 -28 -55 -28 -113v-445z" />
    <glyph glyph-name="registered" unicode="&#xae;" horiz-adv-x="767" 
d="M40 331c0 203 153 344 344 344c189 0 343 -141 343 -344c0 -204 -154 -343 -343 -343c-191 0 -344 139 -344 343zM108 331c0 -168 121 -282 276 -282c157 0 275 114 275 282c0 169 -118 282 -275 282c-155 0 -276 -113 -276 -282zM469 161l-74 139h-17h-53v-139h-75v364
h112c108 0 172 -18 172 -112c0 -40 -20 -77 -66 -97l84 -155h-83zM459 412c0 43 -35 54 -85 54h-49v-108h53c57 0 81 18 81 54z" />
    <glyph glyph-name="copyright" unicode="&#xa9;" horiz-adv-x="767" 
d="M40 331c0 203 153 344 344 344c189 0 343 -141 343 -344c0 -204 -154 -343 -343 -343c-191 0 -344 139 -344 343zM108 331c0 -168 121 -282 276 -282c157 0 275 114 275 282c0 169 -118 282 -275 282c-155 0 -276 -113 -276 -282zM383 207c40 0 79 18 93 69l69 -18
c-20 -58 -72 -109 -162 -109c-111 0 -172 72 -172 190c0 117 67 187 175 187c87 0 139 -50 156 -115l-68 -19c-12 51 -48 76 -91 76c-56 0 -97 -40 -97 -129c0 -88 41 -132 97 -132z" />
    <glyph glyph-name="trademark" unicode="&#x2122;" horiz-adv-x="789" 
d="M121 293v310h-116v61h306v-61h-116v-310h-74zM588 293h-74l-98 273v-273h-74v371h115l96 -278l93 278h113v-371h-74v273z" />
    <glyph glyph-name="acute" unicode="&#xb4;" horiz-adv-x="252" 
d="M222 664l-121 -118h-71l84 118h108z" />
    <glyph glyph-name="dieresis" unicode="&#xa8;" horiz-adv-x="358" 
d="M30 557v92h85v-92h-85zM243 649h85v-92h-85v92z" />
    <glyph glyph-name="notequal" unicode="&#x2260;" horiz-adv-x="566" 
d="M165 121h-115v80h158l58 108h-216v80h259l76 140l69 -34l-58 -106h120v-80h-163l-58 -108h221v-80h-264l-83 -155l-69 34z" />
    <glyph glyph-name="AE" unicode="&#xc6;" horiz-adv-x="976" 
d="M491 664h452v-84h-357v-196h336v-84h-336v-216h357v-84h-452v144h-282l-105 -144h-104zM491 528l-221 -301h221v301z" />
    <glyph glyph-name="Oslash" unicode="&#xd8;" horiz-adv-x="720" 
d="M658 646l-62 -73c49 -59 77 -141 77 -241c0 -213 -127 -344 -314 -344c-82 0 -150 26 -202 70l-61 -71l-37 33l63 74c-49 60 -75 142 -75 238c0 203 127 344 314 344c79 0 148 -24 200 -67l59 69zM576 332c0 69 -15 126 -42 168l-319 -373c38 -38 88 -57 145 -57
c123 0 216 92 216 262zM144 332c0 -68 14 -123 40 -165l318 372c-38 36 -87 55 -142 55c-123 0 -216 -92 -216 -262z" />
    <glyph glyph-name="infinity" unicode="&#x221e;" horiz-adv-x="732" 
d="M539 385c95 0 163 -63 163 -152c0 -90 -65 -153 -161 -153c-75 0 -128 42 -174 95c-46 -50 -101 -94 -175 -94c-96 0 -162 63 -162 152s68 152 167 152c73 0 128 -42 170 -90c52 59 99 90 172 90zM195 157c45 0 77 21 123 77c-35 42 -70 75 -120 75
c-49 0 -86 -30 -86 -76c0 -42 35 -76 83 -76zM532 309c-47 0 -82 -36 -116 -75c36 -44 73 -77 121 -77c47 0 83 33 83 76c0 41 -34 76 -88 76z" />
    <glyph glyph-name="plusminus" unicode="&#xb1;" horiz-adv-x="565" 
d="M240 350v144h85v-144h200v-80h-200v-145h-85v145h-200v80h200zM525 0h-485v80h485v-80z" />
    <glyph glyph-name="lessequal" unicode="&#x2264;" horiz-adv-x="565" 
d="M159 303l361 -113v-90l-477 167v72l477 171v-91zM40 0v80h485v-80h-485z" />
    <glyph glyph-name="greaterequal" unicode="&#x2265;" horiz-adv-x="565" 
d="M406 303l-361 116v91l477 -171v-72l-477 -167v90zM525 0h-485v80h485v-80z" />
    <glyph glyph-name="mu" unicode="&#xb5;" horiz-adv-x="533" 
d="M55 -173c8 37 10 75 10 147v516h85v-284c0 -108 35 -144 108 -144c77 0 123 57 123 160v268h85v-490h-85v69c-27 -46 -70 -81 -120 -81c-56 0 -90 26 -111 56v-62c0 -80 -3 -118 -11 -155h-84z" />
    <glyph glyph-name="mu" unicode="&#x3bc;" horiz-adv-x="533" 
d="M55 -173c8 37 10 75 10 147v516h85v-284c0 -108 35 -144 108 -144c77 0 123 57 123 160v268h85v-490h-85v69c-27 -46 -70 -81 -120 -81c-56 0 -90 26 -111 56v-62c0 -80 -3 -118 -11 -155h-84z" />
    <glyph glyph-name="partialdiff" unicode="&#x2202;" horiz-adv-x="533" 
d="M401 244c0 127 -63 180 -141 180c-89 0 -136 -67 -136 -180c0 -114 46 -182 136 -182c80 0 141 55 141 182zM259 -12c-140 0 -225 96 -225 256c0 158 89 254 214 254c62 0 111 -28 143 -72l1 1c-37 103 -136 177 -249 181v75c205 -10 350 -176 350 -394
c0 -204 -95 -301 -234 -301z" />
    <glyph glyph-name="summation" unicode="&#x2211;" horiz-adv-x="546" 
d="M30 -103l251 348l-251 349v70h486v-80h-384l247 -339l-247 -338h384v-80h-486v70z" />
    <glyph glyph-name="product" unicode="&#x220f;" horiz-adv-x="619" 
d="M152 -173h-85v837h485v-837h-85v757h-315v-757z" />
    <glyph glyph-name="pi" unicode="&#x3c0;" horiz-adv-x="601" 
d="M184 0h-85v410h-69v80h535v-80h-70v-274c0 -52 5 -64 54 -64h22v-72h-41c-96 0 -120 21 -120 125v285h-226v-410z" />
    <glyph glyph-name="integral" unicode="&#x222b;" horiz-adv-x="295" 
d="M104 129v299c0 189 54 248 138 248c43 0 83 -19 83 -61c0 -28 -18 -49 -47 -49c-28 0 -46 19 -46 43c0 9 2 19 4 24c-46 0 -49 -59 -49 -118c0 -30 2 -81 2 -150v-311c0 -177 -49 -234 -136 -234c-43 0 -83 17 -83 59c0 28 18 49 47 49c28 0 46 -19 46 -43
c0 -9 -2 -19 -4 -24c46 0 47 59 47 118c0 30 -2 81 -2 150z" />
    <glyph glyph-name="ordfeminine" unicode="&#xaa;" horiz-adv-x="316" 
d="M100 582l-64 2c5 54 48 92 124 92c82 0 119 -33 118 -107c-1 -25 -2 -64 -2 -84c0 -33 2 -63 6 -96h-63l-2 32c-18 -26 -45 -39 -89 -39c-64 0 -101 44 -101 91c0 27 11 47 28 60c25 18 59 26 104 30l51 6v10c0 36 -21 47 -53 47c-34 0 -55 -15 -57 -44zM212 504v17
l-51 -6c-46 -5 -65 -18 -65 -42c0 -22 18 -39 47 -39c36 0 69 21 69 70z" />
    <glyph glyph-name="ordmasculine" unicode="&#xba;" horiz-adv-x="329" 
d="M96 529c0 -60 27 -93 69 -93c41 0 69 33 69 93c0 61 -28 93 -69 93c-42 0 -69 -32 -69 -93zM27 529c0 101 65 147 138 147c72 0 138 -46 138 -147c0 -100 -66 -146 -138 -146c-73 0 -138 46 -138 146z" />
    <glyph glyph-name="Omega" unicode="&#x2126;" horiz-adv-x="738" 
d="M369 676c170 0 329 -104 329 -296c0 -114 -75 -224 -185 -258v-42h184v-80h-270v173c111 17 181 108 181 213c0 127 -101 216 -239 216s-239 -89 -239 -216c0 -105 70 -196 181 -213v-173h-270v80h184v42c-110 34 -185 144 -185 258c0 192 159 296 329 296z" />
    <glyph glyph-name="ae" unicode="&#xe6;" horiz-adv-x="858" 
d="M140 335l-84 4c5 104 95 159 205 159c85 0 139 -26 167 -79c39 50 98 79 172 79c154 0 241 -122 229 -280h-378c0 -91 57 -155 151 -155c74 0 114 39 132 86l87 -11c-22 -79 -98 -150 -221 -150c-91 0 -153 39 -188 102c-39 -73 -122 -102 -196 -102
c-117 0 -176 75 -176 159c0 53 27 88 66 110c47 27 104 37 169 44l95 10v18c0 80 -48 101 -113 101c-78 0 -113 -39 -117 -95zM229 62c69 0 147 37 147 150v29l-102 -10c-96 -9 -144 -32 -144 -87c0 -52 41 -82 99 -82zM452 289h287c-2 66 -49 137 -138 137
c-87 0 -144 -52 -149 -137z" />
    <glyph glyph-name="oslash" unicode="&#xf8;" horiz-adv-x="532" 
d="M34 243c0 176 114 255 232 255c53 0 105 -16 147 -50l44 51l38 -32l-48 -55c31 -41 51 -97 51 -169c0 -176 -114 -255 -232 -255c-53 0 -105 15 -146 48l-42 -48l-37 33l44 51c-31 41 -51 97 -51 171zM124 243c0 -43 7 -78 19 -105l218 251c-25 24 -58 35 -95 35
c-82 0 -142 -53 -142 -181zM408 243c0 42 -6 77 -18 103l-218 -250c24 -24 57 -34 94 -34c82 0 142 53 142 181z" />
    <glyph glyph-name="questiondown" unicode="&#xbf;" horiz-adv-x="464" 
d="M221 -186c-105 0 -209 51 -209 164c0 88 65 139 122 183c41 31 78 49 78 103v29h86v-32c0 -86 -60 -116 -114 -156c-42 -31 -83 -63 -83 -124c0 -58 51 -92 125 -92c101 0 133 76 135 128l85 -3c-1 -120 -97 -200 -225 -200zM307 490v-107h-107v107h107z" />
    <glyph glyph-name="exclamdown" unicode="&#xa1;" horiz-adv-x="227" 
d="M161 20v-194h-89v194l18 273h53zM60 490h107v-107h-107v107z" />
    <glyph glyph-name="logicalnot" unicode="&#xac;" horiz-adv-x="565" 
d="M440 320h-400v80h485v-309h-85v229z" />
    <glyph glyph-name="radical" unicode="&#x221a;" horiz-adv-x="474" 
d="M0 211l138 63l136 -322l117 712h83l-146 -837h-82l-150 336l-60 -27z" />
    <glyph glyph-name="approxequal" unicode="&#x2248;" horiz-adv-x="536" 
d="M373 352c34 0 61 23 64 64h79c-5 -81 -59 -138 -143 -138c-76 0 -147 64 -210 64c-34 0 -61 -23 -64 -64h-79c5 81 59 138 143 138c88 0 154 -64 210 -64zM373 178c34 0 61 23 64 64h79c-5 -81 -59 -138 -143 -138c-76 0 -147 64 -210 64c-34 0 -61 -23 -64 -64h-79
c5 81 59 138 143 138c88 0 154 -64 210 -64z" />
    <glyph glyph-name="Delta" unicode="&#x2206;" horiz-adv-x="648" 
d="M-5 0l329 676l329 -676h-658zM522 80l-198 413l-198 -413h396z" />
    <glyph glyph-name="guillemotleft" unicode="&#xab;" horiz-adv-x="467" 
d="M148 31l-148 213l148 212h91l-140 -212l140 -213h-91zM357 31l-148 213l148 212h90l-140 -212l140 -213h-90z" />
    <glyph glyph-name="guillemotright" unicode="&#xbb;" horiz-adv-x="467" 
d="M467 244l-148 -213h-91l140 213l-140 212h91zM258 244l-148 -213h-90l140 213l-140 212h90z" />
    <glyph glyph-name="ellipsis" unicode="&#x2026;" horiz-adv-x="724" 
d="M60 0v107h107v-107h-107zM309 0v107h107v-107h-107zM557 0v107h107v-107h-107z" />
    <glyph glyph-name="Agrave" unicode="&#xc0;" horiz-adv-x="613" 
d="M0 0l250 664h110l253 -664h-104l-53 144h-306l-51 -144h-99zM302 566l-122 -339h246zM276 698l-138 105h120l102 -105h-84z" />
    <glyph glyph-name="Atilde" unicode="&#xc3;" horiz-adv-x="613" 
d="M0 0l250 664h110l253 -664h-104l-53 144h-306l-51 -144h-99zM302 566l-122 -339h246zM365 760c24 0 40 14 44 42h66c-13 -77 -59 -105 -108 -105c-56 0 -87 44 -126 44c-24 0 -39 -15 -42 -41h-66c12 72 54 104 107 104c57 0 83 -44 125 -44z" />
    <glyph glyph-name="Otilde" unicode="&#xd5;" horiz-adv-x="726" 
d="M582 332c0 170 -96 262 -219 262s-219 -92 -219 -262s96 -262 219 -262s219 92 219 262zM679 332c0 -213 -130 -344 -317 -344c-193 0 -315 141 -315 344s130 344 317 344s315 -131 315 -344zM418 760c24 0 40 14 44 42h66c-13 -77 -59 -105 -108 -105
c-56 0 -87 44 -126 44c-24 0 -39 -15 -42 -41h-66c12 72 54 104 107 104c57 0 83 -44 125 -44z" />
    <glyph glyph-name="OE" unicode="&#x152;" horiz-adv-x="1054" 
d="M361 676c87 0 157 -29 208 -80v68h452v-84h-357v-196h336v-84h-336v-216h357v-84h-452v69c-52 -52 -123 -81 -210 -81c-193 0 -312 141 -312 344s127 344 314 344zM576 332c0 170 -93 262 -216 262s-216 -92 -216 -262s93 -262 216 -262s216 92 216 262z" />
    <glyph glyph-name="oe" unicode="&#x153;" horiz-adv-x="896" 
d="M34 243c0 176 114 255 232 255c74 0 143 -32 184 -99c39 62 104 99 188 99c154 0 241 -122 229 -280h-378c0 -98 64 -155 149 -155c74 0 113 34 134 86l87 -11c-21 -77 -98 -150 -221 -150c-89 0 -152 38 -189 98c-41 -67 -109 -98 -183 -98c-118 0 -232 79 -232 255z
M124 243c0 -128 60 -181 142 -181s142 53 142 181s-60 181 -142 181s-142 -53 -142 -181zM639 426c-84 0 -144 -49 -149 -137h287c-2 66 -48 137 -138 137z" />
    <glyph glyph-name="endash" unicode="&#x2013;" horiz-adv-x="476" 
d="M441 215h-406v80h406v-80z" />
    <glyph glyph-name="emdash" unicode="&#x2014;" horiz-adv-x="672" 
d="M642 215h-612v80h612v-80z" />
    <glyph glyph-name="quotedblleft" unicode="&#x201c;" horiz-adv-x="383" 
d="M323 535v-107h-107v114l57 122h54l-49 -129h45zM167 535v-107h-107v114l57 122h54l-49 -129h45z" />
    <glyph glyph-name="quotedblright" unicode="&#x201d;" horiz-adv-x="383" 
d="M60 557v107h107v-114l-57 -122h-54l49 129h-45zM216 557v107h107v-114l-57 -122h-54l49 129h-45z" />
    <glyph glyph-name="quoteleft" unicode="&#x2018;" horiz-adv-x="227" 
d="M167 535v-107h-107v114l57 122h54l-49 -129h45z" />
    <glyph glyph-name="quoteright" unicode="&#x2019;" horiz-adv-x="227" 
d="M60 557v107h107v-114l-57 -122h-54l49 129h-45z" />
    <glyph glyph-name="divide" unicode="&#xf7;" horiz-adv-x="555" 
d="M226 30v107h107v-107h-107zM226 353v107h107v-107h-107zM35 200h485v80h-485v-80z" />
    <glyph glyph-name="lozenge" unicode="&#x25ca;" horiz-adv-x="473" 
d="M240 554l-136 -237l136 -237l135 237zM10 317l230 391l223 -391l-223 -391z" />
    <glyph glyph-name="ydieresis" unicode="&#xff;" horiz-adv-x="440" 
d="M44 -173h44c111 0 139 52 174 152l178 511h-88l-124 -376l-127 376h-94l180 -490l-3 -10c-25 -83 -50 -89 -105 -89h-35v-74zM81 557v92h85v-92h-85zM294 649h85v-92h-85v92z" />
    <glyph glyph-name="Ydieresis" unicode="&#x178;" horiz-adv-x="580" 
d="M0 664h104l184 -329l188 329h104l-247 -413v-251h-95v253zM139 797h85v-92h-85v92zM352 797h85v-92h-85v92z" />
    <glyph glyph-name="fraction" unicode="&#x2044;" horiz-adv-x="128" 
d="M-122 0h-94l465 664h94z" />
    <glyph glyph-name="Euro" unicode="&#x20ac;" horiz-adv-x="652" 
d="M326 240h-147c24 -117 93 -178 189 -178c91 0 163 51 177 152l88 -3c-16 -139 -127 -223 -262 -223c-156 0 -256 93 -284 252h-101l40 59h55c0 11 -1 24 -1 36c0 14 1 29 2 43h-96l40 59h63c31 151 136 239 285 239c133 0 241 -87 257 -223l-88 -3
c-13 100 -84 152 -175 152c-92 0 -161 -55 -186 -165h259l-40 -59h-228c-1 -14 -2 -28 -2 -43c0 -13 0 -25 1 -36h194z" />
    <glyph glyph-name="guilsinglleft" unicode="&#x2039;" horiz-adv-x="259" 
d="M148 31l-148 213l148 212h91l-140 -212l140 -213h-91z" />
    <glyph glyph-name="guilsinglright" unicode="&#x203a;" horiz-adv-x="259" 
d="M259 244l-148 -213h-91l140 213l-140 212h91z" />
    <glyph glyph-name="daggerdbl" unicode="&#x2021;" horiz-adv-x="525" 
d="M305 260h190v-80h-190v-180h-85v180h-190v80h190v140h-190v80h190v184h85v-184h190v-80h-190v-140z" />
    <glyph glyph-name="periodcentered" unicode="&#xb7;" horiz-adv-x="210" 
d="M50 201v107h107v-107h-107z" />
    <glyph glyph-name="quotesinglbase" unicode="&#x201a;" horiz-adv-x="227" 
d="M60 0v107h107v-114l-57 -122h-54l49 129h-45z" />
    <glyph glyph-name="quotedblbase" unicode="&#x201e;" horiz-adv-x="392" 
d="M60 0v107h107v-114l-57 -122h-54l49 129h-45zM225 0v107h107v-114l-57 -122h-54l49 129h-45z" />
    <glyph glyph-name="perthousand" unicode="&#x2030;" horiz-adv-x="1177" 
d="M175 278c-103 0 -153 80 -153 197c0 118 50 196 153 196c102 0 152 -78 152 -196c0 -117 -50 -197 -152 -197zM175 331c54 0 83 50 83 144c0 95 -29 143 -83 143c-55 0 -84 -48 -84 -143c0 -94 29 -144 84 -144zM134 0h94l465 664h-94zM653 -7c-103 0 -153 80 -153 197
c0 118 50 196 153 196c102 0 152 -78 152 -196c0 -117 -50 -197 -152 -197zM653 46c54 0 83 50 83 144c0 95 -29 143 -83 143c-55 0 -84 -48 -84 -143c0 -94 29 -144 84 -144zM1003 -7c-103 0 -153 80 -153 197c0 118 50 196 153 196c102 0 152 -78 152 -196
c0 -117 -50 -197 -152 -197zM1003 46c54 0 83 50 83 144c0 95 -29 143 -83 143c-55 0 -84 -48 -84 -143c0 -94 29 -144 84 -144z" />
    <glyph glyph-name="Acircumflex" unicode="&#xc2;" horiz-adv-x="613" 
d="M0 0l250 664h110l253 -664h-104l-53 144h-306l-51 -144h-99zM302 566l-122 -339h246zM343 803l122 -105h-99l-63 52l-64 -52h-99l125 105h78z" />
    <glyph glyph-name="Ecircumflex" unicode="&#xca;" horiz-adv-x="570" 
d="M80 0v664h457v-84h-362v-196h341v-84h-341v-216h362v-84h-457zM354 803l122 -105h-99l-63 52l-64 -52h-99l125 105h78z" />
    <glyph glyph-name="Aacute" unicode="&#xc1;" horiz-adv-x="613" 
d="M0 0l250 664h110l253 -664h-104l-53 144h-306l-51 -144h-99zM302 566l-122 -339h246zM464 803l-138 -105h-84l102 105h120z" />
    <glyph glyph-name="Edieresis" unicode="&#xcb;" horiz-adv-x="570" 
d="M80 0v664h457v-84h-362v-196h341v-84h-341v-216h362v-84h-457zM156 797h85v-92h-85v92zM369 797h85v-92h-85v92z" />
    <glyph glyph-name="Egrave" unicode="&#xc8;" horiz-adv-x="570" 
d="M80 0v664h457v-84h-362v-196h341v-84h-341v-216h362v-84h-457zM311 698l-138 105h120l102 -105h-84z" />
    <glyph glyph-name="Iacute" unicode="&#xcd;" horiz-adv-x="255" 
d="M175 664v-664h-95v664h95zM303 803l-138 -105h-84l102 105h120z" />
    <glyph glyph-name="Icircumflex" unicode="&#xce;" horiz-adv-x="255" 
d="M170 803l102 -105h-89l-53 52l-54 -52h-89l105 105h78zM175 664v-664h-95v664h95z" />
    <glyph glyph-name="Idieresis" unicode="&#xcf;" horiz-adv-x="255" 
d="M0 797h85v-92h-85v92zM171 797h85v-92h-85v92zM175 664v-664h-95v664h95z" />
    <glyph glyph-name="Igrave" unicode="&#xcc;" horiz-adv-x="255" 
d="M175 664v-664h-95v664h95zM89 698l-138 105h120l102 -105h-84z" />
    <glyph glyph-name="Oacute" unicode="&#xd3;" horiz-adv-x="726" 
d="M582 332c0 170 -96 262 -219 262s-219 -92 -219 -262s96 -262 219 -262s219 92 219 262zM679 332c0 -213 -130 -344 -317 -344c-193 0 -315 141 -315 344s130 344 317 344s315 -131 315 -344zM496 803l-138 -105h-84l102 105h120z" />
    <glyph glyph-name="Ocircumflex" unicode="&#xd4;" horiz-adv-x="726" 
d="M582 332c0 170 -96 262 -219 262s-219 -92 -219 -262s96 -262 219 -262s219 92 219 262zM679 332c0 -213 -130 -344 -317 -344c-193 0 -315 141 -315 344s130 344 317 344s315 -131 315 -344zM402 803l122 -105h-99l-63 52l-64 -52h-99l125 105h78z" />
    <glyph glyph-name="Ograve" unicode="&#xd2;" horiz-adv-x="726" 
d="M582 332c0 170 -96 262 -219 262s-219 -92 -219 -262s96 -262 219 -262s219 92 219 262zM679 332c0 -213 -130 -344 -317 -344c-193 0 -315 141 -315 344s130 344 317 344s315 -131 315 -344zM353 698l-138 105h120l102 -105h-84z" />
    <glyph glyph-name="Uacute" unicode="&#xda;" horiz-adv-x="680" 
d="M70 664h95v-400c0 -132 47 -194 174 -194c129 0 176 71 176 204v390h95v-382c0 -197 -75 -294 -271 -294c-187 0 -269 76 -269 286v390zM481 803l-138 -105h-84l102 105h120z" />
    <glyph glyph-name="Ucircumflex" unicode="&#xdb;" horiz-adv-x="680" 
d="M70 664h95v-400c0 -132 47 -194 174 -194c129 0 176 71 176 204v390h95v-382c0 -197 -75 -294 -271 -294c-187 0 -269 76 -269 286v390zM382 803l122 -105h-99l-63 52l-64 -52h-99l125 105h78z" />
    <glyph glyph-name="Ugrave" unicode="&#xd9;" horiz-adv-x="680" 
d="M70 664h95v-400c0 -132 47 -194 174 -194c129 0 176 71 176 204v390h95v-382c0 -197 -75 -294 -271 -294c-187 0 -269 76 -269 286v390zM340 698l-138 105h120l102 -105h-84z" />
    <glyph glyph-name="dotlessi" unicode="&#x131;" horiz-adv-x="219" 
d="M67 490h85v-490h-85v490z" />
    <glyph glyph-name="circumflex" unicode="&#x2c6;" horiz-adv-x="365" 
d="M225 664l120 -118h-89l-73 60l-74 -60h-89l123 118h82z" />
    <glyph glyph-name="tilde" unicode="&#x2dc;" horiz-adv-x="382" 
d="M252 615c24 0 40 14 44 42h66c-13 -77 -59 -105 -108 -105c-56 0 -87 44 -126 44c-24 0 -39 -15 -42 -41h-66c12 72 54 104 107 104c57 0 83 -44 125 -44z" />
    <glyph glyph-name="macron" unicode="&#xaf;" horiz-adv-x="319" 
d="M299 570h-279v70h279v-70z" />
    <glyph glyph-name="breve" unicode="&#x2d8;" horiz-adv-x="335" 
d="M315 664c-7 -66 -43 -123 -149 -123c-103 0 -140 57 -146 123h66c4 -40 27 -67 81 -67s78 27 82 67h66z" />
    <glyph glyph-name="dotaccent" unicode="&#x2d9;" horiz-adv-x="125" 
d="M20 651h85v-92h-85v92z" />
    <glyph glyph-name="ring" unicode="&#x2da;" horiz-adv-x="208" 
d="M104 696c46 0 84 -33 84 -79s-37 -79 -84 -79s-84 33 -84 79s38 79 84 79zM104 657c-21 0 -40 -17 -40 -40s19 -39 40 -39s40 16 40 39s-19 40 -40 40z" />
    <glyph glyph-name="cedilla" unicode="&#xb8;" horiz-adv-x="227" 
d="M20 -164l15 38c16 -8 36 -13 54 -13c27 0 56 7 56 29c0 19 -18 28 -40 28c-11 0 -26 -2 -36 -8l-28 16l48 77h49l-30 -48c10 2 20 3 28 3c45 0 71 -25 71 -63c0 -49 -53 -76 -101 -76c-25 0 -55 3 -86 17z" />
    <glyph glyph-name="hungarumlaut" unicode="&#x2dd;" horiz-adv-x="379" 
d="M212 664l-121 -118h-71l84 118h108zM359 664l-121 -118h-71l84 118h108z" />
    <glyph glyph-name="ogonek" unicode="&#x2db;" horiz-adv-x="224" 
d="M94 0h85c-47 -23 -82 -51 -82 -79c0 -29 30 -40 61 -40c17 0 34 3 46 8v-56c-16 -7 -38 -11 -64 -11c-55 0 -120 25 -120 87c0 37 24 66 74 91z" />
    <glyph glyph-name="caron" unicode="&#x2c7;" horiz-adv-x="365" 
d="M140 546l-120 118h89l73 -60l74 60h89l-123 -118h-82z" />
    <glyph glyph-name="commaaccent" horiz-adv-x="131" 
d="M23 -116v83h88v-89l-41 -83h-50l36 89h-33z" />
    <glyph glyph-name="a.alt" horiz-adv-x="549" 
d="M482 490v-490h-82l-3 67c-31 -47 -77 -79 -159 -79c-118 0 -204 96 -204 256c0 158 89 254 214 254c71 0 122 -30 149 -72v64h85zM260 62c75 0 141 55 141 182s-63 180 -141 180c-89 0 -136 -67 -136 -180c0 -114 46 -182 136 -182z" />
    <glyph glyph-name="aacute.alt" horiz-adv-x="549" 
d="M482 0v490h-85v-64c-27 42 -78 72 -149 72c-125 0 -214 -96 -214 -254c0 -160 86 -256 204 -256c82 0 128 32 159 79l3 -67h82zM260 62c-90 0 -136 68 -136 182c0 113 47 180 136 180c78 0 141 -53 141 -180s-66 -182 -141 -182zM405 664l-121 -118h-71l84 118h108z" />
    <glyph glyph-name="abreve.alt" horiz-adv-x="549" 
d="M482 0v490h-85v-64c-27 42 -78 72 -149 72c-125 0 -214 -96 -214 -254c0 -160 86 -256 204 -256c82 0 128 32 159 79l3 -67h82zM260 62c-90 0 -136 68 -136 182c0 113 47 180 136 180c78 0 141 -53 141 -180s-66 -182 -141 -182zM419 664c-7 -66 -43 -123 -149 -123
c-103 0 -140 57 -146 123h66c4 -40 27 -67 81 -67s78 27 82 67h66z" />
    <glyph glyph-name="acircumflex.alt" horiz-adv-x="549" 
d="M482 0v490h-85v-64c-27 42 -78 72 -149 72c-125 0 -214 -96 -214 -254c0 -160 86 -256 204 -256c82 0 128 32 159 79l3 -67h82zM260 62c-90 0 -136 68 -136 182c0 113 47 180 136 180c78 0 141 -53 141 -180s-66 -182 -141 -182zM315 664l120 -118h-89l-73 60l-74 -60
h-89l123 118h82z" />
    <glyph glyph-name="adieresis.alt" horiz-adv-x="549" 
d="M482 0v490h-85v-64c-27 42 -78 72 -149 72c-125 0 -214 -96 -214 -254c0 -160 86 -256 204 -256c82 0 128 32 159 79l3 -67h82zM260 62c-90 0 -136 68 -136 182c0 113 47 180 136 180c78 0 141 -53 141 -180s-66 -182 -141 -182zM134 557v92h85v-92h-85zM347 649h85v-92
h-85v92z" />
    <glyph glyph-name="ae.alt" horiz-adv-x="889" 
d="M629 -12c-70 0 -121 21 -157 57v-45h-72l-3 67c-31 -47 -77 -79 -159 -79c-118 0 -204 96 -204 256c0 158 89 254 214 254c71 0 122 -30 149 -72v64h85l-2 -47c38 35 89 55 150 55c154 0 242 -122 230 -280h-378c0 -96 62 -155 145 -155c78 0 117 33 138 86l87 -11
c-23 -81 -100 -150 -223 -150zM260 62c75 0 141 55 141 182s-63 180 -141 180c-89 0 -136 -67 -136 -180c0 -114 46 -182 136 -182zM483 289h287c-2 66 -49 137 -140 137c-85 0 -143 -51 -147 -137z" />
    <glyph glyph-name="aeacute.alt" horiz-adv-x="889" 
d="M629 -12c123 0 200 69 223 150l-87 11c-21 -53 -60 -86 -138 -86c-83 0 -145 59 -145 155h378c12 158 -76 280 -230 280c-61 0 -112 -20 -150 -55l2 47h-85v-64c-27 42 -78 72 -149 72c-125 0 -214 -96 -214 -254c0 -160 86 -256 204 -256c82 0 128 32 159 79l3 -67h72
v45c36 -36 87 -57 157 -57zM260 62c-90 0 -136 68 -136 182c0 113 47 180 136 180c78 0 141 -53 141 -180s-66 -182 -141 -182zM770 289h-287c4 86 62 137 147 137c91 0 138 -71 140 -137zM595 664l-121 -118h-71l84 118h108z" />
    <glyph glyph-name="agrave.alt" horiz-adv-x="549" 
d="M482 0v490h-85v-64c-27 42 -78 72 -149 72c-125 0 -214 -96 -214 -254c0 -160 86 -256 204 -256c82 0 128 32 159 79l3 -67h82zM260 62c-90 0 -136 68 -136 182c0 113 47 180 136 180c78 0 141 -53 141 -180s-66 -182 -141 -182zM283 546l-121 118h108l84 -118h-71z" />
    <glyph glyph-name="amacron.alt" horiz-adv-x="549" 
d="M482 0v490h-85v-64c-27 42 -78 72 -149 72c-125 0 -214 -96 -214 -254c0 -160 86 -256 204 -256c82 0 128 32 159 79l3 -67h82zM260 62c-90 0 -136 68 -136 182c0 113 47 180 136 180c78 0 141 -53 141 -180s-66 -182 -141 -182zM417 570h-279v70h279v-70z" />
    <glyph glyph-name="aogonek.alt" horiz-adv-x="549" 
d="M260 62c75 0 141 55 141 182s-63 180 -141 180c-89 0 -136 -67 -136 -180c0 -114 46 -182 136 -182zM482 490v-490c-47 -23 -82 -51 -82 -79c0 -29 30 -40 61 -40c17 0 34 3 46 8v-56c-16 -7 -38 -11 -64 -11c-55 0 -120 25 -120 87c0 37 27 66 77 91l-3 67
c-31 -47 -77 -79 -159 -79c-118 0 -204 96 -204 256c0 158 89 254 214 254c71 0 122 -30 149 -72v64h85z" />
    <glyph glyph-name="aring.alt" horiz-adv-x="549" 
d="M482 0v490h-85v-64c-27 42 -78 72 -149 72c-125 0 -214 -96 -214 -254c0 -160 86 -256 204 -256c82 0 128 32 159 79l3 -67h82zM260 62c-90 0 -136 68 -136 182c0 113 47 180 136 180c78 0 141 -53 141 -180s-66 -182 -141 -182zM263 696c46 0 84 -33 84 -79
s-37 -79 -84 -79s-84 33 -84 79s38 79 84 79zM263 657c-21 0 -40 -17 -40 -40s19 -39 40 -39s40 16 40 39s-19 40 -40 40z" />
    <glyph glyph-name="aringacute.alt" horiz-adv-x="549" 
d="M379 766l-90 -95c31 -11 54 -39 54 -74c0 -46 -37 -79 -84 -79s-84 33 -84 79c0 17 6 33 15 47l81 122h108zM259 637c-21 0 -40 -17 -40 -40s19 -39 40 -39s40 16 40 39s-19 40 -40 40zM482 0v490h-85v-64c-27 42 -78 72 -149 72c-125 0 -214 -96 -214 -254
c0 -160 86 -256 204 -256c82 0 128 32 159 79l3 -67h82zM260 62c-90 0 -136 68 -136 182c0 113 47 180 136 180c78 0 141 -53 141 -180s-66 -182 -141 -182z" />
    <glyph glyph-name="atilde.alt" horiz-adv-x="549" 
d="M482 0v490h-85v-64c-27 42 -78 72 -149 72c-125 0 -214 -96 -214 -254c0 -160 86 -256 204 -256c82 0 128 32 159 79l3 -67h82zM260 62c-90 0 -136 68 -136 182c0 113 47 180 136 180c78 0 141 -53 141 -180s-66 -182 -141 -182zM333 615c24 0 40 14 44 42h66
c-13 -77 -59 -105 -108 -105c-56 0 -87 44 -126 44c-24 0 -39 -15 -42 -41h-66c12 72 54 104 107 104c57 0 83 -44 125 -44z" />
    <glyph glyph-name="uni0227.alt" horiz-adv-x="549" 
d="M482 0v490h-85v-64c-27 42 -78 72 -149 72c-125 0 -214 -96 -214 -254c0 -160 86 -256 204 -256c82 0 128 32 159 79l3 -67h82zM260 62c-90 0 -136 68 -136 182c0 113 47 180 136 180c78 0 141 -53 141 -180s-66 -182 -141 -182zM221 651h85v-92h-85v92z" />
    <glyph glyph-name="uni1EA1.alt" horiz-adv-x="549" 
d="M482 490v-490h-82l-3 67c-31 -47 -77 -79 -159 -79c-118 0 -204 96 -204 256c0 158 89 254 214 254c71 0 122 -30 149 -72v64h85zM260 62c75 0 141 55 141 182s-63 180 -141 180c-89 0 -136 -67 -136 -180c0 -114 46 -182 136 -182zM214 -49h85v-92h-85v92z" />
    <glyph glyph-name="l.alt" horiz-adv-x="231" 
d="M65 125v539h85v-527c0 -52 3 -65 52 -65h18v-72h-37c-96 0 -118 21 -118 125z" />
    <glyph glyph-name="lacute.alt" horiz-adv-x="231" 
d="M65 125v539h85v-527c0 -52 3 -65 52 -65h18v-72h-37c-96 0 -118 21 -118 125zM290 803l-138 -105h-84l102 105h120z" />
    <glyph glyph-name="lcaron.alt" horiz-adv-x="259" 
d="M299 664l-65 -158h-54l28 158h91zM65 125v539h85v-527c0 -52 3 -65 52 -65h18v-72h-37c-96 0 -118 21 -118 125z" />
    <glyph glyph-name="lcommaaccent.alt" horiz-adv-x="231" 
d="M65 125v539h85v-527c0 -52 3 -65 52 -65h18v-72h-37c-96 0 -118 21 -118 125zM67 -116v83h88v-89l-41 -83h-50l36 89h-33z" />
    <glyph glyph-name="ldot.alt" horiz-adv-x="231" 
d="M65 706v92h85v-92h-85zM65 125v539h85v-527c0 -52 3 -65 52 -65h18v-72h-37c-96 0 -118 21 -118 125z" />
    <glyph glyph-name="lslash.alt" horiz-adv-x="231" 
d="M-2 248v71l67 46v299h85v-241l67 46v-71l-67 -46v-215c0 -52 3 -65 52 -65h18v-72h-37c-96 0 -118 21 -118 125v169z" />
    <glyph glyph-name="zero.plf" horiz-adv-x="615" 
d="M307 -12c-179 0 -262 137 -262 347c0 209 83 341 262 341s263 -132 263 -341c0 -210 -84 -347 -263 -347zM307 62c106 0 173 89 173 273s-67 267 -173 267s-172 -83 -172 -267s66 -273 172 -273z" />
    <glyph glyph-name="zeroslashed.plf" horiz-adv-x="615" 
d="M307 -12c-179 0 -262 137 -262 347c0 209 83 341 262 341s263 -132 263 -341c0 -210 -84 -347 -263 -347zM307 62c106 0 173 89 173 273c0 10 0 20 -1 29l-336 -132c21 -115 80 -170 164 -170zM135 335v-28l336 131c-22 112 -81 164 -164 164c-106 0 -172 -83 -172 -267z
" />
    <glyph glyph-name="one.plf" horiz-adv-x="342" 
d="M252 0h-85v517h-156v58c97 3 146 15 183 89h58v-664z" />
    <glyph glyph-name="two.plf" horiz-adv-x="548" 
d="M281 676c124 0 214 -63 214 -177c0 -156 -165 -282 -346 -420h364v-79h-485v76c238 176 377 293 377 412c0 70 -46 114 -126 114c-73 0 -143 -39 -145 -150l-87 2c-2 129 91 222 234 222z" />
    <glyph glyph-name="three.plf" horiz-adv-x="546" 
d="M262 62c89 0 152 44 152 124c0 95 -86 126 -194 126h-14v76h11c117 0 179 33 179 111c0 68 -59 103 -131 103c-90 0 -139 -52 -146 -127l-88 7c10 113 97 194 236 194c115 0 219 -46 219 -169c0 -68 -39 -125 -110 -153c100 -32 128 -98 128 -167
c0 -134 -118 -199 -243 -199c-158 0 -231 98 -240 203l87 7c10 -82 59 -136 154 -136z" />
    <glyph glyph-name="four.plf" horiz-adv-x="580" 
d="M351 548l-241 -302h241v302zM560 246v-80h-124v-166h-85v166h-335v80l334 418h86v-418h124z" />
    <glyph glyph-name="five.plf" horiz-adv-x="564" 
d="M282 62c81 0 150 54 150 156c0 110 -78 155 -152 155c-67 0 -115 -38 -130 -71l-85 4l44 358h387v-82h-318l-24 -185c36 34 90 50 146 50c118 0 222 -82 222 -228c0 -152 -115 -231 -241 -231c-156 0 -227 99 -240 201l87 7c13 -82 59 -134 154 -134z" />
    <glyph glyph-name="six.plf" horiz-adv-x="572" 
d="M143 213c0 -92 57 -151 146 -151c87 0 148 60 148 151c0 90 -60 152 -147 152c-88 0 -147 -62 -147 -152zM298 602c-104 0 -161 -98 -166 -252c31 52 89 92 178 92c125 0 217 -92 217 -225c0 -124 -93 -229 -237 -229c-168 0 -245 115 -245 320c0 189 68 368 263 368
c132 0 194 -81 208 -165l-92 -1c-11 60 -57 92 -126 92z" />
    <glyph glyph-name="seven.plf" horiz-adv-x="477" 
d="M10 581v83h467v-83c-167 -135 -270 -329 -286 -581h-102c15 242 122 436 289 581h-368z" />
    <glyph glyph-name="eight.plf" horiz-adv-x="582" 
d="M291 676c138 0 225 -72 225 -170c0 -54 -26 -117 -93 -152c88 -36 114 -107 114 -167c0 -127 -107 -199 -246 -199s-246 72 -246 199c0 60 26 131 114 167c-67 35 -93 98 -93 152c0 98 87 170 225 170zM291 315c-95 0 -156 -50 -156 -128s61 -125 156 -125
s156 47 156 125s-61 128 -156 128zM431 497c0 66 -56 105 -140 105s-140 -39 -140 -105c0 -67 56 -114 140 -114s140 47 140 114z" />
    <glyph glyph-name="nine.plf" horiz-adv-x="567" 
d="M424 451c0 92 -57 151 -146 151c-87 0 -148 -60 -148 -151c0 -90 60 -152 147 -152c88 0 147 62 147 152zM269 62c104 0 161 98 166 252c-31 -52 -89 -92 -178 -92c-125 0 -217 92 -217 225c0 124 93 229 237 229c168 0 245 -115 245 -320c0 -189 -66 -368 -261 -368
c-132 0 -196 81 -210 165l92 1c11 -60 57 -92 126 -92z" />
    <glyph glyph-name="zero.pof" horiz-adv-x="577" 
d="M288 -11c-169 0 -248 126 -248 316s79 312 248 312s249 -122 249 -312s-80 -316 -249 -316zM288 63c98 0 160 80 160 242s-62 238 -160 238c-97 0 -158 -76 -158 -238s61 -242 158 -242z" />
    <glyph glyph-name="zeroslashed.pof" horiz-adv-x="577" 
d="M288 -11c-169 0 -248 126 -248 316s79 312 248 312s249 -122 249 -312s-80 -316 -249 -316zM288 63c98 0 160 80 160 242c0 8 0 15 -1 23l-308 -122c21 -96 74 -143 149 -143zM130 305v-25l309 121c-21 96 -75 142 -151 142c-97 0 -158 -76 -158 -238z" />
    <glyph glyph-name="one.pof" horiz-adv-x="311" 
d="M231 0h-85v466h-146v61c92 3 138 12 172 80h59v-607z" />
    <glyph glyph-name="two.pof" horiz-adv-x="516" 
d="M266 617c117 0 203 -58 203 -163c0 -134 -152 -247 -323 -375h340v-79h-458v76c222 160 351 264 351 369c0 61 -42 98 -115 98c-67 0 -132 -34 -134 -132l-86 1c-2 121 87 205 222 205z" />
    <glyph glyph-name="three.pof" horiz-adv-x="516" 
d="M244 63c82 0 140 38 140 107c0 82 -79 110 -180 110h-15v76h12c108 0 166 30 166 97c0 60 -54 90 -120 90c-84 0 -129 -47 -137 -114l-86 8c10 106 92 180 225 180c108 0 208 -44 208 -157c0 -62 -37 -112 -102 -138c91 -28 119 -88 119 -151c0 -122 -112 -182 -231 -182
c-149 0 -219 90 -228 187l86 8c9 -71 55 -121 143 -121z" />
    <glyph glyph-name="four.pof" horiz-adv-x="526" 
d="M320 486l-221 -257h221v257zM521 229v-81h-116v-148h-85v148h-315v79l315 379h85v-377h116z" />
    <glyph glyph-name="five.pof" horiz-adv-x="524" 
d="M262 63c76 0 139 47 139 136c0 95 -72 135 -141 135c-62 0 -107 -32 -121 -62l-83 4l41 330h368v-81h-299l-22 -158c33 27 83 41 137 41c111 0 209 -73 209 -209c0 -137 -108 -210 -229 -210c-147 0 -215 92 -227 186l86 8c12 -71 54 -120 142 -120z" />
    <glyph glyph-name="six.pof" horiz-adv-x="543" 
d="M142 195c0 -81 53 -132 135 -132c80 0 136 52 136 132c0 78 -55 132 -135 132c-81 0 -136 -54 -136 -132zM285 543c-96 0 -149 -84 -153 -217c29 43 83 77 165 77c118 0 206 -82 206 -206c0 -117 -89 -208 -225 -208c-160 0 -233 112 -233 294c0 172 65 334 249 334
c126 0 186 -79 198 -156l-90 -1c-10 53 -53 83 -117 83z" />
    <glyph glyph-name="seven.pof" horiz-adv-x="453" 
d="M10 525v81h443v-79c-158 -135 -253 -300 -268 -527h-101c14 219 117 393 272 525h-346z" />
    <glyph glyph-name="eight.pof" horiz-adv-x="546" 
d="M273 617c131 0 213 -67 213 -156c0 -51 -24 -106 -87 -138c82 -35 107 -96 107 -152c0 -117 -102 -182 -233 -182c-132 0 -233 65 -233 182c0 56 25 117 106 152c-61 31 -86 87 -86 138c0 89 82 156 213 156zM273 284c-88 0 -143 -44 -143 -111c0 -68 55 -110 143 -110
c87 0 143 42 143 110c0 67 -56 111 -143 111zM401 451c0 57 -51 92 -128 92s-129 -35 -129 -92s52 -98 129 -98s128 41 128 98z" />
    <glyph glyph-name="nine.pof" horiz-adv-x="542" 
d="M401 411c0 80 -54 132 -135 132s-137 -52 -137 -132c0 -78 56 -132 136 -132c81 0 136 54 136 132zM257 63c96 0 150 84 154 216c-29 -43 -83 -76 -165 -76c-118 0 -206 81 -206 205c0 116 88 209 224 209c161 0 233 -112 233 -294c0 -173 -63 -334 -247 -334
c-126 0 -187 79 -200 156l91 1c10 -54 53 -83 116 -83z" />
    <glyph glyph-name="zero.tlf" horiz-adv-x="630" 
d="M314 -12c-179 0 -262 137 -262 347c0 209 83 341 262 341s263 -132 263 -341c0 -210 -84 -347 -263 -347zM314 62c106 0 173 89 173 273s-67 267 -173 267s-172 -83 -172 -267s66 -273 172 -273z" />
    <glyph glyph-name="zeroslashed.tlf" horiz-adv-x="630" 
d="M314 -12c-179 0 -262 137 -262 347c0 209 83 341 262 341s263 -132 263 -341c0 -210 -84 -347 -263 -347zM314 62c106 0 173 89 173 273c0 10 0 20 -1 29l-336 -132c21 -115 80 -170 164 -170zM142 335v-28l336 131c-22 112 -81 164 -164 164c-106 0 -172 -83 -172 -267z
" />
    <glyph glyph-name="one.tlf" horiz-adv-x="630" 
d="M367 78h161v-78h-426v78h180v440h-179v58c103 3 169 15 206 89h58v-587z" />
    <glyph glyph-name="two.tlf" horiz-adv-x="630" 
d="M325 676c124 0 214 -63 214 -177c0 -156 -165 -282 -346 -420h364v-79h-485v76c238 176 377 293 377 412c0 70 -46 114 -126 114c-73 0 -143 -39 -145 -150l-87 2c-2 129 91 222 234 222z" />
    <glyph glyph-name="three.tlf" horiz-adv-x="630" 
d="M314 62c89 0 152 44 152 124c0 95 -86 126 -194 126h-14v76h11c117 0 179 33 179 111c0 68 -59 103 -131 103c-90 0 -139 -52 -146 -127l-88 7c10 113 97 194 236 194c115 0 219 -46 219 -169c0 -68 -39 -125 -110 -153c100 -32 128 -98 128 -167
c0 -134 -118 -199 -243 -199c-158 0 -231 98 -240 203l87 7c10 -82 59 -136 154 -136z" />
    <glyph glyph-name="four.tlf" horiz-adv-x="630" 
d="M378 548l-241 -302h241v302zM587 246v-80h-124v-166h-85v166h-335v80l334 418h86v-418h124z" />
    <glyph glyph-name="five.tlf" horiz-adv-x="630" 
d="M315 62c81 0 150 54 150 156c0 110 -78 155 -152 155c-67 0 -115 -38 -130 -71l-85 4l44 358h387v-82h-318l-24 -185c36 34 90 50 146 50c118 0 222 -82 222 -228c0 -152 -115 -231 -241 -231c-156 0 -227 99 -240 201l87 7c13 -82 59 -134 154 -134z" />
    <glyph glyph-name="six.tlf" horiz-adv-x="630" 
d="M172 213c0 -92 57 -151 146 -151c87 0 148 60 148 151c0 90 -60 152 -147 152c-88 0 -147 -62 -147 -152zM327 602c-104 0 -161 -98 -166 -252c31 52 89 92 178 92c125 0 217 -92 217 -225c0 -124 -93 -229 -237 -229c-168 0 -245 115 -245 320c0 189 68 368 263 368
c132 0 194 -81 208 -165l-92 -1c-11 60 -57 92 -126 92z" />
    <glyph glyph-name="seven.tlf" horiz-adv-x="630" 
d="M81 581v83h467v-83c-167 -135 -270 -329 -286 -581h-102c15 242 122 436 289 581h-368z" />
    <glyph glyph-name="eight.tlf" horiz-adv-x="630" 
d="M315 676c138 0 225 -72 225 -170c0 -54 -26 -117 -93 -152c88 -36 114 -107 114 -167c0 -127 -107 -199 -246 -199s-246 72 -246 199c0 60 26 131 114 167c-67 35 -93 98 -93 152c0 98 87 170 225 170zM315 315c-95 0 -156 -50 -156 -128s61 -125 156 -125
s156 47 156 125s-61 128 -156 128zM455 497c0 66 -56 105 -140 105s-140 -39 -140 -105c0 -67 56 -114 140 -114s140 47 140 114z" />
    <glyph glyph-name="nine.tlf" horiz-adv-x="630" 
d="M458 451c0 92 -57 151 -146 151c-87 0 -148 -60 -148 -151c0 -90 60 -152 147 -152c88 0 147 62 147 152zM303 62c104 0 161 98 166 252c-31 -52 -89 -92 -178 -92c-125 0 -217 92 -217 225c0 124 93 229 237 229c168 0 245 -115 245 -320c0 -189 -66 -368 -261 -368
c-132 0 -196 81 -210 165l92 1c11 -60 57 -92 126 -92z" />
    <glyph glyph-name="zero.superior" unicode="&#x2070;" horiz-adv-x="371" 
d="M187 400c-103 0 -153 80 -153 197c0 118 50 196 153 196c102 0 152 -78 152 -196c0 -117 -50 -197 -152 -197zM187 453c54 0 83 50 83 144c0 95 -29 143 -83 143c-55 0 -84 -48 -84 -143c0 -94 29 -144 84 -144z" />
    <glyph glyph-name="zeroslashed.superior" horiz-adv-x="371" 
d="M187 400c-103 0 -153 80 -153 197c0 118 50 196 153 196c102 0 152 -78 152 -196c0 -117 -50 -197 -152 -197zM187 740c-54 0 -83 -46 -84 -136l164 35c-8 67 -35 101 -80 101zM187 453c51 0 80 45 83 131l-164 -35c8 -63 36 -96 81 -96z" />
    <glyph glyph-name="one.superior" unicode="&#xb9;" horiz-adv-x="215" 
d="M163 407h-67v285h-84v46c56 2 82 6 101 48h50v-379z" />
    <glyph glyph-name="two.superior" unicode="&#xb2;" horiz-adv-x="322" 
d="M168 793c76 0 129 -37 129 -103c0 -76 -85 -143 -190 -225h184v-58h-270v55c125 100 206 161 206 223c0 35 -29 55 -64 55c-34 0 -68 -19 -68 -78h-67c-1 79 55 131 140 131z" />
    <glyph glyph-name="three.superior" unicode="&#xb3;" horiz-adv-x="338" 
d="M167 453c42 0 75 22 75 61c0 47 -44 63 -99 63h-14v55h11c58 0 92 18 92 56c0 35 -30 52 -64 52c-45 0 -70 -29 -77 -69l-65 7c11 69 60 115 146 115c64 0 129 -29 129 -101c0 -38 -23 -68 -54 -84c43 -17 64 -54 64 -93c0 -77 -67 -115 -146 -115
c-88 0 -135 57 -143 119l65 7c7 -40 31 -73 80 -73z" />
    <glyph glyph-name="four.superior" unicode="&#x2074;" horiz-adv-x="353" 
d="M204 697l-115 -142h115v142zM338 555v-60h-67v-88h-67v88h-189v56l190 235h66v-231h67z" />
    <glyph glyph-name="five.superior" unicode="&#x2075;" horiz-adv-x="339" 
d="M169 453c41 0 73 27 73 78c0 55 -38 79 -75 79c-34 0 -59 -18 -67 -37l-62 4l25 209h233v-59h-178l-11 -86c17 13 43 23 78 23c65 0 126 -45 126 -132c0 -86 -66 -132 -143 -132c-90 0 -134 60 -140 119l64 7c6 -40 28 -73 77 -73z" />
    <glyph glyph-name="six.superior" unicode="&#x2076;" horiz-adv-x="340" 
d="M100 529c0 -46 31 -76 73 -76c41 0 72 30 72 76c0 45 -30 76 -72 76s-73 -31 -73 -76zM176 740c-50 0 -80 -47 -81 -121c17 22 48 39 90 39c71 0 129 -49 129 -129c0 -77 -58 -129 -140 -129c-101 0 -146 77 -146 186c0 108 41 207 153 207c82 0 120 -55 125 -104h-67
c-4 32 -30 51 -63 51z" />
    <glyph glyph-name="seven.superior" unicode="&#x2077;" horiz-adv-x="290" 
d="M10 727v59h278v-56c-98 -97 -149 -183 -157 -323h-75c6 134 74 238 161 320h-207z" />
    <glyph glyph-name="eight.superior" unicode="&#x2078;" horiz-adv-x="348" 
d="M174 793c81 0 131 -43 131 -98c0 -33 -13 -66 -47 -86c44 -23 59 -58 59 -94c0 -74 -62 -115 -143 -115s-142 41 -142 115c0 36 15 71 58 94c-31 19 -47 53 -47 86c0 55 50 98 131 98zM174 581c-45 0 -73 -26 -73 -64s28 -64 73 -64s74 26 74 64s-29 64 -74 64zM239 687
c0 32 -25 53 -65 53s-65 -21 -65 -53s25 -56 65 -56s65 24 65 56z" />
    <glyph glyph-name="nine.superior" unicode="&#x2079;" horiz-adv-x="336" 
d="M238 664c0 46 -31 76 -73 76s-72 -29 -72 -76c0 -45 30 -76 72 -76s73 31 73 76zM161 453c51 0 81 47 81 121c-16 -22 -47 -39 -88 -39c-72 0 -130 48 -130 128c0 76 55 130 139 130c104 0 147 -77 147 -186c0 -108 -41 -207 -152 -207c-82 0 -122 55 -127 103l68 1
c4 -32 29 -51 62 -51z" />
    <glyph glyph-name="zero.inferior" unicode="&#x2080;" horiz-adv-x="371" 
d="M187 -127c-103 0 -153 80 -153 197c0 118 50 196 153 196c102 0 152 -78 152 -196c0 -117 -50 -197 -152 -197zM187 -74c54 0 83 50 83 144c0 95 -29 143 -83 143c-55 0 -84 -48 -84 -143c0 -94 29 -144 84 -144z" />
    <glyph glyph-name="zeroslashed.inferior" horiz-adv-x="371" 
d="M187 -127c-103 0 -153 80 -153 197c0 118 50 196 153 196c102 0 152 -78 152 -196c0 -117 -50 -197 -152 -197zM187 213c-54 0 -83 -46 -84 -136l164 35c-8 67 -35 101 -80 101zM187 -74c51 0 80 45 83 130l-164 -35c9 -62 36 -95 81 -95z" />
    <glyph glyph-name="one.inferior" unicode="&#x2081;" horiz-adv-x="215" 
d="M163 -120h-67v285h-84v46c56 2 82 6 101 48h50v-379z" />
    <glyph glyph-name="two.inferior" unicode="&#x2082;" horiz-adv-x="322" 
d="M168 266c76 0 129 -37 129 -103c0 -76 -85 -143 -190 -225h184v-58h-270v55c125 100 206 161 206 223c0 35 -29 55 -64 55c-34 0 -68 -19 -68 -78h-67c-1 79 55 131 140 131z" />
    <glyph glyph-name="three.inferior" unicode="&#x2083;" horiz-adv-x="338" 
d="M167 -74c42 0 75 22 75 61c0 47 -44 63 -99 63h-14v55h11c58 0 92 18 92 56c0 35 -30 52 -64 52c-45 0 -70 -29 -77 -69l-65 7c11 69 60 115 146 115c64 0 129 -29 129 -101c0 -38 -23 -68 -54 -84c43 -17 64 -54 64 -93c0 -77 -67 -115 -146 -115
c-88 0 -135 57 -143 119l65 7c7 -40 31 -73 80 -73z" />
    <glyph glyph-name="four.inferior" unicode="&#x2084;" horiz-adv-x="353" 
d="M204 170l-115 -142h115v142zM338 28v-60h-67v-88h-67v88h-189v56l190 235h66v-231h67z" />
    <glyph glyph-name="five.inferior" unicode="&#x2085;" horiz-adv-x="339" 
d="M169 -74c41 0 73 27 73 78c0 55 -38 79 -75 79c-34 0 -59 -18 -67 -37l-62 4l25 209h233v-59h-178l-11 -86c17 13 43 23 78 23c65 0 126 -45 126 -132c0 -86 -66 -132 -143 -132c-90 0 -134 60 -140 119l64 7c6 -40 28 -73 77 -73z" />
    <glyph glyph-name="six.inferior" unicode="&#x2086;" horiz-adv-x="340" 
d="M100 2c0 -46 31 -76 73 -76c41 0 72 30 72 76c0 45 -30 76 -72 76s-73 -31 -73 -76zM176 213c-50 0 -80 -47 -81 -121c17 22 48 39 90 39c71 0 129 -49 129 -129c0 -77 -58 -129 -140 -129c-101 0 -146 77 -146 186c0 108 41 207 153 207c82 0 120 -55 125 -104h-67
c-4 32 -30 51 -63 51z" />
    <glyph glyph-name="seven.inferior" unicode="&#x2087;" horiz-adv-x="290" 
d="M10 200v59h278v-56c-98 -97 -149 -183 -157 -323h-75c6 134 74 238 161 320h-207z" />
    <glyph glyph-name="eight.inferior" unicode="&#x2088;" horiz-adv-x="348" 
d="M174 266c81 0 131 -43 131 -98c0 -33 -13 -66 -47 -86c44 -23 59 -58 59 -94c0 -74 -62 -115 -143 -115s-142 41 -142 115c0 36 15 71 58 94c-31 19 -47 53 -47 86c0 55 50 98 131 98zM174 54c-45 0 -73 -26 -73 -64s28 -64 73 -64s74 26 74 64s-29 64 -74 64zM239 160
c0 32 -25 53 -65 53s-65 -21 -65 -53s25 -56 65 -56s65 24 65 56z" />
    <glyph glyph-name="nine.inferior" unicode="&#x2089;" horiz-adv-x="336" 
d="M238 137c0 46 -31 76 -73 76s-72 -29 -72 -76c0 -45 30 -76 72 -76s73 31 73 76zM161 -74c51 0 81 47 81 121c-16 -22 -47 -39 -88 -39c-72 0 -130 48 -130 128c0 76 55 130 139 130c104 0 147 -77 147 -186c0 -108 -41 -207 -152 -207c-82 0 -122 55 -127 103l68 1
c4 -32 29 -51 62 -51z" />
    <glyph glyph-name="zero.denominator" horiz-adv-x="371" 
d="M187 -7c-103 0 -153 80 -153 197c0 118 50 196 153 196c102 0 152 -78 152 -196c0 -117 -50 -197 -152 -197zM187 46c54 0 83 50 83 144c0 95 -29 143 -83 143c-55 0 -84 -48 -84 -143c0 -94 29 -144 84 -144z" />
    <glyph glyph-name="zeroslashed.denominator" horiz-adv-x="371" 
d="M187 -7c-103 0 -153 80 -153 197c0 118 50 196 153 196c102 0 152 -78 152 -196c0 -117 -50 -197 -152 -197zM187 333c-54 0 -83 -46 -84 -136l164 35c-8 67 -35 101 -80 101zM187 46c51 0 80 45 83 130l-164 -35c9 -63 36 -95 81 -95z" />
    <glyph glyph-name="one.denominator" horiz-adv-x="215" 
d="M163 0h-67v285h-84v46c56 2 82 6 101 48h50v-379z" />
    <glyph glyph-name="two.denominator" horiz-adv-x="322" 
d="M168 386c76 0 129 -37 129 -103c0 -76 -85 -143 -190 -225h184v-58h-270v55c125 100 206 161 206 223c0 35 -29 55 -64 55c-34 0 -68 -19 -68 -78h-67c-1 79 55 131 140 131z" />
    <glyph glyph-name="three.denominator" horiz-adv-x="338" 
d="M167 46c42 0 75 22 75 61c0 47 -44 63 -99 63h-14v55h11c58 0 92 18 92 56c0 35 -30 52 -64 52c-45 0 -70 -29 -77 -69l-65 7c11 69 60 115 146 115c64 0 129 -29 129 -101c0 -38 -23 -68 -54 -84c43 -17 64 -54 64 -93c0 -77 -67 -115 -146 -115c-88 0 -135 57 -143 119
l65 7c7 -40 31 -73 80 -73z" />
    <glyph glyph-name="four.denominator" horiz-adv-x="353" 
d="M204 290l-115 -142h115v142zM338 148v-60h-67v-88h-67v88h-189v56l190 235h66v-231h67z" />
    <glyph glyph-name="five.denominator" horiz-adv-x="339" 
d="M169 46c41 0 73 27 73 78c0 55 -38 79 -75 79c-34 0 -59 -18 -67 -37l-62 4l25 209h233v-59h-178l-11 -86c17 13 43 23 78 23c65 0 126 -45 126 -132c0 -86 -66 -132 -143 -132c-90 0 -134 60 -140 119l64 7c6 -40 28 -73 77 -73z" />
    <glyph glyph-name="six.denominator" horiz-adv-x="340" 
d="M100 122c0 -46 31 -76 73 -76c41 0 72 30 72 76c0 45 -30 76 -72 76s-73 -31 -73 -76zM176 333c-50 0 -80 -47 -81 -121c17 22 48 39 90 39c71 0 129 -49 129 -129c0 -77 -58 -129 -140 -129c-101 0 -146 77 -146 186c0 108 41 207 153 207c82 0 120 -55 125 -104h-67
c-4 32 -30 51 -63 51z" />
    <glyph glyph-name="seven.denominator" horiz-adv-x="290" 
d="M10 320v59h278v-56c-98 -97 -149 -183 -157 -323h-75c6 134 74 238 161 320h-207z" />
    <glyph glyph-name="eight.denominator" horiz-adv-x="348" 
d="M174 386c81 0 131 -43 131 -98c0 -33 -13 -66 -47 -86c44 -23 59 -58 59 -94c0 -74 -62 -115 -143 -115s-142 41 -142 115c0 36 15 71 58 94c-31 19 -47 53 -47 86c0 55 50 98 131 98zM174 174c-45 0 -73 -26 -73 -64s28 -64 73 -64s74 26 74 64s-29 64 -74 64zM239 280
c0 32 -25 53 -65 53s-65 -21 -65 -53s25 -56 65 -56s65 24 65 56z" />
    <glyph glyph-name="nine.denominator" horiz-adv-x="336" 
d="M238 257c0 46 -31 76 -73 76s-72 -29 -72 -76c0 -45 30 -76 72 -76s73 31 73 76zM161 46c51 0 81 47 81 121c-16 -22 -47 -39 -88 -39c-72 0 -130 48 -130 128c0 76 55 130 139 130c104 0 147 -77 147 -186c0 -108 -41 -207 -152 -207c-82 0 -122 55 -127 103l68 1
c4 -32 29 -51 62 -51z" />
    <glyph glyph-name="zero.numerator" horiz-adv-x="371" 
d="M187 278c-103 0 -153 80 -153 197c0 118 50 196 153 196c102 0 152 -78 152 -196c0 -117 -50 -197 -152 -197zM187 331c54 0 83 50 83 144c0 95 -29 143 -83 143c-55 0 -84 -48 -84 -143c0 -94 29 -144 84 -144z" />
    <glyph glyph-name="zeroslashed.numerator" horiz-adv-x="371" 
d="M187 278c-103 0 -153 80 -153 197c0 118 50 196 153 196c102 0 152 -78 152 -196c0 -117 -50 -197 -152 -197zM187 618c-54 0 -83 -46 -84 -136l164 35c-8 67 -35 101 -80 101zM187 331c51 0 80 45 83 130l-164 -35c9 -63 36 -95 81 -95z" />
    <glyph glyph-name="one.numerator" horiz-adv-x="215" 
d="M163 285h-67v285h-84v46c56 2 82 6 101 48h50v-379z" />
    <glyph glyph-name="two.numerator" horiz-adv-x="322" 
d="M168 671c76 0 129 -37 129 -103c0 -76 -85 -143 -190 -225h184v-58h-270v55c125 100 206 161 206 223c0 35 -29 55 -64 55c-34 0 -68 -19 -68 -78h-67c-1 79 55 131 140 131z" />
    <glyph glyph-name="three.numerator" horiz-adv-x="338" 
d="M167 331c42 0 75 22 75 61c0 47 -44 63 -99 63h-14v55h11c58 0 92 18 92 56c0 35 -30 52 -64 52c-45 0 -70 -29 -77 -69l-65 7c11 69 60 115 146 115c64 0 129 -29 129 -101c0 -38 -23 -68 -54 -84c43 -17 64 -54 64 -93c0 -77 -67 -115 -146 -115
c-88 0 -135 57 -143 119l65 7c7 -40 31 -73 80 -73z" />
    <glyph glyph-name="four.numerator" horiz-adv-x="353" 
d="M204 575l-115 -142h115v142zM338 433v-60h-67v-88h-67v88h-189v56l190 235h66v-231h67z" />
    <glyph glyph-name="five.numerator" horiz-adv-x="339" 
d="M169 331c41 0 73 27 73 78c0 55 -38 79 -75 79c-34 0 -59 -18 -67 -37l-62 4l25 209h233v-59h-178l-11 -86c17 13 43 23 78 23c65 0 126 -45 126 -132c0 -86 -66 -132 -143 -132c-90 0 -134 60 -140 119l64 7c6 -40 28 -73 77 -73z" />
    <glyph glyph-name="six.numerator" horiz-adv-x="340" 
d="M100 407c0 -46 31 -76 73 -76c41 0 72 30 72 76c0 45 -30 76 -72 76s-73 -31 -73 -76zM176 618c-50 0 -80 -47 -81 -121c17 22 48 39 90 39c71 0 129 -49 129 -129c0 -77 -58 -129 -140 -129c-101 0 -146 77 -146 186c0 108 41 207 153 207c82 0 120 -55 125 -104h-67
c-4 32 -30 51 -63 51z" />
    <glyph glyph-name="seven.numerator" horiz-adv-x="290" 
d="M10 605v59h278v-56c-98 -97 -149 -183 -157 -323h-75c6 134 74 238 161 320h-207z" />
    <glyph glyph-name="eight.numerator" horiz-adv-x="348" 
d="M174 671c81 0 131 -43 131 -98c0 -33 -13 -66 -47 -86c44 -23 59 -58 59 -94c0 -74 -62 -115 -143 -115s-142 41 -142 115c0 36 15 71 58 94c-31 19 -47 53 -47 86c0 55 50 98 131 98zM174 459c-45 0 -73 -26 -73 -64s28 -64 73 -64s74 26 74 64s-29 64 -74 64zM239 565
c0 32 -25 53 -65 53s-65 -21 -65 -53s25 -56 65 -56s65 24 65 56z" />
    <glyph glyph-name="nine.numerator" horiz-adv-x="336" 
d="M238 542c0 46 -31 76 -73 76s-72 -29 -72 -76c0 -45 30 -76 72 -76s73 31 73 76zM161 331c51 0 81 47 81 121c-16 -22 -47 -39 -88 -39c-72 0 -130 48 -130 128c0 76 55 130 139 130c104 0 147 -77 147 -186c0 -108 -41 -207 -152 -207c-82 0 -122 55 -127 103l68 1
c4 -32 29 -51 62 -51z" />
    <glyph glyph-name="a.superior" horiz-adv-x="316" 
d="M100 600l-64 2c5 54 48 92 124 92c82 0 119 -33 118 -107c-1 -25 -2 -64 -2 -84c0 -33 2 -63 6 -96h-63l-2 32c-18 -26 -45 -39 -89 -39c-64 0 -101 44 -101 91c0 27 11 47 28 60c25 18 59 26 104 30l51 6v10c0 36 -21 47 -53 47c-34 0 -55 -15 -57 -44zM212 522v17
l-51 -6c-46 -5 -65 -18 -65 -42c0 -22 18 -39 47 -39c36 0 69 21 69 70z" />
    <glyph glyph-name="b.superior" horiz-adv-x="338" 
d="M45 407v379h68v-130c18 25 44 37 79 37c70 0 120 -55 120 -147c0 -90 -53 -146 -125 -146c-35 0 -60 15 -75 34l-1 -27h-66zM178 639c-41 0 -68 -34 -68 -93c0 -58 27 -93 68 -93c42 0 65 38 65 93c0 56 -23 93 -65 93z" />
    <glyph glyph-name="c.superior" horiz-adv-x="318" 
d="M166 693c61 0 113 -34 127 -97l-65 -10c-5 30 -26 53 -64 53c-39 0 -68 -31 -68 -92c0 -62 29 -94 68 -94c30 0 58 14 66 55l65 -9c-15 -66 -70 -99 -132 -99c-87 0 -137 61 -137 146c0 86 51 147 140 147z" />
    <glyph glyph-name="d.superior" horiz-adv-x="338" 
d="M294 786v-379h-66v31c-19 -25 -46 -38 -81 -38c-70 0 -121 55 -121 147c0 89 54 146 125 146c35 0 59 -15 75 -34v127h68zM161 453c40 0 67 34 67 94c0 58 -26 92 -67 92c-42 0 -65 -37 -65 -93c0 -55 22 -93 65 -93z" />
    <glyph glyph-name="e.superior" horiz-adv-x="327" 
d="M167 400c-92 0 -141 65 -141 147c0 86 56 146 139 146c89 0 141 -67 136 -167h-207c2 -43 31 -73 72 -73c38 0 58 19 66 43l65 -8c-13 -41 -53 -88 -130 -88zM166 642c-34 0 -70 -19 -72 -67h139c-2 44 -33 67 -67 67z" />
    <glyph glyph-name="f.superior" horiz-adv-x="190" 
d="M53 687v16c0 70 29 83 99 83h25v-55h-16c-34 0 -40 -5 -40 -35v-9h56v-52h-56v-228h-68v228h-40v52h40z" />
    <glyph glyph-name="g.superior" horiz-adv-x="335" 
d="M225 423v25c-18 -25 -43 -36 -78 -36c-70 0 -121 54 -121 140c0 85 54 141 125 141c35 0 60 -15 75 -34l1 28h66v-251c0 -50 -12 -80 -33 -99c-23 -22 -57 -31 -99 -31c-62 0 -114 24 -123 89l65 3c6 -27 24 -39 60 -39c19 0 34 4 45 13s17 24 17 51zM161 465
c40 0 67 29 67 87c0 54 -26 87 -67 87c-42 0 -65 -37 -65 -87c0 -55 22 -87 65 -87z" />
    <glyph glyph-name="h.superior" horiz-adv-x="334" 
d="M113 786v-133c16 26 47 40 84 40c36 0 62 -12 78 -34c13 -17 19 -42 19 -78v-174h-67v158c0 25 -3 42 -11 54c-8 11 -21 18 -41 18c-48 0 -62 -38 -62 -86v-144h-68v379h68z" />
    <glyph glyph-name="i.superior" horiz-adv-x="157" 
d="M45 687h68v-280h-68v280zM45 786h68v-66h-68v66z" />
    <glyph glyph-name="j.superior" horiz-adv-x="158" 
d="M45 401v286h68v-287c0 -75 -19 -92 -87 -92h-20v55h10c27 0 29 7 29 38zM45 786h68v-66h-68v66z" />
    <glyph glyph-name="k.superior" horiz-adv-x="310" 
d="M45 786h68v-208l102 109h81l-101 -106l107 -174h-78l-75 125l-36 -37v-88h-68v379z" />
    <glyph glyph-name="l.superior" horiz-adv-x="157" 
d="M113 786v-379h-68v379h68z" />
    <glyph glyph-name="m.superior" horiz-adv-x="503" 
d="M45 407v280h68v-34c16 26 44 40 81 40c47 0 68 -22 80 -45c22 30 51 45 94 45c33 0 58 -11 74 -30c14 -18 21 -44 21 -82v-174h-68v160c0 24 -2 42 -10 53c-7 11 -20 17 -39 17c-48 0 -58 -39 -58 -86v-144h-68v160c0 25 -2 43 -10 54c-8 10 -20 16 -39 16
c-47 0 -58 -39 -58 -86v-144h-68z" />
    <glyph glyph-name="n.superior" unicode="&#x207f;" horiz-adv-x="334" 
d="M113 687v-34c16 26 47 40 84 40c36 0 62 -12 78 -34c13 -17 19 -42 19 -78v-174h-67v158c0 25 -3 42 -11 54c-8 11 -21 18 -41 18c-48 0 -62 -38 -62 -86v-144h-68v280h68z" />
    <glyph glyph-name="o.superior" horiz-adv-x="329" 
d="M96 546c0 -60 27 -93 69 -93c41 0 69 33 69 93c0 61 -28 93 -69 93c-42 0 -69 -32 -69 -93zM27 546c0 101 65 147 138 147c72 0 138 -46 138 -147c0 -100 -66 -146 -138 -146c-73 0 -138 46 -138 146z" />
    <glyph glyph-name="p.superior" horiz-adv-x="338" 
d="M113 434v-126h-68v379h66v-33c18 26 46 39 81 39c70 0 120 -55 120 -147c0 -90 -53 -146 -125 -146c-35 0 -59 15 -74 34zM178 639c-41 0 -68 -34 -68 -93c0 -58 27 -93 68 -93c42 0 65 38 65 93c0 56 -23 93 -65 93z" />
    <glyph glyph-name="q.superior" horiz-adv-x="338" 
d="M227 659l1 28h66v-379h-68v129c-18 -25 -44 -37 -79 -37c-70 0 -121 55 -121 147c0 89 54 146 125 146c35 0 60 -15 76 -34zM161 453c40 0 67 34 67 94c0 58 -26 92 -67 92c-42 0 -65 -37 -65 -93c0 -55 22 -93 65 -93z" />
    <glyph glyph-name="r.superior" horiz-adv-x="214" 
d="M203 685v-65c-10 1 -19 2 -29 2c-38 0 -61 -16 -61 -71v-144h-68v280h67v-46c16 30 42 45 76 45c5 0 11 0 15 -1z" />
    <glyph glyph-name="s.superior" horiz-adv-x="298" 
d="M274 608l-62 -9c-6 26 -31 43 -66 43c-28 0 -50 -9 -50 -27c0 -17 17 -26 43 -32l33 -7c58 -13 105 -28 105 -84c0 -59 -57 -92 -123 -92c-73 0 -122 40 -128 93l65 10c4 -29 26 -52 66 -52c33 0 54 11 54 33s-23 28 -51 34l-36 8c-53 11 -91 32 -91 84
c0 51 53 83 117 83c58 0 113 -28 124 -85z" />
    <glyph glyph-name="t.superior" horiz-adv-x="204" 
d="M53 687v82h68v-82h58v-52h-58v-139c0 -30 9 -36 35 -36h22v-53h-49c-63 0 -76 18 -76 76v152h-41v52h41z" />
    <glyph glyph-name="u.superior" horiz-adv-x="332" 
d="M220 407v33c-17 -25 -46 -40 -83 -40c-34 0 -59 11 -75 31c-14 18 -21 44 -21 81v175h68v-161c0 -23 1 -40 9 -51c8 -12 21 -19 41 -19c48 0 61 39 61 88v143h67v-280h-67z" />
    <glyph glyph-name="v.superior" horiz-adv-x="289" 
d="M86 687l61 -194l61 194h71l-104 -280h-59l-105 280h75z" />
    <glyph glyph-name="w.superior" horiz-adv-x="407" 
d="M122 492l47 195h69l47 -194l38 194h73l-74 -280h-65l-54 200l-54 -200h-64l-74 280h73z" />
    <glyph glyph-name="x.superior" horiz-adv-x="306" 
d="M289 687l-97 -134l103 -146h-80l-64 90l-65 -90h-74l103 142l-97 138h79l58 -83l60 83h74z" />
    <glyph glyph-name="y.superior" horiz-adv-x="284" 
d="M61 308h-29v57h26c26 0 36 4 49 37l3 7l-104 278h75l61 -194l63 194h69l-101 -276c-28 -75 -47 -103 -112 -103z" />
    <glyph glyph-name="z.superior" horiz-adv-x="278" 
d="M18 407v49l146 174h-135v57h223v-50l-146 -173h150v-57h-238z" />
    <glyph glyph-name="a.inferior" horiz-adv-x="316" 
d="M100 73l-64 2c5 54 48 92 124 92c82 0 119 -33 118 -107c-1 -25 -2 -64 -2 -84c0 -33 2 -63 6 -96h-63l-2 32c-18 -26 -45 -39 -89 -39c-64 0 -101 44 -101 91c0 27 11 47 28 60c25 18 59 26 104 30l51 6v10c0 36 -21 47 -53 47c-34 0 -55 -15 -57 -44zM212 -5v17l-51 -6
c-46 -5 -65 -18 -65 -42c0 -22 18 -39 47 -39c36 0 69 21 69 70z" />
    <glyph glyph-name="b.inferior" horiz-adv-x="338" 
d="M45 -120v379h68v-130c18 25 44 37 79 37c70 0 120 -55 120 -147c0 -90 -53 -146 -125 -146c-35 0 -60 15 -75 34l-1 -27h-66zM178 112c-41 0 -68 -34 -68 -93c0 -58 27 -93 68 -93c42 0 65 38 65 93c0 56 -23 93 -65 93z" />
    <glyph glyph-name="c.inferior" horiz-adv-x="318" 
d="M166 166c61 0 113 -34 127 -97l-65 -10c-5 30 -26 53 -64 53c-39 0 -68 -31 -68 -92c0 -62 29 -94 68 -94c30 0 58 14 66 55l65 -9c-15 -66 -70 -99 -132 -99c-87 0 -137 61 -137 146c0 86 51 147 140 147z" />
    <glyph glyph-name="d.inferior" horiz-adv-x="338" 
d="M294 259v-379h-66v31c-19 -25 -46 -38 -81 -38c-70 0 -121 55 -121 147c0 89 54 146 125 146c35 0 59 -15 75 -34v127h68zM161 -74c40 0 67 34 67 94c0 58 -26 92 -67 92c-42 0 -65 -37 -65 -93c0 -55 22 -93 65 -93z" />
    <glyph glyph-name="e.inferior" horiz-adv-x="327" 
d="M167 -127c-92 0 -141 65 -141 147c0 86 56 146 139 146c89 0 141 -67 136 -167h-207c2 -43 31 -73 72 -73c38 0 58 19 66 43l65 -8c-13 -41 -53 -88 -130 -88zM166 115c-34 0 -70 -19 -72 -67h139c-2 44 -33 67 -67 67z" />
    <glyph glyph-name="f.inferior" horiz-adv-x="190" 
d="M53 160v16c0 70 29 83 99 83h25v-55h-16c-34 0 -40 -5 -40 -35v-9h56v-52h-56v-228h-68v228h-40v52h40z" />
    <glyph glyph-name="g.inferior" horiz-adv-x="335" 
d="M225 -104v25c-18 -25 -43 -36 -78 -36c-70 0 -121 54 -121 140c0 85 54 141 125 141c35 0 60 -15 75 -34l1 28h66v-251c0 -50 -12 -80 -33 -99c-23 -22 -57 -31 -99 -31c-62 0 -114 24 -123 89l65 3c6 -27 24 -39 60 -39c19 0 34 4 45 13s17 24 17 51zM161 -62
c40 0 67 29 67 87c0 54 -26 87 -67 87c-42 0 -65 -37 -65 -87c0 -55 22 -87 65 -87z" />
    <glyph glyph-name="h.inferior" horiz-adv-x="334" 
d="M113 259v-133c16 26 47 40 84 40c36 0 62 -12 78 -34c13 -17 19 -42 19 -78v-174h-67v158c0 25 -3 42 -11 54c-8 11 -21 18 -41 18c-48 0 -62 -38 -62 -86v-144h-68v379h68z" />
    <glyph glyph-name="i.inferior" horiz-adv-x="157" 
d="M45 160h68v-280h-68v280zM45 259h68v-66h-68v66z" />
    <glyph glyph-name="j.inferior" horiz-adv-x="158" 
d="M45 -126v286h68v-287c0 -75 -19 -92 -87 -92h-20v55h10c27 0 29 7 29 38zM45 259h68v-66h-68v66z" />
    <glyph glyph-name="k.inferior" horiz-adv-x="310" 
d="M45 259h68v-208l102 109h81l-101 -106l107 -174h-78l-75 125l-36 -37v-88h-68v379z" />
    <glyph glyph-name="l.inferior" horiz-adv-x="157" 
d="M113 259v-379h-68v379h68z" />
    <glyph glyph-name="m.inferior" horiz-adv-x="503" 
d="M45 -120v280h68v-34c16 26 44 40 81 40c47 0 68 -22 80 -45c22 30 51 45 94 45c33 0 58 -11 74 -30c14 -18 21 -44 21 -82v-174h-68v160c0 24 -2 42 -10 53c-7 11 -20 17 -39 17c-48 0 -58 -39 -58 -86v-144h-68v160c0 25 -2 43 -10 54c-8 10 -20 16 -39 16
c-47 0 -58 -39 -58 -86v-144h-68z" />
    <glyph glyph-name="n.inferior" horiz-adv-x="334" 
d="M113 160v-34c16 26 47 40 84 40c36 0 62 -12 78 -34c13 -17 19 -42 19 -78v-174h-67v158c0 25 -3 42 -11 54c-8 11 -21 18 -41 18c-48 0 -62 -38 -62 -86v-144h-68v280h68z" />
    <glyph glyph-name="o.inferior" horiz-adv-x="329" 
d="M96 19c0 -60 27 -93 69 -93c41 0 69 33 69 93c0 61 -28 93 -69 93c-42 0 -69 -32 -69 -93zM27 19c0 101 65 147 138 147c72 0 138 -46 138 -147c0 -100 -66 -146 -138 -146c-73 0 -138 46 -138 146z" />
    <glyph glyph-name="p.inferior" horiz-adv-x="338" 
d="M113 -93v-126h-68v379h66v-33c18 26 46 39 81 39c70 0 120 -55 120 -147c0 -90 -53 -146 -125 -146c-35 0 -59 15 -74 34zM178 112c-41 0 -68 -34 -68 -93c0 -58 27 -93 68 -93c42 0 65 38 65 93c0 56 -23 93 -65 93z" />
    <glyph glyph-name="q.inferior" horiz-adv-x="338" 
d="M227 132l1 28h66v-379h-68v129c-18 -25 -44 -37 -79 -37c-70 0 -121 55 -121 147c0 89 54 146 125 146c35 0 60 -15 76 -34zM161 -74c40 0 67 34 67 94c0 58 -26 92 -67 92c-42 0 -65 -37 -65 -93c0 -55 22 -93 65 -93z" />
    <glyph glyph-name="r.inferior" horiz-adv-x="214" 
d="M203 158v-65c-10 1 -19 2 -29 2c-38 0 -61 -16 -61 -71v-144h-68v280h67v-46c16 30 42 45 76 45c5 0 11 0 15 -1z" />
    <glyph glyph-name="s.inferior" horiz-adv-x="298" 
d="M274 81l-62 -9c-6 26 -31 43 -66 43c-28 0 -50 -9 -50 -27c0 -17 17 -26 43 -32l33 -7c58 -13 105 -28 105 -84c0 -59 -57 -92 -123 -92c-73 0 -122 40 -128 93l65 10c4 -29 26 -52 66 -52c33 0 54 11 54 33s-23 28 -51 34l-36 8c-53 11 -91 32 -91 84c0 51 53 83 117 83
c58 0 113 -28 124 -85z" />
    <glyph glyph-name="t.inferior" horiz-adv-x="204" 
d="M53 160v82h68v-82h58v-52h-58v-139c0 -30 9 -36 35 -36h22v-53h-49c-63 0 -76 18 -76 76v152h-41v52h41z" />
    <glyph glyph-name="u.inferior" horiz-adv-x="332" 
d="M220 -120v33c-17 -25 -46 -40 -83 -40c-34 0 -59 11 -75 31c-14 18 -21 44 -21 81v175h68v-161c0 -23 1 -40 9 -51c8 -12 21 -19 41 -19c48 0 61 39 61 88v143h67v-280h-67z" />
    <glyph glyph-name="v.inferior" horiz-adv-x="289" 
d="M86 160l61 -194l61 194h71l-104 -280h-59l-105 280h75z" />
    <glyph glyph-name="w.inferior" horiz-adv-x="407" 
d="M122 -35l47 195h69l47 -194l38 194h73l-74 -280h-65l-54 200l-54 -200h-64l-74 280h73z" />
    <glyph glyph-name="x.inferior" horiz-adv-x="306" 
d="M289 160l-97 -134l103 -146h-80l-64 90l-65 -90h-74l103 142l-97 138h79l58 -83l60 83h74z" />
    <glyph glyph-name="y.inferior" horiz-adv-x="284" 
d="M61 -219h-29v57h26c26 0 36 4 49 37l3 7l-104 278h75l61 -194l63 194h69l-101 -276c-28 -75 -47 -103 -112 -103z" />
    <glyph glyph-name="z.inferior" horiz-adv-x="278" 
d="M18 -120v49l146 174h-135v57h223v-50l-146 -173h150v-57h-238z" />
    <glyph glyph-name="a.denominator" horiz-adv-x="316" 
d="M100 193l-64 2c5 54 48 92 124 92c82 0 119 -33 118 -107c-1 -25 -2 -64 -2 -84c0 -33 2 -63 6 -96h-63l-2 32c-18 -26 -45 -39 -89 -39c-64 0 -101 44 -101 91c0 27 11 47 28 60c25 18 59 26 104 30l51 6v10c0 36 -21 47 -53 47c-34 0 -55 -15 -57 -44zM212 115v17
l-51 -6c-46 -5 -65 -18 -65 -42c0 -22 18 -39 47 -39c36 0 69 21 69 70z" />
    <glyph glyph-name="b.denominator" horiz-adv-x="338" 
d="M45 0v379h68v-130c18 25 44 37 79 37c70 0 120 -55 120 -147c0 -90 -53 -146 -125 -146c-35 0 -60 15 -75 34l-1 -27h-66zM178 232c-41 0 -68 -34 -68 -93c0 -58 27 -93 68 -93c42 0 65 38 65 93c0 56 -23 93 -65 93z" />
    <glyph glyph-name="c.denominator" horiz-adv-x="318" 
d="M166 286c61 0 113 -34 127 -97l-65 -10c-5 30 -26 53 -64 53c-39 0 -68 -31 -68 -92c0 -62 29 -94 68 -94c30 0 58 14 66 55l65 -9c-15 -66 -70 -99 -132 -99c-87 0 -137 61 -137 146c0 86 51 147 140 147z" />
    <glyph glyph-name="d.denominator" horiz-adv-x="338" 
d="M294 379v-379h-66v31c-19 -25 -46 -38 -81 -38c-70 0 -121 55 -121 147c0 89 54 146 125 146c35 0 59 -15 75 -34v127h68zM161 46c40 0 67 34 67 94c0 58 -26 92 -67 92c-42 0 -65 -37 -65 -93c0 -55 22 -93 65 -93z" />
    <glyph glyph-name="e.denominator" horiz-adv-x="327" 
d="M167 -7c-92 0 -141 65 -141 147c0 86 56 146 139 146c89 0 141 -67 136 -167h-207c2 -43 31 -73 72 -73c38 0 58 19 66 43l65 -8c-13 -41 -53 -88 -130 -88zM166 235c-34 0 -70 -19 -72 -67h139c-2 44 -33 67 -67 67z" />
    <glyph glyph-name="f.denominator" horiz-adv-x="190" 
d="M53 280v16c0 70 29 83 99 83h25v-55h-16c-34 0 -40 -5 -40 -35v-9h56v-52h-56v-228h-68v228h-40v52h40z" />
    <glyph glyph-name="g.denominator" horiz-adv-x="335" 
d="M225 16v25c-18 -25 -43 -36 -78 -36c-70 0 -121 54 -121 140c0 85 54 141 125 141c35 0 60 -15 75 -34l1 28h66v-251c0 -50 -12 -80 -33 -99c-23 -22 -57 -31 -99 -31c-62 0 -114 24 -123 89l65 3c6 -27 24 -39 60 -39c19 0 34 4 45 13s17 24 17 51zM161 58
c40 0 67 29 67 87c0 54 -26 87 -67 87c-42 0 -65 -37 -65 -87c0 -55 22 -87 65 -87z" />
    <glyph glyph-name="h.denominator" horiz-adv-x="334" 
d="M113 379v-133c16 26 47 40 84 40c36 0 62 -12 78 -34c13 -17 19 -42 19 -78v-174h-67v158c0 25 -3 42 -11 54c-8 11 -21 18 -41 18c-48 0 -62 -38 -62 -86v-144h-68v379h68z" />
    <glyph glyph-name="i.denominator" horiz-adv-x="157" 
d="M45 280h68v-280h-68v280zM45 379h68v-66h-68v66z" />
    <glyph glyph-name="j.denominator" horiz-adv-x="158" 
d="M45 -6v286h68v-287c0 -75 -19 -92 -87 -92h-20v55h10c27 0 29 7 29 38zM45 379h68v-66h-68v66z" />
    <glyph glyph-name="k.denominator" horiz-adv-x="310" 
d="M45 379h68v-208l102 109h81l-101 -106l107 -174h-78l-75 125l-36 -37v-88h-68v379z" />
    <glyph glyph-name="l.denominator" horiz-adv-x="157" 
d="M113 379v-379h-68v379h68z" />
    <glyph glyph-name="m.denominator" horiz-adv-x="503" 
d="M45 0v280h68v-34c16 26 44 40 81 40c47 0 68 -22 80 -45c22 30 51 45 94 45c33 0 58 -11 74 -30c14 -18 21 -44 21 -82v-174h-68v160c0 24 -2 42 -10 53c-7 11 -20 17 -39 17c-48 0 -58 -39 -58 -86v-144h-68v160c0 25 -2 43 -10 54c-8 10 -20 16 -39 16
c-47 0 -58 -39 -58 -86v-144h-68z" />
    <glyph glyph-name="n.denominator" horiz-adv-x="334" 
d="M113 280v-34c16 26 47 40 84 40c36 0 62 -12 78 -34c13 -17 19 -42 19 -78v-174h-67v158c0 25 -3 42 -11 54c-8 11 -21 18 -41 18c-48 0 -62 -38 -62 -86v-144h-68v280h68z" />
    <glyph glyph-name="o.denominator" horiz-adv-x="329" 
d="M96 139c0 -60 27 -93 69 -93c41 0 69 33 69 93c0 61 -28 93 -69 93c-42 0 -69 -32 -69 -93zM27 139c0 101 65 147 138 147c72 0 138 -46 138 -147c0 -100 -66 -146 -138 -146c-73 0 -138 46 -138 146z" />
    <glyph glyph-name="p.denominator" horiz-adv-x="338" 
d="M113 27v-126h-68v379h66v-33c18 26 46 39 81 39c70 0 120 -55 120 -147c0 -90 -53 -146 -125 -146c-35 0 -59 15 -74 34zM178 232c-41 0 -68 -34 -68 -93c0 -58 27 -93 68 -93c42 0 65 38 65 93c0 56 -23 93 -65 93z" />
    <glyph glyph-name="q.denominator" horiz-adv-x="338" 
d="M227 252l1 28h66v-379h-68v129c-18 -25 -44 -37 -79 -37c-70 0 -121 55 -121 147c0 89 54 146 125 146c35 0 60 -15 76 -34zM161 46c40 0 67 34 67 94c0 58 -26 92 -67 92c-42 0 -65 -37 -65 -93c0 -55 22 -93 65 -93z" />
    <glyph glyph-name="r.denominator" horiz-adv-x="214" 
d="M203 278v-65c-10 1 -19 2 -29 2c-38 0 -61 -16 -61 -71v-144h-68v280h67v-46c16 30 42 45 76 45c5 0 11 0 15 -1z" />
    <glyph glyph-name="s.denominator" horiz-adv-x="298" 
d="M274 201l-62 -9c-6 26 -31 43 -66 43c-28 0 -50 -9 -50 -27c0 -17 17 -26 43 -32l33 -7c58 -13 105 -28 105 -84c0 -59 -57 -92 -123 -92c-73 0 -122 40 -128 93l65 10c4 -29 26 -52 66 -52c33 0 54 11 54 33s-23 28 -51 34l-36 8c-53 11 -91 32 -91 84
c0 51 53 83 117 83c58 0 113 -28 124 -85z" />
    <glyph glyph-name="t.denominator" horiz-adv-x="204" 
d="M53 280v82h68v-82h58v-52h-58v-139c0 -30 9 -36 35 -36h22v-53h-49c-63 0 -76 18 -76 76v152h-41v52h41z" />
    <glyph glyph-name="u.denominator" horiz-adv-x="332" 
d="M220 0v33c-17 -25 -46 -40 -83 -40c-34 0 -59 11 -75 31c-14 18 -21 44 -21 81v175h68v-161c0 -23 1 -40 9 -51c8 -12 21 -19 41 -19c48 0 61 39 61 88v143h67v-280h-67z" />
    <glyph glyph-name="v.denominator" horiz-adv-x="289" 
d="M86 280l61 -194l61 194h71l-104 -280h-59l-105 280h75z" />
    <glyph glyph-name="w.denominator" horiz-adv-x="407" 
d="M122 85l47 195h69l47 -194l38 194h73l-74 -280h-65l-54 200l-54 -200h-64l-74 280h73z" />
    <glyph glyph-name="x.denominator" horiz-adv-x="306" 
d="M289 280l-97 -134l103 -146h-80l-64 90l-65 -90h-74l103 142l-97 138h79l58 -83l60 83h74z" />
    <glyph glyph-name="y.denominator" horiz-adv-x="284" 
d="M61 -99h-29v57h26c26 0 36 4 49 37l3 7l-104 278h75l61 -194l63 194h69l-101 -276c-28 -75 -47 -103 -112 -103z" />
    <glyph glyph-name="z.denominator" horiz-adv-x="278" 
d="M18 0v49l146 174h-135v57h223v-50l-146 -173h150v-57h-238z" />
    <glyph glyph-name="a.numerator" horiz-adv-x="316" 
d="M100 478l-64 2c5 54 48 92 124 92c82 0 119 -33 118 -107c-1 -25 -2 -64 -2 -84c0 -33 2 -63 6 -96h-63l-2 32c-18 -26 -45 -39 -89 -39c-64 0 -101 44 -101 91c0 27 11 47 28 60c25 18 59 26 104 30l51 6v10c0 36 -21 47 -53 47c-34 0 -55 -15 -57 -44zM212 400v17
l-51 -6c-46 -5 -65 -18 -65 -42c0 -22 18 -39 47 -39c36 0 69 21 69 70z" />
    <glyph glyph-name="b.numerator" horiz-adv-x="338" 
d="M45 285v379h68v-130c18 25 44 37 79 37c70 0 120 -55 120 -147c0 -90 -53 -146 -125 -146c-35 0 -60 15 -75 34l-1 -27h-66zM178 517c-41 0 -68 -34 -68 -93c0 -58 27 -93 68 -93c42 0 65 38 65 93c0 56 -23 93 -65 93z" />
    <glyph glyph-name="c.numerator" horiz-adv-x="318" 
d="M166 571c61 0 113 -34 127 -97l-65 -10c-5 30 -26 53 -64 53c-39 0 -68 -31 -68 -92c0 -62 29 -94 68 -94c30 0 58 14 66 55l65 -9c-15 -66 -70 -99 -132 -99c-87 0 -137 61 -137 146c0 86 51 147 140 147z" />
    <glyph glyph-name="d.numerator" horiz-adv-x="338" 
d="M294 664v-379h-66v31c-19 -25 -46 -38 -81 -38c-70 0 -121 55 -121 147c0 89 54 146 125 146c35 0 59 -15 75 -34v127h68zM161 331c40 0 67 34 67 94c0 58 -26 92 -67 92c-42 0 -65 -37 -65 -93c0 -55 22 -93 65 -93z" />
    <glyph glyph-name="e.numerator" horiz-adv-x="327" 
d="M167 278c-92 0 -141 65 -141 147c0 86 56 146 139 146c89 0 141 -67 136 -167h-207c2 -43 31 -73 72 -73c38 0 58 19 66 43l65 -8c-13 -41 -53 -88 -130 -88zM166 520c-34 0 -70 -19 -72 -67h139c-2 44 -33 67 -67 67z" />
    <glyph glyph-name="f.numerator" horiz-adv-x="190" 
d="M53 565v16c0 70 29 83 99 83h25v-55h-16c-34 0 -40 -5 -40 -35v-9h56v-52h-56v-228h-68v228h-40v52h40z" />
    <glyph glyph-name="g.numerator" horiz-adv-x="335" 
d="M225 301v25c-18 -25 -43 -36 -78 -36c-70 0 -121 54 -121 140c0 85 54 141 125 141c35 0 60 -15 75 -34l1 28h66v-251c0 -50 -12 -80 -33 -99c-23 -22 -57 -31 -99 -31c-62 0 -114 24 -123 89l65 3c6 -27 24 -39 60 -39c19 0 34 4 45 13s17 24 17 51zM161 343
c40 0 67 29 67 87c0 54 -26 87 -67 87c-42 0 -65 -37 -65 -87c0 -55 22 -87 65 -87z" />
    <glyph glyph-name="h.numerator" horiz-adv-x="334" 
d="M113 664v-133c16 26 47 40 84 40c36 0 62 -12 78 -34c13 -17 19 -42 19 -78v-174h-67v158c0 25 -3 42 -11 54c-8 11 -21 18 -41 18c-48 0 -62 -38 -62 -86v-144h-68v379h68z" />
    <glyph glyph-name="i.numerator" horiz-adv-x="157" 
d="M45 565h68v-280h-68v280zM45 664h68v-66h-68v66z" />
    <glyph glyph-name="j.numerator" horiz-adv-x="158" 
d="M45 279v286h68v-287c0 -75 -19 -92 -87 -92h-20v55h10c27 0 29 7 29 38zM45 664h68v-66h-68v66z" />
    <glyph glyph-name="k.numerator" horiz-adv-x="310" 
d="M45 664h68v-208l102 109h81l-101 -106l107 -174h-78l-75 125l-36 -37v-88h-68v379z" />
    <glyph glyph-name="l.numerator" horiz-adv-x="157" 
d="M113 664v-379h-68v379h68z" />
    <glyph glyph-name="m.numerator" horiz-adv-x="503" 
d="M45 285v280h68v-34c16 26 44 40 81 40c47 0 68 -22 80 -45c22 30 51 45 94 45c33 0 58 -11 74 -30c14 -18 21 -44 21 -82v-174h-68v160c0 24 -2 42 -10 53c-7 11 -20 17 -39 17c-48 0 -58 -39 -58 -86v-144h-68v160c0 25 -2 43 -10 54c-8 10 -20 16 -39 16
c-47 0 -58 -39 -58 -86v-144h-68z" />
    <glyph glyph-name="n.numerator" horiz-adv-x="334" 
d="M113 565v-34c16 26 47 40 84 40c36 0 62 -12 78 -34c13 -17 19 -42 19 -78v-174h-67v158c0 25 -3 42 -11 54c-8 11 -21 18 -41 18c-48 0 -62 -38 -62 -86v-144h-68v280h68z" />
    <glyph glyph-name="o.numerator" horiz-adv-x="329" 
d="M96 424c0 -60 27 -93 69 -93c41 0 69 33 69 93c0 61 -28 93 -69 93c-42 0 -69 -32 -69 -93zM27 424c0 101 65 147 138 147c72 0 138 -46 138 -147c0 -100 -66 -146 -138 -146c-73 0 -138 46 -138 146z" />
    <glyph glyph-name="p.numerator" horiz-adv-x="338" 
d="M113 312v-126h-68v379h66v-33c18 26 46 39 81 39c70 0 120 -55 120 -147c0 -90 -53 -146 -125 -146c-35 0 -59 15 -74 34zM178 517c-41 0 -68 -34 -68 -93c0 -58 27 -93 68 -93c42 0 65 38 65 93c0 56 -23 93 -65 93z" />
    <glyph glyph-name="q.numerator" horiz-adv-x="338" 
d="M227 537l1 28h66v-379h-68v129c-18 -25 -44 -37 -79 -37c-70 0 -121 55 -121 147c0 89 54 146 125 146c35 0 60 -15 76 -34zM161 331c40 0 67 34 67 94c0 58 -26 92 -67 92c-42 0 -65 -37 -65 -93c0 -55 22 -93 65 -93z" />
    <glyph glyph-name="r.numerator" horiz-adv-x="214" 
d="M203 563v-65c-10 1 -19 2 -29 2c-38 0 -61 -16 -61 -71v-144h-68v280h67v-46c16 30 42 45 76 45c5 0 11 0 15 -1z" />
    <glyph glyph-name="s.numerator" horiz-adv-x="298" 
d="M274 486l-62 -9c-6 26 -31 43 -66 43c-28 0 -50 -9 -50 -27c0 -17 17 -26 43 -32l33 -7c58 -13 105 -28 105 -84c0 -59 -57 -92 -123 -92c-73 0 -122 40 -128 93l65 10c4 -29 26 -52 66 -52c33 0 54 11 54 33s-23 28 -51 34l-36 8c-53 11 -91 32 -91 84
c0 51 53 83 117 83c58 0 113 -28 124 -85z" />
    <glyph glyph-name="t.numerator" horiz-adv-x="204" 
d="M53 565v82h68v-82h58v-52h-58v-139c0 -30 9 -36 35 -36h22v-53h-49c-63 0 -76 18 -76 76v152h-41v52h41z" />
    <glyph glyph-name="u.numerator" horiz-adv-x="332" 
d="M220 285v33c-17 -25 -46 -40 -83 -40c-34 0 -59 11 -75 31c-14 18 -21 44 -21 81v175h68v-161c0 -23 1 -40 9 -51c8 -12 21 -19 41 -19c48 0 61 39 61 88v143h67v-280h-67z" />
    <glyph glyph-name="v.numerator" horiz-adv-x="289" 
d="M86 565l61 -194l61 194h71l-104 -280h-59l-105 280h75z" />
    <glyph glyph-name="w.numerator" horiz-adv-x="407" 
d="M122 370l47 195h69l47 -194l38 194h73l-74 -280h-65l-54 200l-54 -200h-64l-74 280h73z" />
    <glyph glyph-name="x.numerator" horiz-adv-x="306" 
d="M289 565l-97 -134l103 -146h-80l-64 90l-65 -90h-74l103 142l-97 138h79l58 -83l60 83h74z" />
    <glyph glyph-name="y.numerator" horiz-adv-x="284" 
d="M61 186h-29v57h26c26 0 36 4 49 37l3 7l-104 278h75l61 -194l63 194h69l-101 -276c-28 -75 -47 -103 -112 -103z" />
    <glyph glyph-name="z.numerator" horiz-adv-x="278" 
d="M18 285v49l146 174h-135v57h223v-50l-146 -173h150v-57h-238z" />
    <glyph glyph-name="zero.fractioninf" horiz-adv-x="350" 
d="M175 -7c-103 0 -153 80 -153 197c0 118 50 196 153 196c102 0 152 -78 152 -196c0 -117 -50 -197 -152 -197zM175 46c54 0 83 50 83 144c0 95 -29 143 -83 143c-55 0 -84 -48 -84 -143c0 -94 29 -144 84 -144z" />
    <glyph glyph-name="one.fractioninf" horiz-adv-x="350" 
d="M250 0h-67v285h-84v46c56 2 82 6 101 48h50v-379z" />
    <glyph glyph-name="two.fractioninf" horiz-adv-x="350" 
d="M182 386c76 0 129 -37 129 -103c0 -76 -85 -143 -190 -225h184v-58h-270v55c125 100 206 161 206 223c0 35 -29 55 -64 55c-34 0 -68 -19 -68 -78h-67c-1 79 55 131 140 131z" />
    <glyph glyph-name="three.fractioninf" horiz-adv-x="350" 
d="M175 46c42 0 75 22 75 61c0 47 -44 63 -99 63h-14v55h11c58 0 92 18 92 56c0 35 -30 52 -64 52c-45 0 -70 -29 -77 -69l-65 7c11 69 60 115 146 115c64 0 129 -29 129 -101c0 -38 -23 -68 -54 -84c43 -17 64 -54 64 -93c0 -77 -67 -115 -146 -115c-88 0 -135 57 -143 119
l65 7c7 -40 31 -73 80 -73z" />
    <glyph glyph-name="four.fractioninf" horiz-adv-x="350" 
d="M202 290l-115 -142h115v142zM336 148v-60h-67v-88h-67v88h-189v56l190 235h66v-231h67z" />
    <glyph glyph-name="five.fractioninf" horiz-adv-x="350" 
d="M174 46c41 0 73 27 73 78c0 55 -38 79 -75 79c-34 0 -59 -18 -67 -37l-62 4l25 209h233v-59h-178l-11 -86c17 13 43 23 78 23c65 0 126 -45 126 -132c0 -86 -66 -132 -143 -132c-90 0 -134 60 -140 119l64 7c6 -40 28 -73 77 -73z" />
    <glyph glyph-name="six.fractioninf" horiz-adv-x="350" 
d="M104 122c0 -46 31 -76 73 -76c41 0 72 30 72 76c0 45 -30 76 -72 76s-73 -31 -73 -76zM180 333c-50 0 -80 -47 -81 -121c17 22 48 39 90 39c71 0 129 -49 129 -129c0 -77 -58 -129 -140 -129c-101 0 -146 77 -146 186c0 108 41 207 153 207c82 0 120 -55 125 -104h-67
c-4 32 -30 51 -63 51z" />
    <glyph glyph-name="seven.fractioninf" horiz-adv-x="350" 
d="M36 320v59h278v-56c-98 -97 -149 -183 -157 -323h-75c6 134 74 238 161 320h-207z" />
    <glyph glyph-name="eight.fractioninf" horiz-adv-x="350" 
d="M174 386c81 0 131 -43 131 -98c0 -33 -13 -66 -47 -86c44 -23 59 -58 59 -94c0 -74 -62 -115 -143 -115s-142 41 -142 115c0 36 15 71 58 94c-31 19 -47 53 -47 86c0 55 50 98 131 98zM174 174c-45 0 -73 -26 -73 -64s28 -64 73 -64s74 26 74 64s-29 64 -74 64zM239 280
c0 32 -25 53 -65 53s-65 -21 -65 -53s25 -56 65 -56s65 24 65 56z" />
    <glyph glyph-name="nine.fractioninf" horiz-adv-x="350" 
d="M246 257c0 46 -31 76 -73 76s-72 -29 -72 -76c0 -45 30 -76 72 -76s73 31 73 76zM169 46c51 0 81 47 81 121c-16 -22 -47 -39 -88 -39c-72 0 -130 48 -130 128c0 76 55 130 139 130c104 0 147 -77 147 -186c0 -108 -41 -207 -152 -207c-82 0 -122 55 -127 103l68 1
c4 -32 29 -51 62 -51z" />
    <glyph glyph-name="zero.fractionsup" horiz-adv-x="350" 
d="M175 278c-103 0 -153 80 -153 197c0 118 50 196 153 196c102 0 152 -78 152 -196c0 -117 -50 -197 -152 -197zM175 331c54 0 83 50 83 144c0 95 -29 143 -83 143c-55 0 -84 -48 -84 -143c0 -94 29 -144 84 -144z" />
    <glyph glyph-name="one.fractionsup" horiz-adv-x="350" 
d="M250 285h-67v285h-84v46c56 2 82 6 101 48h50v-379z" />
    <glyph glyph-name="two.fractionsup" horiz-adv-x="350" 
d="M182 671c75 0 129 -37 129 -103c0 -76 -85 -143 -190 -225h184v-58h-270v55c125 100 206 161 206 223c0 35 -29 55 -64 55c-34 0 -68 -19 -68 -78h-67c-1 79 55 131 140 131z" />
    <glyph glyph-name="three.fractionsup" horiz-adv-x="350" 
d="M175 331c42 0 75 22 75 61c0 47 -44 63 -99 63h-14v55h11c58 0 92 18 92 56c0 35 -30 52 -64 52c-45 0 -70 -29 -77 -69l-65 7c11 69 60 115 146 115c64 0 129 -29 129 -101c0 -38 -23 -68 -54 -84c43 -17 64 -54 64 -93c0 -77 -67 -115 -146 -115
c-88 0 -135 57 -143 119l65 7c7 -40 31 -73 80 -73z" />
    <glyph glyph-name="four.fractionsup" horiz-adv-x="350" 
d="M202 575l-115 -142h115v142zM336 433v-60h-67v-88h-67v88h-189v56l190 235h66v-231h67z" />
    <glyph glyph-name="five.fractionsup" horiz-adv-x="350" 
d="M174 331c41 0 73 27 73 78c0 55 -38 79 -75 79c-34 0 -59 -18 -67 -37l-62 4l25 209h233v-59h-178l-11 -86c17 13 43 23 78 23c65 0 126 -45 126 -132c0 -86 -66 -132 -143 -132c-90 0 -134 60 -140 119l64 7c6 -40 28 -73 77 -73z" />
    <glyph glyph-name="six.fractionsup" horiz-adv-x="350" 
d="M104 407c0 -46 31 -76 73 -76c41 0 72 30 72 76c0 45 -30 76 -72 76s-73 -31 -73 -76zM180 618c-50 0 -80 -47 -81 -121c17 22 48 39 90 39c71 0 129 -49 129 -129c0 -77 -58 -129 -140 -129c-101 0 -146 77 -146 186c0 108 41 207 153 207c82 0 120 -55 125 -104h-67
c-4 32 -30 51 -63 51z" />
    <glyph glyph-name="seven.fractionsup" horiz-adv-x="350" 
d="M36 605v59h278v-56c-98 -97 -149 -183 -157 -323h-75c6 134 74 238 161 320h-207z" />
    <glyph glyph-name="eight.fractionsup" horiz-adv-x="350" 
d="M174 671c81 0 131 -43 131 -98c0 -33 -13 -66 -47 -86c44 -23 59 -58 59 -94c0 -74 -62 -115 -143 -115s-142 41 -142 115c0 36 15 71 58 94c-31 19 -47 53 -47 86c0 55 50 98 131 98zM174 459c-45 0 -73 -26 -73 -64s28 -64 73 -64s74 26 74 64s-29 64 -74 64zM239 565
c0 32 -25 53 -65 53s-65 -21 -65 -53s25 -56 65 -56s65 24 65 56z" />
    <glyph glyph-name="nine.fractionsup" horiz-adv-x="350" 
d="M246 542c0 46 -31 76 -73 76s-72 -29 -72 -76c0 -45 30 -76 72 -76s73 31 73 76zM169 331c51 0 81 47 81 121c-16 -22 -47 -39 -88 -39c-72 0 -130 48 -130 128c0 76 55 130 139 130c104 0 147 -77 147 -186c0 -108 -41 -207 -152 -207c-82 0 -122 55 -127 103l68 1
c4 -32 29 -51 62 -51z" />
    <glyph glyph-name="parenleft.superior" unicode="&#x207d;" horiz-adv-x="160" 
d="M22 547c0 106 42 193 73 239h61c-35 -58 -64 -141 -64 -239s29 -181 64 -239h-61c-31 47 -73 133 -73 239z" />
    <glyph glyph-name="parenright.superior" unicode="&#x207e;" horiz-adv-x="160" 
d="M137 547c0 -106 -41 -192 -73 -239h-61c35 58 64 141 64 239s-29 181 -64 239h61c32 -46 73 -133 73 -239z" />
    <glyph glyph-name="plus.superior" unicode="&#x207a;" horiz-adv-x="348" 
d="M206 407h-63v112h-115v60h115v113h63v-113h114v-60h-114v-112z" />
    <glyph glyph-name="minus.superior" unicode="&#x207b;" horiz-adv-x="341" 
d="M29 579h284v-60h-284v60z" />
    <glyph glyph-name="equal.superior" unicode="&#x207c;" horiz-adv-x="346" 
d="M307 574h-268v60h268v-60zM307 463h-268v60h268v-60z" />
    <glyph glyph-name="comma.superior" horiz-adv-x="161" 
d="M42 404v75h77v-81l-41 -78h-40l37 84h-33z" />
    <glyph glyph-name="period.superior" horiz-adv-x="150" 
d="M112 407h-75v72h75v-72z" />
    <glyph glyph-name="hyphen.superior" horiz-adv-x="218" 
d="M196 519h-174v60h174v-60z" />
    <glyph glyph-name="dollar.superior" horiz-adv-x="347" 
d="M157 837h30v-45c75 -7 125 -56 124 -125h-66c0 45 -27 67 -58 72v-110l5 -1c57 -14 125 -38 125 -114c0 -72 -61 -110 -130 -114v-44h-30v45c-77 7 -129 57 -128 131h67c0 -51 28 -74 61 -79v122l-18 4c-53 13 -103 43 -103 108c0 69 61 101 121 105v45zM253 509
c0 33 -24 48 -66 59v-115c35 2 66 18 66 56zM100 691c0 -29 22 -46 54 -53l3 -1v103c-28 -2 -57 -17 -57 -49z" />
    <glyph glyph-name="Euro.superior" horiz-adv-x="413" 
d="M207 538h-72c11 -49 39 -85 96 -85c44 0 83 18 94 78h62c-12 -85 -74 -131 -155 -131c-85 0 -143 50 -161 138h-66l27 41h34v19v18h-61l27 41h40c18 86 78 136 162 136c81 0 140 -49 151 -131l-62 -1c-10 57 -45 79 -92 79c-54 0 -84 -33 -96 -83h144l-27 -41h-123v-18
v-19h105z" />
    <glyph glyph-name="cent.superior" horiz-adv-x="318" 
d="M293 596l-65 -10c-5 27 -22 50 -53 53v-186c25 2 48 19 55 55l65 -9c-14 -62 -63 -95 -120 -99v-41h-27v41c-78 7 -122 66 -122 146s45 138 122 146v45h27v-44c57 -3 104 -36 118 -97zM96 547c0 -53 21 -85 52 -93v183c-31 -6 -52 -38 -52 -90z" />
    <glyph glyph-name="parenleft.inferior" unicode="&#x208d;" horiz-adv-x="160" 
d="M22 20c0 106 42 193 73 239h61c-35 -58 -64 -141 -64 -239s29 -181 64 -239h-61c-31 47 -73 133 -73 239z" />
    <glyph glyph-name="parenright.inferior" unicode="&#x208e;" horiz-adv-x="160" 
d="M137 20c0 -106 -41 -192 -73 -239h-61c35 58 64 141 64 239s-29 181 -64 239h61c32 -46 73 -133 73 -239z" />
    <glyph glyph-name="plus.inferior" horiz-adv-x="348" 
d="M206 -120h-63v112h-115v60h115v113h63v-113h114v-60h-114v-112z" />
    <glyph glyph-name="minus.inferior" horiz-adv-x="341" 
d="M29 52h284v-60h-284v60z" />
    <glyph glyph-name="equal.inferior" horiz-adv-x="346" 
d="M307 47h-268v60h268v-60zM307 -64h-268v60h268v-60z" />
    <glyph glyph-name="comma.inferior" horiz-adv-x="161" 
d="M42 -123v75h77v-81l-41 -78h-40l37 84h-33z" />
    <glyph glyph-name="period.inferior" horiz-adv-x="150" 
d="M112 -120h-75v72h75v-72z" />
    <glyph glyph-name="hyphen.inferior" horiz-adv-x="218" 
d="M196 -8h-174v60h174v-60z" />
    <glyph glyph-name="dollar.inferior" horiz-adv-x="347" 
d="M157 310h30v-45c75 -7 125 -56 124 -125h-66c0 45 -27 67 -58 72v-110l5 -1c57 -14 125 -38 125 -114c0 -72 -61 -109 -130 -113v-45h-30v45c-77 7 -129 58 -128 131h67c0 -50 28 -74 61 -78v121l-18 4c-53 13 -103 43 -103 108c0 69 61 101 121 105v45zM253 -18
c0 33 -24 48 -66 59v-115c35 2 66 19 66 56zM100 164c0 -29 22 -46 54 -53l3 -1v103c-28 -2 -57 -17 -57 -49z" />
    <glyph glyph-name="Euro.inferior" horiz-adv-x="413" 
d="M207 11h-72c11 -49 39 -85 96 -85c44 0 83 18 94 78h62c-12 -85 -74 -131 -155 -131c-85 0 -143 51 -161 138h-66l27 41h34v19v18h-61l27 41h40c18 86 78 136 162 136c81 0 140 -49 151 -131l-62 -1c-10 57 -45 79 -92 79c-54 0 -84 -33 -96 -83h144l-27 -41h-123v-18
v-19h105z" />
    <glyph glyph-name="cent.inferior" horiz-adv-x="318" 
d="M293 69l-65 -10c-5 27 -22 50 -53 53v-186c25 3 48 19 55 55l65 -9c-14 -61 -63 -94 -120 -98v-42h-27v42c-78 6 -122 65 -122 145s45 138 122 146v45h27v-44c57 -3 104 -36 118 -97zM96 20c0 -53 21 -85 52 -92v182c-31 -6 -52 -38 -52 -90z" />
    <glyph glyph-name="parenleft.denominator" horiz-adv-x="160" 
d="M22 140c0 106 42 193 73 239h61c-35 -58 -64 -141 -64 -239s29 -181 64 -239h-61c-31 47 -73 133 -73 239z" />
    <glyph glyph-name="parenright.denominator" horiz-adv-x="160" 
d="M137 140c0 -106 -41 -192 -73 -239h-61c35 58 64 141 64 239s-29 181 -64 239h61c32 -46 73 -133 73 -239z" />
    <glyph glyph-name="plus.denominator" horiz-adv-x="348" 
d="M206 0h-63v112h-115v60h115v113h63v-113h114v-60h-114v-112z" />
    <glyph glyph-name="minus.denominator" horiz-adv-x="341" 
d="M29 172h284v-60h-284v60z" />
    <glyph glyph-name="equal.denominator" horiz-adv-x="346" 
d="M307 167h-268v60h268v-60zM307 56h-268v60h268v-60z" />
    <glyph glyph-name="comma.denominator" horiz-adv-x="161" 
d="M42 -3v75h77v-81l-41 -78h-40l37 84h-33z" />
    <glyph glyph-name="period.denominator" horiz-adv-x="150" 
d="M112 0h-75v72h75v-72z" />
    <glyph glyph-name="hyphen.denominator" horiz-adv-x="218" 
d="M196 112h-174v60h174v-60z" />
    <glyph glyph-name="dollar.denominator" horiz-adv-x="347" 
d="M157 430h30v-45c75 -7 125 -56 124 -125h-66c0 45 -27 67 -58 72v-110l5 -1c57 -14 125 -38 125 -114c0 -72 -61 -109 -130 -113v-45h-30v45c-77 7 -129 57 -128 131h67c0 -51 28 -74 61 -79v122l-18 4c-53 13 -103 43 -103 108c0 69 61 101 121 105v45zM253 102
c0 33 -24 48 -66 59v-115c35 2 66 18 66 56zM100 284c0 -29 22 -46 54 -53l3 -1v103c-28 -2 -57 -17 -57 -49z" />
    <glyph glyph-name="Euro.denominator" horiz-adv-x="413" 
d="M207 131h-72c11 -49 39 -85 96 -85c44 0 83 18 94 78h62c-12 -85 -74 -131 -155 -131c-85 0 -143 50 -161 138h-66l27 41h34v19v18h-61l27 41h40c18 86 78 136 162 136c81 0 140 -49 151 -131l-62 -1c-10 57 -45 79 -92 79c-54 0 -84 -33 -96 -83h144l-27 -41h-123v-18
v-19h105z" />
    <glyph glyph-name="cent.denominator" horiz-adv-x="318" 
d="M293 189l-65 -10c-5 27 -22 50 -53 53v-186c25 2 48 19 55 55l65 -9c-14 -62 -63 -94 -120 -98v-42h-27v42c-78 6 -122 65 -122 145s45 138 122 146v45h27v-44c57 -3 104 -36 118 -97zM96 140c0 -53 21 -85 52 -93v183c-31 -6 -52 -38 -52 -90z" />
    <glyph glyph-name="parenleft.numerator" horiz-adv-x="160" 
d="M22 425c0 106 42 193 73 239h61c-35 -58 -64 -141 -64 -239s29 -181 64 -239h-61c-31 47 -73 133 -73 239z" />
    <glyph glyph-name="parenright.numerator" horiz-adv-x="160" 
d="M137 425c0 -106 -41 -192 -73 -239h-61c35 58 64 141 64 239s-29 181 -64 239h61c32 -46 73 -133 73 -239z" />
    <glyph glyph-name="plus.numerator" horiz-adv-x="348" 
d="M206 285h-63v112h-115v60h115v113h63v-113h114v-60h-114v-112z" />
    <glyph glyph-name="minus.numerator" horiz-adv-x="341" 
d="M29 457h284v-60h-284v60z" />
    <glyph glyph-name="equal.numerator" horiz-adv-x="346" 
d="M307 452h-268v60h268v-60zM307 341h-268v60h268v-60z" />
    <glyph glyph-name="comma.numerator" horiz-adv-x="161" 
d="M42 282v75h77v-81l-41 -78h-40l37 84h-33z" />
    <glyph glyph-name="period.numerator" horiz-adv-x="150" 
d="M112 285h-75v72h75v-72z" />
    <glyph glyph-name="hyphen.numerator" horiz-adv-x="218" 
d="M196 397h-174v60h174v-60z" />
    <glyph glyph-name="dollar.numerator" horiz-adv-x="347" 
d="M157 715h30v-45c75 -7 125 -56 124 -125h-66c0 45 -27 67 -58 72v-110l5 -1c57 -14 125 -38 125 -114c0 -72 -61 -110 -130 -114v-44h-30v45c-77 7 -129 57 -128 131h67c0 -51 28 -74 61 -79v122l-18 4c-53 13 -103 43 -103 108c0 69 61 101 121 105v45zM253 387
c0 33 -24 48 -66 59v-115c35 2 66 18 66 56zM100 569c0 -29 22 -46 54 -53l3 -1v103c-28 -2 -57 -17 -57 -49z" />
    <glyph glyph-name="Euro.numerator" horiz-adv-x="413" 
d="M207 416h-72c11 -49 39 -85 96 -85c44 0 83 18 94 78h62c-12 -85 -74 -131 -155 -131c-85 0 -143 50 -161 138h-66l27 41h34v19v18h-61l27 41h40c18 86 78 136 162 136c81 0 140 -49 151 -131l-62 -1c-10 57 -45 79 -92 79c-54 0 -84 -33 -96 -83h144l-27 -41h-123v-18
v-19h105z" />
    <glyph glyph-name="cent.numerator" horiz-adv-x="318" 
d="M293 474l-65 -10c-5 27 -22 50 -53 53v-186c25 2 48 19 55 55l65 -9c-14 -62 -63 -95 -120 -99v-41h-27v41c-78 7 -122 66 -122 146s45 138 122 146v45h27v-44c57 -3 104 -36 118 -97zM96 425c0 -53 21 -85 52 -93v183c-31 -6 -52 -38 -52 -90z" />
    <glyph glyph-name="onethird" unicode="&#x2153;" horiz-adv-x="828" 
d="M250 285h-67v285h-84v46c56 2 82 6 101 48h50v-379zM228 0h-94l465 664h94zM653 46c42 0 75 22 75 61c0 47 -44 63 -99 63h-14v55h11c58 0 92 18 92 56c0 35 -30 52 -64 52c-45 0 -70 -29 -77 -69l-65 7c11 69 60 115 146 115c64 0 129 -29 129 -101
c0 -38 -23 -68 -54 -84c43 -17 64 -54 64 -93c0 -77 -67 -115 -146 -115c-88 0 -135 57 -143 119l65 7c7 -40 31 -73 80 -73z" />
    <glyph glyph-name="twothirds" unicode="&#x2154;" horiz-adv-x="828" 
d="M182 671c75 0 129 -37 129 -103c0 -76 -85 -143 -190 -225h184v-58h-270v55c125 100 206 161 206 223c0 35 -29 55 -64 55c-34 0 -68 -19 -68 -78h-67c-1 79 55 131 140 131zM134 0h94l465 664h-94zM653 46c42 0 75 22 75 61c0 47 -44 63 -99 63h-14v55h11
c58 0 92 18 92 56c0 35 -30 52 -64 52c-45 0 -70 -29 -77 -69l-65 7c11 69 60 115 146 115c64 0 129 -29 129 -101c0 -38 -23 -68 -54 -84c43 -17 64 -54 64 -93c0 -77 -67 -115 -146 -115c-88 0 -135 57 -143 119l65 7c7 -40 31 -73 80 -73z" />
    <glyph glyph-name="uni2155" unicode="&#x2155;" horiz-adv-x="828" 
d="M250 285h-67v285h-84v46c56 2 82 6 101 48h50v-379zM228 0h-94l465 664h94zM652 46c41 0 73 27 73 78c0 55 -38 79 -75 79c-34 0 -59 -18 -67 -37l-62 4l25 209h233v-59h-178l-11 -86c17 13 43 23 78 23c65 0 126 -45 126 -132c0 -86 -66 -132 -143 -132
c-90 0 -134 60 -140 119l64 7c6 -40 28 -73 77 -73z" />
    <glyph glyph-name="uni2156" unicode="&#x2156;" horiz-adv-x="828" 
d="M182 671c75 0 129 -37 129 -103c0 -76 -85 -143 -190 -225h184v-58h-270v55c125 100 206 161 206 223c0 35 -29 55 -64 55c-34 0 -68 -19 -68 -78h-67c-1 79 55 131 140 131zM134 0h94l465 664h-94zM652 46c41 0 73 27 73 78c0 55 -38 79 -75 79c-34 0 -59 -18 -67 -37
l-62 4l25 209h233v-59h-178l-11 -86c17 13 43 23 78 23c65 0 126 -45 126 -132c0 -86 -66 -132 -143 -132c-90 0 -134 60 -140 119l64 7c6 -40 28 -73 77 -73z" />
    <glyph glyph-name="uni2157" unicode="&#x2157;" horiz-adv-x="828" 
d="M175 331c42 0 75 22 75 61c0 47 -44 63 -99 63h-14v55h11c58 0 92 18 92 56c0 35 -30 52 -64 52c-45 0 -70 -29 -77 -69l-65 7c11 69 60 115 146 115c64 0 129 -29 129 -101c0 -38 -23 -68 -54 -84c43 -17 64 -54 64 -93c0 -77 -67 -115 -146 -115
c-88 0 -135 57 -143 119l65 7c7 -40 31 -73 80 -73zM134 0h94l465 664h-94zM652 46c41 0 73 27 73 78c0 55 -38 79 -75 79c-34 0 -59 -18 -67 -37l-62 4l25 209h233v-59h-178l-11 -86c17 13 43 23 78 23c65 0 126 -45 126 -132c0 -86 -66 -132 -143 -132
c-90 0 -134 60 -140 119l64 7c6 -40 28 -73 77 -73z" />
    <glyph glyph-name="uni2158" unicode="&#x2158;" horiz-adv-x="828" 
d="M202 575l-115 -142h115v142zM336 433v-60h-67v-88h-67v88h-189v56l190 235h66v-231h67zM228 0h-94l465 664h94zM652 46c41 0 73 27 73 78c0 55 -38 79 -75 79c-34 0 -59 -18 -67 -37l-62 4l25 209h233v-59h-178l-11 -86c17 13 43 23 78 23c65 0 126 -45 126 -132
c0 -86 -66 -132 -143 -132c-90 0 -134 60 -140 119l64 7c6 -40 28 -73 77 -73z" />
    <glyph glyph-name="uni2159" unicode="&#x2159;" horiz-adv-x="828" 
d="M250 285h-67v285h-84v46c56 2 82 6 101 48h50v-379zM228 0h-94l465 664h94zM582 122c0 -46 31 -76 73 -76c41 0 72 30 72 76c0 45 -30 76 -72 76s-73 -31 -73 -76zM658 333c-50 0 -80 -47 -81 -121c17 22 48 39 90 39c71 0 129 -49 129 -129c0 -77 -58 -129 -140 -129
c-101 0 -146 77 -146 186c0 108 41 207 153 207c82 0 120 -55 125 -104h-67c-4 32 -30 51 -63 51z" />
    <glyph glyph-name="uni215A" unicode="&#x215a;" horiz-adv-x="828" 
d="M174 331c41 0 73 27 73 78c0 55 -38 79 -75 79c-34 0 -59 -18 -67 -37l-62 4l25 209h233v-59h-178l-11 -86c17 13 43 23 78 23c65 0 126 -45 126 -132c0 -86 -66 -132 -143 -132c-90 0 -134 60 -140 119l64 7c6 -40 28 -73 77 -73zM134 0h94l465 664h-94zM582 122
c0 -46 31 -76 73 -76c41 0 72 30 72 76c0 45 -30 76 -72 76s-73 -31 -73 -76zM658 333c-50 0 -80 -47 -81 -121c17 22 48 39 90 39c71 0 129 -49 129 -129c0 -77 -58 -129 -140 -129c-101 0 -146 77 -146 186c0 108 41 207 153 207c82 0 120 -55 125 -104h-67
c-4 32 -30 51 -63 51z" />
    <glyph glyph-name="oneeighth" unicode="&#x215b;" horiz-adv-x="828" 
d="M250 285h-67v285h-84v46c56 2 82 6 101 48h50v-379zM228 0h-94l465 664h94zM652 386c81 0 131 -43 131 -98c0 -33 -13 -66 -47 -86c44 -23 59 -58 59 -94c0 -74 -62 -115 -143 -115s-142 41 -142 115c0 36 15 71 58 94c-31 19 -47 53 -47 86c0 55 50 98 131 98zM652 174
c-45 0 -73 -26 -73 -64s28 -64 73 -64s74 26 74 64s-29 64 -74 64zM717 280c0 32 -25 53 -65 53s-65 -21 -65 -53s25 -56 65 -56s65 24 65 56z" />
    <glyph glyph-name="threeeighths" unicode="&#x215c;" horiz-adv-x="828" 
d="M175 331c42 0 75 22 75 61c0 47 -44 63 -99 63h-14v55h11c58 0 92 18 92 56c0 35 -30 52 -64 52c-45 0 -70 -29 -77 -69l-65 7c11 69 60 115 146 115c64 0 129 -29 129 -101c0 -38 -23 -68 -54 -84c43 -17 64 -54 64 -93c0 -77 -67 -115 -146 -115
c-88 0 -135 57 -143 119l65 7c7 -40 31 -73 80 -73zM134 0h94l465 664h-94zM652 386c-81 0 -131 -43 -131 -98c0 -33 16 -67 47 -86c-43 -23 -58 -58 -58 -94c0 -74 61 -115 142 -115s143 41 143 115c0 36 -15 71 -59 94c34 20 47 53 47 86c0 55 -50 98 -131 98zM652 174
c45 0 74 -26 74 -64s-29 -64 -74 -64s-73 26 -73 64s28 64 73 64zM717 280c0 -32 -25 -56 -65 -56s-65 24 -65 56s25 53 65 53s65 -21 65 -53z" />
    <glyph glyph-name="fiveeighths" unicode="&#x215d;" horiz-adv-x="828" 
d="M174 331c41 0 73 27 73 78c0 55 -38 79 -75 79c-34 0 -59 -18 -67 -37l-62 4l25 209h233v-59h-178l-11 -86c17 13 43 23 78 23c65 0 126 -45 126 -132c0 -86 -66 -132 -143 -132c-90 0 -134 60 -140 119l64 7c6 -40 28 -73 77 -73zM134 0h94l465 664h-94zM652 386
c-81 0 -131 -43 -131 -98c0 -33 16 -67 47 -86c-43 -23 -58 -58 -58 -94c0 -74 61 -115 142 -115s143 41 143 115c0 36 -15 71 -59 94c34 20 47 53 47 86c0 55 -50 98 -131 98zM652 174c45 0 74 -26 74 -64s-29 -64 -74 -64s-73 26 -73 64s28 64 73 64zM717 280
c0 -32 -25 -56 -65 -56s-65 24 -65 56s25 53 65 53s65 -21 65 -53z" />
    <glyph glyph-name="seveneighths" unicode="&#x215e;" horiz-adv-x="828" 
d="M36 605v59h278v-56c-98 -97 -149 -183 -157 -323h-75c6 134 74 238 161 320h-207zM134 0h94l465 664h-94zM652 386c-81 0 -131 -43 -131 -98c0 -33 16 -67 47 -86c-43 -23 -58 -58 -58 -94c0 -74 61 -115 142 -115s143 41 143 115c0 36 -15 71 -59 94c34 20 47 53 47 86
c0 55 -50 98 -131 98zM652 174c45 0 74 -26 74 -64s-29 -64 -74 -64s-73 26 -73 64s28 64 73 64zM717 280c0 -32 -25 -56 -65 -56s-65 24 -65 56s25 53 65 53s65 -21 65 -53z" />
    <glyph glyph-name="uni215F" unicode="&#x215f;" horiz-adv-x="478" 
d="M250 285h-67v285h-84v46c56 2 82 6 101 48h50v-379zM228 0h-94l465 664h94z" />
    <glyph glyph-name="AEacute" unicode="&#x1fc;" horiz-adv-x="976" 
d="M491 664h452v-84h-357v-196h336v-84h-336v-216h357v-84h-452v144h-282l-105 -144h-104zM491 528l-221 -301h221v301zM878 803l-138 -105h-84l102 105h120z" />
    <glyph glyph-name="aeacute" unicode="&#x1fd;" horiz-adv-x="860" 
d="M56 339l84 -4c4 56 39 95 117 95c65 0 113 -21 113 -101v-18l-95 -10c-65 -7 -122 -17 -169 -44c-39 -22 -66 -57 -66 -110c0 -84 59 -159 176 -159c74 0 157 29 196 102c35 -63 97 -102 188 -102c123 0 199 71 221 150l-87 11c-18 -47 -58 -86 -132 -86
c-94 0 -151 64 -151 155h378c12 158 -75 280 -229 280c-74 0 -133 -29 -172 -79c-28 53 -82 79 -167 79c-110 0 -200 -55 -205 -159zM229 62c-58 0 -99 30 -99 82c0 55 48 78 144 87l102 10v-29c0 -113 -78 -150 -147 -150zM739 289h-287c5 85 62 137 149 137
c89 0 136 -71 138 -137zM556 664l-121 -118h-71l84 118h108z" />
    <glyph glyph-name="Abreve" unicode="&#x102;" horiz-adv-x="613" 
d="M0 0l250 664h110l253 -664h-104l-53 144h-306l-51 -144h-99zM302 566l-122 -339h246zM381 803h72c-8 -64 -53 -110 -148 -110c-92 0 -137 46 -145 110h72c5 -35 30 -54 74 -54s69 20 75 54z" />
    <glyph glyph-name="abreve" unicode="&#x103;" horiz-adv-x="515" 
d="M56 342l83 -3c5 54 41 91 118 91c65 0 113 -21 113 -101v-18l-95 -10c-63 -7 -122 -17 -169 -43c-39 -22 -66 -58 -66 -111c0 -84 59 -159 173 -159c87 0 135 32 165 81l3 -69h82c-6 65 -11 112 -10 189l2 124c2 132 -55 186 -194 186c-110 0 -199 -56 -205 -157z
M376 212c0 -113 -78 -150 -147 -150c-58 0 -99 30 -99 82c0 55 48 78 144 87l102 10v-29zM403 664c-7 -66 -43 -123 -149 -123c-103 0 -140 57 -146 123h66c4 -40 27 -67 81 -67s78 27 82 67h66z" />
    <glyph glyph-name="Amacron" unicode="&#x100;" horiz-adv-x="613" 
d="M0 0l250 664h110l253 -664h-104l-53 144h-306l-51 -144h-99zM302 566l-122 -339h246zM441 715h-279v70h279v-70z" />
    <glyph glyph-name="amacron" unicode="&#x101;" horiz-adv-x="515" 
d="M56 342l83 -3c5 54 41 91 118 91c65 0 113 -21 113 -101v-18l-95 -10c-63 -7 -122 -17 -169 -43c-39 -22 -66 -58 -66 -111c0 -84 59 -159 173 -159c87 0 135 32 165 81l3 -69h82c-6 65 -11 112 -10 189l2 124c2 132 -55 186 -194 186c-110 0 -199 -56 -205 -157z
M376 212c0 -113 -78 -150 -147 -150c-58 0 -99 30 -99 82c0 55 48 78 144 87l102 10v-29zM400 570h-279v70h279v-70z" />
    <glyph glyph-name="Aogonek" unicode="&#x104;" horiz-adv-x="613" 
d="M0 0l250 664h110l253 -664c-47 -23 -86 -51 -86 -79c0 -29 30 -40 61 -40c17 0 34 3 46 8v-56c-16 -7 -38 -11 -64 -11c-55 0 -120 25 -120 87c0 33 19 67 59 91l-53 144h-306l-51 -144h-99zM302 566l-122 -339h246z" />
    <glyph glyph-name="aogonek" unicode="&#x105;" horiz-adv-x="515" 
d="M376 212v29l-102 -10c-96 -9 -144 -32 -144 -87c0 -52 41 -82 99 -82c69 0 147 37 147 150zM139 339l-83 3c6 101 95 157 205 157c139 0 196 -54 194 -186l-2 -124c-1 -77 4 -124 10 -189c-47 -23 -82 -51 -82 -79c0 -29 30 -40 61 -40c17 0 34 3 46 8v-56
c-16 -7 -38 -11 -64 -11c-55 0 -120 25 -120 87c0 37 27 66 77 91l-3 69c-30 -49 -78 -81 -165 -81c-114 0 -173 75 -173 159c0 53 27 89 66 111c47 26 106 36 169 43l95 10v18c0 80 -48 101 -113 101c-77 0 -113 -37 -118 -91z" />
    <glyph glyph-name="Aringacute" unicode="&#x1fa;" horiz-adv-x="613" 
d="M459 923l-114 -87c25 -13 42 -38 42 -68c0 -46 -37 -79 -84 -79s-84 33 -84 79c0 19 6 37 25 57l95 98h120zM303 808c-21 0 -40 -17 -40 -40s19 -39 40 -39s40 16 40 39s-19 40 -40 40zM0 0l250 664h110l253 -664h-104l-53 144h-306l-51 -144h-99zM302 566l-122 -339h246
z" />
    <glyph glyph-name="aringacute" unicode="&#x1fb;" horiz-adv-x="515" 
d="M379 766l-90 -95c31 -11 54 -39 54 -74c0 -46 -37 -79 -84 -79s-84 33 -84 79c0 17 6 33 15 47l81 122h108zM259 637c-21 0 -40 -17 -40 -40s19 -39 40 -39s40 16 40 39s-19 40 -40 40zM56 342l83 -3c5 54 41 91 118 91c65 0 113 -21 113 -101v-18l-95 -10
c-63 -7 -122 -17 -169 -43c-39 -22 -66 -58 -66 -111c0 -84 59 -159 173 -159c87 0 135 32 165 81l3 -69h82c-6 65 -11 112 -10 189l2 124c2 132 -55 186 -194 186c-110 0 -199 -56 -205 -157zM376 212c0 -113 -78 -150 -147 -150c-58 0 -99 30 -99 82c0 55 48 78 144 87
l102 10v-29z" />
    <glyph glyph-name="Cacute" unicode="&#x106;" horiz-adv-x="670" 
d="M548 205l92 -13c-30 -130 -141 -204 -287 -204c-194 0 -306 140 -306 345c0 209 123 343 313 343c140 0 247 -78 276 -204l-92 -13c-20 78 -81 135 -188 135c-119 0 -212 -89 -212 -261c0 -167 89 -263 214 -263c107 0 169 54 190 135zM498 803l-138 -105h-84l102 105
h120z" />
    <glyph glyph-name="cacute" unicode="&#x107;" horiz-adv-x="507" 
d="M272 498c122 0 195 -86 206 -162l-86 -12c-12 61 -60 99 -126 99c-78 0 -142 -58 -142 -178c0 -122 65 -182 142 -182c72 0 118 44 130 98l87 -11c-16 -86 -102 -162 -219 -162c-146 0 -230 109 -230 256c0 144 87 254 238 254zM399 664l-121 -118h-71l84 118h108z" />
    <glyph glyph-name="Ccaron" unicode="&#x10c;" horiz-adv-x="670" 
d="M310 698l-122 105h99l63 -52l64 52h99l-125 -105h-78zM548 205l92 -13c-30 -130 -141 -204 -287 -204c-194 0 -306 140 -306 345c0 209 123 343 313 343c140 0 247 -78 276 -204l-92 -13c-20 78 -81 135 -188 135c-119 0 -212 -89 -212 -261c0 -167 89 -263 214 -263
c107 0 169 54 190 135z" />
    <glyph glyph-name="ccaron" unicode="&#x10d;" horiz-adv-x="507" 
d="M272 498c122 0 195 -86 206 -162l-86 -12c-12 61 -60 99 -126 99c-78 0 -142 -58 -142 -178c0 -122 65 -182 142 -182c72 0 118 44 130 98l87 -11c-16 -86 -102 -162 -219 -162c-146 0 -230 109 -230 256c0 144 87 254 238 254zM223 546l-120 118h89l73 -60l74 60h89
l-123 -118h-82z" />
    <glyph glyph-name="Ccircumflex" unicode="&#x108;" horiz-adv-x="670" 
d="M548 205l92 -13c-30 -130 -141 -204 -287 -204c-194 0 -306 140 -306 345c0 209 123 343 313 343c140 0 247 -78 276 -204l-92 -13c-20 78 -81 135 -188 135c-119 0 -212 -89 -212 -261c0 -167 89 -263 214 -263c107 0 169 54 190 135zM395 803l122 -105h-99l-63 52
l-64 -52h-99l125 105h78z" />
    <glyph glyph-name="ccircumflex" unicode="&#x109;" horiz-adv-x="507" 
d="M272 498c122 0 195 -86 206 -162l-86 -12c-12 61 -60 99 -126 99c-78 0 -142 -58 -142 -178c0 -122 65 -182 142 -182c72 0 118 44 130 98l87 -11c-16 -86 -102 -162 -219 -162c-146 0 -230 109 -230 256c0 144 87 254 238 254zM312 664l120 -118h-89l-73 60l-74 -60h-89
l123 118h82z" />
    <glyph glyph-name="Cdotaccent" unicode="&#x10a;" horiz-adv-x="670" 
d="M548 205l92 -13c-30 -130 -141 -204 -287 -204c-194 0 -306 140 -306 345c0 209 123 343 313 343c140 0 247 -78 276 -204l-92 -13c-20 78 -81 135 -188 135c-119 0 -212 -89 -212 -261c0 -167 89 -263 214 -263c107 0 169 54 190 135zM311 798h85v-92h-85v92z" />
    <glyph glyph-name="cdotaccent" unicode="&#x10b;" horiz-adv-x="507" 
d="M272 498c122 0 195 -86 206 -162l-86 -12c-12 61 -60 99 -126 99c-78 0 -142 -58 -142 -178c0 -122 65 -182 142 -182c72 0 118 44 130 98l87 -11c-16 -86 -102 -162 -219 -162c-146 0 -230 109 -230 256c0 144 87 254 238 254zM217 651h85v-92h-85v92z" />
    <glyph glyph-name="Dcaron" unicode="&#x10e;" horiz-adv-x="668" 
d="M524 332c0 229 -153 248 -293 248h-56v-496h56c140 0 293 19 293 248zM80 664h154c214 0 387 -75 387 -332s-173 -332 -387 -332h-154v664zM237 698l-122 105h99l63 -52l64 52h99l-125 -105h-78z" />
    <glyph glyph-name="dcaron" unicode="&#x10f;" horiz-adv-x="583" 
d="M629 664l-65 -158h-54l28 158h91zM482 0v664h-85v-238c-27 42 -78 72 -149 72c-125 0 -214 -96 -214 -254c0 -160 86 -256 204 -256c82 0 128 32 159 79l3 -67h82zM260 62c-90 0 -136 68 -136 182c0 113 47 180 136 180c78 0 141 -53 141 -180s-66 -182 -141 -182z" />
    <glyph glyph-name="Dcroat" unicode="&#x110;" horiz-adv-x="681" 
d="M20 384h76v280h154c214 0 384 -75 384 -332s-170 -332 -384 -332h-154v300h-76v84zM537 332c0 229 -150 248 -290 248h-56v-196h131v-84h-131v-216h56c140 0 290 19 290 248z" />
    <glyph glyph-name="dcroat" unicode="&#x111;" horiz-adv-x="549" 
d="M482 528v-528h-82l-3 67c-31 -47 -77 -79 -159 -79c-118 0 -204 96 -204 256c0 158 89 254 214 254c71 0 122 -30 149 -72v102h-105v70h105v66h85v-66h78v-70h-78zM260 62c75 0 141 55 141 182s-63 180 -141 180c-89 0 -136 -67 -136 -180c0 -114 46 -182 136 -182z" />
    <glyph glyph-name="Ebreve" unicode="&#x114;" horiz-adv-x="570" 
d="M80 0v664h457v-84h-362v-196h341v-84h-341v-216h362v-84h-457zM380 803h72c-8 -64 -53 -110 -148 -110c-92 0 -137 46 -145 110h72c5 -35 30 -54 74 -54s69 20 75 54z" />
    <glyph glyph-name="ebreve" unicode="&#x115;" 
d="M271 -12c-160 0 -237 112 -237 255c0 153 99 255 238 255c154 0 242 -122 230 -280h-378c0 -96 62 -155 145 -155c78 0 117 33 138 86l87 -11c-23 -81 -100 -150 -223 -150zM272 426c-85 0 -143 -51 -147 -137h287c-2 66 -49 137 -140 137zM413 664
c-7 -66 -43 -123 -149 -123c-103 0 -140 57 -146 123h66c4 -40 27 -67 81 -67s78 27 82 67h66z" />
    <glyph glyph-name="Ecaron" unicode="&#x11a;" horiz-adv-x="570" 
d="M80 0v664h457v-84h-362v-196h341v-84h-341v-216h362v-84h-457zM272 698l-122 105h99l63 -52l64 52h99l-125 -105h-78z" />
    <glyph glyph-name="ecaron" unicode="&#x11b;" 
d="M271 -12c-160 0 -237 112 -237 255c0 153 99 255 238 255c154 0 242 -122 230 -280h-378c0 -96 62 -155 145 -155c78 0 117 33 138 86l87 -11c-23 -81 -100 -150 -223 -150zM272 426c-85 0 -143 -51 -147 -137h287c-2 66 -49 137 -140 137zM225 546l-120 118h89l73 -60
l74 60h89l-123 -118h-82z" />
    <glyph glyph-name="Edotaccent" unicode="&#x116;" horiz-adv-x="570" 
d="M80 0v664h457v-84h-362v-196h341v-84h-341v-216h362v-84h-457zM261 798h85v-92h-85v92z" />
    <glyph glyph-name="edotaccent" unicode="&#x117;" 
d="M271 -12c-160 0 -237 112 -237 255c0 153 99 255 238 255c154 0 242 -122 230 -280h-378c0 -96 62 -155 145 -155c78 0 117 33 138 86l87 -11c-23 -81 -100 -150 -223 -150zM272 426c-85 0 -143 -51 -147 -137h287c-2 66 -49 137 -140 137zM226 651h85v-92h-85v92z" />
    <glyph glyph-name="Emacron" unicode="&#x112;" horiz-adv-x="570" 
d="M80 0v664h457v-84h-362v-196h341v-84h-341v-216h362v-84h-457zM450 715h-279v70h279v-70z" />
    <glyph glyph-name="emacron" unicode="&#x113;" 
d="M271 -12c-160 0 -237 112 -237 255c0 153 99 255 238 255c154 0 242 -122 230 -280h-378c0 -96 62 -155 145 -155c78 0 117 33 138 86l87 -11c-23 -81 -100 -150 -223 -150zM272 426c-85 0 -143 -51 -147 -137h287c-2 66 -49 137 -140 137zM409 570h-279v70h279v-70z" />
    <glyph glyph-name="Eng" unicode="&#x14a;" horiz-adv-x="702" 
d="M527 3l-352 560v-563h-95v664h142l305 -493v493h95v-678c0 -131 -45 -159 -155 -159h-39v85h20c70 0 79 12 79 82v9z" />
    <glyph glyph-name="eng" unicode="&#x14b;" horiz-adv-x="537" 
d="M393 -36v319c0 108 -37 141 -109 141c-82 0 -132 -56 -132 -163v-261h-85v490h85v-68c28 43 77 76 160 76c114 0 166 -74 166 -191v-342c0 -104 -22 -138 -118 -138h-43v72h24c44 0 52 13 52 65z" />
    <glyph glyph-name="Eogonek" unicode="&#x118;" horiz-adv-x="570" 
d="M80 0v664h457v-84h-362v-196h341v-84h-341v-216h362v-84h-5c-47 -23 -82 -51 -82 -79c0 -29 30 -40 61 -40c17 0 34 3 46 8v-56c-16 -7 -38 -11 -64 -11c-55 0 -120 25 -120 87c0 37 24 66 74 91h-367z" />
    <glyph glyph-name="eogonek" unicode="&#x119;" 
d="M494 138c-18 -61 -61 -109 -133 -138c-47 -19 -87 -51 -87 -79c0 -29 30 -40 61 -40c17 0 34 3 46 8v-56c-16 -7 -38 -11 -64 -11c-55 0 -120 25 -120 87c0 32 17 57 53 80c-146 9 -216 117 -216 254c0 153 99 255 238 255c154 0 242 -122 230 -280h-378
c0 -96 62 -155 145 -155c78 0 117 34 138 86zM272 426c-85 0 -143 -51 -147 -137h287c-2 66 -49 137 -140 137z" />
    <glyph glyph-name="Gbreve" unicode="&#x11e;" horiz-adv-x="716" 
d="M360 676c140 0 248 -78 279 -203l-92 -13c-22 75 -84 134 -191 134c-119 0 -212 -89 -212 -261c0 -167 87 -263 212 -263c90 0 198 35 198 174v16h-178v84h268v-344h-75l-4 85c-44 -69 -123 -97 -213 -97c-194 0 -305 140 -305 345c0 209 124 343 313 343zM432 803h72
c-8 -64 -53 -110 -148 -110c-92 0 -137 46 -145 110h72c5 -35 30 -54 74 -54s69 20 75 54z" />
    <glyph glyph-name="gbreve" unicode="&#x11f;" horiz-adv-x="545" 
d="M393 87v-44c0 -68 -10 -91 -28 -111c-22 -24 -57 -37 -102 -37c-78 0 -105 34 -117 79l-90 -3c16 -98 92 -150 206 -150c74 0 136 24 173 66c28 31 43 73 43 175v428h-83l-2 -64c-27 42 -74 72 -145 72c-125 0 -214 -90 -214 -244c0 -156 86 -246 204 -246
c82 0 124 32 155 79zM260 82c-90 0 -136 62 -136 172c0 109 47 170 136 170c78 0 137 -47 137 -170s-62 -172 -137 -172zM417 664c-7 -66 -43 -123 -149 -123c-103 0 -140 57 -146 123h66c4 -40 27 -67 81 -67s78 27 82 67h66z" />
    <glyph glyph-name="Gcircumflex" unicode="&#x11c;" horiz-adv-x="716" 
d="M360 676c140 0 248 -78 279 -203l-92 -13c-22 75 -84 134 -191 134c-119 0 -212 -89 -212 -261c0 -167 87 -263 212 -263c90 0 198 35 198 174v16h-178v84h268v-344h-75l-4 85c-44 -69 -123 -97 -213 -97c-194 0 -305 140 -305 345c0 209 124 343 313 343zM399 803
l122 -105h-99l-63 52l-64 -52h-99l125 105h78z" />
    <glyph glyph-name="gcircumflex" unicode="&#x11d;" horiz-adv-x="545" 
d="M393 87v-44c0 -68 -10 -91 -28 -111c-22 -24 -57 -37 -102 -37c-78 0 -105 34 -117 79l-90 -3c16 -98 92 -150 206 -150c74 0 136 24 173 66c28 31 43 73 43 175v428h-83l-2 -64c-27 42 -74 72 -145 72c-125 0 -214 -90 -214 -244c0 -156 86 -246 204 -246
c82 0 124 32 155 79zM260 82c-90 0 -136 62 -136 172c0 109 47 170 136 170c78 0 137 -47 137 -170s-62 -172 -137 -172zM313 664l120 -118h-89l-73 60l-74 -60h-89l123 118h82z" />
    <glyph glyph-name="Gcommaaccent" unicode="&#x122;" horiz-adv-x="716" 
d="M360 676c140 0 248 -78 279 -203l-92 -13c-22 75 -84 134 -191 134c-119 0 -212 -89 -212 -261c0 -167 87 -263 212 -263c90 0 198 35 198 174v16h-178v84h268v-344h-75l-4 85c-44 -69 -123 -97 -213 -97c-194 0 -305 140 -305 345c0 209 124 343 313 343zM313 -116v83
h88v-89l-41 -83h-50l36 89h-33z" />
    <glyph glyph-name="gcommaaccent" unicode="&#x123;" horiz-adv-x="545" 
d="M303 613v-83h-88v89l41 83h50l-36 -89h33zM393 87v-44c0 -68 -10 -91 -28 -111c-22 -24 -57 -37 -102 -37c-78 0 -105 34 -117 79l-90 -3c16 -98 92 -150 206 -150c74 0 136 24 173 66c28 31 43 73 43 175v428h-83l-2 -64c-27 42 -74 72 -145 72
c-125 0 -214 -90 -214 -244c0 -156 86 -246 204 -246c82 0 124 32 155 79zM260 82c-90 0 -136 62 -136 172c0 109 47 170 136 170c78 0 137 -47 137 -170s-62 -172 -137 -172z" />
    <glyph glyph-name="Gdotaccent" unicode="&#x120;" horiz-adv-x="716" 
d="M360 676c140 0 248 -78 279 -203l-92 -13c-22 75 -84 134 -191 134c-119 0 -212 -89 -212 -261c0 -167 87 -263 212 -263c90 0 198 35 198 174v16h-178v84h268v-344h-75l-4 85c-44 -69 -123 -97 -213 -97c-194 0 -305 140 -305 345c0 209 124 343 313 343zM307 798h85
v-92h-85v92z" />
    <glyph glyph-name="gdotaccent" unicode="&#x121;" horiz-adv-x="545" 
d="M393 87v-44c0 -68 -10 -91 -28 -111c-22 -24 -57 -37 -102 -37c-78 0 -105 34 -117 79l-90 -3c16 -98 92 -150 206 -150c74 0 136 24 173 66c28 31 43 73 43 175v428h-83l-2 -64c-27 42 -74 72 -145 72c-125 0 -214 -90 -214 -244c0 -156 86 -246 204 -246
c82 0 124 32 155 79zM260 82c-90 0 -136 62 -136 172c0 109 47 170 136 170c78 0 137 -47 137 -170s-62 -172 -137 -172zM224 651h85v-92h-85v92z" />
    <glyph glyph-name="Gtilde" horiz-adv-x="716" 
d="M360 676c140 0 248 -78 279 -203l-92 -13c-22 75 -84 134 -191 134c-119 0 -212 -89 -212 -261c0 -167 87 -263 212 -263c90 0 198 35 198 174v16h-178v84h268v-344h-75l-4 85c-44 -69 -123 -97 -213 -97c-194 0 -305 140 -305 345c0 209 124 343 313 343zM413 760
c24 0 40 14 44 42h66c-13 -77 -59 -105 -108 -105c-56 0 -87 44 -126 44c-24 0 -39 -15 -42 -41h-66c12 72 54 104 107 104c57 0 83 -44 125 -44z" />
    <glyph glyph-name="gtilde" horiz-adv-x="545" 
d="M393 87v-44c0 -68 -10 -91 -28 -111c-22 -24 -57 -37 -102 -37c-78 0 -105 34 -117 79l-90 -3c16 -98 92 -150 206 -150c74 0 136 24 173 66c28 31 43 73 43 175v428h-83l-2 -64c-27 42 -74 72 -145 72c-125 0 -214 -90 -214 -244c0 -156 86 -246 204 -246
c82 0 124 32 155 79zM260 82c-90 0 -136 62 -136 172c0 109 47 170 136 170c78 0 137 -47 137 -170s-62 -172 -137 -172zM333 615c24 0 40 14 44 42h66c-13 -77 -59 -105 -108 -105c-56 0 -87 44 -126 44c-24 0 -39 -15 -42 -41h-66c12 72 54 104 107 104
c57 0 83 -44 125 -44z" />
    <glyph glyph-name="Hbar" unicode="&#x126;" horiz-adv-x="704" 
d="M529 664h95v-664h-95v300h-354v-300h-95v664h95v-107h354v107zM175 384h354v89h-354v-89z" />
    <glyph glyph-name="hbar" unicode="&#x127;" horiz-adv-x="537" 
d="M152 664v-66h116v-70h-116v-106c28 43 77 76 161 76c66 0 112 -25 138 -67c19 -31 27 -72 27 -130v-301h-85v278c0 52 -6 83 -18 104c-18 30 -48 42 -91 42c-82 0 -132 -56 -132 -163v-261h-85v528h-78v70h78v66h85z" />
    <glyph glyph-name="Hcircumflex" unicode="&#x124;" horiz-adv-x="704" 
d="M529 664h95v-664h-95v300h-354v-300h-95v664h95v-280h354v280zM393 803l122 -105h-99l-63 52l-64 -52h-99l125 105h78z" />
    <glyph glyph-name="hcircumflex" unicode="&#x125;" horiz-adv-x="537" 
d="M347 664l110 -128h-84l-58 66l-59 -66h-84l113 128h62zM152 664v-242c28 43 77 76 161 76c66 0 112 -25 138 -67c19 -31 27 -72 27 -130v-301h-85v278c0 52 -6 83 -18 104c-18 30 -48 42 -91 42c-82 0 -132 -56 -132 -163v-261h-85v664h85z" />
    <glyph glyph-name="IJ" unicode="&#x132;" horiz-adv-x="559" 
d="M175 664v-664h-95v664h95zM285 0v85h15c81 0 84 10 84 84v495h95v-503c0 -143 -46 -161 -158 -161h-36z" />
    <glyph glyph-name="ij" unicode="&#x133;" horiz-adv-x="438" 
d="M67 490h85v-490h-85v490zM67 664h85v-102h-85v102zM286 -36v526h85v-525c0 -104 -22 -138 -118 -138h-43v72h24c44 0 52 13 52 65zM286 664h85v-102h-85v102z" />
    <glyph glyph-name="Ibreve" unicode="&#x12c;" horiz-adv-x="255" 
d="M129 693c-72 0 -117 46 -125 110h72c5 -35 20 -54 54 -54s49 20 55 54h72c-8 -64 -53 -110 -128 -110zM175 664v-664h-95v664h95z" />
    <glyph glyph-name="ibreve" unicode="&#x12d;" horiz-adv-x="219" 
d="M248 664c-7 -76 -43 -135 -139 -135c-93 0 -130 59 -136 135h66c4 -50 27 -79 71 -79s68 29 72 79h66zM67 490h85v-490h-85v490z" />
    <glyph glyph-name="Idotaccent" unicode="&#x130;" horiz-adv-x="255" 
d="M80 798h95v-92h-95v92zM175 664v-664h-95v664h95z" />
    <glyph glyph-name="Imacron" unicode="&#x12a;" horiz-adv-x="255" 
d="M225 715h-195v70h195v-70zM175 664v-664h-95v664h95z" />
    <glyph glyph-name="imacron" unicode="&#x12b;" horiz-adv-x="219" 
d="M226 564h-232v70h232v-70zM67 490h85v-490h-85v490z" />
    <glyph glyph-name="Iogonek" unicode="&#x12e;" horiz-adv-x="255" 
d="M80 0v664h95v-664c-47 -23 -82 -51 -82 -79c0 -29 30 -40 61 -40c17 0 34 3 46 8v-56c-16 -7 -38 -11 -64 -11c-55 0 -120 25 -120 87c0 37 20 68 64 91z" />
    <glyph glyph-name="iogonek" unicode="&#x12f;" horiz-adv-x="219" 
d="M67 664h85v-102h-85v102zM67 0v490h85v-490c-47 -23 -82 -51 -82 -79c0 -29 30 -40 61 -40c17 0 34 3 46 8v-56c-16 -7 -38 -11 -64 -11c-55 0 -120 25 -120 87c0 37 24 66 74 91z" />
    <glyph glyph-name="Itilde" unicode="&#x128;" horiz-adv-x="255" 
d="M42 700h-55c2 84 45 107 79 107c44 0 82 -47 114 -47c21 0 29 11 33 42h54c-8 -76 -40 -107 -75 -107c-45 0 -86 48 -118 48c-21 0 -30 -9 -32 -43zM175 664v-664h-95v664h95z" />
    <glyph glyph-name="itilde" unicode="&#x129;" horiz-adv-x="219" 
d="M164 617c25 0 44 14 49 38h68c-16 -98 -83 -107 -112 -107c-52 0 -80 38 -114 38c-25 0 -43 -14 -48 -38h-68c16 98 83 107 112 107c52 0 75 -38 113 -38zM67 490h85v-490h-85v490z" />
    <glyph glyph-name="Jcircumflex" unicode="&#x134;" horiz-adv-x="304" 
d="M216 803l102 -105h-89l-53 52l-54 -52h-89l105 105h78zM30 0v85h15c81 0 84 10 84 84v495h95v-503c0 -143 -46 -161 -158 -161h-36z" />
    <glyph glyph-name="jcircumflex" unicode="&#x135;" horiz-adv-x="219" 
d="M67 -36v526h85v-525c0 -104 -22 -138 -118 -138h-43v72h24c44 0 52 13 52 65zM139 664l110 -128h-84l-58 66l-59 -66h-84l113 128h62z" />
    <glyph glyph-name="dotlessj" unicode="&#x237;" horiz-adv-x="219" 
d="M67 -36v526h85v-525c0 -104 -22 -138 -118 -138h-43v72h24c44 0 52 13 52 65z" />
    <glyph glyph-name="Kcommaaccent" unicode="&#x136;" horiz-adv-x="619" 
d="M175 664v-330l304 330h118l-251 -268l280 -396h-114l-230 327l-107 -115v-212h-95v664h95zM282 -116v83h88v-89l-41 -83h-50l36 89h-33z" />
    <glyph glyph-name="kcommaaccent" unicode="&#x137;" horiz-adv-x="469" 
d="M67 664h85v-381l201 207h104l-176 -181l192 -309h-99l-151 249l-71 -73v-176h-85v664zM205 -116v83h88v-89l-41 -83h-50l36 89h-33z" />
    <glyph glyph-name="kgreenlandic" unicode="&#x138;" horiz-adv-x="470" 
d="M67 490h85v-216l203 216h96l-187 -197l210 -293h-104l-166 230l-52 -55v-175h-85v490z" />
    <glyph glyph-name="Lacute" unicode="&#x139;" 
d="M175 664v-580h356v-84h-451v664h95zM303 803l-138 -105h-84l102 105h120z" />
    <glyph glyph-name="lacute" unicode="&#x13a;" horiz-adv-x="219" 
d="M152 664v-664h-85v664h85zM292 803l-138 -105h-84l102 105h120z" />
    <glyph glyph-name="Lcaron" unicode="&#x13d;" 
d="M379 664l-65 -158h-54l28 158h91zM175 664v-580h356v-84h-451v664h95z" />
    <glyph glyph-name="lcaron" unicode="&#x13e;" horiz-adv-x="253" 
d="M299 664l-65 -158h-54l28 158h91zM152 664v-664h-85v664h85z" />
    <glyph glyph-name="Lcommaaccent" unicode="&#x13b;" 
d="M175 664v-580h356v-84h-451v664h95zM269 -116v83h88v-89l-41 -83h-50l36 89h-33z" />
    <glyph glyph-name="lcommaaccent" unicode="&#x13c;" horiz-adv-x="219" 
d="M152 664v-664h-85v664h85zM66 -116v83h88v-89l-41 -83h-50l36 89h-33z" />
    <glyph glyph-name="Ldot" unicode="&#x13f;" 
d="M80 798h95v-92h-95v92zM175 664v-580h356v-84h-451v664h95z" />
    <glyph glyph-name="ldot" unicode="&#x140;" horiz-adv-x="219" 
d="M67 706v92h85v-92h-85zM152 664v-664h-85v664h85z" />
    <glyph glyph-name="Mcircumflex" horiz-adv-x="822" 
d="M461 0h-100l-186 577v-577h-95v664h159l172 -552l172 552h159v-664h-95v577zM452 803l122 -105h-99l-63 52l-64 -52h-99l125 105h78z" />
    <glyph glyph-name="mcircumflex" horiz-adv-x="835" 
d="M67 0v490h85v-68c26 44 71 76 152 76c78 0 117 -34 140 -85c37 56 91 85 172 85c52 0 91 -19 117 -46c30 -32 43 -82 43 -151v-301h-85v277c0 60 -8 98 -28 119c-18 19 -44 28 -78 28c-74 0 -121 -57 -121 -160v-264h-85v277c0 60 -8 98 -28 119c-18 19 -44 28 -78 28
c-74 0 -121 -57 -121 -160v-264h-85zM477 664l120 -118h-89l-73 60l-74 -60h-89l123 118h82z" />
    <glyph glyph-name="Mmacron" horiz-adv-x="822" 
d="M461 0h-100l-186 577v-577h-95v664h159l172 -552l172 552h159v-664h-95v577zM551 715h-279v70h279v-70z" />
    <glyph glyph-name="mmacron" horiz-adv-x="835" 
d="M67 0v490h85v-68c26 44 71 76 152 76c78 0 117 -34 140 -85c37 56 91 85 172 85c52 0 91 -19 117 -46c30 -32 43 -82 43 -151v-301h-85v277c0 60 -8 98 -28 119c-18 19 -44 28 -78 28c-74 0 -121 -57 -121 -160v-264h-85v277c0 60 -8 98 -28 119c-18 19 -44 28 -78 28
c-74 0 -121 -57 -121 -160v-264h-85zM570 570h-279v70h279v-70z" />
    <glyph glyph-name="Nacute" unicode="&#x143;" horiz-adv-x="702" 
d="M622 0h-139l-308 565v-565h-95v664h139l308 -564v564h95v-664zM517 803l-138 -105h-84l102 105h120z" />
    <glyph glyph-name="nacute" unicode="&#x144;" horiz-adv-x="537" 
d="M152 490v-68c28 43 77 76 161 76c66 0 112 -25 138 -67c19 -31 27 -72 27 -130v-301h-85v278c0 52 -6 83 -18 104c-18 30 -48 42 -91 42c-82 0 -132 -56 -132 -163v-261h-85v490h85zM418 664l-121 -118h-71l84 118h108z" />
    <glyph glyph-name="Ncaron" unicode="&#x147;" horiz-adv-x="702" 
d="M622 0h-139l-308 565v-565h-95v664h139l308 -564v564h95v-664zM324 698l-122 105h99l63 -52l64 52h99l-125 -105h-78z" />
    <glyph glyph-name="ncaron" unicode="&#x148;" horiz-adv-x="537" 
d="M152 490v-68c28 43 77 76 161 76c66 0 112 -25 138 -67c19 -31 27 -72 27 -130v-301h-85v278c0 52 -6 83 -18 104c-18 30 -48 42 -91 42c-82 0 -132 -56 -132 -163v-261h-85v490h85zM231 546l-120 118h89l73 -60l74 60h89l-123 -118h-82z" />
    <glyph glyph-name="Ncircumflex" horiz-adv-x="702" 
d="M622 0h-139l-308 565v-565h-95v664h139l308 -564v564h95v-664zM399 803l122 -105h-99l-63 52l-64 -52h-99l125 105h78z" />
    <glyph glyph-name="ncircumflex" horiz-adv-x="537" 
d="M152 490v-68c28 43 77 76 161 76c66 0 112 -25 138 -67c19 -31 27 -72 27 -130v-301h-85v278c0 52 -6 83 -18 104c-18 30 -48 42 -91 42c-82 0 -132 -56 -132 -163v-261h-85v490h85zM319 664l120 -118h-89l-73 60l-74 -60h-89l123 118h82z" />
    <glyph glyph-name="Ncommaaccent" unicode="&#x145;" horiz-adv-x="702" 
d="M622 0h-139l-308 565v-565h-95v664h139l308 -564v564h95v-664zM315 -116v83h88v-89l-41 -83h-50l36 89h-33z" />
    <glyph glyph-name="ncommaaccent" unicode="&#x146;" horiz-adv-x="537" 
d="M152 490v-68c28 43 77 76 161 76c66 0 112 -25 138 -67c19 -31 27 -72 27 -130v-301h-85v278c0 52 -6 83 -18 104c-18 30 -48 42 -91 42c-82 0 -132 -56 -132 -163v-261h-85v490h85zM231 -116v83h88v-89l-41 -83h-50l36 89h-33z" />
    <glyph glyph-name="Ndieresis" horiz-adv-x="702" 
d="M622 0h-139l-308 565v-565h-95v664h139l308 -564v564h95v-664zM212 797h85v-92h-85v92zM425 797h85v-92h-85v92z" />
    <glyph glyph-name="ndieresis" horiz-adv-x="537" 
d="M152 490v-68c28 43 77 76 161 76c66 0 112 -25 138 -67c19 -31 27 -72 27 -130v-301h-85v278c0 52 -6 83 -18 104c-18 30 -48 42 -91 42c-82 0 -132 -56 -132 -163v-261h-85v490h85zM124 557v92h85v-92h-85zM337 649h85v-92h-85v92z" />
    <glyph glyph-name="Nmacron" horiz-adv-x="702" 
d="M622 0h-139l-308 565v-565h-95v664h139l308 -564v564h95v-664zM493 715h-279v70h279v-70z" />
    <glyph glyph-name="nmacron" horiz-adv-x="537" 
d="M152 490v-68c28 43 77 76 161 76c66 0 112 -25 138 -67c19 -31 27 -72 27 -130v-301h-85v278c0 52 -6 83 -18 104c-18 30 -48 42 -91 42c-82 0 -132 -56 -132 -163v-261h-85v490h85zM415 570h-279v70h279v-70z" />
    <glyph glyph-name="napostrophe" unicode="&#x149;" horiz-adv-x="537" 
d="M152 490v-68c28 43 77 76 161 76c66 0 112 -25 138 -67c19 -31 27 -72 27 -130v-301h-85v278c0 52 -6 83 -18 104c-18 30 -48 42 -91 42c-82 0 -132 -56 -132 -163v-261h-85v490h85zM72 619v83h88v-89l-41 -83h-50l36 89h-33z" />
    <glyph glyph-name="Obreve" unicode="&#x14e;" horiz-adv-x="726" 
d="M582 332c0 170 -96 262 -219 262s-219 -92 -219 -262s96 -262 219 -262s219 92 219 262zM679 332c0 -213 -130 -344 -317 -344c-193 0 -315 141 -315 344s130 344 317 344s315 -131 315 -344zM431 803h72c-8 -64 -53 -110 -148 -110c-92 0 -137 46 -145 110h72
c5 -35 30 -54 74 -54s69 20 75 54z" />
    <glyph glyph-name="obreve" unicode="&#x14f;" horiz-adv-x="530" 
d="M124 243c0 -128 61 -181 141 -181s141 53 141 181s-61 181 -141 181s-141 -53 -141 -181zM34 243c0 176 111 255 231 255s231 -79 231 -255s-111 -255 -231 -255s-231 79 -231 255zM410 664c-7 -66 -43 -123 -149 -123c-103 0 -140 57 -146 123h66c4 -40 27 -67 81 -67
s78 27 82 67h66z" />
    <glyph glyph-name="Ohorn" unicode="&#x1a0;" horiz-adv-x="726" 
d="M679 332c0 -213 -130 -344 -317 -344c-193 0 -315 141 -315 344s130 344 317 344c73 0 137 -21 189 -56c21 -14 40 -24 64 -24s41 15 41 45c0 29 -20 51 -20 51l67 20c13 -20 23 -42 23 -72c0 -63 -38 -99 -106 -95c36 -56 57 -128 57 -213zM582 332
c0 170 -96 262 -219 262s-219 -92 -219 -262s96 -262 219 -262s219 92 219 262z" />
    <glyph glyph-name="ohorn" unicode="&#x1a1;" horiz-adv-x="530" 
d="M34 243c0 176 111 255 231 255c33 0 67 -7 97 -19c23 -9 51 -25 74 -25c28 0 43 17 43 40c0 30 -15 50 -15 50l65 17c10 -21 17 -42 17 -67c0 -56 -30 -86 -95 -89c28 -40 45 -94 45 -162c0 -176 -111 -255 -231 -255s-231 79 -231 255zM124 243c0 -128 61 -181 141 -181
s141 53 141 181s-61 181 -141 181s-141 -53 -141 -181z" />
    <glyph glyph-name="Ohungarumlaut" unicode="&#x150;" horiz-adv-x="726" 
d="M582 332c0 170 -96 262 -219 262s-219 -92 -219 -262s96 -262 219 -262s219 92 219 262zM679 332c0 -213 -130 -344 -317 -344c-193 0 -315 141 -315 344s130 344 317 344s315 -131 315 -344zM436 803l-138 -105h-84l102 105h120zM591 803l-138 -105h-84l102 105h120z
" />
    <glyph glyph-name="ohungarumlaut" unicode="&#x151;" horiz-adv-x="530" 
d="M124 243c0 -128 61 -181 141 -181s141 53 141 181s-61 181 -141 181s-141 -53 -141 -181zM34 243c0 176 111 255 231 255s231 -79 231 -255s-111 -255 -231 -255s-231 79 -231 255zM326 664l-121 -118h-71l84 118h108zM473 664l-121 -118h-71l84 118h108z" />
    <glyph glyph-name="Omacron" unicode="&#x14c;" horiz-adv-x="726" 
d="M582 332c0 170 -96 262 -219 262s-219 -92 -219 -262s96 -262 219 -262s219 92 219 262zM679 332c0 -213 -130 -344 -317 -344c-193 0 -315 141 -315 344s130 344 317 344s315 -131 315 -344zM502 715h-279v70h279v-70z" />
    <glyph glyph-name="omacron" unicode="&#x14d;" horiz-adv-x="530" 
d="M124 243c0 -128 61 -181 141 -181s141 53 141 181s-61 181 -141 181s-141 -53 -141 -181zM34 243c0 176 111 255 231 255s231 -79 231 -255s-111 -255 -231 -255s-231 79 -231 255zM402 570h-279v70h279v-70z" />
    <glyph glyph-name="Oslashacute" unicode="&#x1fe;" horiz-adv-x="720" 
d="M658 646l-62 -73c49 -59 77 -141 77 -241c0 -213 -127 -344 -314 -344c-82 0 -150 26 -202 70l-61 -71l-37 33l63 74c-49 60 -75 142 -75 238c0 203 127 344 314 344c79 0 148 -24 200 -67l59 69zM576 332c0 69 -15 126 -42 168l-319 -373c38 -38 88 -57 145 -57
c123 0 216 92 216 262zM144 332c0 -68 14 -123 40 -165l318 372c-38 36 -87 55 -142 55c-123 0 -216 -92 -216 -262zM529 803l-138 -105h-84l102 105h120z" />
    <glyph glyph-name="oslashacute" unicode="&#x1ff;" horiz-adv-x="530" 
d="M37 21l46 53c-31 41 -49 97 -49 169c0 176 111 255 231 255c53 0 104 -16 145 -48l43 49l38 -32l-46 -53c31 -41 51 -98 51 -171c0 -176 -111 -255 -231 -255c-54 0 -107 16 -148 50l-43 -50zM406 243c0 43 -7 77 -19 104l-217 -249c25 -25 57 -36 95 -36
c80 0 141 53 141 181zM124 243c0 -42 6 -75 18 -102l216 248c-25 24 -57 35 -93 35c-80 0 -141 -53 -141 -181zM418 664l-121 -118h-71l84 118h108z" />
    <glyph glyph-name="Pmacron" horiz-adv-x="576" 
d="M80 664h196c164 0 280 -42 280 -209s-116 -209 -280 -209h-101v-246h-95v664zM283 580h-108v-250h108c99 0 176 15 176 125s-77 125 -176 125zM419 715h-279v70h279v-70z" />
    <glyph glyph-name="pmacron" horiz-adv-x="549" 
d="M152 -173v233c27 -42 78 -72 149 -72c125 0 214 96 214 254c0 160 -86 256 -204 256c-82 0 -128 -32 -159 -79l-2 71h-83v-663h85zM289 424c90 0 136 -68 136 -182c0 -113 -47 -180 -136 -180c-78 0 -141 53 -141 180s66 182 141 182zM431 570h-279v70h279v-70z" />
    <glyph glyph-name="Racute" unicode="&#x154;" horiz-adv-x="623" 
d="M483 0l-144 273c-17 -1 -35 -1 -53 -1h-111v-272h-95v664h206c164 0 280 -33 280 -194c0 -106 -50 -158 -130 -182l153 -288h-106zM293 580h-118v-224h118c99 0 176 8 176 112s-77 112 -176 112zM434 803l-138 -105h-84l102 105h120z" />
    <glyph glyph-name="racute" unicode="&#x155;" horiz-adv-x="330" 
d="M316 492v-90c-18 2 -33 3 -47 3c-78 0 -117 -43 -117 -153v-252h-85v490h83v-87c25 56 76 88 141 90c8 0 16 0 25 -1zM322 664l-121 -118h-71l84 118h108z" />
    <glyph glyph-name="Rcaron" unicode="&#x158;" horiz-adv-x="623" 
d="M483 0l-144 273c-17 -1 -35 -1 -53 -1h-111v-272h-95v664h206c164 0 280 -33 280 -194c0 -106 -50 -158 -130 -182l153 -288h-106zM293 580h-118v-224h118c99 0 176 8 176 112s-77 112 -176 112zM256 698l-122 105h99l63 -52l64 52h99l-125 -105h-78z" />
    <glyph glyph-name="rcaron" unicode="&#x159;" horiz-adv-x="330" 
d="M316 492v-90c-18 2 -33 3 -47 3c-78 0 -117 -43 -117 -153v-252h-85v490h83v-87c25 56 76 88 141 90c8 0 16 0 25 -1zM149 546l-120 118h89l73 -60l74 60h89l-123 -118h-82z" />
    <glyph glyph-name="Rcommaaccent" unicode="&#x156;" horiz-adv-x="623" 
d="M483 0l-144 273c-17 -1 -35 -1 -53 -1h-111v-272h-95v664h206c164 0 280 -33 280 -194c0 -106 -50 -158 -130 -182l153 -288h-106zM293 580h-118v-224h118c99 0 176 8 176 112s-77 112 -176 112zM259 -116v83h88v-89l-41 -83h-50l36 89h-33z" />
    <glyph glyph-name="rcommaaccent" unicode="&#x157;" horiz-adv-x="330" 
d="M316 492v-90c-18 2 -33 3 -47 3c-78 0 -117 -43 -117 -153v-252h-85v490h83v-87c25 56 76 88 141 90c8 0 16 0 25 -1zM66 -116v83h88v-89l-41 -83h-50l36 89h-33z" />
    <glyph glyph-name="Sacute" unicode="&#x15a;" horiz-adv-x="596" 
d="M52 494c0 128 135 182 244 182c121 0 229 -56 255 -177l-92 -13c-22 83 -99 108 -167 108c-52 0 -143 -21 -143 -97c0 -59 47 -85 110 -99l78 -17c103 -23 226 -59 226 -194c0 -132 -122 -199 -256 -199c-159 0 -259 87 -277 213l92 13c18 -92 80 -144 187 -144
c99 0 157 42 157 108c0 71 -61 98 -145 116l-84 18c-92 20 -185 69 -185 182zM437 803l-138 -105h-84l102 105h120z" />
    <glyph glyph-name="sacute" unicode="&#x15b;" horiz-adv-x="480" 
d="M441 357l-88 -8c-13 57 -60 78 -122 78c-53 0 -105 -19 -105 -60c0 -38 29 -54 81 -65l59 -12c92 -19 178 -52 178 -149c0 -98 -89 -153 -204 -153c-131 0 -203 82 -212 159l89 8c13 -59 51 -96 125 -96c68 0 116 30 116 73c0 45 -50 67 -107 79l-64 13
c-71 14 -146 45 -146 138c0 86 94 136 199 136c110 0 182 -57 201 -141zM371 664l-121 -118h-71l84 118h108z" />
    <glyph glyph-name="Scedilla" unicode="&#x15e;" horiz-adv-x="596" 
d="M191 -164l15 38c16 -8 36 -13 54 -13c27 0 56 7 56 29c0 19 -18 28 -40 28c-11 0 -26 -2 -36 -8l-28 16l41 66c-128 17 -207 98 -223 209l92 13c18 -92 80 -144 187 -144c99 0 157 42 157 108c0 71 -61 98 -145 116l-84 18c-92 20 -185 69 -185 182
c0 128 135 182 244 182c121 0 229 -56 255 -177l-92 -13c-22 83 -99 108 -167 108c-52 0 -143 -21 -143 -97c0 -59 47 -85 110 -99l78 -17c103 -23 226 -59 226 -194c0 -132 -122 -199 -256 -199h-8l-20 -33c10 2 20 3 28 3c45 0 71 -25 71 -63c0 -49 -53 -76 -101 -76
c-25 0 -55 3 -86 17z" />
    <glyph glyph-name="scedilla" unicode="&#x15f;" horiz-adv-x="480" 
d="M130 -164l15 38c16 -8 36 -13 54 -13c27 0 56 7 56 29c0 19 -18 28 -40 28c-11 0 -26 -2 -36 -8l-28 16l41 66c-101 17 -156 88 -164 155l89 8c13 -59 51 -96 125 -96c68 0 116 30 116 73c0 45 -50 67 -107 79l-64 13c-71 14 -146 45 -146 138c0 86 94 136 199 136
c110 0 182 -57 201 -141l-88 -8c-13 57 -60 78 -122 78c-53 0 -105 -19 -105 -60c0 -38 29 -54 81 -65l59 -12c92 -19 178 -52 178 -149c0 -98 -89 -153 -204 -153h-2l-20 -33c10 2 20 3 28 3c45 0 71 -25 71 -63c0 -49 -53 -76 -101 -76c-25 0 -55 3 -86 17z" />
    <glyph glyph-name="Scircumflex" unicode="&#x15c;" horiz-adv-x="596" 
d="M52 494c0 128 135 182 244 182c121 0 229 -56 255 -177l-92 -13c-22 83 -99 108 -167 108c-52 0 -143 -21 -143 -97c0 -59 47 -85 110 -99l78 -17c103 -23 226 -59 226 -194c0 -132 -122 -199 -256 -199c-159 0 -259 87 -277 213l92 13c18 -92 80 -144 187 -144
c99 0 157 42 157 108c0 71 -61 98 -145 116l-84 18c-92 20 -185 69 -185 182zM338 803l122 -105h-99l-63 52l-64 -52h-99l125 105h78z" />
    <glyph glyph-name="scircumflex" unicode="&#x15d;" horiz-adv-x="480" 
d="M441 357l-88 -8c-13 57 -60 78 -122 78c-53 0 -105 -19 -105 -60c0 -38 29 -54 81 -65l59 -12c92 -19 178 -52 178 -149c0 -98 -89 -153 -204 -153c-131 0 -203 82 -212 159l89 8c13 -59 51 -96 125 -96c68 0 116 30 116 73c0 45 -50 67 -107 79l-64 13
c-71 14 -146 45 -146 138c0 86 94 136 199 136c110 0 182 -57 201 -141zM281 664l120 -118h-89l-73 60l-74 -60h-89l123 118h82z" />
    <glyph glyph-name="Scommaaccent" unicode="&#x218;" horiz-adv-x="596" 
d="M52 494c0 128 135 182 244 182c121 0 229 -56 255 -177l-92 -13c-22 83 -99 108 -167 108c-52 0 -143 -21 -143 -97c0 -59 47 -85 110 -99l78 -17c103 -23 226 -59 226 -194c0 -132 -122 -199 -256 -199c-159 0 -259 87 -277 213l92 13c18 -92 80 -144 187 -144
c99 0 157 42 157 108c0 71 -61 98 -145 116l-84 18c-92 20 -185 69 -185 182zM253 -116v83h88v-89l-41 -83h-50l36 89h-33z" />
    <glyph glyph-name="scommaaccent" unicode="&#x219;" horiz-adv-x="480" 
d="M441 357l-88 -8c-13 57 -60 78 -122 78c-53 0 -105 -19 -105 -60c0 -38 29 -54 81 -65l59 -12c92 -19 178 -52 178 -149c0 -98 -89 -153 -204 -153c-131 0 -203 82 -212 159l89 8c13 -59 51 -96 125 -96c68 0 116 30 116 73c0 45 -50 67 -107 79l-64 13
c-71 14 -146 45 -146 138c0 86 94 136 199 136c110 0 182 -57 201 -141zM194 -116v83h88v-89l-41 -83h-50l36 89h-33z" />
    <glyph glyph-name="Tbar" unicode="&#x166;" horiz-adv-x="533" 
d="M219 0v300h-140v84h140v196h-219v84h533v-84h-219v-196h140v-84h-140v-300h-95z" />
    <glyph glyph-name="tbar" unicode="&#x167;" horiz-adv-x="322" 
d="M101 490v135h85v-135h94v-70h-94v-65h94v-70h-94v-148c0 -52 3 -65 52 -65h42v-72h-61c-96 0 -118 21 -118 125v160h-79v70h79v65h-79v70h79z" />
    <glyph glyph-name="Tcaron" unicode="&#x164;" horiz-adv-x="533" 
d="M219 0v580h-219v84h533v-84h-219v-580h-95zM225 698l-122 105h99l63 -52l64 52h99l-125 -105h-78z" />
    <glyph glyph-name="tcaron" unicode="&#x165;" horiz-adv-x="331" 
d="M351 664l-65 -158h-54l28 158h91zM91 490v135h85v-135h94v-70h-94v-283c0 -52 3 -65 52 -65h42v-72h-61c-96 0 -118 21 -118 125v295h-79v70h79z" />
    <glyph glyph-name="Tcommaaccent" unicode="&#x162;" horiz-adv-x="533" 
d="M219 0v580h-219v84h533v-84h-219v-580h-18l-28 -45c10 2 20 3 28 3c45 0 71 -25 71 -63c0 -49 -53 -76 -101 -76c-25 0 -55 3 -86 17l15 38c16 -8 36 -13 54 -13c27 0 56 7 56 29c0 19 -18 28 -40 28c-11 0 -26 -2 -36 -8l-28 16l46 74h-28z" />
    <glyph glyph-name="tcommaaccent" unicode="&#x163;" horiz-adv-x="302" 
d="M96 -164l15 38c16 -8 36 -13 54 -13c27 0 56 7 56 29c0 19 -18 28 -40 28c-11 0 -26 -2 -36 -8l-28 16l47 76c-58 8 -73 37 -73 123v295h-79v70h79v135h85v-135h94v-70h-94v-283c0 -52 3 -65 52 -65h42v-72h-58l-28 -45c10 2 20 3 28 3c45 0 71 -25 71 -63
c0 -49 -53 -76 -101 -76c-25 0 -55 3 -86 17z" />
    <glyph glyph-name="Ubreve" unicode="&#x16c;" horiz-adv-x="680" 
d="M70 664h95v-400c0 -132 47 -194 174 -194c129 0 176 71 176 204v390h95v-382c0 -197 -75 -294 -271 -294c-187 0 -269 76 -269 286v390zM408 803h72c-8 -64 -53 -110 -148 -110c-92 0 -137 46 -145 110h72c5 -35 30 -54 74 -54s69 20 75 54z" />
    <glyph glyph-name="ubreve" unicode="&#x16d;" 
d="M379 0v70c-27 -46 -70 -81 -154 -81c-60 0 -102 22 -128 57c-24 32 -34 79 -34 140v304h85v-277c0 -50 5 -82 16 -104c16 -33 48 -46 92 -46c77 0 123 57 123 160v267h85v-490h-85zM411 664c-7 -66 -43 -123 -149 -123c-103 0 -140 57 -146 123h66c4 -40 27 -67 81 -67
s78 27 82 67h66z" />
    <glyph glyph-name="Uhorn" unicode="&#x1af;" horiz-adv-x="680" 
d="M70 664h95v-400c0 -132 47 -194 174 -194c129 0 176 71 176 204v390h73c36 2 48 23 48 45c0 21 -7 35 -17 51l64 20c13 -20 23 -38 23 -74c0 -65 -51 -93 -96 -94v-330c0 -197 -75 -294 -271 -294c-187 0 -269 76 -269 286v390z" />
    <glyph glyph-name="uhorn" unicode="&#x1b0;" 
d="M379 0v70c-27 -46 -70 -81 -154 -81c-60 0 -102 22 -128 57c-24 32 -34 79 -34 140v304h85v-277c0 -50 5 -82 16 -104c16 -33 48 -46 92 -46c77 0 123 57 123 160v267h57c36 2 48 23 48 45c0 21 -7 35 -17 51l64 20c9 -13 23 -39 23 -74c0 -62 -46 -91 -90 -94v-438h-85z
" />
    <glyph glyph-name="Uhungarumlaut" unicode="&#x170;" horiz-adv-x="680" 
d="M70 664h95v-400c0 -132 47 -194 174 -194c129 0 176 71 176 204v390h95v-382c0 -197 -75 -294 -271 -294c-187 0 -269 76 -269 286v390zM426 803l-138 -105h-84l102 105h120zM581 803l-138 -105h-84l102 105h120z" />
    <glyph glyph-name="uhungarumlaut" unicode="&#x171;" 
d="M379 0v70c-27 -46 -70 -81 -154 -81c-60 0 -102 22 -128 57c-24 32 -34 79 -34 140v304h85v-277c0 -50 5 -82 16 -104c16 -33 48 -46 92 -46c77 0 123 57 123 160v267h85v-490h-85zM320 664l-121 -118h-71l84 118h108zM467 664l-121 -118h-71l84 118h108z" />
    <glyph glyph-name="Umacron" unicode="&#x16a;" horiz-adv-x="680" 
d="M70 664h95v-400c0 -132 47 -194 174 -194c129 0 176 71 176 204v390h95v-382c0 -197 -75 -294 -271 -294c-187 0 -269 76 -269 286v390zM473 715h-279v70h279v-70z" />
    <glyph glyph-name="umacron" unicode="&#x16b;" 
d="M379 0v70c-27 -46 -70 -81 -154 -81c-60 0 -102 22 -128 57c-24 32 -34 79 -34 140v304h85v-277c0 -50 5 -82 16 -104c16 -33 48 -46 92 -46c77 0 123 57 123 160v267h85v-490h-85zM405 570h-279v70h279v-70z" />
    <glyph glyph-name="Uogonek" unicode="&#x172;" horiz-adv-x="680" 
d="M70 664h95v-400c0 -132 47 -194 174 -194c129 0 176 71 176 204v390h95v-382c0 -181 -64 -278 -226 -292c-37 -21 -62 -45 -62 -69c0 -29 30 -40 61 -40c17 0 34 3 46 8v-56c-16 -7 -38 -11 -64 -11c-55 0 -120 25 -120 87c0 32 17 58 54 81c-159 10 -229 89 -229 284
v390z" />
    <glyph glyph-name="uogonek" unicode="&#x173;" 
d="M379 0v70c-27 -46 -70 -81 -154 -81c-60 0 -102 22 -128 57c-24 32 -34 79 -34 140v304h85v-277c0 -50 5 -82 16 -104c16 -33 48 -46 92 -46c77 0 123 57 123 160v267h85v-490c-47 -23 -82 -51 -82 -79c0 -29 30 -40 61 -40c17 0 34 3 46 8v-56c-16 -7 -38 -11 -64 -11
c-55 0 -120 25 -120 87c0 37 24 66 74 91z" />
    <glyph glyph-name="Uring" unicode="&#x16e;" horiz-adv-x="680" 
d="M70 664h95v-400c0 -132 47 -194 174 -194c129 0 176 71 176 204v390h95v-382c0 -197 -75 -294 -271 -294c-187 0 -269 76 -269 286v390zM337 847c46 0 84 -33 84 -79s-37 -79 -84 -79s-84 33 -84 79s38 79 84 79zM337 808c-21 0 -40 -17 -40 -40s19 -39 40 -39
s40 16 40 39s-19 40 -40 40z" />
    <glyph glyph-name="uring" unicode="&#x16f;" 
d="M379 0v70c-27 -46 -70 -81 -154 -81c-60 0 -102 22 -128 57c-24 32 -34 79 -34 140v304h85v-277c0 -50 5 -82 16 -104c16 -33 48 -46 92 -46c77 0 123 57 123 160v267h85v-490h-85zM263 696c46 0 84 -33 84 -79s-37 -79 -84 -79s-84 33 -84 79s38 79 84 79zM263 657
c-21 0 -40 -17 -40 -40s19 -39 40 -39s40 16 40 39s-19 40 -40 40z" />
    <glyph glyph-name="Utilde" unicode="&#x168;" horiz-adv-x="680" 
d="M70 664h95v-400c0 -132 47 -194 174 -194c129 0 176 71 176 204v390h95v-382c0 -197 -75 -294 -271 -294c-187 0 -269 76 -269 286v390zM403 760c24 0 40 14 44 42h66c-13 -77 -59 -105 -108 -105c-56 0 -87 44 -126 44c-24 0 -39 -15 -42 -41h-66c12 72 54 104 107 104
c57 0 83 -44 125 -44z" />
    <glyph glyph-name="utilde" unicode="&#x169;" 
d="M379 0v70c-27 -46 -70 -81 -154 -81c-60 0 -102 22 -128 57c-24 32 -34 79 -34 140v304h85v-277c0 -50 5 -82 16 -104c16 -33 48 -46 92 -46c77 0 123 57 123 160v267h85v-490h-85zM325 615c24 0 40 14 44 42h66c-13 -77 -59 -105 -108 -105c-56 0 -87 44 -126 44
c-24 0 -39 -15 -42 -41h-66c12 72 54 104 107 104c57 0 83 -44 125 -44z" />
    <glyph glyph-name="Wacute" unicode="&#x1e82;" horiz-adv-x="857" 
d="M485 664l133 -556l125 556h99l-168 -664h-115l-130 544l-128 -544h-115l-171 664h104l130 -556l125 556h111zM601 803l-138 -105h-84l102 105h120z" />
    <glyph glyph-name="wacute" unicode="&#x1e83;" horiz-adv-x="660" 
d="M286 490l-99 -360l-96 360h-91l144 -490h77l107 392l111 -392h77l144 490h-91l-96 -360l-99 360h-88zM485 664l-121 -118h-71l84 118h108z" />
    <glyph glyph-name="Wcircumflex" unicode="&#x174;" horiz-adv-x="857" 
d="M485 664l133 -556l125 556h99l-168 -664h-115l-130 544l-128 -544h-115l-171 664h104l130 -556l125 556h111zM472 803l122 -105h-99l-63 52l-64 -52h-99l125 105h78z" />
    <glyph glyph-name="wcircumflex" unicode="&#x175;" horiz-adv-x="660" 
d="M286 490l-99 -360l-96 360h-91l144 -490h77l107 392l111 -392h77l144 490h-91l-96 -360l-99 360h-88zM371 664l120 -118h-89l-73 60l-74 -60h-89l123 118h82z" />
    <glyph glyph-name="Wdieresis" unicode="&#x1e84;" horiz-adv-x="857" 
d="M485 664l133 -556l125 556h99l-168 -664h-115l-130 544l-128 -544h-115l-171 664h104l130 -556l125 556h111zM282 797h85v-92h-85v92zM495 797h85v-92h-85v92z" />
    <glyph glyph-name="wdieresis" unicode="&#x1e85;" horiz-adv-x="660" 
d="M286 490l-99 -360l-96 360h-91l144 -490h77l107 392l111 -392h77l144 490h-91l-96 -360l-99 360h-88zM180 557v92h85v-92h-85zM393 649h85v-92h-85v92z" />
    <glyph glyph-name="Wgrave" unicode="&#x1e80;" horiz-adv-x="857" 
d="M485 664l133 -556l125 556h99l-168 -664h-115l-130 544l-128 -544h-115l-171 664h104l130 -556l125 556h111zM391 698l-138 105h120l102 -105h-84z" />
    <glyph glyph-name="wgrave" unicode="&#x1e81;" horiz-adv-x="660" 
d="M286 490l-99 -360l-96 360h-91l144 -490h77l107 392l111 -392h77l144 490h-91l-96 -360l-99 360h-88zM291 546l-121 118h108l84 -118h-71z" />
    <glyph glyph-name="Ycircumflex" unicode="&#x176;" horiz-adv-x="580" 
d="M0 664h104l184 -329l188 329h104l-247 -413v-251h-95v253zM328 803l122 -105h-99l-63 52l-64 -52h-99l125 105h78z" />
    <glyph glyph-name="ycircumflex" unicode="&#x177;" horiz-adv-x="440" 
d="M44 -173h44c111 0 139 52 174 152l178 511h-88l-124 -376l-127 376h-94l180 -490l-3 -10c-25 -83 -50 -89 -105 -89h-35v-74zM273 664l120 -118h-89l-73 60l-74 -60h-89l123 118h82z" />
    <glyph glyph-name="Ygrave" unicode="&#x1ef2;" horiz-adv-x="580" 
d="M0 664h104l184 -329l188 329h104l-247 -413v-251h-95v253zM284 698l-138 105h120l102 -105h-84z" />
    <glyph glyph-name="ygrave" unicode="&#x1ef3;" horiz-adv-x="440" 
d="M44 -173h44c111 0 139 52 174 152l178 511h-88l-124 -376l-127 376h-94l180 -490l-3 -10c-25 -83 -50 -89 -105 -89h-35v-74zM218 546l-121 118h108l84 -118h-71z" />
    <glyph glyph-name="Zacute" unicode="&#x179;" horiz-adv-x="588" 
d="M546 664v-84l-396 -496h411v-84h-523v84l397 496h-366v84h477zM452 803l-138 -105h-84l102 105h120z" />
    <glyph glyph-name="zacute" unicode="&#x17a;" horiz-adv-x="454" 
d="M31 70v-70h393v70h-294l289 350v70h-369v-70h270zM378 664l-121 -118h-71l84 118h108z" />
    <glyph glyph-name="Zdotaccent" unicode="&#x17b;" horiz-adv-x="588" 
d="M546 664v-84l-396 -496h411v-84h-523v84l397 496h-366v84h477zM269 798h85v-92h-85v92z" />
    <glyph glyph-name="zdotaccent" unicode="&#x17c;" horiz-adv-x="454" 
d="M31 70v-70h393v70h-294l289 350v70h-369v-70h270zM191 651h85v-92h-85v92z" />
    <glyph glyph-name="uni0186" unicode="&#x186;" horiz-adv-x="669" 
d="M128 466l-90 15c28 110 134 195 288 195c189 0 296 -142 296 -348s-123 -340 -315 -340c-138 0 -245 81 -277 199l91 16c27 -94 107 -133 186 -133c131 0 218 87 218 259c0 168 -84 265 -205 265c-101 0 -166 -47 -192 -128z" />
    <glyph glyph-name="uni018F" unicode="&#x18f;" horiz-adv-x="726" 
d="M171 478l-92 24c41 109 153 174 285 174c187 0 312 -131 312 -344s-127 -344 -314 -344c-219 0 -327 170 -310 389h525c-10 141 -103 217 -214 217c-104 0 -168 -51 -192 -116zM363 70c114 0 204 75 214 227h-427c4 -150 98 -227 213 -227z" />
    <glyph glyph-name="uni0190" unicode="&#x190;" horiz-adv-x="559" 
d="M521 84v-84h-242c-162 0 -241 67 -241 191c0 83 41 129 102 157c-47 27 -75 80 -75 144c0 134 112 172 237 172h219v-84h-233c-71 0 -127 -30 -127 -99c0 -66 49 -100 127 -100h206v-79h-210c-101 0 -149 -40 -149 -109c0 -66 44 -109 148 -109h238z" />
    <glyph glyph-name="uni019D" unicode="&#x19d;" horiz-adv-x="702" 
d="M4 -173v85h24c44 0 52 19 52 52v700h142l305 -562v562h95v-664h-142l-305 563v-598c0 -104 -32 -138 -128 -138h-43z" />
    <glyph glyph-name="uni019F" unicode="&#x19f;" horiz-adv-x="726" 
d="M676 332c0 -213 -127 -344 -314 -344c-193 0 -312 141 -312 344s127 344 314 344s312 -131 312 -344zM363 70c114 0 202 79 214 227h-429c12 -148 100 -227 215 -227zM363 594c-111 0 -197 -75 -214 -213h427c-16 138 -103 213 -213 213z" />
    <glyph glyph-name="uni01C4" unicode="&#x1c4;" horiz-adv-x="1206" 
d="M524 332c0 229 -153 248 -293 248h-56v-496h56c140 0 293 19 293 248zM80 664h154c214 0 387 -75 387 -332s-173 -332 -387 -332h-154v664zM1164 664v-84l-396 -496h411v-84h-523v84l397 496h-366v84h477zM892 698l-122 105h99l63 -52l64 52h99l-125 -105h-78z" />
    <glyph glyph-name="uni01C5" unicode="&#x1c5;" horiz-adv-x="1094" 
d="M524 332c0 229 -153 248 -293 248h-56v-496h56c140 0 293 19 293 248zM80 664h154c214 0 387 -75 387 -332s-173 -332 -387 -332h-154v664zM671 70v-70h393v70h-294l289 350v70h-369v-70h270zM843 546l-120 118h89l73 -60l74 60h89l-123 -118h-82z" />
    <glyph glyph-name="uni01C6" unicode="&#x1c6;" horiz-adv-x="1005" 
d="M482 664v-664h-82l-3 67c-31 -47 -77 -79 -159 -79c-118 0 -204 96 -204 256c0 158 89 254 214 254c71 0 122 -30 149 -72v238h85zM260 62c75 0 141 55 141 182s-63 180 -141 180c-89 0 -136 -67 -136 -180c0 -114 46 -182 136 -182zM582 0v70l289 350h-270v70h369v-70
l-289 -350h294v-70h-393zM754 546l-120 118h89l73 -60l74 60h89l-123 -118h-82z" />
    <glyph glyph-name="uni01C7" unicode="&#x1c7;" horiz-adv-x="835" 
d="M175 664v-580h356v-84h-451v664h95zM561 0v85h15c81 0 84 10 84 84v495h95v-503c0 -143 -46 -161 -158 -161h-36z" />
    <glyph glyph-name="uni01C8" unicode="&#x1c8;" horiz-adv-x="750" 
d="M175 664v-580h356v-84h-451v664h95zM598 -36v526h85v-525c0 -104 -22 -138 -118 -138h-43v72h24c44 0 52 13 52 65zM598 664h85v-102h-85v102z" />
    <glyph glyph-name="uni01C9" unicode="&#x1c9;" horiz-adv-x="438" 
d="M152 664v-664h-85v664h85zM286 -36v526h85v-525c0 -104 -22 -138 -118 -138h-43v72h24c44 0 52 13 52 65zM286 664h85v-102h-85v102z" />
    <glyph glyph-name="uni01CA" unicode="&#x1ca;" horiz-adv-x="1006" 
d="M622 0h-139l-308 565v-565h-95v664h139l308 -564v564h95v-664zM732 0v85h15c81 0 84 10 84 84v495h95v-503c0 -143 -46 -161 -158 -161h-36z" />
    <glyph glyph-name="uni01CB" unicode="&#x1cb;" horiz-adv-x="921" 
d="M622 0h-139l-308 565v-565h-95v664h139l308 -564v564h95v-664zM769 -36v526h85v-525c0 -104 -22 -138 -118 -138h-43v72h24c44 0 52 13 52 65zM769 664h85v-102h-85v102z" />
    <glyph glyph-name="uni01CC" unicode="&#x1cc;" horiz-adv-x="756" 
d="M152 490v-68c28 43 77 76 161 76c66 0 112 -25 138 -67c19 -31 27 -72 27 -130v-301h-85v278c0 52 -6 83 -18 104c-18 30 -48 42 -91 42c-82 0 -132 -56 -132 -163v-261h-85v490h85zM604 -36v526h85v-525c0 -104 -22 -138 -118 -138h-43v72h24c44 0 52 13 52 65zM604 664
h85v-102h-85v102z" />
    <glyph glyph-name="uni01F1" unicode="&#x1f1;" horiz-adv-x="1206" 
d="M524 332c0 229 -153 248 -293 248h-56v-496h56c140 0 293 19 293 248zM80 664h154c214 0 387 -75 387 -332s-173 -332 -387 -332h-154v664zM1164 664v-84l-396 -496h411v-84h-523v84l397 496h-366v84h477z" />
    <glyph glyph-name="uni01F2" unicode="&#x1f2;" horiz-adv-x="1104" 
d="M524 332c0 229 -153 248 -293 248h-56v-496h56c140 0 293 19 293 248zM80 664h154c214 0 387 -75 387 -332s-173 -332 -387 -332h-154v664zM681 70v-70h393v70h-294l289 350v70h-369v-70h270z" />
    <glyph glyph-name="uni01F3" unicode="&#x1f3;" horiz-adv-x="1005" 
d="M482 664v-664h-82l-3 67c-31 -47 -77 -79 -159 -79c-118 0 -204 96 -204 256c0 158 89 254 214 254c71 0 122 -30 149 -72v238h85zM260 62c75 0 141 55 141 182s-63 180 -141 180c-89 0 -136 -67 -136 -180c0 -114 46 -182 136 -182zM582 0v70l289 350h-270v70h369v-70
l-289 -350h294v-70h-393z" />
    <glyph glyph-name="uni021C" unicode="&#x21c;" horiz-adv-x="532" 
d="M42 -179l-3 85c224 11 378 47 378 186c0 90 -69 139 -170 139c-25 0 -50 -3 -76 -8l-10 79c136 21 236 62 236 167c0 77 -67 124 -148 124c-80 0 -142 -36 -168 -119l-81 29c30 100 118 168 255 168c119 0 236 -56 236 -198c0 -87 -51 -148 -135 -187
c89 -26 156 -94 156 -196c0 -195 -200 -262 -470 -269z" />
    <glyph glyph-name="uni021D" unicode="&#x21d;" horiz-adv-x="497" 
d="M80 333l-80 24c24 83 103 141 227 141c107 0 210 -48 210 -166c0 -68 -41 -113 -110 -141c74 -18 128 -73 128 -157c0 -155 -181 -218 -417 -224l-3 74c194 9 330 44 330 151c0 85 -93 124 -214 99l-11 71c119 15 207 45 207 123c0 61 -58 96 -124 96
c-71 0 -124 -25 -143 -91z" />
    <glyph glyph-name="uni0226" unicode="&#x226;" horiz-adv-x="613" 
d="M0 0l250 664h110l253 -664h-104l-53 144h-306l-51 -144h-99zM302 566l-122 -339h246zM261 798h85v-92h-85v92z" />
    <glyph glyph-name="uni0227" unicode="&#x227;" horiz-adv-x="515" 
d="M56 342l83 -3c5 54 41 91 118 91c65 0 113 -21 113 -101v-18l-95 -10c-63 -7 -122 -17 -169 -43c-39 -22 -66 -58 -66 -111c0 -84 59 -159 173 -159c87 0 135 32 165 81l3 -69h82c-6 65 -11 112 -10 189l2 124c2 132 -55 186 -194 186c-110 0 -199 -56 -205 -157z
M376 212c0 -113 -78 -150 -147 -150c-58 0 -99 30 -99 82c0 55 48 78 144 87l102 10v-29zM220 651h85v-92h-85v92z" />
    <glyph glyph-name="uni0232" unicode="&#x232;" horiz-adv-x="580" 
d="M0 664h104l184 -329l188 329h104l-247 -413v-251h-95v253zM427 715h-279v70h279v-70z" />
    <glyph glyph-name="uni0233" unicode="&#x233;" horiz-adv-x="440" 
d="M44 -173h44c111 0 139 52 174 152l178 511h-88l-124 -376l-127 376h-94l180 -490l-3 -10c-25 -83 -50 -89 -105 -89h-35v-74zM365 570h-279v70h279v-70z" />
    <glyph glyph-name="uni0254" unicode="&#x254;" horiz-adv-x="512" 
d="M239 -12c-122 0 -194 85 -207 158l85 16c13 -61 61 -99 128 -99c78 0 143 58 143 178c0 122 -63 182 -140 182c-72 0 -116 -43 -127 -98l-86 15c17 83 97 158 216 158c146 0 227 -109 227 -256c0 -148 -88 -254 -239 -254z" />
    <glyph glyph-name="uni0259" unicode="&#x259;" horiz-adv-x="537" 
d="M266 498c152 0 237 -112 237 -255c0 -153 -99 -255 -238 -255c-154 0 -241 120 -229 278h377c0 91 -62 157 -145 157c-78 0 -118 -36 -139 -88l-86 15c24 77 100 148 223 148zM265 60c84 0 142 50 147 135h-286c2 -66 48 -135 139 -135z" />
    <glyph glyph-name="uni025B" unicode="&#x25b;" horiz-adv-x="485" 
d="M455 73v-73h-229c-142 0 -196 54 -196 142c0 52 32 93 78 115c-34 20 -57 65 -57 105c0 66 45 128 193 128h211v-73h-218c-51 0 -99 -15 -99 -61c0 -50 37 -67 95 -67h195v-73h-198c-82 0 -112 -25 -112 -72c0 -44 29 -71 108 -71h229z" />
    <glyph glyph-name="uni0272" unicode="&#x272;" horiz-adv-x="537" 
d="M67 -36v526h85v-68c28 43 77 76 160 76c114 0 166 -74 166 -191v-307h-85v283c0 108 -37 141 -109 141c-82 0 -132 -56 -132 -163v-296c0 -104 -22 -138 -118 -138h-43v72h24c44 0 52 13 52 65z" />
    <glyph glyph-name="uni0275" unicode="&#x275;" horiz-adv-x="532" 
d="M34 243c0 176 114 255 232 255s232 -79 232 -255s-114 -255 -232 -255s-232 79 -232 255zM266 62c74 0 131 44 140 148h-281c10 -104 66 -148 141 -148zM266 424c-74 0 -130 -43 -140 -144h280c-11 101 -67 144 -140 144z" />
    <glyph glyph-name="uni032C" unicode="&#x32c;" horiz-adv-x="365" 
d="M150 -128l-130 128h94l68 -66l69 66h94l-133 -128h-62z" />
    <glyph glyph-name="uni1EA0" unicode="&#x1ea0;" horiz-adv-x="613" 
d="M0 0l250 664h110l253 -664h-104l-53 144h-306l-51 -144h-99zM302 566l-122 -339h246zM260 -49h85v-92h-85v92z" />
    <glyph glyph-name="uni1EA1" unicode="&#x1ea1;" horiz-adv-x="515" 
d="M139 339l-83 3c6 101 95 157 205 157c139 0 196 -54 194 -186l-2 -124c-1 -77 4 -124 10 -189h-82l-3 69c-30 -49 -78 -81 -165 -81c-114 0 -173 75 -173 159c0 53 27 89 66 111c47 26 106 36 169 43l95 10v18c0 80 -48 101 -113 101c-77 0 -113 -37 -118 -91zM376 212
v29l-102 -10c-96 -9 -144 -32 -144 -87c0 -52 41 -82 99 -82c69 0 147 37 147 150zM214 -49h85v-92h-85v92z" />
    <glyph glyph-name="uni1EB8" unicode="&#x1eb8;" horiz-adv-x="570" 
d="M80 0v664h457v-84h-362v-196h341v-84h-341v-216h362v-84h-457zM265 -49h85v-92h-85v92z" />
    <glyph glyph-name="uni1EB9" unicode="&#x1eb9;" 
d="M271 -12c-160 0 -237 112 -237 255c0 153 99 255 238 255c154 0 242 -122 230 -280h-378c0 -96 62 -155 145 -155c78 0 117 33 138 86l87 -11c-23 -81 -100 -150 -223 -150zM272 426c-85 0 -143 -51 -147 -137h287c-2 66 -49 137 -140 137zM229 -49h85v-92h-85v92z" />
    <glyph glyph-name="uni1ECA" unicode="&#x1eca;" horiz-adv-x="255" 
d="M175 664v-664h-95v664h95zM84 -49h85v-92h-85v92z" />
    <glyph glyph-name="uni1ECB" unicode="&#x1ecb;" horiz-adv-x="219" 
d="M67 490h85v-490h-85v490zM67 664h85v-102h-85v102zM67 -49h85v-92h-85v92z" />
    <glyph glyph-name="uni1ECC" unicode="&#x1ecc;" horiz-adv-x="726" 
d="M582 332c0 170 -96 262 -219 262s-219 -92 -219 -262s96 -262 219 -262s219 92 219 262zM679 332c0 -213 -130 -344 -317 -344c-193 0 -315 141 -315 344s130 344 317 344s315 -131 315 -344zM320 -49h85v-92h-85v92z" />
    <glyph glyph-name="uni1ECD" unicode="&#x1ecd;" horiz-adv-x="532" 
d="M125 243c0 -128 61 -181 141 -181s141 53 141 181s-61 181 -141 181s-141 -53 -141 -181zM35 243c0 176 111 255 231 255s231 -79 231 -255s-111 -255 -231 -255s-231 79 -231 255zM219 -49h85v-92h-85v92z" />
    <glyph glyph-name="uni1EE4" unicode="&#x1ee4;" horiz-adv-x="680" 
d="M70 664h95v-400c0 -132 47 -194 174 -194c129 0 176 71 176 204v390h95v-382c0 -197 -75 -294 -271 -294c-187 0 -269 76 -269 286v390zM292 -49h85v-92h-85v92z" />
    <glyph glyph-name="uni1EE5" unicode="&#x1ee5;" 
d="M379 0v70c-27 -46 -70 -81 -154 -81c-60 0 -102 22 -128 57c-24 32 -34 79 -34 140v304h85v-277c0 -50 5 -82 16 -104c16 -33 48 -46 92 -46c77 0 123 57 123 160v267h85v-490h-85zM217 -49h85v-92h-85v92z" />
    <glyph glyph-name="afii61352" unicode="&#x2116;" horiz-adv-x="994" 
d="M622 0h-142l-305 563v-563h-95v664h142l305 -562v562h95v-664zM960 507c0 -109 -59 -172 -149 -172s-149 63 -149 172c0 110 67 169 149 169c83 0 149 -55 149 -169zM879 507c0 61 -24 100 -68 100c-47 0 -69 -39 -69 -100c0 -60 21 -102 69 -102c45 0 68 42 68 102z
M667 215h288v80h-288v-80z" />
    <glyph glyph-name="estimated" unicode="&#x212e;" horiz-adv-x="539" 
d="M463 137h37c-30 -83 -102 -149 -224 -149c-165 0 -251 114 -251 257c0 150 97 256 246 256c156 0 240 -118 242 -255h-381v-176c29 -30 89 -51 151 -51c88 0 150 45 180 118zM132 422v-146h273v145c-27 27 -75 49 -135 49c-57 0 -108 -17 -138 -48z" />
    <glyph glyph-name="afii61289" unicode="&#x2113;" horiz-adv-x="417" 
d="M107 158v31l-67 -50l-40 60l107 82v220c0 111 41 175 146 175c84 0 131 -60 131 -143c0 -119 -68 -185 -180 -270l-12 -9v-102c0 -73 30 -90 68 -90c35 0 64 17 89 39l38 -58c-31 -29 -81 -55 -137 -55c-102 0 -143 50 -143 170zM192 512v-166l8 6c69 52 101 104 101 178
c0 53 -21 75 -54 75c-39 0 -55 -21 -55 -93z" />
    <glyph glyph-name="zero.case" horiz-adv-x="619" 
d="M309 -12c-179 0 -264 138 -264 346s85 342 264 342c180 0 265 -134 265 -342s-85 -346 -265 -346zM309 70c102 0 166 88 166 264c0 177 -64 260 -166 260c-101 0 -164 -83 -164 -260c0 -176 63 -264 164 -264z" />
    <glyph glyph-name="one.case" horiz-adv-x="349" 
d="M259 0h-95v511h-153v67c97 3 145 13 181 87h67v-665z" />
    <glyph glyph-name="two.case" horiz-adv-x="550" 
d="M281 676c124 0 216 -58 216 -178c0 -147 -157 -273 -339 -414h357v-84h-487v84c233 176 370 289 370 404c0 66 -45 106 -120 106c-69 0 -136 -36 -138 -144l-96 1c-2 133 87 225 237 225z" />
    <glyph glyph-name="three.case" horiz-adv-x="553" 
d="M265 70c85 0 147 41 147 116c0 90 -84 120 -189 120h-17v84h14c112 0 174 33 174 106c0 66 -57 98 -126 98c-86 0 -138 -51 -146 -124l-96 9c12 116 103 197 246 197c114 0 221 -48 221 -172c0 -67 -39 -123 -106 -151c93 -31 124 -96 124 -165
c0 -135 -118 -200 -247 -200c-157 0 -233 99 -243 205l95 10c10 -78 57 -133 149 -133z" />
    <glyph glyph-name="four.case" horiz-adv-x="588" 
d="M351 534l-230 -283h230v283zM568 251v-84h-122v-167h-95v167h-335v82l335 415h95v-413h122z" />
    <glyph glyph-name="five.case" horiz-adv-x="569" 
d="M284 70c79 0 143 51 143 148c0 104 -74 148 -145 148c-66 0 -112 -36 -127 -68l-92 4l44 362h393v-84h-316l-23 -178c35 30 86 46 144 46c117 0 222 -80 222 -229c0 -151 -115 -231 -244 -231c-157 0 -230 102 -242 204l94 9c13 -77 57 -131 149 -131z" />
    <glyph glyph-name="six.case" horiz-adv-x="578" 
d="M152 213c0 -87 56 -143 140 -143c83 0 142 56 142 143c0 86 -58 145 -141 145c-84 0 -141 -59 -141 -145zM301 594c-100 0 -156 -91 -160 -236c31 47 88 83 173 83c124 0 219 -89 219 -225c0 -128 -95 -228 -240 -228c-170 0 -248 123 -248 322c0 190 70 366 265 366
c136 0 199 -87 212 -171l-100 -1c-10 58 -56 90 -121 90z" />
    <glyph glyph-name="seven.case" horiz-adv-x="483" 
d="M10 580v84h473v-84c-178 -147 -267 -331 -283 -580h-111c14 239 121 434 292 580h-371z" />
    <glyph glyph-name="eight.case" horiz-adv-x="585" 
d="M292 676c140 0 227 -73 227 -170c0 -56 -25 -117 -90 -152c85 -38 111 -105 111 -166c0 -128 -108 -200 -248 -200s-247 72 -247 200c0 61 26 128 111 166c-64 34 -90 96 -90 151c0 98 87 171 226 171zM292 311c-90 0 -148 -48 -148 -121c0 -74 58 -120 148 -120
c91 0 149 46 149 120c0 73 -58 121 -149 121zM425 494c0 62 -53 100 -133 100s-132 -38 -132 -100s52 -107 132 -107s133 45 133 107z" />
    <glyph glyph-name="nine.case" horiz-adv-x="573" 
d="M422 451c0 87 -56 143 -141 143c-83 0 -142 -56 -142 -143c0 -86 58 -145 141 -145c84 0 142 59 142 145zM273 70c99 0 155 91 159 236c-31 -47 -87 -83 -171 -83c-126 0 -221 89 -221 225c0 127 94 228 239 228c173 0 249 -123 249 -322c0 -190 -67 -366 -263 -366
c-135 0 -201 87 -213 171l99 1c10 -58 56 -90 122 -90z" />
    <glyph glyph-name="emdash.case" horiz-adv-x="682" 
d="M647 300h-612v84h612v-84z" />
    <glyph glyph-name="endash.case" horiz-adv-x="476" 
d="M441 300h-406v84h406v-84z" />
    <glyph glyph-name="guillemotleft.case" horiz-adv-x="467" 
d="M148 128l-148 213l148 212h91l-140 -212l140 -213h-91zM357 128l-148 213l148 212h90l-140 -212l140 -213h-90z" />
    <glyph glyph-name="guillemotright.case" horiz-adv-x="467" 
d="M467 341l-148 -213h-91l140 213l-140 212h91zM258 341l-148 -213h-90l140 213l-140 212h90z" />
    <glyph glyph-name="guilsinglleft.case" horiz-adv-x="259" 
d="M148 128l-148 213l148 212h91l-140 -212l140 -213h-91z" />
    <glyph glyph-name="guilsinglright.case" horiz-adv-x="259" 
d="M259 341l-148 -213h-91l140 213l-140 212h91z" />
    <glyph glyph-name="hyphen.case" horiz-adv-x="376" 
d="M336 300h-296v84h296v-84z" />
    <glyph glyph-name="braceleft.case" horiz-adv-x="250" 
d="M216 0c-113 0 -135 34 -135 138v64c0 58 -9 96 -71 96v68c62 0 71 38 71 96v64c0 104 22 138 135 138h44v-72h-32c-44 0 -52 -13 -52 -65v-67c0 -86 -29 -114 -78 -127v-2c49 -13 78 -41 78 -127v-67c0 -52 8 -65 52 -65h32v-72h-44z" />
    <glyph glyph-name="braceright.case" horiz-adv-x="250" 
d="M-10 0v72h32c44 0 52 13 52 65v67c0 86 29 114 78 127v2c-49 13 -78 41 -78 127v67c0 52 -8 65 -52 65h-32v72h44c113 0 135 -34 135 -138v-64c0 -58 9 -96 71 -96v-68c-62 0 -71 -38 -71 -96v-64c0 -104 -22 -138 -135 -138h-44z" />
    <glyph glyph-name="bracketleft.case" horiz-adv-x="284" 
d="M75 664h209v-72h-117v-520h117v-72h-209v664z" />
    <glyph glyph-name="bracketright.case" horiz-adv-x="284" 
d="M0 664h209v-664h-209v72h117v520h-117v72z" />
    <glyph glyph-name="parenleft.case" horiz-adv-x="228" 
d="M30 333c0 144 51 250 101 331h90c-61 -100 -94 -206 -94 -331s33 -233 94 -333h-90c-50 81 -101 189 -101 333z" />
    <glyph glyph-name="parenright.case" horiz-adv-x="228" 
d="M198 333c0 -144 -51 -252 -101 -333h-90c61 100 94 208 94 333s-33 231 -94 331h90c50 -81 101 -187 101 -331z" />
    <glyph glyph-name="periodcentered.case" horiz-adv-x="210" 
d="M50 289v107h107v-107h-107z" />
    <glyph glyph-name="bullet.case" horiz-adv-x="415" 
d="M40 341c0 91 74 165 164 165c97 0 171 -74 171 -165c0 -96 -74 -170 -171 -170c-90 0 -164 74 -164 170z" />
    <glyph glyph-name="less.case" horiz-adv-x="552" 
d="M35 375l477 211v-91l-371 -156l371 -153v-90l-477 207v72z" />
    <glyph glyph-name="greater.case" horiz-adv-x="552" 
d="M517 375v-72l-477 -207v90l371 153l-371 156v91z" />
    <glyph glyph-name="plus.case" horiz-adv-x="575" 
d="M330 90h-85v210h-210v80h210v204h85v-204h210v-80h-210v-210z" />
    <glyph glyph-name="equal.case" horiz-adv-x="546" 
d="M506 399h-466v80h466v-80zM506 211h-466v80h466v-80z" />
    <glyph glyph-name="notequal.case" horiz-adv-x="566" 
d="M165 211h-115v80h158l58 108h-216v80h259l76 140l69 -34l-58 -106h120v-80h-163l-58 -108h221v-80h-264l-83 -155l-69 34z" />
    <glyph glyph-name="lessequal.case" horiz-adv-x="565" 
d="M159 393l361 -113v-90l-477 167v72l477 171v-91zM40 90v80h485v-80h-485z" />
    <glyph glyph-name="greaterequal.case" horiz-adv-x="565" 
d="M406 393l-361 116v91l477 -171v-72l-477 -167v90zM525 90h-485v80h485v-80z" />
    <glyph glyph-name="divide.case" horiz-adv-x="555" 
d="M226 120v107h107v-107h-107zM226 443v107h107v-107h-107zM35 290h485v80h-485v-80z" />
    <glyph glyph-name="plusminus.case" horiz-adv-x="565" 
d="M240 440v144h85v-144h200v-80h-200v-145h-85v145h-200v80h200zM525 90h-485v80h485v-80z" />
    <glyph glyph-name="question.case" horiz-adv-x="492" 
d="M251 676c124 0 228 -51 228 -164c0 -88 -81 -140 -144 -181c-57 -37 -73 -54 -73 -105v-29h-96v32c0 78 43 118 120 167c48 31 96 54 96 108c0 59 -52 90 -133 90c-114 0 -148 -71 -151 -128l-91 3c1 121 101 207 244 207zM162 0v107h107v-107h-107z" />
    <glyph glyph-name="exclam.case" horiz-adv-x="227" 
d="M137 197h-53l-24 273v194h101v-194zM167 0h-107v107h107v-107z" />
    <glyph glyph-name="questiondown.case" horiz-adv-x="492" 
d="M235 0c-124 0 -228 51 -228 164c0 88 81 140 144 181c57 37 73 54 73 105v29h96v-32c0 -78 -43 -118 -120 -167c-48 -31 -96 -54 -96 -108c0 -59 52 -90 133 -90c114 0 148 71 151 128l91 -3c-1 -121 -101 -207 -244 -207zM324 676v-107h-107v107h107z" />
    <glyph glyph-name="exclamdown.case" horiz-adv-x="227" 
d="M90 467h53l24 -273v-194h-101v194zM60 664h107v-107h-107v107z" />
    <glyph glyph-name="dieresis.caps" horiz-adv-x="338" 
d="M20 797h85v-92h-85v92zM233 797h85v-92h-85v92z" />
    <glyph glyph-name="ring.caps" horiz-adv-x="208" 
d="M104 847c46 0 84 -33 84 -79s-37 -79 -84 -79s-84 33 -84 79s38 79 84 79zM104 808c-21 0 -40 -17 -40 -40s19 -39 40 -39s40 16 40 39s-19 40 -40 40z" />
    <glyph glyph-name="cedilla.caps" horiz-adv-x="227" 
d="M20 -164l15 38c16 -8 36 -13 54 -13c27 0 56 7 56 29c0 19 -18 28 -40 28c-11 0 -26 -2 -36 -8l-28 16l48 77h49l-30 -48c10 2 20 3 28 3c45 0 71 -25 71 -63c0 -49 -53 -76 -101 -76c-25 0 -55 3 -86 17z" />
    <glyph glyph-name="acute.caps" horiz-adv-x="262" 
d="M242 803l-138 -105h-84l102 105h120z" />
    <glyph glyph-name="tilde.caps" horiz-adv-x="382" 
d="M252 760c24 0 40 14 44 42h66c-13 -77 -59 -105 -108 -105c-56 0 -87 44 -126 44c-24 0 -39 -15 -42 -41h-66c12 72 54 104 107 104c57 0 83 -44 125 -44z" />
    <glyph glyph-name="grave.caps" horiz-adv-x="262" 
d="M158 698l-138 105h120l102 -105h-84z" />
    <glyph glyph-name="circumflex.caps" horiz-adv-x="365" 
d="M223 803l122 -105h-99l-63 52l-64 -52h-99l125 105h78z" />
    <glyph glyph-name="caron.caps" horiz-adv-x="365" 
d="M142 698l-122 105h99l63 -52l64 52h99l-125 -105h-78z" />
    <glyph glyph-name="macron.caps" horiz-adv-x="319" 
d="M299 715h-279v70h279v-70z" />
    <glyph glyph-name="breve.caps" horiz-adv-x="333" 
d="M241 803h72c-8 -64 -53 -110 -148 -110c-92 0 -137 46 -145 110h72c5 -35 30 -54 74 -54s69 20 75 54z" />
    <glyph glyph-name="dotaccent.caps" horiz-adv-x="125" 
d="M20 798h85v-92h-85v92z" />
    <glyph glyph-name="hungarumlaut.caps" horiz-adv-x="417" 
d="M242 803l-138 -105h-84l102 105h120zM397 803l-138 -105h-84l102 105h120z" />
    <glyph glyph-name="ogonek.caps" horiz-adv-x="224" 
d="M94 0h85c-47 -23 -82 -51 -82 -79c0 -29 30 -40 61 -40c17 0 34 3 46 8v-56c-16 -7 -38 -11 -64 -11c-55 0 -120 25 -120 87c0 37 24 66 74 91z" />
    <glyph glyph-name="dotaccent.low" horiz-adv-x="125" 
d="M20 -49h85v-92h-85v92z" />
    <glyph glyph-name="b" unicode="b" horiz-adv-x="549" 
d="M67 0v664h85v-245c31 47 77 79 159 79c118 0 204 -96 204 -256c0 -158 -89 -254 -214 -254c-71 0 -122 30 -149 72l-4 -60h-81zM289 424c-75 0 -141 -55 -141 -182s63 -180 141 -180c89 0 136 67 136 180c0 114 -46 182 -136 182z" />
    <glyph glyph-name="uni2190" unicode="&#x2190;" horiz-adv-x="765" 
d="M20 250l285 285l54 -57l-192 -188h563v-80h-563l192 -188l-54 -57z" />
    <glyph glyph-name="uni2191" unicode="&#x2191;" horiz-adv-x="610" 
d="M305 684l285 -285l-57 -54l-188 191v-536h-80v536l-188 -191l-57 54z" />
    <glyph glyph-name="uni2192" unicode="&#x2192;" horiz-adv-x="765" 
d="M460 535l285 -285l-285 -285l-54 57l191 188h-562v80h562l-191 188z" />
    <glyph glyph-name="uni2193" unicode="&#x2193;" horiz-adv-x="610" 
d="M590 265l-285 -285l-285 285l57 54l188 -192v537h80v-537l188 192z" />
    <glyph glyph-name="uni2196" unicode="&#x2196;" horiz-adv-x="617" 
d="M67 519h403v-76h-270l397 -398l-56 -56l-398 397v-270h-76v403z" />
    <glyph glyph-name="uni2197" unicode="&#x2197;" horiz-adv-x="617" 
d="M147 519h403v-403h-76v270l-398 -397l-56 56l397 398h-270v76z" />
    <glyph glyph-name="uni2198" unicode="&#x2198;" horiz-adv-x="617" 
d="M550 403v-403h-403v76h270l-397 398l56 56l398 -397v270h76z" />
    <glyph glyph-name="uni2199" unicode="&#x2199;" horiz-adv-x="617" 
d="M67 0v403h76v-270l398 397l56 -56l-397 -398h270v-76h-403z" />
    <glyph glyph-name="uni219E" unicode="&#x219e;" horiz-adv-x="765" 
d="M20 250l285 285l54 -57l-192 -188h109l245 245l54 -57l-192 -188h347v-80h-347l192 -188l-54 -57l-245 245h-109l192 -188l-54 -57z" />
    <glyph glyph-name="uni219F" unicode="&#x219f;" horiz-adv-x="610" 
d="M305 684l285 -285l-57 -54l-188 191v-108l245 -245l-57 -54l-188 191v-320h-80v320l-188 -191l-57 54l245 245v108l-188 -191l-57 54z" />
    <glyph glyph-name="uni21A0" unicode="&#x21a0;" horiz-adv-x="765" 
d="M460 535l285 -285l-285 -285l-54 57l191 188h-108l-245 -245l-54 57l191 188h-346v80h346l-191 188l54 57l245 -245h108l-191 188z" />
    <glyph glyph-name="uni21A1" unicode="&#x21a1;" horiz-adv-x="610" 
d="M590 265l-285 -285l-285 285l57 54l188 -192v109l-245 245l57 54l188 -192v321h80v-321l188 192l57 -54l-245 -245v-109l188 192z" />
    <glyph glyph-name="uni21A2" unicode="&#x21a2;" horiz-adv-x="902" 
d="M20 250l285 285l54 -57l-192 -188h416l245 245l54 -57l-228 -228l228 -228l-54 -57l-245 245h-416l192 -188l-54 -57z" />
    <glyph glyph-name="uni21A3" unicode="&#x21a3;" horiz-adv-x="902" 
d="M597 535l285 -285l-285 -285l-54 57l191 188h-415l-245 -245l-54 57l228 228l-228 228l54 57l245 -245h415l-191 188z" />
    <glyph glyph-name="uni21A4" unicode="&#x21a4;" horiz-adv-x="797" 
d="M730 490v-490h-85v210h-478l192 -188l-54 -57l-285 285l285 285l54 -57l-192 -188h478v200h85z" />
    <glyph glyph-name="uni21A5" unicode="&#x21a5;" horiz-adv-x="610" 
d="M305 684l285 -285l-57 -54l-188 191v-451h200v-85h-490v85h210v451l-188 -191l-57 54z" />
    <glyph glyph-name="uni21A6" unicode="&#x21a6;" horiz-adv-x="797" 
d="M152 210v-210h-85v490h85v-200h477l-191 188l54 57l285 -285l-285 -285l-54 57l191 188h-477z" />
    <glyph glyph-name="uni21A7" unicode="&#x21a7;" horiz-adv-x="610" 
d="M590 265l-285 -285l-285 285l57 54l188 -192v452h-210v85h490v-85h-200v-452l188 192z" />
    <glyph glyph-name="uni25A0" unicode="&#x25a0;" horiz-adv-x="624" 
d="M67 0v490h490v-490h-490z" />
    <glyph glyph-name="uni25A1" unicode="&#x25a1;" horiz-adv-x="624" 
d="M67 0v490h490v-490h-490zM128 430v-369h369v369h-369z" />
    <glyph glyph-name="uni25CB" unicode="&#x25cb;" horiz-adv-x="578" 
d="M34 243c0 141 114 255 255 255s255 -114 255 -255s-114 -255 -255 -255s-255 114 -255 255zM289 46c108 0 193 86 193 197s-85 197 -193 197s-193 -86 -193 -197c0 -108 85 -197 193 -197z" />
    <glyph glyph-name="uni25CF" unicode="&#x25cf;" horiz-adv-x="578" 
d="M34 243c0 141 114 255 255 255s255 -114 255 -255s-114 -255 -255 -255s-255 114 -255 255z" />
    </font>
</defs>
</svg>
