<?xml version="1.0" encoding="utf-8"?>
<!-- Generator: Adobe Illustrator 22.0.1, SVG Export Plug-In . SVG Version: 6.00 Build 0)  -->
<svg version="1.1" id="Calque_1" xmlns="http://www.w3.org/2000/svg" xmlns:xlink="http://www.w3.org/1999/xlink" x="0px" y="0px"
	 viewBox="0 0 93.7 75" style="enable-background:new 0 0 93.7 75;" xml:space="preserve">
<style type="text/css">
	.st0{fill:url(#SVGID_1_);stroke:#DEDEDE;stroke-miterlimit:10;}
	.st1{fill:#FFFFFF;}
	.st2{fill:#0078A9;}
</style>
<g id="Layer_2">
	<g id="Layer_1-2">
		
			<linearGradient id="SVGID_1_" gradientUnits="userSpaceOnUse" x1="46.095" y1="66.685" x2="46.095" y2="10.315" gradientTransform="matrix(1 0 0 -1 0 76)">
			<stop  offset="0" style="stop-color:#83CBED"/>
			<stop  offset="1" style="stop-color:#2983BA"/>
		</linearGradient>
		<path class="st0" d="M4,9.3h84.2c1.7,0,3,1.3,3,3v50.4c0,1.7-1.3,3-3,3H4c-1.7,0-3-1.3-3-3V12.3C1,10.7,2.3,9.3,4,9.3z"/>
		<path class="st1" d="M27.2,36.9v-0.9l-0.5,0.9h-3.9l-0.5-1v1h-7.3l-0.9-2h-1.4l-0.9,2H5.7l2.5-6.1l2.8-6.2h5.3l0.7,1.8v-1.8h6.5
			l1.4,3l1.4-3h20.4c0.6,0,1.2,0.2,1.8,0.5v-0.5h5.2v0.7c0.7-0.4,1.5-0.7,2.3-0.7h9l0.8,1.8v-1.8h5.8l1.1,1.8v-1.8H78v12.4h-5.7
			L71,34.7v2.1h-7.1l-1-2.2h-1.4l-0.9,2.2h-4.3c-1,0-2-0.3-2.8-0.9v0.9h-8.5V34c0-0.4-0.3-0.4-0.3-0.4h-0.3v3.3H27.2z"/>
		<path class="st1" d="M22.9,39.6h11.2l1.6,1.8l1.7-1.8H46c0.6,0,1.1,0.2,1.6,0.4v-0.4h7.7c0.6,0,1.2,0.2,1.8,0.5v-0.5H67V40
			c0.5-0.3,1.1-0.4,1.7-0.5H75V40c0.5-0.3,1.1-0.4,1.7-0.5h6v11.7c-0.9,0.4-2,0.7-3,0.8h-6.6v-0.4c-0.5,0.3-1,0.4-1.6,0.4H53.8v-3
			c0-0.3-0.1-0.3-0.4-0.3h-0.2V52h-5.5v-3.4C47.1,48.9,46.5,49,46,49h-2v3h-6.8l-1.5-1.9L34,52h-11V39.6z"/>
		<polygon class="st2" points="58.3,41.4 65.3,41.4 65.3,43.3 60.4,43.3 60.4,45 65.2,45 65.2,46.6 60.4,46.6 60.4,48.3 65.3,48.3 
			65.3,50.2 58.3,50.2 		"/>
		<path class="st2" d="M78.9,44.8c2.7,0.1,2.9,1.5,2.9,2.9c0,1.4-1.2,2.5-2.6,2.5c-0.1,0-0.1,0-0.2,0h-4.5v-1.9H78
			c0.6,0,1.5,0,1.5-0.8c0-0.4-0.2-0.7-0.8-0.7c-0.3,0-1.3-0.1-1.5-0.1c-2.4-0.1-2.9-1.2-2.9-2.7c-0.1-1.3,1-2.5,2.3-2.5
			c0.1,0,0.2,0,0.3,0h4.5v1.9h-3.3c-0.8,0-1.6-0.1-1.6,0.8c0,0.5,0.4,0.7,0.9,0.7L78.9,44.8z"/>
		<path class="st2" d="M70.8,44.8c2.7,0.1,2.9,1.5,2.9,2.9c0,1.4-1.2,2.5-2.6,2.5c-0.1,0-0.1,0-0.2,0h-4.5v-1.9h3.5
			c0.6,0,1.5,0,1.5-0.8c0-0.4-0.2-0.7-0.8-0.7c-0.3,0-1.3-0.1-1.5-0.1c-2.4-0.1-2.9-1.2-2.9-2.7c-0.1-1.3,1-2.5,2.3-2.5
			c0.1,0,0.2,0,0.3,0h4.5v1.9H70c-0.8,0-1.6-0.1-1.6,0.8c0,0.5,0.4,0.7,0.9,0.7L70.8,44.8z"/>
		<path class="st2" d="M45.3,41.4h-7.5l-2.5,2.7l-2.4-2.7h-8.5v8.8h8.2l2.6-2.9l2.5,2.9h4.1v-3h2.9c1.1,0,3.2,0,3.2-3.1
			c0.1-1.3-0.8-2.5-2.2-2.7C45.6,41.4,45.4,41.4,45.3,41.4z M31.5,48.3h-5v-1.7h4.8V45h-4.8v-1.7h5.2l2.1,2.4L31.5,48.3z M39.7,49.3
			l-3.1-3.7l3.1-3.4V49.3z M44.6,45.4h-2.7v-2.1h2.7c0.6-0.1,1.1,0.4,1.2,1c0.1,0.6-0.4,1.1-1,1.2C44.7,45.4,44.6,45.4,44.6,45.4
			L44.6,45.4z"/>
		<path class="st2" d="M55.7,46.2c1-0.4,1.6-1.4,1.5-2.4c0-1.3-1-2.3-2.3-2.4c-0.1,0-0.2,0-0.3,0H49v8.8h2.2v-3.1H54
			c0.7,0,1,0.7,1.1,1.5l0.1,1.6h2.1l-0.1-1.8C57.1,47,56.7,46.3,55.7,46.2z M53.8,45.3h-2.7v-2h2.7c0.5-0.1,1.1,0.3,1.2,0.8
			c0,0.1,0,0.1,0,0.2C55,44.9,54.7,45.3,53.8,45.3z"/>
		<rect x="49.8" y="26.3" class="st2" width="2.2" height="8.8"/>
		<polygon class="st2" points="32.2,26.3 39.3,26.3 39.3,28.2 34.4,28.2 34.4,29.8 39.1,29.8 39.1,31.5 34.4,31.5 34.4,33.2 
			39.3,33.2 39.3,35.1 32.2,35.1 		"/>
		<path class="st2" d="M47.2,31.1c1-0.4,1.6-1.4,1.5-2.4c0-1.3-1-2.3-2.3-2.4c-0.1,0-0.2,0-0.3,0h-5.6v8.8h2.2V32h2.8
			c0.8,0,1,0.7,1.1,1.5l0.1,1.6h2.1l-0.1-1.8C48.7,31.8,48.2,31.2,47.2,31.1z M45.4,30.2h-2.7v-2h2.7c0.5-0.1,1.1,0.3,1.2,0.8
			c0,0.1,0,0.1,0,0.2C46.6,29.8,46.3,30.2,45.4,30.2z"/>
		<path class="st2" d="M27.3,26.3l-2.6,5.9L22,26.3h-3.4v8.5l-3.8-8.5H12l-3.8,8.8h2.3l0.8-2h4.3l0.9,2h4.3v-6.5l2.9,6.5h2l2.9-6.4
			v6.4h2.2v-8.8H27.3z M12.1,31.2l1.3-3.1l1.3,3.1H12.1z"/>
		<path class="st2" d="M74.2,26.3v6.1l-3.6-6.1h-3.2v8.2l-3.7-8.2h-2.9l-3,6.8c0,0-1.2,0-1.4,0c-0.5-0.1-1.3-0.5-1.3-2v-0.6
			c0-2.1,1.1-2.2,2.5-2.2H59v-2h-2.8c-1,0-3.1,0.8-3.2,4.4c0,2.4,1,4.4,3.4,4.4h2.8l0.8-2h4.3l0.8,2h4.2v-6.4l3.9,6.4h2.9v-8.8H74.2
			z M61,31.2l1.3-3.1l1.3,3.1H61z"/>
	</g>
</g>
</svg>
