<?xml version="1.0" encoding="utf-8"?>
<!-- Generator: Adobe Illustrator 21.0.2, SVG Export Plug-In . SVG Version: 6.00 Build 0)  -->
<svg version="1.1" id="Calque_1" xmlns="http://www.w3.org/2000/svg" xmlns:xlink="http://www.w3.org/1999/xlink" x="0px" y="0px"
	 viewBox="0 0 58 66" style="enable-background:new 0 0 58 66;" xml:space="preserve">
<style type="text/css">
	.st0{fill:none;stroke:#185B16;stroke-width:0.7;stroke-miterlimit:10;}
	.st1{fill:#163457;}
	.st2{fill:#25588C;}
	.st3{fill:#FFDCA9;}
	.st4{fill:#DBAA89;}
	.st5{fill:#232323;}
	.st6{opacity:0.2;fill:#FFFFFF;enable-background:new    ;}
	.st7{fill:#FFFFFF;}
	.st8{fill:none;stroke:#232323;stroke-width:0.2;stroke-linecap:round;stroke-linejoin:round;}
	.st9{fill:none;stroke:#25588C;stroke-width:0.4;stroke-miterlimit:10;}
	.st10{opacity:0.4;fill:#FFFFFF;}
	.st11{opacity:0.65;fill:#FFFFFF;}
	.st12{fill:#185B16;}
</style>
<line class="st0" x1="11.8" y1="19.8" x2="19.8" y2="19.6"/>
<title>avatar-man</title>
<path class="st1" d="M27.9,66C39,66.1,49.7,62,58,54.6c-0.8-2.3-1.8-4.5-3.2-5.5c-3.2-2.5-14.3-5.2-14.3-5.2s-0.2-4-1.3-5.2
	s-6.5-1.5-6.5-1.5l-9.2,5.7c0,0-11,2.5-18,6.2c-2.9,1.5-5,4.3-5.5,7.5C8,62.8,17.8,66.1,27.9,66z"/>
<path class="st2" d="M25,40l-5.9,4c-0.6,2.3-1.1,4.6-1.4,6.9l3.6-1.5l3,4.3l2.1-6.5L25,40z"/>
<path class="st3" d="M22.8,24.6c0,0-0.2,20.9,2,27.1l10.5-4.2L34,21.6L32.6,16l-8.3,0.3L22.8,24.6z"/>
<path class="st4" d="M23.4,43.3c1.8-1.3,6.7-5.1,6.5-6.7c-0.3-2-4.2-4.1-4.2-4.1l-2.7,2.2C23,37.5,23.1,40.5,23.4,43.3z"/>
<path class="st5" d="M13.3,14.2c0,0-5.2-8,2.5-10.1L19.3,0c0,0,13.6,0.6,15.5,4s2.5,7.1,1.9,9c-1.5,5.5-2.1,11.3-1.6,17l-1.8,0.2
	L32,18.4l0.8-9.5l-8.2-1.8l-7.4,2.2L13.3,14.2z"/>
<path class="st3" d="M17.1,6c-1.6,2.4-3,4.5-4.1,6.2c-0.7,1.2-1.4,2.3-1.1,3.6c0.2,0.9,0.7,1.2,0.9,2.2c0.2,1,0.1,2-0.2,3
	c-1.1,4.2,0.8,9.1,1.2,10.1c0.6,1.3,1.1,2.6,1.6,3.9c0.7,2.3,0.4,2.5,1,3.2c1.7,1.9,6,1.2,8.3,0.3c0.4-0.1,0.9-0.3,1.3-0.5
	c3.7-2,4.5-6.5,4.7-7.7c0.4-2.5-0.3-2.3-0.2-6.4c0-3.2,0.5-6.5,1.4-9.6c1.2-3.9,2.2-4.2,1.7-5.6c-1-3.1-6.8-4.3-11-4.1
	C20.6,4.8,18.8,5.2,17.1,6z"/>
<path class="st5" d="M15.1,6.5c0,0-0.4,4,3.1,5.4l12.3-4l0.3,2.2c0,0-2.9,2.4-2.4,5.4c0.5,2.3,1.1,4.5,2,6.7l3.9-1L34.1,8l-3.8-3.3
	l-9.7-0.9L15.1,6.5z"/>
<path class="st6" d="M34.8,4C34,3.1,33,2.4,31.9,2.1l0,0c-0.7-0.3-1.5-0.5-2.2-0.7l0,0c-1.6-0.4-3.3-0.7-5-0.9h0
	c-0.9-0.1-1.7-0.2-2.4-0.3l0,0C20.5,0.1,19.3,0,19.3,0l-0.6,0.7L21.5,1l-3.1,3.3C19.9,3,21.7,2,23.5,1.2l1.7,0.2
	c-1,0.7-2,1.5-2.7,2.5c1.3-0.8,2.6-1.6,4-2.3l0.9,0.2c-0.7,0.4-1.4,1-1.9,1.7l2.7-1.4l0.9,0.3l-0.8,0.8l1.6-0.5
	c1.3,0.4,2.6,1.1,3.7,1.9c1.2,1.1,1.7,5.6,1.8,7.7s-1.2,7.7-1.2,7.7l1-0.4c0.3-2.2,0.8-4.4,1.4-6.6C37.2,11.1,36.6,7.4,34.8,4z"/>
<path class="st5" d="M27,16.7c-0.5-0.2-1.1-0.3-1.6-0.4c-1.4-0.4-2.8-0.4-4.3-0.2c-0.7,0.2-0.9,0.4-1,0.5c-0.1,0.3,0,0.6,0.3,0.7
	c0.1,0.1,0.2,0.1,0.4,0.1c0.5,0.1,1.2-0.2,2.3-0.1c1.4,0,1.7,0.4,2.9,0.2c0.1,0,1.3-0.2,1.3-0.4C27.5,16.9,27.3,16.8,27,16.7z"/>
<path class="st5" d="M17.5,16.1c-0.4-0.1-0.8-0.2-1.1-0.2c-0.5-0.1-1.1-0.2-1.6-0.2c-0.7,0-1.4,0-2.1,0.3c-0.6,0.2-0.8,0.4-0.8,0.5
	c-0.1,0.3,0.1,0.5,0.3,0.7c0.5,0.3,1.1-0.1,2.3-0.2c0.6,0,1.1,0,1.7,0.1c0.3,0,0.5,0,0.8-0.1l0,0c0.1,0,1.1-0.2,1.1-0.5
	S17.9,16.2,17.5,16.1z"/>
<line class="st0" x1="26.9" y1="19.3" x2="35.2" y2="19.1"/>
<circle class="st5" cx="15.5" cy="19.4" r="0.6"/>
<circle class="st5" cx="23.5" cy="19.4" r="0.6"/>
<path class="st7" d="M16.9,29.5l7.9-0.2c0,0-4,3.1-6.4,2.4L16.9,29.5z"/>
<path class="st4" d="M18.1,33.2c1.2,0,2.4-0.2,3.5-0.7C21.7,32.6,19,36.3,18.1,33.2z"/>
<ellipse transform="matrix(0.3938 -0.9192 0.9192 0.3938 0.2161 44.9492)" class="st3" cx="34.2" cy="22.3" rx="4.2" ry="2.7"/>
<path class="st8" d="M20.2,26.3c0,0-1.5,0.3-2.7,0.5c-0.5,0.1-1.1-0.2-1.2-0.7c0,0,0-0.1,0-0.1l-0.1-1c1.6-1.5,2.5-3.6,2.4-5.8"/>
<path class="st4" d="M26.2,29.8c0.4-0.8,0.2-1.7-0.6-2.2c0,0-0.1,0-0.1-0.1C26,28.2,26.2,29,26.2,29.8z"/>
<path class="st1" d="M24.3,53.6l2.1-6.5c0,0-0.2-0.9,1.5-1.8s8.3-5.7,8.3-5.7l2.2,6.5L27.7,58.5L24.3,53.6z"/>
<path class="st1" d="M18.4,51.3l1-6.2l2.9,6.2l-1.5,1.2L18.4,51.3z"/>
<polyline class="st9" points="27.4,47.1 30.7,53.6 36.9,45.8 "/>
<g>
	<path class="st10" d="M23.5,23.2l-3.4-3C20.3,21.9,21.8,23.2,23.5,23.2z"/>
	<path class="st10" d="M26.3,21.9l-5.1-4.6c-0.1,0.1-0.2,0.2-0.3,0.3l5.1,4.6C26.1,22.1,26.2,22,26.3,21.9z"/>
	<path class="st10" d="M27,19.8c0-1.9-1.5-3.5-3.5-3.5c-0.6,0-1.1,0.2-1.6,0.4l4.8,4.3C26.9,20.7,27,20.2,27,19.8z"/>
	<path class="st11" d="M26,22.2l-5.1-4.6c-0.5,0.6-0.8,1.4-0.8,2.2c0,0.1,0,0.3,0,0.4l3.4,3c0,0,0,0,0,0
		C24.5,23.2,25.4,22.8,26,22.2z"/>
	<path class="st11" d="M26.8,21L22,16.7c-0.3,0.2-0.6,0.3-0.8,0.6l5.1,4.6C26.5,21.6,26.6,21.3,26.8,21z"/>
</g>
<g>
	<path class="st10" d="M17.7,19.8c0-1.9-1.3-3.5-3-3.5c-0.5,0-0.9,0.1-1.3,0.3l4.2,3.7C17.6,20.2,17.7,20,17.7,19.8z"/>
	<path class="st10" d="M14.7,23.2c0.1,0,0.3,0,0.4,0l-3.3-3C12,21.9,13.2,23.2,14.7,23.2z"/>
	<path class="st10" d="M12.8,17.2c-0.1,0.1-0.2,0.3-0.3,0.4l4.7,4.2c0.1-0.1,0.2-0.3,0.2-0.5L12.8,17.2z"/>
	<path class="st11" d="M11.8,19.8c0,0.1,0,0.3,0,0.4l3.3,3c0.8-0.1,1.5-0.7,2-1.4l-4.7-4.2C12,18.2,11.8,18.9,11.8,19.8z"/>
	<path class="st11" d="M17.6,20.4l-4.2-3.7c-0.2,0.1-0.5,0.3-0.7,0.5l4.6,4.1C17.5,21,17.6,20.7,17.6,20.4z"/>
</g>
<ellipse class="st0" cx="23.4" cy="19.8" rx="3.3" ry="3.5"/>
<ellipse class="st0" cx="14.7" cy="19.8" rx="2.7" ry="3.1"/>
<g>
	<path class="st12" d="M17.4,20.1c-0.1-0.3,0.1-0.7,0.4-0.9c0.3-0.2,0.6-0.3,1-0.3c0.3,0,0.7,0,1,0.2c0.2,0.1,0.3,0.2,0.4,0.4
		c0.1,0.2,0.1,0.4,0,0.5c-0.2-0.3-0.4-0.4-0.6-0.4c-0.2,0-0.5,0-0.8,0c-0.3,0-0.5,0-0.8,0.1C17.8,19.7,17.5,19.8,17.4,20.1z"/>
</g>
<path class="st5" d="M12.3,25.2c0,0,1.1,2.2,1.7,2.8s1.4,2.3,1.4,2.3s0.7,0.2,0.7-0.3c-0.1-0.5,0.1-2,2.3-2.1
	c2.2-0.1,2.8-0.3,4.8-0.2c0.3,0,0.6,0.1,0.9,0.1c0.7,0.1,1.3,0.6,1.5,1.3c0.3,0.8,0.4,1.7,0.4,1.7c0.1,0.6,1.6,0.2,1.8-1
	c0.2-1.2,0.9-1.5,1.5-2.8s0.4-1.8,0.8-3.2c0.4-1.5,0.5-2.6,0.5-2.6l1.1,0.1c0,0,0.2,2.9,0.1,3.5c-0.1,0.6,0.2,2.4,0.2,2.7
	c0,0-0.2,3.5-0.5,4.1c-0.3,0.6-2.8,4.4-3.4,5.4c-0.6,1-3.7,2.6-5.1,2.7c-1.4,0.1-3.3,0.3-4.8,0.1s-2.9-1.4-3.1-2.2
	c-0.2-0.8-0.8-3.9-1.4-4.9c-0.6-1-1.1-3.3-1.3-4.3S12.3,25.2,12.3,25.2z"/>
<path class="st3" d="M17.6,29.6l6.9-0.9c0.2,0,0.3,0.2,0.2,0.3c-0.8,1-2.7,3.4-5.7,2.6l-1.5-1.5C17.2,30,17.3,29.7,17.6,29.6z"/>
<path class="st7" d="M17.5,30.1l6.9-1.1c0,0-3.2,2.9-5.4,2.6L17.5,30.1z"/>
</svg>
