<svg xmlns="http://www.w3.org/2000/svg" viewBox="0 0 41.38 66.01"><title>avatar-woman</title><path d="M15.07,27.39s2.86,16.23,1,22.1l7.58-2a79.58,79.58,0,0,1-.64-20.07c1.17-9.61-2.56-9.72-2.56-9.72Z" fill="#ffdca9"/><path d="M16.71,43.92c4.69-2.46,4-9.23,4-9.23L16.5,38.84C16.63,40.56,16.72,42.3,16.71,43.92Z" fill="#dbaa89"/><path d="M17.83,7.49S19.73,1,24.25.18s9,.77,10.59,9.07,3.57,8,3.57,8-3.66-1.09-4.38-2.7,2,3.12,2,3.12l-6.23-1.72Z" fill="#232323"/><path d="M23.28,6.23C16.29.53,5.53,7.47,5.53,7.47S1.46,12,3,17.36a4.61,4.61,0,0,0,1,2,13.51,13.51,0,0,0,13.21,13c7.31,0,13.23-6.2,13.23-13.84A13.93,13.93,0,0,0,23.28,6.23Z" fill="#232323"/><path d="M16.16,33.57H14A10.71,10.71,0,0,1,3.3,22.89V19.38A10.71,10.71,0,0,1,14,8.7h2.19A10.71,10.71,0,0,1,26.84,19.38v3.51c0,2.84-2.73,3.61-4.56,5.53S19.19,33.57,16.16,33.57Z" fill="#ffdca9"/><path d="M4.15,24.18a17,17,0,0,0,.53,12c2.78,6,3.52,7.75,6.19,7.33s9-2.14,10.57-8.76l1.6-6.62L20.7,18.52Z" fill="#ffdca9"/><path d="M3,16.44S2.68,13,7.87,13.3s11.32.28,14.81-3.35S11.29,6.47,11.29,6.47,3,7.89,3,16.44Z" fill="#232323"/><path d="M13.09,10s7.19,1.78,7.25,4.56-2.51,5.59,1.35,8.79c1.62,1.35,1.54,4.12,1.54,4.12s2.73-.74,4-4.7a32.81,32.81,0,0,0,.33-4c.25-2.12-.69-5.84-1.36-7.58a17.65,17.65,0,0,0-4-5.74Z" fill="#232323"/><ellipse cx="24.14" cy="25.2" rx="3.71" ry="2.56" transform="translate(-9.76 33.5) rotate(-60)" fill="#ffdca9"/><path d="M8.4,6c3.69-.82,8.45-1.53,11-.49,4.5,1.85,8.92,6.05,9.67,10.69.51,3.19-.36,7.82-1.55,11a14.18,14.18,0,0,0,2.92-8.68A13.93,13.93,0,0,0,23.28,6.23C18.54,2.37,12.08,4.31,8.4,6Z" fill="#fff" opacity="0.2"/><g opacity="0.2"><path d="M22.32,10.12a3,3,0,0,1-.42,1,6.77,6.77,0,0,1-.66.92,11.1,11.1,0,0,1-.78.84c-.27.26-.56.52-.85.76l-.78-1.35c.33-.12.65-.24,1-.38a10.15,10.15,0,0,0,.93-.46,6.2,6.2,0,0,0,.87-.58A2.86,2.86,0,0,0,22.32,10.12Z" fill="#fff"/></g><g opacity="0.2"><path d="M22.81,11.8a2.56,2.56,0,0,1-.35.85,5.49,5.49,0,0,1-.54.75,10,10,0,0,1-1.33,1.29l-.59-1A9.15,9.15,0,0,0,21.52,13a5,5,0,0,0,.69-.51,2.41,2.41,0,0,0,.55-.65Z" fill="#fff"/></g><g opacity="0.2"><path d="M23.43,14.64a2.57,2.57,0,0,1-.64.66,5.5,5.5,0,0,1-.78.5,10,10,0,0,1-1.72.71l-.18-1.18a9.14,9.14,0,0,0,1.69-.12,5,5,0,0,0,.83-.21,2.41,2.41,0,0,0,.76-.4Z" fill="#fff"/></g><g opacity="0.2"><path d="M38.41,17.21,37.9,17A.79.79,0,0,0,38.41,17.21Z" fill="#fff"/><path d="M34.84,9.26C33.27,1,28.77-.61,24.25.18a5.66,5.66,0,0,0-2.38,1.05c1.92-.33,5.15-.67,6.81.31A14.45,14.45,0,0,1,32.52,4.8L29.42,4a6,6,0,0,1,3.68,3.43c.94,2.21,1.2,6.39,3.16,8.94A15.1,15.1,0,0,0,37.9,17C37.21,16.59,35.92,15,34.84,9.26Z" fill="#fff"/></g><path d="M11.06,20.28A20.33,20.33,0,0,1,15,19.64a9.12,9.12,0,0,1,2,.1,2.66,2.66,0,0,1,1.76,1l-.17.13a2.36,2.36,0,0,0-1.65-.68,8.64,8.64,0,0,0-1.87.1,19.58,19.58,0,0,0-3.65,1Z"/><path d="M7.08,20.83a5.19,5.19,0,0,0-1.93-.67,2.71,2.71,0,0,0-.95.06,2,2,0,0,0-.75.43L2.91,20a2.73,2.73,0,0,1,1.17-.44,3.31,3.31,0,0,1,1.17.11,5.51,5.51,0,0,1,1.94,1Z"/><circle cx="15.62" cy="23.42" r="0.69"/><circle cx="6.44" cy="23.42" r="0.69"/><path d="M9.7,29.78,6.92,29S7,30.5,9.24,30.45,9.7,29.78,9.7,29.78Z" fill="#dbaa89"/><path d="M9,23.42s.19,3.3-1.85,5.08a.77.77,0,0,0-.06,1.09,1.84,1.84,0,0,0,1.19.73" fill="none" stroke="#000" stroke-miterlimit="10" stroke-width="0.24"/><path d="M8.52,33.58l.28,2S12.55,37,14,33.57Z" fill="#fff"/><path d="M8.08,33.25a27.3,27.3,0,0,1,5.9.31S7,34.85,8.08,33.25Z" fill="#d67241"/><path d="M9.54,37A4.47,4.47,0,0,0,12,36.65s-1.89,1.69-2.83.74S9.54,37,9.54,37Z" fill="#dbaa89"/><path d="M13.14,53.27c6,1.16,18.12-2,16.69-7.84-4.34-1.82-8.06-3.1-8.06-3.1l-4.64,2.43-6,2C10.05,49.06,9.2,52.51,13.14,53.27Z" fill="#ffdca9"/><path d="M26.33,43.92s-3.49,5.35-6.95,6.68" fill="none" stroke="#7f4d40" stroke-miterlimit="10" stroke-width="0.43"/><path d="M14.57,45.6s-1.11,2.5,2.84,5" fill="none" stroke="#7f4d40" stroke-miterlimit="10" stroke-width="0.43"/><circle cx="18.2" cy="50.6" r="0.92" fill="none" stroke="#7f4d40" stroke-miterlimit="10" stroke-width="0.43"/><path d="M36.56,48.54c-2.12-1.11-4.5-2.18-6.73-3.11,1.43,5.87-10.66,9-16.69,7.84-3.94-.76-3.09-4.21-2-6.54L4.1,49A7.16,7.16,0,0,0,.54,54.87q0,.33,0,.67l40.25-1.36A8.72,8.72,0,0,0,36.56,48.54Z" fill="#163457"/><path d="M40.07,62.58,41.19,62a20.61,20.61,0,0,0-.43-7.81L.5,55.54c-.12,2-.33,4-.5,5.46a49.16,49.16,0,0,0,21.83,5A49.59,49.59,0,0,0,40.07,62.58Z" fill="#163457"/></svg>