<?xml version="1.0" encoding="UTF-8"?>
<svg width="15px" height="15px" viewBox="0 0 15 15" version="1.1" xmlns="http://www.w3.org/2000/svg" xmlns:xlink="http://www.w3.org/1999/xlink">
    <!-- Generator: Sketch 53.2 (72643) - https://sketchapp.com -->
    <title>calendar</title>
    <desc>Created with Sketch.</desc>
    <g id="Symbols" stroke="none" stroke-width="1" fill="none" fill-rule="evenodd">
        <g id="filters" transform="translate(-526.000000, -18.000000)" fill="#BFC4D4" fill-rule="nonzero">
            <g transform="translate(1.000000, 0.000000)" id="date">
                <g transform="translate(509.103631, 0.010000)">
                    <g id="aller" transform="translate(16.000000, 15.000000)">
                        <path d="M13.2633063,3.875 L11.7457409,3.875 L11.7457409,3.4375 C11.7457409,3.195125 11.5523597,3 11.3121508,3 C11.0719418,3 10.8785607,3.196 10.8785607,3.4375 L10.8785607,3.875 L3.94111888,3.875 L3.94111888,3.4375 C3.94111888,3.195125 3.74687051,3 3.50752877,3 C3.26818703,3 3.07393866,3.196 3.07393866,3.4375 L3.07393866,3.875 L1.55637327,3.875 C0.957151736,3.87675 0.474132353,4.364125 0.472397993,4.96875 L0.472397993,15.90625 C0.474132353,16.510875 0.957151736,16.99825 1.55637327,17 L13.2633063,17 C13.8625278,16.99825 14.3455472,16.510875 14.3472815,15.90625 L14.3472815,4.96875 C14.3455472,4.364125 13.8625278,3.87675 13.2633063,3.875 Z M5.67547932,11.75 L5.67547932,8.25 L9.14420021,8.25 L9.14420021,11.75 L5.67547932,11.75 Z M9.14420021,12.625 L9.14420021,16.125 L5.67547932,16.125 L5.67547932,12.625 L9.14420021,12.625 Z M1.33957821,8.25 L4.8082991,8.25 L4.8082991,11.75 L1.33957821,11.75 L1.33957821,8.25 Z M10.0113804,8.25 L13.4801013,8.25 L13.4801013,11.75 L10.0113804,11.75 L10.0113804,8.25 Z M1.40288237,4.81475 C1.44450702,4.7745 1.49653783,4.75 1.55637327,4.75 L3.07393866,4.75 L3.07393866,5.1875 C3.07393866,5.429 3.26818703,5.625 3.50752877,5.625 C3.74687051,5.625 3.94111888,5.429 3.94111888,5.1875 L3.94111888,4.75 L10.8785607,4.75 L10.8785607,5.1875 C10.8785607,5.429 11.0719418,5.625 11.3121508,5.625 C11.5523597,5.625 11.7457409,5.429 11.7457409,5.1875 L11.7457409,4.75 L13.2633063,4.75 C13.3231417,4.75 13.3751725,4.773625 13.4167972,4.81475 C13.4566875,4.85675 13.4801013,4.90925 13.4801013,4.96875 L13.4801013,7.375 L1.33957821,7.375 L1.33957821,4.96875 C1.33957821,4.908375 1.36299208,4.85675 1.40288237,4.81475 Z M1.40288237,16.061125 C1.36299208,16.019125 1.33871103,15.966625 1.33871103,15.90625 L1.33871103,12.625 L4.80743192,12.625 L4.80743192,16.125 L1.55550609,16.125 C1.49567065,16.125 1.44363984,16.101375 1.40288237,16.061125 Z M13.4167972,16.061125 C13.3751725,16.101375 13.3231417,16.125 13.2633063,16.125 L10.0113804,16.125 L10.0113804,12.625 L13.4801013,12.625 L13.4801013,15.90625 C13.4801013,15.966625 13.4566875,16.019125 13.4167972,16.061125 Z" id="calendar"></path>
                    </g>
                </g>
            </g>
        </g>
    </g>
</svg>