<?xml version="1.0" encoding="utf-8"?>
<!-- Generator: Adobe Illustrator 22.0.1, SVG Export Plug-In . SVG Version: 6.00 Build 0)  -->
<svg version="1.1" id="Calque_1" xmlns="http://www.w3.org/2000/svg" xmlns:xlink="http://www.w3.org/1999/xlink" x="0px" y="0px"
	 viewBox="0 0 91.1 75" style="enable-background:new 0 0 91.1 75;" xml:space="preserve">
<style type="text/css">
	.st0{fill:none;}
	.st1{fill:#231F20;}
	.st2{fill:#FF5F00;}
	.st3{fill:#EB001B;}
	.st4{fill:#F79E1B;}
</style>
<g id="Layer_2">
	<g id="Layer_1-2">
		<rect x="-10" y="-7.9" class="st0" width="110.7" height="90.8"/>
		<path class="st1" d="M17.4,71.5V67c0.1-1.5-1-2.8-2.5-2.9c-0.1,0-0.2,0-0.3,0c-1-0.1-2,0.4-2.5,1.3c-0.5-0.8-1.4-1.3-2.4-1.3
			c-0.8,0-1.6,0.4-2.1,1.1v-0.9H6v7.2h1.6v-4c-0.1-0.9,0.5-1.8,1.4-1.9c0.1,0,0.2,0,0.3,0c1,0,1.6,0.7,1.6,1.9v4h1.6v-4
			c-0.1-0.9,0.5-1.8,1.5-1.9c0.1,0,0.2,0,0.3,0c1.1,0,1.6,0.7,1.6,1.9v4L17.4,71.5z M40.8,64.3h-2.6v-2.2h-1.6v2.2h-1.4v1.4h1.5V69
			c0,1.7,0.6,2.7,2.5,2.7c0.7,0,1.4-0.2,2-0.6l-0.5-1.3c-0.4,0.3-0.9,0.4-1.4,0.4c-0.8,0-1-0.5-1-1.2v-3.3h2.6L40.8,64.3z
			 M54.2,64.1c-0.8,0-1.5,0.4-1.9,1.1v-0.9h-1.6v7.2h1.6v-4c0-1.2,0.5-1.9,1.5-1.9c0.3,0,0.7,0.1,1,0.2l0.5-1.5
			C54.9,64.1,54.6,64.1,54.2,64.1L54.2,64.1z M34,64.8c-0.9-0.5-1.9-0.8-2.9-0.8c-1.8,0-3,0.9-3,2.3c0,1.2,0.9,1.9,2.5,2.1l0.8,0.1
			c0.9,0.1,1.3,0.3,1.3,0.8c0,0.6-0.6,0.9-1.6,0.9c-0.9,0-1.7-0.2-2.4-0.8l-0.8,1.2c0.9,0.6,2,1,3.1,0.9c2.1,0,3.3-1,3.3-2.4
			s-1-1.9-2.5-2.2L30.9,67c-0.7-0.1-1.2-0.2-1.2-0.7c0-0.5,0.5-0.8,1.4-0.8c0.8,0,1.6,0.2,2.3,0.6L34,64.8z M76,64.1
			c-0.8,0-1.5,0.4-1.9,1.1v-0.9h-1.6v7.2h1.6v-4c0-1.2,0.5-1.9,1.5-1.9c0.3,0,0.7,0.1,1,0.2l0.5-1.5C76.7,64.1,76.4,64.1,76,64.1
			L76,64.1z M55.8,67.9c-0.1,2,1.5,3.7,3.5,3.8c0.1,0,0.2,0,0.3,0c0.9,0,1.9-0.3,2.6-0.9l-0.8-1.3c-0.5,0.4-1.2,0.6-1.9,0.6
			c-1.3-0.1-2.2-1.2-2.1-2.5c0.1-1.1,1-2,2.1-2.1c0.7,0,1.3,0.2,1.9,0.6l0.8-1.3c-0.7-0.6-1.7-0.9-2.6-0.9c-2-0.1-3.7,1.4-3.8,3.4
			C55.8,67.6,55.8,67.7,55.8,67.9L55.8,67.9z M70.5,67.9v-3.6h-1.6v0.9c-0.5-0.7-1.4-1.1-2.3-1.1c-2.1,0-3.8,1.7-3.8,3.8
			c0,2.1,1.7,3.8,3.8,3.8c0.9,0,1.7-0.4,2.3-1.1v0.9h1.6V67.9z M64.6,67.9c0.1-1.2,1.1-2.1,2.3-2s2.1,1.1,2,2.3
			c-0.1,1.1-1,2-2.2,2.1c-1.2,0-2.2-0.9-2.2-2.1C64.6,68,64.6,67.9,64.6,67.9z M45.7,64.1c-2.1,0-3.7,1.7-3.7,3.8
			c0,2.1,1.7,3.7,3.8,3.7l0,0c1.1,0.1,2.2-0.3,3-1l-0.8-1.2c-0.6,0.5-1.3,0.7-2.1,0.8c-1.1,0.1-2-0.7-2.2-1.8h5.4c0-0.2,0-0.4,0-0.6
			C49.2,65.6,47.8,64.1,45.7,64.1L45.7,64.1z M45.7,65.5c1,0,1.8,0.8,1.8,1.7c0,0,0,0,0,0h-3.8C43.8,66.2,44.7,65.5,45.7,65.5
			L45.7,65.5z M85,67.9v-6.5h-1.5v3.8c-0.5-0.7-1.4-1.1-2.3-1.1c-2.1,0-3.8,1.7-3.8,3.8c0,2.1,1.7,3.8,3.8,3.8
			c0.9,0,1.7-0.4,2.3-1.1v0.9H85V67.9z M87.6,70.4c0.1,0,0.2,0,0.3,0.1c0.1,0,0.2,0.1,0.2,0.2c0.1,0.1,0.1,0.1,0.2,0.2
			c0.1,0.2,0.1,0.4,0,0.6c0,0.1-0.1,0.2-0.2,0.2c-0.1,0.1-0.1,0.1-0.2,0.2c-0.1,0-0.2,0.1-0.3,0.1c-0.3,0-0.6-0.2-0.7-0.4
			c-0.1-0.2-0.1-0.4,0-0.6c0-0.1,0.1-0.2,0.2-0.2c0.1-0.1,0.1-0.1,0.2-0.2C87.4,70.4,87.5,70.4,87.6,70.4L87.6,70.4z M87.6,71.7
			c0.1,0,0.1,0,0.2,0c0.1,0,0.1-0.1,0.2-0.1c0.2-0.2,0.2-0.5,0-0.8c0-0.1-0.1-0.1-0.2-0.1c-0.1,0-0.1,0-0.2,0c-0.1,0-0.1,0-0.2,0
			c-0.1,0-0.1,0.1-0.2,0.1c-0.2,0.2-0.2,0.5,0,0.8c0.1,0.1,0.1,0.1,0.2,0.1C87.5,71.7,87.6,71.7,87.6,71.7L87.6,71.7z M87.7,70.8
			c0.1,0,0.1,0,0.2,0.1c0,0,0.1,0.1,0.1,0.2c0,0.1,0,0.1-0.1,0.1c0,0-0.1,0.1-0.2,0.1l0.2,0.2h-0.2l-0.2-0.2h-0.1v0.2h-0.1v-0.7
			L87.7,70.8z M87.5,70.9v0.2h0.2c0,0,0.1,0,0.1,0c0,0,0,0,0-0.1c0,0,0,0,0-0.1c0,0-0.1,0-0.1,0L87.5,70.9z M79.2,67.9
			c0.1-1.2,1.1-2.1,2.3-2s2.1,1.1,2,2.3c-0.1,1.1-1,2-2.2,2.1c-1.2,0-2.2-0.9-2.2-2.1C79.2,68,79.2,67.9,79.2,67.9z M26.3,67.9v-3.6
			h-1.6v0.9c-0.5-0.7-1.4-1.1-2.3-1.1c-2.1,0-3.8,1.7-3.8,3.8c0,2.1,1.7,3.8,3.8,3.8c0.9,0,1.7-0.4,2.3-1.1v0.9h1.6L26.3,67.9z
			 M20.4,67.9c0.1-1.2,1.1-2.1,2.3-2c1.2,0.1,2.1,1.1,2,2.3c-0.1,1.1-1,2-2.2,2.1c-1.2,0-2.2-0.9-2.2-2.1
			C20.4,68,20.4,67.9,20.4,67.9L20.4,67.9z"/>
		<g id="_Group_">
			<rect x="33.5" y="9.3" class="st2" width="23.8" height="42.7"/>
			<path id="_Path_" class="st3" d="M35,30.7c0-8.3,3.8-16.2,10.4-21.3C33.6,0.1,16.5,2.1,7.2,13.9S0,42.8,11.8,52
				c9.8,7.7,23.7,7.7,33.5,0C38.8,46.9,35,39,35,30.7z"/>
			<path class="st4" d="M89.3,30.7c0,15-12.2,27.1-27.1,27.1c-6.1,0-12-2-16.8-5.8c11.8-9.3,13.8-26.3,4.6-38.1
				c-1.3-1.7-2.9-3.2-4.6-4.6c11.8-9.3,28.9-7.2,38.1,4.6C87.2,18.7,89.3,24.6,89.3,30.7L89.3,30.7z"/>
			<path class="st4" d="M86.7,47.5v-0.9H87v-0.2h-0.9v0.2h0.4v0.9L86.7,47.5z M88.4,47.5v-1.1h-0.3l-0.3,0.8l-0.3-0.8h-0.2v1.1h0.2
				v-0.8l0.3,0.7H88l0.3-0.7v0.8L88.4,47.5z"/>
		</g>
	</g>
</g>
</svg>
