<svg xmlns="http://www.w3.org/2000/svg" viewBox="0 0 177.3 46.9"><defs><style>.cls-1{fill:#fff;}.cls-2,.cls-3,.cls-4{isolation:isolate;}.cls-3{font-size:15px;}.cls-3,.cls-4{fill:#153457;font-family:GTWalsheim-Regular, GT Walsheim;}.cls-4{font-size:20px;}.cls-5{letter-spacing:-0.01em;}.cls-6{letter-spacing:-0.01em;}.cls-7{letter-spacing:0em;}.cls-8{letter-spacing:-0.01em;}.cls-9{fill:#14a7e0;}.cls-10{fill:#eb435e;}.cls-11{fill:#00a35d;}.cls-12{fill:#f7cc16;}</style></defs><title>Fichier 2</title><g id="Calque_2" data-name="Calque 2"><g id="Layer_1" data-name="Layer 1"><path class="cls-1" d="M177.2,38.9a8,8,0,0,1-8,8H8a8,8,0,0,1-8-8V8A8,8,0,0,1,8,0H169.3a8,8,0,0,1,8,8V38.9Z"/><g class="cls-2"><text class="cls-3" transform="translate(60.59 16.03)">Disponible sur</text><text class="cls-4" transform="translate(62.36 37.03)">Play <tspan class="cls-5" x="44.56" y="0">S</tspan><tspan class="cls-6" x="55.5" y="0">t</tspan><tspan class="cls-7" x="62.5" y="0">o</tspan><tspan class="cls-8" x="73.62" y="0">r</tspan><tspan x="80.56" y="0">e</tspan></text></g><g id="M1q7wL.tif"><path class="cls-9" d="M16.62,40.89a2.7,2.7,0,0,1-.7-2.1V8.69a2.7,2.7,0,0,1,.7-2.1c1.8,1.8,3.6,3.7,5.5,5.5,3.8,3.9,7.7,7.7,11.5,11.6-.3.3-.6.7-.9,1C27.32,30.09,21.92,35.49,16.62,40.89Z"/><path class="cls-10" d="M16.62,40.89c5.3-5.4,10.7-10.8,16-16.1.3-.3.6-.7.9-1h.2c1.9,1.9,3.8,3.9,5.7,5.8-5.1,2.9-10.2,5.9-15.3,8.8l-4.8,2.7C18.42,41.49,17.52,41.79,16.62,40.89Z"/><path class="cls-11" d="M33.82,23.69h-.2c-3.9-3.8-7.7-7.7-11.5-11.6l-5.5-5.5a1.88,1.88,0,0,1,2.6-.2c6.8,3.8,13.5,7.7,20.2,11.6C37.62,19.79,35.72,21.79,33.82,23.69Z"/><path class="cls-12" d="M33.82,23.69c1.9-1.9,3.8-3.9,5.7-5.8,2.4,1.3,4.8,2.6,7.2,4,1.6,1,1.6,2.6-.1,3.6-2.3,1.4-4.7,2.7-7.1,4C37.62,27.59,35.72,25.69,33.82,23.69Z"/></g></g></g></svg>