<svg xmlns="http://www.w3.org/2000/svg" xmlns:xlink="http://www.w3.org/1999/xlink" id="Capa_1" viewBox="0 0 735.1 361.2"><style>.st1{fill:#383c3f}.st2{fill:#c2c8cc}.st4{fill:#6a6e70}.st7{fill:#617077}.st8{fill:#3d474c}.st12{fill:#202628}.st15,.st19{fill:none;stroke:#1a2f47;stroke-miterlimit:10}.st15{stroke-linecap:round;stroke-linejoin:round;stroke-width:4.1021}.st19{stroke-width:1.0255}.st24{fill:#495559}.st31{fill:#585e61}.st32{fill:#9b9d9e}.st33{fill:#a9aaab}</style><path fill="#063147" d="M712.5 323.8s-290.1 20-365.6 18.3-301.5-14.2-319.4-20.3-26.3-27.3 159.1-17 517.2-31.8 525.9 19z" opacity=".2"/><path d="M618.2 184.8h.2c1.2-.1 2.4-.2 3.7-.2 1 0 2 .1 3 .1l13.3-.1H657c25.8 0 46.8 29.3 46.8 65.5s-20.9 65.5-46.8 65.5h-34.9c-25.8 0-46.8-29.3-46.8-65.5-.1-34.4 18.9-62.6 42.9-65.3z" class="st1"/><ellipse cx="618.2" cy="250.1" class="st1" rx="42.9" ry="60.3"/><ellipse cx="618.2" cy="250.1" class="st1" rx="34.3" ry="48.2"/><path d="M618.2 235.5H634v29.1h-15.8c-5.7 0-10.3-6.5-10.3-14.5-.1-8.1 4.6-14.6 10.3-14.6z" class="st1"/><path d="M621.9 235.5h15.8v29.1h-15.8c-5.7 0-10.3-6.5-10.3-14.5-.1-8.1 4.6-14.6 10.3-14.6z" class="st1"/><path d="M720.1 258.9v-64.8l-19.6-44.6-113.4-42.6S517 51.5 472.8 35.6l-45.4-13.5S249.5-.6 99.8 40.5l-72.4 74.8-17.2 86.5 4.3 51.5 14.1 16 92 9.2 235.6 9.2h105.5l53.4 9.2 165-9.8 24.5-11.7 15.3-2.5v-14h.2z" class="st2"/><path fill="#e8f1f8" d="M494.2 285.8l216.9-12.1c3.5-.2 6.3-3.3 6.1-6.8s-3.3-6.3-6.8-6.1l-216.9 12.1c-3.5.2-6.3 3.3-6.1 6.8s3.2 6.3 6.8 6.1z"/><path d="M503 269.6l202.5-9.4c6.8-.3 12.4-5.7 12.9-12.5l.1-1.8c.7-8.2-6-15.1-14.2-14.7l-202.5 9.4c-6.8.3-12.4 5.7-12.9 12.5l-.1 1.8c-.7 8.2 6 15.1 14.2 14.7z" class="st4"/><path fill="#555556" d="M703.7 246.3l-.2 1.2c-.7 4.5-6.4 8.1-13.3 8.4l-197.9 9.2c-2.4-2.7-3.8-6.3-3.5-10.2l.1-1.8c.2-2.6 1.2-5 2.7-7l197.9-9.2c8.4-.4 15 4 14.2 9.4z"/><path d="M704.1 165l-182.8 11.7 18.4 22.7L709 188.3l-4.9-23.3z" class="st4"/><path fill="#d5d5d5" d="M720.1 194.1v1.8l-27.6-7 3.6-22.1 4.4-17.1 19.6 44.4zm-150.3 1.6L557.5 176l-60.1-16.4H452l21.4 36.1 80.4 9.8 16-9.8z"/><path d="M580.8 109.2s-70.1-55.4-114.3-71.3H298l78.5 80.5 204.3-9.2z" class="st7"/><path d="M274.7 40.5l-53.4-5.6-93.9 9.9-46.6 46.6 14.7 19 230.7 27L360 125l-69.4-73.5-15.9-11z" class="st8"/><linearGradient id="SVGID_1_" x1="830.8078" x2="1200.2078" y1="313.9564" y2="313.9564" gradientTransform="rotate(180 648.1578 172.02975)" gradientUnits="userSpaceOnUse"><stop offset="0" stop-color="#fff"/><stop offset="1" stop-color="#fff" stop-opacity="0"/></linearGradient><path fill="url(#SVGID_1_)" d="M427.4 22.1l38.1 11.3c-37-3.1-208.7-15.4-369.4 10.9l3.7-3.8C249.5-.6 427.4 22.1 427.4 22.1z"/><path fill="#d6d8da" d="M611.5 262.4c-1.3 0-2.4-1.1-2.4-2.4v-19.7c0-1.3 1.1-2.4 2.4-2.4s2.4 1.1 2.4 2.4V260c0 1.3-1 2.4-2.4 2.4zm-15.2 0c-1.3 0-2.4-1.1-2.4-2.4v-19.7c0-1.3 1.1-2.4 2.4-2.4s2.4 1.1 2.4 2.4V260c0 1.3-1.1 2.4-2.4 2.4zm-14.8 1.8c-1.3 0-2.4-1.1-2.4-2.4V242c0-1.3 1.1-2.4 2.4-2.4s2.4 1.1 2.4 2.4v19.7c0 1.4-1 2.5-2.4 2.5zm-15.2 0c-1.3 0-2.4-1.1-2.4-2.4V242c0-1.3 1.1-2.4 2.4-2.4s2.4 1.1 2.4 2.4v19.7c0 1.4-1.1 2.5-2.4 2.5zm-14.6.2c-1.3 0-2.4-1.1-2.4-2.4v-19.7c0-1.3 1.1-2.4 2.4-2.4s2.4 1.1 2.4 2.4V262c0 1.3-1.1 2.4-2.4 2.4zm136.8-5.7c-1.3 0-2.4-1.1-2.4-2.4v-19.7c0-1.3 1.1-2.4 2.4-2.4s2.4 1.1 2.4 2.4v19.7c0 1.3-1.1 2.4-2.4 2.4zm-15.3 0c-1.3 0-2.4-1.1-2.4-2.4v-19.7c0-1.3 1.1-2.4 2.4-2.4s2.4 1.1 2.4 2.4v19.7c0 1.3-1 2.4-2.4 2.4zm-14.7 1.8c-1.3 0-2.4-1.1-2.4-2.4v-19.7c0-1.3 1.1-2.4 2.4-2.4s2.4 1.1 2.4 2.4v19.7c0 1.3-1.1 2.4-2.4 2.4zm-15.3 0c-1.3 0-2.4-1.1-2.4-2.4v-19.7c0-1.3 1.1-2.4 2.4-2.4s2.4 1.1 2.4 2.4v19.7c0 1.3-1 2.4-2.4 2.4zm-14.5.2c-1.3 0-2.4-1.1-2.4-2.4v-19.7c0-1.3 1.1-2.4 2.4-2.4s2.4 1.1 2.4 2.4v19.7c0 1.4-1.1 2.4-2.4 2.4zm-92.2 3.7c-1.3 0-2.4-1.1-2.4-2.4v-19.7c0-1.3 1.1-2.4 2.4-2.4s2.4 1.1 2.4 2.4V262c0 1.3-1.1 2.4-2.4 2.4zm-14 2.8c-1.3 0-2.4-1.1-2.4-2.4v-22.3c0-1.3 1.1-2.4 2.4-2.4s2.4 1.1 2.4 2.4v22.3c0 1.3-1.1 2.4-2.4 2.4zm-15.3 0c-1.3 0-2.4-1.1-2.4-2.4v-20.5c0-1.3 1.1-2.4 2.4-2.4s2.4 1.1 2.4 2.4v20.5c.1 1.3-1 2.4-2.4 2.4z"/><linearGradient id="SVGID_2_" x1="844.3077" x2="971.2078" y1="201.7297" y2="201.7297" gradientTransform="rotate(180 648.1578 172.02975)" gradientUnits="userSpaceOnUse"><stop offset="0" stop-color="#fff"/><stop offset="1" stop-color="#fff" stop-opacity="0"/></linearGradient><path fill="url(#SVGID_2_)" d="M325.1 147.2l25.9-14.5-7-1.8 16-5.9 92 34.6-78.4-20.9-48.5 8.5z"/><path d="M88.2 100.9l-7.4-9.5 46.6-46.6 3.8-.4-43 56.5zm137.3-65.5l-26.2 87.1-7.2-.8L223 35.1l2.5.3z" class="st12"/><path fill="none" stroke="#fff" stroke-linecap="round" stroke-linejoin="round" stroke-miterlimit="10" stroke-width="8.204" d="M517.9 184.2c-15.8-1.7-31.7-3.5-47.5-5.2" opacity=".5"/><g opacity=".2"><circle cx="537.1" cy="188.8" r="6.3" class="st15"/><path d="M520.1 185c0 1.6 1.3 2.8 2.8 2.8 1.6 0 2.8-1.3 2.8-2.8 0-1.6-1.3-2.8-2.8-2.8s-2.8 1.3-2.8 2.8zm-2.8-9.3c-15.8-1.7-31.7-3.5-47.5-5.2m46.3 20.3l-25.2-1.8" class="st15"/><path d="M550.7 207.3c1-.3 15-4.6 16-13.2.3-2.6-.3-7.9-13.8-17.2-26.3-18.1-54.3-19.8-58-19.9-9.5-.4-25 .3-43.3 6.7" class="st15"/></g><path fill="none" stroke="#fff" stroke-linecap="round" stroke-linejoin="round" stroke-miterlimit="10" stroke-width="3.817" d="M712.3 177.1l-10.2 5.4" opacity=".5"/><path fill="none" stroke="#fff" stroke-linecap="round" stroke-linejoin="round" stroke-miterlimit="10" stroke-width="1.911" d="M707.8 169.1l-5.1 2.4" opacity=".5"/><path fill="none" stroke="#1a2f47" stroke-miterlimit="10" stroke-width=".629" d="M686.4 175.9c-88.5.8-107.4 1.5-107.4 2 0 1.1 101 .7 101.1 4.2.1 2.5-53 6.1-99.9 8.8"/><path d="M120.7 45.1s82-29.3 336.5-14.2" class="st19"/><path fill="none" stroke="#fff" stroke-linecap="round" stroke-linejoin="round" stroke-miterlimit="10" stroke-width="1.911" d="M465.2 273.3s6.4-81.3-54.8-91.7M690.9 194s-34.6 8.1-77 7.8c-42.3-.3-44.2-2.4-44.2-2.4m129.4-44s7.5 9.5-14.9 10.9-124.2 8.5-124.2 8.5-11.8-1.5-21.1-7.7"/><path fill="#996665" d="M26.2 116.5l5.2 18.5-4 27.9-9.9 2.5 8.7-48.9z"/><linearGradient id="SVGID_3_" x1="931.1077" x2="1268.9078" y1="250.0297" y2="250.0297" gradientTransform="rotate(180 648.1578 172.02975)" gradientUnits="userSpaceOnUse"><stop offset="0" stop-color="#fff"/><stop offset="1" stop-color="#fff" stop-opacity="0"/></linearGradient><path fill="url(#SVGID_3_)" d="M82.6 123l-55.2-7.7 72.1-74.5 21.2 4.3 6.7-.3-46.6 46.6 14.7 19 230.7 27 39-12.4-40.8 22.2L82.6 123z"/><path fill="none" stroke="#fff" stroke-linecap="round" stroke-linejoin="round" stroke-miterlimit="10" stroke-width="8.204" d="M153.7 132.7l-35.5-3.1" opacity=".75"/><path d="M221.3 34.9l-23 2.4-34.6 81.1 28.8 3.3 28.8-86.8z" class="st24"/><path d="M194.9 122l-2.4-.3 2.4.3z" class="st8"/><path d="M80.8 91.4l7.4 9.5 43-56.5-3.8.4 70.9-7.5-34.6 81.1-68.2-8-14.7-19z" class="st7"/><path d="M223 35.1l1.4.2-1.4-.2zm-23.7 87.4l-4.4-.5 4.4.5z" class="st12"/><path d="M192.5 121.7l-13.3-1.5 13.3 1.5zm-.4 0l5.9-16.5-5.5 16.5h-.4z" class="st24"/><path fill="#202628" d="M298 37.9h168.6c9.5 3.4 20.2 8.7 31.2 14.8L428.6 116l-52.1 2.3L298 37.9z" opacity=".5"/><path d="M437.5 91.6l26.3-26.2-40.6 14-26.2 26.3 40.5-14.1z" class="st7"/><path fill="#fff" d="M122.7 223.6s-7.9-33.4-30.2-41.4c-22.4-8 .9-12.9.9-12.9s28.5 27.1 29.3 54.3zm461.2-113.2s-98.2 12.7-207.4 8l207.4-8z"/><g opacity=".3"><path fill="#fff" d="M88.2 100.9l43-56.5-3.8.4 43-4.5-62.5 71.5-12.4-1.4-14.7-19 7.4 9.5z" opacity=".5"/></g><path d="M336.3 99.9L274 131.3l-73.7-8.6L307 68.9l29.3 31z" class="st7"/><path d="M362.9 125l-44.5-19.3-23 2.2-5.9 14.1 20.3 19.4 30.5-1.3 22.6-15.1z" class="st2"/><path d="M332.2 16S195 16 108.1 35.2c-19.8 4.4-66.7 62.7-66.7 62.7" class="st19"/><path fill="#fff" d="M217.6 170.7s.2-12.4-13.1-12.9-20 6.7-16.3 9.2 23.9 2.3 23.9 2.3" opacity=".3"/><path d="M346.4 263.5c0-43.2 24.8-78.2 55.4-78.2s55.4 35 55.4 78.2v2.5c-49.3 3.8-86.1 14.6-107.8 22.6-1.9-7.8-3-16.3-3-25.1z" class="st1"/><defs><path id="SVGID_4_" d="M346.4 263.5c0-43.2 24.8-78.2 55.4-78.2s55.4 35 55.4 78.2c0 8.4-2.7 24-2.7 24l7.2.2 27 4.7s5.2 23.1-18.1 37.1c-16.9 10.1-62.7 12.3-68.9 12.3-30.5-.1-55.3-35.1-55.3-78.3z"/></defs><clipPath id="SVGID_5_"><use overflow="visible" xlink:href="#SVGID_4_"/></clipPath><g clip-path="url(#SVGID_5_)"><path d="M395.5 199.5h.2c1.2-.1 2.4-.2 3.7-.2 1 0 2 .1 3 .1l13.3-.1h18.6c25.8 0 46.8 29.3 46.8 65.5s-20.9 65.5-46.8 65.5h-34.9c-25.8 0-46.8-29.3-46.8-65.5 0-34.4 18.9-62.6 42.9-65.3z" class="st1"/><ellipse cx="395.5" cy="264.8" class="st31" rx="42.9" ry="60.3"/><ellipse cx="395.5" cy="264.8" class="st32" rx="34.3" ry="48.2"/><ellipse cx="395.5" cy="264.8" class="st33" rx="23.9" ry="33.6"/><ellipse cx="395.5" cy="264.8" class="st32" rx="7.3" ry="10.3"/></g><path d="M26.2 261.9c0-37.6 21.6-68.1 48.2-68.1s48.2 30.5 48.2 68.1v2.2c-42.9 3.3-75 12.7-93.9 19.7-1.6-6.8-2.5-14.2-2.5-21.9z" class="st1"/><g><defs><path id="SVGID_6_" d="M26.2 261.9c0-37.6 21.6-68.1 48.2-68.1s48.2 30.5 48.2 68.1c0 5.7-1.4 16.6-1.4 16.6l20.6.7S155.7 330 74.4 330c-26.6 0-48.2-30.5-48.2-68.1z"/></defs><clipPath id="SVGID_7_"><use overflow="visible" xlink:href="#SVGID_6_"/></clipPath><g clip-path="url(#SVGID_7_)"><path d="M69 206.2h.1c1.1-.1 2.1-.2 3.2-.2.9 0 1.7.1 2.6.1l11.6-.1h16.2c22.5 0 40.7 25.5 40.7 57.1 0 31.5-18.2 57.1-40.7 57.1H72.3c-22.5 0-40.7-25.5-40.7-57.1 0-30 16.4-54.5 37.4-56.9z" class="st1"/><ellipse cx="69" cy="263.1" class="st31" rx="37.4" ry="52.5"/><ellipse cx="69" cy="263.1" class="st32" rx="29.9" ry="42"/><ellipse cx="69" cy="263.1" class="st33" rx="21.6" ry="30.4"/><ellipse cx="69" cy="263.1" class="st32" rx="6.6" ry="9.3"/></g></g><path fill="none" stroke="#1a2f47" stroke-linecap="round" stroke-linejoin="round" stroke-miterlimit="10" stroke-width="4.102" d="M131.1 253.7s-9.7-73.3-53.6-74.7" opacity=".3"/></svg>