<?xml version="1.0" encoding="utf-8"?>
<!-- Generator: Adobe Illustrator 22.0.1, SVG Export Plug-In . SVG Version: 6.00 Build 0)  -->
<svg version="1.1" id="Layer_1" xmlns="http://www.w3.org/2000/svg" xmlns:xlink="http://www.w3.org/1999/xlink" x="0px" y="0px"
	 viewBox="0 0 1366 768" style="enable-background:new 0 0 1366 768;" xml:space="preserve">
<style type="text/css">
	.st0{opacity:0.2;fill:#063147;}
	.st1{fill:#383C3F;}
	.st2{fill:#C2C8CC;}
	.st3{fill:#E8F1F8;}
	.st4{fill:#6A6E70;}
	.st5{fill:#555556;}
	.st6{fill:#D5D5D5;}
	.st7{fill:#617077;}
	.st8{fill:#3D474C;}
	.st9{fill:url(#SVGID_1_);}
	.st10{fill:#D6D8DA;}
	.st11{fill:url(#SVGID_2_);}
	.st12{fill:#202628;}
	
		.st13{opacity:0.5;fill:none;stroke:#FFFFFF;stroke-width:8.2041;stroke-linecap:round;stroke-linejoin:round;stroke-miterlimit:10;}
	.st14{opacity:0.2;}
	.st15{fill:none;stroke:#1A2F47;stroke-width:4.1021;stroke-linecap:round;stroke-linejoin:round;stroke-miterlimit:10;}
	
		.st16{opacity:0.5;fill:none;stroke:#FFFFFF;stroke-width:3.8167;stroke-linecap:round;stroke-linejoin:round;stroke-miterlimit:10;}
	.st17{opacity:0.5;fill:none;stroke:#FFFFFF;stroke-width:1.911;stroke-linecap:round;stroke-linejoin:round;stroke-miterlimit:10;}
	.st18{fill:none;stroke:#1A2F47;stroke-width:0.6289;stroke-miterlimit:10;}
	.st19{fill:none;stroke:#1A2F47;stroke-width:1.0255;stroke-miterlimit:10;}
	.st20{fill:none;stroke:#FFFFFF;stroke-width:1.911;stroke-linecap:round;stroke-linejoin:round;stroke-miterlimit:10;}
	.st21{fill:#996665;}
	.st22{fill:url(#SVGID_3_);}
	
		.st23{opacity:0.75;fill:none;stroke:#FFFFFF;stroke-width:8.2041;stroke-linecap:round;stroke-linejoin:round;stroke-miterlimit:10;}
	.st24{fill:#495559;}
	.st25{opacity:0.5;fill:#202628;}
	.st26{fill:#FFFFFF;}
	.st27{opacity:0.3;}
	.st28{opacity:0.5;fill:#FFFFFF;}
	.st29{opacity:0.3;fill:#FFFFFF;}
	.st30{clip-path:url(#SVGID_5_);}
	.st31{fill:#585E61;}
	.st32{fill:#9B9D9E;}
	.st33{fill:#A9AAAB;}
	.st34{clip-path:url(#SVGID_7_);}
	
		.st35{opacity:0.3;fill:none;stroke:#1A2F47;stroke-width:4.1021;stroke-linecap:round;stroke-linejoin:round;stroke-miterlimit:10;}
</style>
<g>
	<path class="st0" d="M1025.9,535.8c0,0-290.1,20-365.6,18.3s-301.5-14.2-319.4-20.3c-17.9-6.1-26.3-27.3,159.1-17
		S1017.2,485,1025.9,535.8z"/>
	<g>
		<path class="st1" d="M931.6,396.8L931.6,396.8l0.2,0c1.2-0.1,2.4-0.2,3.7-0.2c1,0,2,0.1,3,0.1l13.3-0.1h18.6
			c25.8,0,46.8,29.3,46.8,65.5c0,36.2-20.9,65.5-46.8,65.5h-19.3h-15.6c-25.8,0-46.8-29.3-46.8-65.5
			C888.6,427.7,907.6,399.5,931.6,396.8z"/>
		<ellipse class="st1" cx="931.6" cy="462.1" rx="42.9" ry="60.3"/>
		<ellipse class="st1" cx="931.6" cy="462.1" rx="34.3" ry="48.2"/>
		<path class="st1" d="M931.6,447.5h15.8v29.1h-15.8c-5.7,0-10.3-6.5-10.3-14.5C921.2,454,925.9,447.5,931.6,447.5z"/>
		<path class="st1" d="M935.3,447.5h15.8v29.1h-15.8c-5.7,0-10.3-6.5-10.3-14.5C924.9,454,929.6,447.5,935.3,447.5z"/>
	</g>
	<path class="st2" d="M1033.5,470.9v-64.8l-19.6-44.6l-113.4-42.6c0,0-70.1-55.4-114.3-71.3l-45.4-13.5c0,0-177.9-22.7-327.6,18.4
		l-72.4,74.8l-17.2,86.5l4.3,51.5l14.1,16l92,9.2l235.6,9.2h105.5l53.4,9.2l165-9.8l24.5-11.7l15.3-2.5V470.9z"/>
	<path class="st3" d="M807.6,497.8l216.9-12.1c3.5-0.2,6.3-3.3,6.1-6.8v0c-0.2-3.5-3.3-6.3-6.8-6.1l-216.9,12.1
		c-3.5,0.2-6.3,3.3-6.1,6.8l0,0C801,495.2,804,498,807.6,497.8z"/>
	<path class="st4" d="M816.4,481.6l202.5-9.4c6.8-0.3,12.4-5.7,12.9-12.5l0.1-1.8c0.7-8.2-6-15.1-14.2-14.7l-202.5,9.4
		c-6.8,0.3-12.4,5.7-12.9,12.5l-0.1,1.8C801.5,475.1,808.2,482,816.4,481.6z"/>
	<path class="st5" d="M1017.1,458.3l-0.2,1.2c-0.7,4.5-6.4,8.1-13.3,8.4l-197.9,9.2c-2.4-2.7-3.8-6.3-3.5-10.2l0.1-1.8
		c0.2-2.6,1.2-5,2.7-7l197.9-9.2C1011.3,448.5,1017.9,452.9,1017.1,458.3z"/>
	<polygon class="st4" points="1017.5,377 834.7,388.7 853.1,411.4 1022.4,400.3 	"/>
	<polygon class="st6" points="1033.5,406.1 1033.5,407.9 1005.9,400.9 1009.5,378.8 1013.9,361.7 	"/>
	<polygon class="st6" points="883.2,407.7 870.9,388 810.8,371.6 765.4,371.6 786.8,407.7 867.2,417.5 	"/>
	<path class="st7" d="M894.2,321.2c0,0-70.1-55.4-114.3-71.3H611.4l78.5,80.5L894.2,321.2z"/>
	<polygon class="st8" points="588.1,252.5 534.7,246.9 440.8,256.8 394.2,303.4 408.9,322.4 639.6,349.4 673.4,337 604,263.5 	"/>
	
		<linearGradient id="SVGID_1_" gradientUnits="userSpaceOnUse" x1="578.1772" y1="242.0204" x2="947.554" y2="242.0204" gradientTransform="matrix(-1 0 0 1 1357.1096 0)">
		<stop  offset="0" style="stop-color:#FFFFFF"/>
		<stop  offset="1" style="stop-color:#FFFFFF;stop-opacity:0"/>
	</linearGradient>
	<path class="st9" d="M740.8,234.1l38.1,11.3c-37-3.1-208.7-15.4-369.4,10.9l3.7-3.8C562.9,211.4,740.8,234.1,740.8,234.1z"/>
	<path class="st10" d="M924.9,474.4L924.9,474.4c-1.3,0-2.4-1.1-2.4-2.4v-19.7c0-1.3,1.1-2.4,2.4-2.4l0,0c1.3,0,2.4,1.1,2.4,2.4
		v19.7C927.3,473.3,926.3,474.4,924.9,474.4z"/>
	<path class="st10" d="M909.7,474.4L909.7,474.4c-1.3,0-2.4-1.1-2.4-2.4v-19.7c0-1.3,1.1-2.4,2.4-2.4l0,0c1.3,0,2.4,1.1,2.4,2.4
		v19.7C912.1,473.3,911,474.4,909.7,474.4z"/>
	<path class="st10" d="M894.9,476.2L894.9,476.2c-1.3,0-2.4-1.1-2.4-2.4V454c0-1.3,1.1-2.4,2.4-2.4l0,0c1.3,0,2.4,1.1,2.4,2.4v19.7
		C897.3,475.1,896.3,476.2,894.9,476.2z"/>
	<path class="st10" d="M879.7,476.2L879.7,476.2c-1.3,0-2.4-1.1-2.4-2.4V454c0-1.3,1.1-2.4,2.4-2.4l0,0c1.3,0,2.4,1.1,2.4,2.4v19.7
		C882.1,475.1,881,476.2,879.7,476.2z"/>
	<path class="st10" d="M865.1,476.4L865.1,476.4c-1.3,0-2.4-1.1-2.4-2.4v-19.7c0-1.3,1.1-2.4,2.4-2.4l0,0c1.3,0,2.4,1.1,2.4,2.4V474
		C867.5,475.3,866.4,476.4,865.1,476.4z"/>
	<path class="st10" d="M1001.9,470.7L1001.9,470.7c-1.3,0-2.4-1.1-2.4-2.4v-19.7c0-1.3,1.1-2.4,2.4-2.4l0,0c1.3,0,2.4,1.1,2.4,2.4
		v19.7C1004.3,469.6,1003.2,470.7,1001.9,470.7z"/>
	<path class="st10" d="M986.6,470.7L986.6,470.7c-1.3,0-2.4-1.1-2.4-2.4v-19.7c0-1.3,1.1-2.4,2.4-2.4l0,0c1.3,0,2.4,1.1,2.4,2.4
		v19.7C989,469.6,988,470.7,986.6,470.7z"/>
	<path class="st10" d="M971.9,472.5L971.9,472.5c-1.3,0-2.4-1.1-2.4-2.4v-19.7c0-1.3,1.1-2.4,2.4-2.4l0,0c1.3,0,2.4,1.1,2.4,2.4
		v19.7C974.3,471.4,973.2,472.5,971.9,472.5z"/>
	<path class="st10" d="M956.6,472.5L956.6,472.5c-1.3,0-2.4-1.1-2.4-2.4v-19.7c0-1.3,1.1-2.4,2.4-2.4l0,0c1.3,0,2.4,1.1,2.4,2.4
		v19.7C959,471.4,958,472.5,956.6,472.5z"/>
	<path class="st10" d="M942.1,472.7L942.1,472.7c-1.3,0-2.4-1.1-2.4-2.4v-19.7c0-1.3,1.1-2.4,2.4-2.4l0,0c1.3,0,2.4,1.1,2.4,2.4
		v19.7C944.5,471.7,943.4,472.7,942.1,472.7z"/>
	<path class="st10" d="M849.9,476.4L849.9,476.4c-1.3,0-2.4-1.1-2.4-2.4v-19.7c0-1.3,1.1-2.4,2.4-2.4l0,0c1.3,0,2.4,1.1,2.4,2.4V474
		C852.3,475.3,851.2,476.4,849.9,476.4z"/>
	<path class="st10" d="M835.9,479.2L835.9,479.2c-1.3,0-2.4-1.1-2.4-2.4v-22.3c0-1.3,1.1-2.4,2.4-2.4l0,0c1.3,0,2.4,1.1,2.4,2.4
		v22.3C838.3,478.1,837.2,479.2,835.9,479.2z"/>
	<path class="st10" d="M820.6,479.2L820.6,479.2c-1.3,0-2.4-1.1-2.4-2.4v-20.5c0-1.3,1.1-2.4,2.4-2.4l0,0c1.3,0,2.4,1.1,2.4,2.4
		v20.5C823.1,478.1,822,479.2,820.6,479.2z"/>
	
		<linearGradient id="SVGID_2_" gradientUnits="userSpaceOnUse" x1="591.7427" y1="354.3151" x2="718.5865" y2="354.3151" gradientTransform="matrix(-1 0 0 1 1357.1096 0)">
		<stop  offset="0" style="stop-color:#FFFFFF"/>
		<stop  offset="1" style="stop-color:#FFFFFF;stop-opacity:0"/>
	</linearGradient>
	<polygon class="st11" points="638.5,359.2 664.4,344.7 657.4,342.9 673.4,337 765.4,371.6 687,350.7 	"/>
	<polygon class="st12" points="401.6,312.9 394.2,303.4 440.8,256.8 444.6,256.4 	"/>
	<polygon class="st12" points="538.9,247.4 512.7,334.5 505.5,333.7 536.4,247.1 	"/>
	<path class="st13" d="M831.3,396.2c-15.8-1.7-31.7-3.5-47.5-5.2"/>
	<g class="st14">
		<circle class="st15" cx="850.5" cy="400.8" r="6.3"/>
		<path class="st15" d="M833.5,397c0,1.6,1.3,2.8,2.8,2.8c1.6,0,2.8-1.3,2.8-2.8c0-1.6-1.3-2.8-2.8-2.8
			C834.8,394.2,833.5,395.5,833.5,397z"/>
		<path class="st15" d="M830.7,387.7c-15.8-1.7-31.7-3.5-47.5-5.2"/>
		<path class="st15" d="M829.5,402.8c-8.4-0.6-16.8-1.2-25.2-1.8"/>
		<path class="st15" d="M864.1,419.3c1-0.3,15-4.6,16-13.2c0.3-2.6-0.3-7.9-13.8-17.2c-26.3-18.1-54.3-19.8-58-19.9
			c-9.5-0.4-25,0.3-43.3,6.7"/>
	</g>
	<path class="st16" d="M1025.7,389.1c-3.4,1.8-6.8,3.6-10.2,5.4"/>
	<path class="st17" d="M1021.2,381.1c-1.7,0.8-3.4,1.6-5.1,2.4"/>
	<path class="st18" d="M999.8,387.9c-88.5,0.8-107.4,1.5-107.4,2c0,1.1,101,0.7,101.1,4.2c0.1,2.5-53,6.1-99.9,8.8"/>
	<path class="st19" d="M434.1,257.1c0,0,82-29.3,336.5-14.2"/>
	<path class="st20" d="M778.6,485.3c0,0,6.4-81.3-54.8-91.7"/>
	<path class="st20" d="M1004.3,406c0,0-34.6,8.1-77,7.8c-42.3-0.3-44.2-2.4-44.2-2.4"/>
	<path class="st20" d="M1012.5,367.4c0,0,7.5,9.5-14.9,10.9s-124.2,8.5-124.2,8.5s-11.8-1.5-21.1-7.7"/>
	<polygon class="st21" points="339.6,328.5 344.8,347 340.8,374.9 330.9,377.4 	"/>
	
		<linearGradient id="SVGID_3_" gradientUnits="userSpaceOnUse" x1="678.5547" y1="305.9843" x2="1016.2936" y2="305.9843" gradientTransform="matrix(-1 0 0 1 1357.1096 0)">
		<stop  offset="0" style="stop-color:#FFFFFF"/>
		<stop  offset="1" style="stop-color:#FFFFFF;stop-opacity:0"/>
	</linearGradient>
	<polygon class="st22" points="396,335 340.8,327.3 412.9,252.8 434.1,257.1 440.8,256.8 394.2,303.4 408.9,322.4 639.6,349.4 
		678.6,337 637.8,359.2 	"/>
	<line class="st23" x1="467.1" y1="344.7" x2="431.6" y2="341.6"/>
	<polygon class="st24" points="534.7,246.9 511.7,249.3 477.1,330.4 505.9,333.7 	"/>
	<polygon class="st8" points="508.3,334 505.9,333.7 505.9,333.7 	"/>
	<polygon class="st7" points="394.2,303.4 401.6,312.9 444.6,256.4 440.8,256.8 511.7,249.3 477.1,330.4 408.9,322.4 	"/>
	<polygon class="st12" points="536.4,247.1 537.8,247.3 536.4,247.1 	"/>
	<polygon class="st12" points="512.7,334.5 508.3,334 512.7,334.5 	"/>
	<polygon class="st24" points="505.9,333.7 492.6,332.2 505.9,333.7 	"/>
	<polygon class="st24" points="505.5,333.7 511.4,317.2 505.9,333.7 	"/>
	<path class="st25" d="M611.4,249.9h168.6c9.5,3.4,20.2,8.7,31.2,14.8L742,328l-52.1,2.3L611.4,249.9z"/>
	<polygon class="st7" points="750.9,303.6 777.2,277.4 736.6,291.4 710.4,317.7 	"/>
	<path class="st26" d="M436.1,435.6c0,0-7.9-33.4-30.2-41.4c-22.4-8,0.9-12.9,0.9-12.9S435.3,408.4,436.1,435.6z"/>
	<path class="st26" d="M897.3,322.4c0,0-98.2,12.7-207.4,8L897.3,322.4z"/>
	<g class="st27">
		<polygon class="st28" points="401.6,312.9 444.6,256.4 440.8,256.8 483.8,252.3 421.3,323.8 408.9,322.4 394.2,303.4 		"/>
		<polygon class="st28" points="491.7,251.4 491.7,251.4 491.7,251.4 		"/>
	</g>
	<polygon class="st7" points="649.7,311.9 587.4,343.3 513.7,334.7 620.4,280.9 	"/>
	<polygon class="st2" points="676.3,337 631.8,317.7 608.8,319.9 602.9,334 623.2,353.4 653.7,352.1 	"/>
	<path class="st19" d="M645.6,228c0,0-137.2,0-224.1,19.2c-19.8,4.4-66.7,62.7-66.7,62.7"/>
	<path class="st29" d="M531,382.7c0,0,0.2-12.4-13.1-12.9c-13.3-0.5-20,6.7-16.3,9.2c3.7,2.5,23.9,2.3,23.9,2.3"/>
	<path class="st1" d="M659.8,475.5c0-43.2,24.8-78.2,55.4-78.2c30.6,0,55.4,35,55.4,78.2c0,0.9,0,1.7,0,2.5
		c-49.3,3.8-86.1,14.6-107.8,22.6C660.9,492.8,659.8,484.3,659.8,475.5z"/>
	<g>
		<defs>
			<path id="SVGID_4_" d="M659.8,475.5c0-43.2,24.8-78.2,55.4-78.2c30.6,0,55.4,35,55.4,78.2c0,8.4-2.7,24-2.7,24l7.2,0.2l27,4.7
				c0,0,5.2,23.1-18.1,37.1c-16.9,10.1-62.7,12.3-68.9,12.3C684.6,553.7,659.8,518.7,659.8,475.5z"/>
		</defs>
		<clipPath id="SVGID_5_">
			<use xlink:href="#SVGID_4_"  style="overflow:visible;"/>
		</clipPath>
		<g class="st30">
			<path class="st1" d="M708.9,411.5L708.9,411.5l0.2,0c1.2-0.1,2.4-0.2,3.7-0.2c1,0,2,0.1,3,0.1l13.3-0.1h18.6
				c25.8,0,46.8,29.3,46.8,65.5c0,36.2-20.9,65.5-46.8,65.5h-19.3h-15.6c-25.8,0-46.8-29.3-46.8-65.5
				C666,442.4,684.9,414.2,708.9,411.5z"/>
			<ellipse class="st31" cx="708.9" cy="476.8" rx="42.9" ry="60.3"/>
			<ellipse class="st32" cx="708.9" cy="476.8" rx="34.3" ry="48.2"/>
			<ellipse class="st33" cx="708.9" cy="476.8" rx="23.9" ry="33.6"/>
			<ellipse class="st32" cx="708.9" cy="476.8" rx="7.3" ry="10.3"/>
		</g>
	</g>
	<path class="st1" d="M339.6,473.9c0-37.6,21.6-68.1,48.2-68.1c26.6,0,48.2,30.5,48.2,68.1c0,0.7,0,1.5,0,2.2
		c-42.9,3.3-75,12.7-93.9,19.7C340.5,489,339.6,481.6,339.6,473.9z"/>
	<g>
		<defs>
			<path id="SVGID_6_" d="M339.6,473.9c0-37.6,21.6-68.1,48.2-68.1s48.2,30.5,48.2,68.1c0,5.7-1.4,16.6-1.4,16.6l20.6,0.7
				c0,0,13.9,50.8-67.4,50.8C361.2,542,339.6,511.5,339.6,473.9z"/>
		</defs>
		<clipPath id="SVGID_7_">
			<use xlink:href="#SVGID_6_"  style="overflow:visible;"/>
		</clipPath>
		<g class="st34">
			<path class="st1" d="M382.4,418.2L382.4,418.2l0.1,0c1.1-0.1,2.1-0.2,3.2-0.2c0.9,0,1.7,0.1,2.6,0.1l11.6-0.1h16.2
				c22.5,0,40.7,25.5,40.7,57.1c0,31.5-18.2,57.1-40.7,57.1h-16.8h-13.6c-22.5,0-40.7-25.5-40.7-57.1
				C345,445.1,361.4,420.6,382.4,418.2z"/>
			<ellipse class="st31" cx="382.4" cy="475.1" rx="37.4" ry="52.5"/>
			<ellipse class="st32" cx="382.4" cy="475.1" rx="29.9" ry="42"/>
			<ellipse class="st33" cx="382.4" cy="475.1" rx="21.6" ry="30.4"/>
			<ellipse class="st32" cx="382.4" cy="475.1" rx="6.6" ry="9.3"/>
		</g>
	</g>
	<path class="st35" d="M444.5,465.7c0,0-9.7-73.3-53.6-74.7"/>
</g>
</svg>
