<svg id="Layer_1" xmlns="http://www.w3.org/2000/svg" xmlns:xlink="http://www.w3.org/1999/xlink" viewBox="0 0 1366 768"><style>.st1{fill:#383c3f}.st2{fill:#c2c8cc}.st4{fill:#6a6e70}.st6{fill:#d5d5d5}.st7{fill:#617077}.st8{fill:#3d474c}.st10{fill:#d6d8da}.st12{fill:#202628}.st15,.st19,.st20{fill:none;stroke:#1a2f47;stroke-miterlimit:10}.st15{stroke-linecap:round;stroke-linejoin:round;stroke-width:4.1021}.st19,.st20{stroke-width:1.0255}.st20{stroke:#fff;stroke-width:1.911;stroke-linecap:round;stroke-linejoin:round}.st24{fill:#495559}.st26,.st28{fill:#fff}.st28{opacity:.5}.st31{fill:#585e61}.st32{fill:#9b9d9e}.st33{fill:#a9aaab}</style><path d="M1025.9 535.8s-290.1 20-365.6 18.3-301.5-14.2-319.4-20.3c-17.9-6.1-26.3-27.3 159.1-17s517.2-31.8 525.9 19z" opacity=".2" fill="#063147"/><path class="st1" d="M931.6 396.8h.2c1.2-.1 2.4-.2 3.7-.2 1 0 2 .1 3 .1l13.3-.1h18.6c25.8 0 46.8 29.3 46.8 65.5s-20.9 65.5-46.8 65.5h-34.9c-25.8 0-46.8-29.3-46.8-65.5-.1-34.4 18.9-62.6 42.9-65.3z"/><ellipse class="st1" cx="931.6" cy="462.1" rx="42.9" ry="60.3"/><ellipse class="st1" cx="931.6" cy="462.1" rx="34.3" ry="48.2"/><path class="st1" d="M931.6 447.5h15.8v29.1h-15.8c-5.7 0-10.3-6.5-10.3-14.5-.1-8.1 4.6-14.6 10.3-14.6z"/><path class="st1" d="M935.3 447.5h15.8v29.1h-15.8c-5.7 0-10.3-6.5-10.3-14.5-.1-8.1 4.6-14.6 10.3-14.6z"/><path class="st2" d="M1033.5 470.9v-64.8l-19.6-44.6-113.4-42.6s-70.1-55.4-114.3-71.3l-45.4-13.5s-177.9-22.7-327.6 18.4l-72.4 74.8-17.2 86.5 4.3 51.5 14.1 16 92 9.2 235.6 9.2h105.5l53.4 9.2 165-9.8 24.5-11.7 15.3-2.5v-14z"/><path d="M807.6 497.8l216.9-12.1c3.5-.2 6.3-3.3 6.1-6.8-.2-3.5-3.3-6.3-6.8-6.1l-216.9 12.1c-3.5.2-6.3 3.3-6.1 6.8.2 3.5 3.2 6.3 6.8 6.1z" fill="#e8f1f8"/><path class="st4" d="M816.4 481.6l202.5-9.4c6.8-.3 12.4-5.7 12.9-12.5l.1-1.8c.7-8.2-6-15.1-14.2-14.7l-202.5 9.4c-6.8.3-12.4 5.7-12.9 12.5l-.1 1.8c-.7 8.2 6 15.1 14.2 14.7z"/><path d="M1017.1 458.3l-.2 1.2c-.7 4.5-6.4 8.1-13.3 8.4l-197.9 9.2c-2.4-2.7-3.8-6.3-3.5-10.2l.1-1.8c.2-2.6 1.2-5 2.7-7l197.9-9.2c8.4-.4 15 4 14.2 9.4z" fill="#555556"/><path class="st4" d="M1017.5 377l-182.8 11.7 18.4 22.7 169.3-11.1z"/><path class="st6" d="M1033.5 406.1v1.8l-27.6-7 3.6-22.1 4.4-17.1zM883.2 407.7L870.9 388l-60.1-16.4h-45.4l21.4 36.1 80.4 9.8z"/><path class="st7" d="M894.2 321.2s-70.1-55.4-114.3-71.3H611.4l78.5 80.5 204.3-9.2z"/><path class="st8" d="M588.1 252.5l-53.4-5.6-93.9 9.9-46.6 46.6 14.7 19 230.7 27 33.8-12.4-69.4-73.5z"/><linearGradient id="SVGID_1_" gradientUnits="userSpaceOnUse" x1="578.177" y1="242.02" x2="947.554" y2="242.02" gradientTransform="matrix(-1 0 0 1 1357.11 0)"><stop offset="0" stop-color="#fff"/><stop offset="1" stop-color="#fff" stop-opacity="0"/></linearGradient><path d="M740.8 234.1l38.1 11.3c-37-3.1-208.7-15.4-369.4 10.9l3.7-3.8c149.7-41.1 327.6-18.4 327.6-18.4z" fill="url(#SVGID_1_)"/><path class="st10" d="M924.9 474.4c-1.3 0-2.4-1.1-2.4-2.4v-19.7c0-1.3 1.1-2.4 2.4-2.4 1.3 0 2.4 1.1 2.4 2.4V472c0 1.3-1 2.4-2.4 2.4zM909.7 474.4c-1.3 0-2.4-1.1-2.4-2.4v-19.7c0-1.3 1.1-2.4 2.4-2.4 1.3 0 2.4 1.1 2.4 2.4V472c0 1.3-1.1 2.4-2.4 2.4zM894.9 476.2c-1.3 0-2.4-1.1-2.4-2.4V454c0-1.3 1.1-2.4 2.4-2.4 1.3 0 2.4 1.1 2.4 2.4v19.7c0 1.4-1 2.5-2.4 2.5zM879.7 476.2c-1.3 0-2.4-1.1-2.4-2.4V454c0-1.3 1.1-2.4 2.4-2.4 1.3 0 2.4 1.1 2.4 2.4v19.7c0 1.4-1.1 2.5-2.4 2.5zM865.1 476.4c-1.3 0-2.4-1.1-2.4-2.4v-19.7c0-1.3 1.1-2.4 2.4-2.4 1.3 0 2.4 1.1 2.4 2.4V474c0 1.3-1.1 2.4-2.4 2.4zM1001.9 470.7c-1.3 0-2.4-1.1-2.4-2.4v-19.7c0-1.3 1.1-2.4 2.4-2.4 1.3 0 2.4 1.1 2.4 2.4v19.7c0 1.3-1.1 2.4-2.4 2.4zM986.6 470.7c-1.3 0-2.4-1.1-2.4-2.4v-19.7c0-1.3 1.1-2.4 2.4-2.4 1.3 0 2.4 1.1 2.4 2.4v19.7c0 1.3-1 2.4-2.4 2.4zM971.9 472.5c-1.3 0-2.4-1.1-2.4-2.4v-19.7c0-1.3 1.1-2.4 2.4-2.4 1.3 0 2.4 1.1 2.4 2.4v19.7c0 1.3-1.1 2.4-2.4 2.4zM956.6 472.5c-1.3 0-2.4-1.1-2.4-2.4v-19.7c0-1.3 1.1-2.4 2.4-2.4 1.3 0 2.4 1.1 2.4 2.4v19.7c0 1.3-1 2.4-2.4 2.4zM942.1 472.7c-1.3 0-2.4-1.1-2.4-2.4v-19.7c0-1.3 1.1-2.4 2.4-2.4 1.3 0 2.4 1.1 2.4 2.4v19.7c0 1.4-1.1 2.4-2.4 2.4zM849.9 476.4c-1.3 0-2.4-1.1-2.4-2.4v-19.7c0-1.3 1.1-2.4 2.4-2.4 1.3 0 2.4 1.1 2.4 2.4V474c0 1.3-1.1 2.4-2.4 2.4zM835.9 479.2c-1.3 0-2.4-1.1-2.4-2.4v-22.3c0-1.3 1.1-2.4 2.4-2.4 1.3 0 2.4 1.1 2.4 2.4v22.3c0 1.3-1.1 2.4-2.4 2.4zM820.6 479.2c-1.3 0-2.4-1.1-2.4-2.4v-20.5c0-1.3 1.1-2.4 2.4-2.4 1.3 0 2.4 1.1 2.4 2.4v20.5c.1 1.3-1 2.4-2.4 2.4z"/><linearGradient id="SVGID_2_" gradientUnits="userSpaceOnUse" x1="591.743" y1="354.315" x2="718.587" y2="354.315" gradientTransform="matrix(-1 0 0 1 1357.11 0)"><stop offset="0" stop-color="#fff"/><stop offset="1" stop-color="#fff" stop-opacity="0"/></linearGradient><path fill="url(#SVGID_2_)" d="M638.5 359.2l25.9-14.5-7-1.8 16-5.9 92 34.6-78.4-20.9z"/><path class="st12" d="M401.6 312.9l-7.4-9.5 46.6-46.6 3.8-.4zM538.9 247.4l-26.2 87.1-7.2-.8 30.9-86.6z"/><path d="M831.3 396.2c-15.8-1.7-31.7-3.5-47.5-5.2" opacity=".5" fill="none" stroke="#fff" stroke-width="8.204" stroke-linecap="round" stroke-linejoin="round" stroke-miterlimit="10"/><g opacity=".2"><circle class="st15" cx="850.5" cy="400.8" r="6.3"/><path class="st15" d="M833.5 397c0 1.6 1.3 2.8 2.8 2.8 1.6 0 2.8-1.3 2.8-2.8 0-1.6-1.3-2.8-2.8-2.8-1.5 0-2.8 1.3-2.8 2.8zM830.7 387.7c-15.8-1.7-31.7-3.5-47.5-5.2M829.5 402.8l-25.2-1.8"/><path class="st15" d="M864.1 419.3c1-.3 15-4.6 16-13.2.3-2.6-.3-7.9-13.8-17.2-26.3-18.1-54.3-19.8-58-19.9-9.5-.4-25 .3-43.3 6.7"/></g><path d="M1025.7 389.1l-10.2 5.4" opacity=".5" fill="none" stroke="#fff" stroke-width="3.817" stroke-linecap="round" stroke-linejoin="round" stroke-miterlimit="10"/><path d="M1021.2 381.1l-5.1 2.4" opacity=".5" fill="none" stroke="#fff" stroke-width="1.911" stroke-linecap="round" stroke-linejoin="round" stroke-miterlimit="10"/><path d="M999.8 387.9c-88.5.8-107.4 1.5-107.4 2 0 1.1 101 .7 101.1 4.2.1 2.5-53 6.1-99.9 8.8" fill="none" stroke="#1a2f47" stroke-width=".629" stroke-miterlimit="10"/><path class="st19" d="M434.1 257.1s82-29.3 336.5-14.2"/><path class="st20" d="M778.6 485.3s6.4-81.3-54.8-91.7M1004.3 406s-34.6 8.1-77 7.8c-42.3-.3-44.2-2.4-44.2-2.4M1012.5 367.4s7.5 9.5-14.9 10.9-124.2 8.5-124.2 8.5-11.8-1.5-21.1-7.7"/><path fill="#996665" d="M339.6 328.5l5.2 18.5-4 27.9-9.9 2.5z"/><linearGradient id="SVGID_3_" gradientUnits="userSpaceOnUse" x1="678.555" y1="305.984" x2="1016.294" y2="305.984" gradientTransform="matrix(-1 0 0 1 1357.11 0)"><stop offset="0" stop-color="#fff"/><stop offset="1" stop-color="#fff" stop-opacity="0"/></linearGradient><path fill="url(#SVGID_3_)" d="M396 335l-55.2-7.7 72.1-74.5 21.2 4.3 6.7-.3-46.6 46.6 14.7 19 230.7 27 39-12.4-40.8 22.2z"/><path opacity=".75" fill="none" stroke="#fff" stroke-width="8.204" stroke-linecap="round" stroke-linejoin="round" stroke-miterlimit="10" d="M467.1 344.7l-35.5-3.1"/><path class="st24" d="M534.7 246.9l-23 2.4-34.6 81.1 28.8 3.3z"/><path class="st8" d="M508.3 334l-2.4-.3z"/><path class="st7" d="M394.2 303.4l7.4 9.5 43-56.5-3.8.4 70.9-7.5-34.6 81.1-68.2-8z"/><path class="st12" d="M536.4 247.1l1.4.2-1.4-.2zM512.7 334.5l-4.4-.5 4.4.5z"/><path class="st24" d="M505.9 333.7l-13.3-1.5 13.3 1.5zM505.5 333.7l5.9-16.5-5.5 16.5z"/><path d="M611.4 249.9H780c9.5 3.4 20.2 8.7 31.2 14.8L742 328l-52.1 2.3-78.5-80.4z" opacity=".5" fill="#202628"/><path class="st7" d="M750.9 303.6l26.3-26.2-40.6 14-26.2 26.3z"/><path class="st26" d="M436.1 435.6s-7.9-33.4-30.2-41.4c-22.4-8 .9-12.9.9-12.9s28.5 27.1 29.3 54.3zM897.3 322.4s-98.2 12.7-207.4 8l207.4-8z"/><g opacity=".3"><path class="st28" d="M401.6 312.9l43-56.5-3.8.4 43-4.5-62.5 71.5-12.4-1.4-14.7-19zM491.7 251.4z"/></g><path class="st7" d="M649.7 311.9l-62.3 31.4-73.7-8.6 106.7-53.8z"/><path class="st2" d="M676.3 337l-44.5-19.3-23 2.2-5.9 14.1 20.3 19.4 30.5-1.3z"/><path class="st19" d="M645.6 228s-137.2 0-224.1 19.2c-19.8 4.4-66.7 62.7-66.7 62.7"/><path d="M531 382.7s.2-12.4-13.1-12.9c-13.3-.5-20 6.7-16.3 9.2 3.7 2.5 23.9 2.3 23.9 2.3" opacity=".3" fill="#fff"/><path class="st1" d="M659.8 475.5c0-43.2 24.8-78.2 55.4-78.2 30.6 0 55.4 35 55.4 78.2v2.5c-49.3 3.8-86.1 14.6-107.8 22.6-1.9-7.8-3-16.3-3-25.1z"/><g><defs><path id="SVGID_4_" d="M659.8 475.5c0-43.2 24.8-78.2 55.4-78.2 30.6 0 55.4 35 55.4 78.2 0 8.4-2.7 24-2.7 24l7.2.2 27 4.7s5.2 23.1-18.1 37.1c-16.9 10.1-62.7 12.3-68.9 12.3-30.5-.1-55.3-35.1-55.3-78.3z"/></defs><clipPath id="SVGID_5_"><use xlink:href="#SVGID_4_" overflow="visible"/></clipPath><g clip-path="url(#SVGID_5_)"><path class="st1" d="M708.9 411.5h.2c1.2-.1 2.4-.2 3.7-.2 1 0 2 .1 3 .1l13.3-.1h18.6c25.8 0 46.8 29.3 46.8 65.5s-20.9 65.5-46.8 65.5h-34.9c-25.8 0-46.8-29.3-46.8-65.5 0-34.4 18.9-62.6 42.9-65.3z"/><ellipse class="st31" cx="708.9" cy="476.8" rx="42.9" ry="60.3"/><ellipse class="st32" cx="708.9" cy="476.8" rx="34.3" ry="48.2"/><ellipse class="st33" cx="708.9" cy="476.8" rx="23.9" ry="33.6"/><ellipse class="st32" cx="708.9" cy="476.8" rx="7.3" ry="10.3"/></g></g><path class="st1" d="M339.6 473.9c0-37.6 21.6-68.1 48.2-68.1s48.2 30.5 48.2 68.1v2.2c-42.9 3.3-75 12.7-93.9 19.7-1.6-6.8-2.5-14.2-2.5-21.9z"/><g><defs><path id="SVGID_6_" d="M339.6 473.9c0-37.6 21.6-68.1 48.2-68.1s48.2 30.5 48.2 68.1c0 5.7-1.4 16.6-1.4 16.6l20.6.7s13.9 50.8-67.4 50.8c-26.6 0-48.2-30.5-48.2-68.1z"/></defs><clipPath id="SVGID_7_"><use xlink:href="#SVGID_6_" overflow="visible"/></clipPath><g clip-path="url(#SVGID_7_)"><path class="st1" d="M382.4 418.2h.1c1.1-.1 2.1-.2 3.2-.2.9 0 1.7.1 2.6.1l11.6-.1h16.2c22.5 0 40.7 25.5 40.7 57.1 0 31.5-18.2 57.1-40.7 57.1h-30.4c-22.5 0-40.7-25.5-40.7-57.1 0-30 16.4-54.5 37.4-56.9z"/><ellipse class="st31" cx="382.4" cy="475.1" rx="37.4" ry="52.5"/><ellipse class="st32" cx="382.4" cy="475.1" rx="29.9" ry="42"/><ellipse class="st33" cx="382.4" cy="475.1" rx="21.6" ry="30.4"/><ellipse class="st32" cx="382.4" cy="475.1" rx="6.6" ry="9.3"/></g></g><path d="M444.5 465.7s-9.7-73.3-53.6-74.7" opacity=".3" fill="none" stroke="#1a2f47" stroke-width="4.102" stroke-linecap="round" stroke-linejoin="round" stroke-miterlimit="10"/></svg>
