<?xml version="1.0" encoding="utf-8"?>
<!-- Generator: Adobe Illustrator 22.1.0, SVG Export Plug-In . SVG Version: 6.00 Build 0)  -->
<svg version="1.1" id="Capa_1" xmlns="http://www.w3.org/2000/svg" xmlns:xlink="http://www.w3.org/1999/xlink" x="0px" y="0px"
	 viewBox="0 0 735.1 361.2" style="enable-background:new 0 0 735.1 361.2;" xml:space="preserve">
<style type="text/css">
	.st0{opacity:0.2;fill:#063147;enable-background:new    ;}
	.st1{fill:#383C3F;}
	.st2{fill:#C2C8CC;}
	.st3{fill:#E8F1F8;}
	.st4{fill:#6A6E70;}
	.st5{fill:#555556;}
	.st6{fill:#D5D5D5;}
	.st7{fill:#617077;}
	.st8{fill:#3D474C;}
	.st9{fill:url(#SVGID_1_);}
	.st10{fill:#D6D8DA;}
	.st11{fill:url(#SVGID_2_);}
	.st12{fill:#202628;}
	
		.st13{opacity:0.5;fill:none;stroke:#FFFFFF;stroke-width:8.204;stroke-linecap:round;stroke-linejoin:round;stroke-miterlimit:10;enable-background:new    ;}
	.st14{opacity:0.2;}
	.st15{fill:none;stroke:#1A2F47;stroke-width:4.1021;stroke-linecap:round;stroke-linejoin:round;stroke-miterlimit:10;}
	
		.st16{opacity:0.5;fill:none;stroke:#FFFFFF;stroke-width:3.817;stroke-linecap:round;stroke-linejoin:round;stroke-miterlimit:10;enable-background:new    ;}
	
		.st17{opacity:0.5;fill:none;stroke:#FFFFFF;stroke-width:1.911;stroke-linecap:round;stroke-linejoin:round;stroke-miterlimit:10;enable-background:new    ;}
	.st18{fill:none;stroke:#1A2F47;stroke-width:0.629;stroke-miterlimit:10;}
	.st19{fill:none;stroke:#1A2F47;stroke-width:1.0255;stroke-miterlimit:10;}
	.st20{fill:none;stroke:#FFFFFF;stroke-width:1.911;stroke-linecap:round;stroke-linejoin:round;stroke-miterlimit:10;}
	.st21{fill:#996665;}
	.st22{fill:url(#SVGID_3_);}
	
		.st23{opacity:0.75;fill:none;stroke:#FFFFFF;stroke-width:8.204;stroke-linecap:round;stroke-linejoin:round;stroke-miterlimit:10;enable-background:new    ;}
	.st24{fill:#495559;}
	.st25{opacity:0.5;fill:#202628;enable-background:new    ;}
	.st26{fill:#FFFFFF;}
	.st27{opacity:0.3;}
	.st28{opacity:0.5;fill:#FFFFFF;enable-background:new    ;}
	.st29{opacity:0.3;fill:#FFFFFF;enable-background:new    ;}
	.st30{clip-path:url(#SVGID_5_);}
	.st31{fill:#585E61;}
	.st32{fill:#9B9D9E;}
	.st33{fill:#A9AAAB;}
	.st34{clip-path:url(#SVGID_7_);}
	
		.st35{opacity:0.3;fill:none;stroke:#1A2F47;stroke-width:4.102;stroke-linecap:round;stroke-linejoin:round;stroke-miterlimit:10;enable-background:new    ;}
</style>
<path class="st0" d="M712.5,323.8c0,0-290.1,20-365.6,18.3S45.4,327.9,27.5,321.8s-26.3-27.3,159.1-17S703.8,273,712.5,323.8
	L712.5,323.8z"/>
<path class="st1" d="M618.2,184.8h0.2c1.2-0.1,2.4-0.2,3.7-0.2c1,0,2,0.1,3,0.1l13.3-0.1H657c25.8,0,46.8,29.3,46.8,65.5
	s-20.9,65.5-46.8,65.5h-34.9c-25.8,0-46.8-29.3-46.8-65.5C575.2,215.7,594.2,187.5,618.2,184.8z"/>
<ellipse class="st1" cx="618.2" cy="250.1" rx="42.9" ry="60.3"/>
<ellipse class="st1" cx="618.2" cy="250.1" rx="34.3" ry="48.2"/>
<path class="st1" d="M618.2,235.5H634v29.1h-15.8c-5.7,0-10.3-6.5-10.3-14.5C607.8,242,612.5,235.5,618.2,235.5z"/>
<path class="st1" d="M621.9,235.5h15.8v29.1h-15.8c-5.7,0-10.3-6.5-10.3-14.5C611.5,242,616.2,235.5,621.9,235.5z"/>
<path class="st2" d="M720.1,258.9v-64.8l-19.6-44.6l-113.4-42.6c0,0-70.1-55.4-114.3-71.3l-45.4-13.5c0,0-177.9-22.7-327.6,18.4
	l-72.4,74.8l-17.2,86.5l4.3,51.5l14.1,16l92,9.2l235.6,9.2h105.5l53.4,9.2l165-9.8l24.5-11.7l15.3-2.5v-14H720.1z"/>
<path class="st3" d="M494.2,285.8l216.9-12.1c3.5-0.2,6.3-3.3,6.1-6.8s-3.3-6.3-6.8-6.1l-216.9,12.1c-3.5,0.2-6.3,3.3-6.1,6.8
	S490.6,286,494.2,285.8L494.2,285.8z"/>
<path class="st4" d="M503,269.6l202.5-9.4c6.8-0.3,12.4-5.7,12.9-12.5l0.1-1.8c0.7-8.2-6-15.1-14.2-14.7l-202.5,9.4
	c-6.8,0.3-12.4,5.7-12.9,12.5l-0.1,1.8C488.1,263.1,494.8,270,503,269.6z"/>
<path class="st5" d="M703.7,246.3l-0.2,1.2c-0.7,4.5-6.4,8.1-13.3,8.4l-197.9,9.2c-2.4-2.7-3.8-6.3-3.5-10.2l0.1-1.8
	c0.2-2.6,1.2-5,2.7-7l197.9-9.2C697.9,236.5,704.5,240.9,703.7,246.3L703.7,246.3z"/>
<path class="st4" d="M704.1,165l-182.8,11.7l18.4,22.7L709,188.3L704.1,165z"/>
<path class="st6" d="M720.1,194.1v1.8l-27.6-7l3.6-22.1l4.4-17.1L720.1,194.1z M569.8,195.7L557.5,176l-60.1-16.4H452l21.4,36.1
	l80.4,9.8L569.8,195.7z"/>
<path class="st7" d="M580.8,109.2c0,0-70.1-55.4-114.3-71.3H298l78.5,80.5L580.8,109.2z"/>
<path class="st8" d="M274.7,40.5l-53.4-5.6l-93.9,9.9L80.8,91.4l14.7,19l230.7,27L360,125l-69.4-73.5L274.7,40.5z"/>
<linearGradient id="SVGID_1_" gradientUnits="userSpaceOnUse" x1="830.8078" y1="313.9564" x2="1200.2078" y2="313.9564" gradientTransform="matrix(-1 0 0 -1 1296.3156 344.0595)">
	<stop  offset="0" style="stop-color:#FFFFFF"/>
	<stop  offset="1" style="stop-color:#FFFFFF;stop-opacity:0"/>
</linearGradient>
<path class="st9" d="M427.4,22.1l38.1,11.3c-37-3.1-208.7-15.4-369.4,10.9l3.7-3.8C249.5-0.6,427.4,22.1,427.4,22.1L427.4,22.1z"/>
<path class="st10" d="M611.5,262.4c-1.3,0-2.4-1.1-2.4-2.4v-19.7c0-1.3,1.1-2.4,2.4-2.4s2.4,1.1,2.4,2.4V260
	C613.9,261.3,612.9,262.4,611.5,262.4z M596.3,262.4c-1.3,0-2.4-1.1-2.4-2.4v-19.7c0-1.3,1.1-2.4,2.4-2.4s2.4,1.1,2.4,2.4V260
	C598.7,261.3,597.6,262.4,596.3,262.4z M581.5,264.2c-1.3,0-2.4-1.1-2.4-2.4V242c0-1.3,1.1-2.4,2.4-2.4s2.4,1.1,2.4,2.4v19.7
	C583.9,263.1,582.9,264.2,581.5,264.2L581.5,264.2z M566.3,264.2c-1.3,0-2.4-1.1-2.4-2.4V242c0-1.3,1.1-2.4,2.4-2.4s2.4,1.1,2.4,2.4
	v19.7C568.7,263.1,567.6,264.2,566.3,264.2L566.3,264.2z M551.7,264.4c-1.3,0-2.4-1.1-2.4-2.4v-19.7c0-1.3,1.1-2.4,2.4-2.4
	s2.4,1.1,2.4,2.4V262C554.1,263.3,553,264.4,551.7,264.4z M688.5,258.7c-1.3,0-2.4-1.1-2.4-2.4v-19.7c0-1.3,1.1-2.4,2.4-2.4
	s2.4,1.1,2.4,2.4v19.7C690.9,257.6,689.8,258.7,688.5,258.7z M673.2,258.7c-1.3,0-2.4-1.1-2.4-2.4v-19.7c0-1.3,1.1-2.4,2.4-2.4
	s2.4,1.1,2.4,2.4v19.7C675.6,257.6,674.6,258.7,673.2,258.7z M658.5,260.5c-1.3,0-2.4-1.1-2.4-2.4v-19.7c0-1.3,1.1-2.4,2.4-2.4
	s2.4,1.1,2.4,2.4v19.7C660.9,259.4,659.8,260.5,658.5,260.5z M643.2,260.5c-1.3,0-2.4-1.1-2.4-2.4v-19.7c0-1.3,1.1-2.4,2.4-2.4
	s2.4,1.1,2.4,2.4v19.7C645.6,259.4,644.6,260.5,643.2,260.5z M628.7,260.7c-1.3,0-2.4-1.1-2.4-2.4v-19.7c0-1.3,1.1-2.4,2.4-2.4
	s2.4,1.1,2.4,2.4v19.7C631.1,259.7,630,260.7,628.7,260.7z M536.5,264.4c-1.3,0-2.4-1.1-2.4-2.4v-19.7c0-1.3,1.1-2.4,2.4-2.4
	s2.4,1.1,2.4,2.4V262C538.9,263.3,537.8,264.4,536.5,264.4z M522.5,267.2c-1.3,0-2.4-1.1-2.4-2.4v-22.3c0-1.3,1.1-2.4,2.4-2.4
	s2.4,1.1,2.4,2.4v22.3C524.9,266.1,523.8,267.2,522.5,267.2z M507.2,267.2c-1.3,0-2.4-1.1-2.4-2.4v-20.5c0-1.3,1.1-2.4,2.4-2.4
	s2.4,1.1,2.4,2.4v20.5C509.7,266.1,508.6,267.2,507.2,267.2z"/>
<linearGradient id="SVGID_2_" gradientUnits="userSpaceOnUse" x1="844.3077" y1="201.7297" x2="971.2078" y2="201.7297" gradientTransform="matrix(-1 0 0 -1 1296.3156 344.0595)">
	<stop  offset="0" style="stop-color:#FFFFFF"/>
	<stop  offset="1" style="stop-color:#FFFFFF;stop-opacity:0"/>
</linearGradient>
<path class="st11" d="M325.1,147.2l25.9-14.5l-7-1.8l16-5.9l92,34.6l-78.4-20.9L325.1,147.2z"/>
<path class="st12" d="M88.2,100.9l-7.4-9.5l46.6-46.6l3.8-0.4L88.2,100.9z M225.5,35.4l-26.2,87.1l-7.2-0.8L223,35.1L225.5,35.4z"/>
<path class="st13" d="M517.9,184.2c-15.8-1.7-31.7-3.5-47.5-5.2"/>
<g class="st14">
	<circle class="st15" cx="537.1" cy="188.8" r="6.3"/>
	<path class="st15" d="M520.1,185c0,1.6,1.3,2.8,2.8,2.8c1.6,0,2.8-1.3,2.8-2.8c0-1.6-1.3-2.8-2.8-2.8S520.1,183.5,520.1,185z
		 M517.3,175.7c-15.8-1.7-31.7-3.5-47.5-5.2 M516.1,190.8l-25.2-1.8"/>
	<path class="st15" d="M550.7,207.3c1-0.3,15-4.6,16-13.2c0.3-2.6-0.3-7.9-13.8-17.2c-26.3-18.1-54.3-19.8-58-19.9
		c-9.5-0.4-25,0.3-43.3,6.7"/>
</g>
<path class="st16" d="M712.3,177.1l-10.2,5.4"/>
<path class="st17" d="M707.8,169.1l-5.1,2.4"/>
<path class="st18" d="M686.4,175.9c-88.5,0.8-107.4,1.5-107.4,2c0,1.1,101,0.7,101.1,4.2c0.1,2.5-53,6.1-99.9,8.8"/>
<path class="st19" d="M120.7,45.1c0,0,82-29.3,336.5-14.2"/>
<path class="st20" d="M465.2,273.3c0,0,6.4-81.3-54.8-91.7 M690.9,194c0,0-34.6,8.1-77,7.8c-42.3-0.3-44.2-2.4-44.2-2.4
	 M699.1,155.4c0,0,7.5,9.5-14.9,10.9S560,174.8,560,174.8s-11.8-1.5-21.1-7.7"/>
<path class="st21" d="M26.2,116.5l5.2,18.5l-4,27.9l-9.9,2.5L26.2,116.5z"/>
<linearGradient id="SVGID_3_" gradientUnits="userSpaceOnUse" x1="931.1077" y1="250.0297" x2="1268.9078" y2="250.0297" gradientTransform="matrix(-1 0 0 -1 1296.3156 344.0595)">
	<stop  offset="0" style="stop-color:#FFFFFF"/>
	<stop  offset="1" style="stop-color:#FFFFFF;stop-opacity:0"/>
</linearGradient>
<path class="st22" d="M82.6,123l-55.2-7.7l72.1-74.5l21.2,4.3l6.7-0.3L80.8,91.4l14.7,19l230.7,27l39-12.4l-40.8,22.2L82.6,123z"/>
<path class="st23" d="M153.7,132.7l-35.5-3.1"/>
<path class="st24" d="M221.3,34.9l-23,2.4l-34.6,81.1l28.8,3.3L221.3,34.9z"/>
<path class="st8" d="M194.9,122l-2.4-0.3L194.9,122z"/>
<path class="st7" d="M80.8,91.4l7.4,9.5l43-56.5l-3.8,0.4l70.9-7.5l-34.6,81.1l-68.2-8L80.8,91.4z"/>
<path class="st12" d="M223,35.1l1.4,0.2L223,35.1z M199.3,122.5l-4.4-0.5L199.3,122.5z"/>
<path class="st24" d="M192.5,121.7l-13.3-1.5L192.5,121.7z M192.1,121.7l5.9-16.5l-5.5,16.5H192.1z"/>
<path class="st25" d="M298,37.9h168.6c9.5,3.4,20.2,8.7,31.2,14.8L428.6,116l-52.1,2.3L298,37.9z"/>
<path class="st7" d="M437.5,91.6l26.3-26.2l-40.6,14L397,105.7L437.5,91.6z"/>
<path class="st26" d="M122.7,223.6c0,0-7.9-33.4-30.2-41.4c-22.4-8,0.9-12.9,0.9-12.9S121.9,196.4,122.7,223.6L122.7,223.6z
	 M583.9,110.4c0,0-98.2,12.7-207.4,8L583.9,110.4L583.9,110.4z"/>
<g class="st27">
	<path class="st28" d="M88.2,100.9l43-56.5l-3.8,0.4l43-4.5l-62.5,71.5l-12.4-1.4l-14.7-19L88.2,100.9z"/>
</g>
<path class="st7" d="M336.3,99.9L274,131.3l-73.7-8.6L307,68.9L336.3,99.9z"/>
<path class="st2" d="M362.9,125l-44.5-19.3l-23,2.2l-5.9,14.1l20.3,19.4l30.5-1.3L362.9,125z"/>
<path class="st19" d="M332.2,16c0,0-137.2,0-224.1,19.2c-19.8,4.4-66.7,62.7-66.7,62.7"/>
<path class="st29" d="M217.6,170.7c0,0,0.2-12.4-13.1-12.9s-20,6.7-16.3,9.2s23.9,2.3,23.9,2.3"/>
<path class="st1" d="M346.4,263.5c0-43.2,24.8-78.2,55.4-78.2s55.4,35,55.4,78.2v2.5c-49.3,3.8-86.1,14.6-107.8,22.6
	C347.5,280.8,346.4,272.3,346.4,263.5L346.4,263.5z"/>
<g>
	<defs>
		<path id="SVGID_4_" d="M346.4,263.5c0-43.2,24.8-78.2,55.4-78.2s55.4,35,55.4,78.2c0,8.4-2.7,24-2.7,24l7.2,0.2l27,4.7
			c0,0,5.2,23.1-18.1,37.1c-16.9,10.1-62.7,12.3-68.9,12.3C371.2,341.7,346.4,306.7,346.4,263.5L346.4,263.5z"/>
	</defs>
	<clipPath id="SVGID_5_">
		<use xlink:href="#SVGID_4_"  style="overflow:visible;"/>
	</clipPath>
	<g class="st30">
		<path class="st1" d="M395.5,199.5h0.2c1.2-0.1,2.4-0.2,3.7-0.2c1,0,2,0.1,3,0.1l13.3-0.1h18.6c25.8,0,46.8,29.3,46.8,65.5
			s-20.9,65.5-46.8,65.5h-34.9c-25.8,0-46.8-29.3-46.8-65.5C352.6,230.4,371.5,202.2,395.5,199.5z"/>
		<ellipse class="st31" cx="395.5" cy="264.8" rx="42.9" ry="60.3"/>
		<ellipse class="st32" cx="395.5" cy="264.8" rx="34.3" ry="48.2"/>
		<ellipse class="st33" cx="395.5" cy="264.8" rx="23.9" ry="33.6"/>
		<ellipse class="st32" cx="395.5" cy="264.8" rx="7.3" ry="10.3"/>
	</g>
</g>
<path class="st1" d="M26.2,261.9c0-37.6,21.6-68.1,48.2-68.1s48.2,30.5,48.2,68.1v2.2c-42.9,3.3-75,12.7-93.9,19.7
	C27.1,277,26.2,269.6,26.2,261.9L26.2,261.9z"/>
<g>
	<defs>
		<path id="SVGID_6_" d="M26.2,261.9c0-37.6,21.6-68.1,48.2-68.1s48.2,30.5,48.2,68.1c0,5.7-1.4,16.6-1.4,16.6l20.6,0.7
			c0,0,13.9,50.8-67.4,50.8C47.8,330,26.2,299.5,26.2,261.9L26.2,261.9z"/>
	</defs>
	<clipPath id="SVGID_7_">
		<use xlink:href="#SVGID_6_"  style="overflow:visible;"/>
	</clipPath>
	<g class="st34">
		<path class="st1" d="M69,206.2h0.1c1.1-0.1,2.1-0.2,3.2-0.2c0.9,0,1.7,0.1,2.6,0.1l11.6-0.1h16.2c22.5,0,40.7,25.5,40.7,57.1
			c0,31.5-18.2,57.1-40.7,57.1H72.3c-22.5,0-40.7-25.5-40.7-57.1C31.6,233.1,48,208.6,69,206.2L69,206.2z"/>
		<ellipse class="st31" cx="69" cy="263.1" rx="37.4" ry="52.5"/>
		<ellipse class="st32" cx="69" cy="263.1" rx="29.9" ry="42"/>
		<ellipse class="st33" cx="69" cy="263.1" rx="21.6" ry="30.4"/>
		<ellipse class="st32" cx="69" cy="263.1" rx="6.6" ry="9.3"/>
	</g>
</g>
<path class="st35" d="M131.1,253.7c0,0-9.7-73.3-53.6-74.7"/>
</svg>
